<svg xmlns="http://www.w3.org/2000/svg" xmlns:xlink="http://www.w3.org/1999/xlink" width="48" height="48" viewBox="0 0 48 48"><defs><style>.a{fill:#fff;stroke:#707070;}.b{clip-path:url(#a);}</style><clipPath id="a"><rect class="a" width="48" height="48" transform="translate(676 243)"/></clipPath></defs><g class="b" transform="translate(-676 -243)"><g transform="translate(676 243)"><path d="M47.691,26.138l-3.527-5.6a2.005,2.005,0,0,1-.263-1.492l1.4-6.466a2,2,0,0,0-1.346-2.331l-6.3-2.02a2,2,0,0,1-1.16-.974L33.412,1.4a2,2,0,0,0-2.53-.921l-6.125,2.5a2.007,2.007,0,0,1-1.515,0L17.118.484a2,2,0,0,0-2.53.921L11.5,7.257a2,2,0,0,1-1.16.974l-6.3,2.02A2,2,0,0,0,2.7,12.582l1.4,6.466a2,2,0,0,1-.263,1.492l-3.527,5.6a2,2,0,0,0,.468,2.651L6,32.842a2,2,0,0,1,.758,1.312l.9,6.555a2,2,0,0,0,2.062,1.73l6.611-.256a2.006,2.006,0,0,1,1.424.518l4.9,4.445a2,2,0,0,0,2.692,0l4.9-4.445a2,2,0,0,1,1.424-.518l6.61.256a2,2,0,0,0,2.062-1.73l.9-6.555A2.005,2.005,0,0,1,42,32.842l5.229-4.053A2,2,0,0,0,47.691,26.138ZM18.45,31.994l-5.838-4.078,2.4,5.561-1.6.69L9.732,25.64l1.675-.723,5.948,4.188L14.9,23.411l1.6-.691,3.681,8.527ZM22,30.462l-3.68-8.527,6.323-2.729.622,1.443-4.6,1.986.816,1.89,4.281-1.848.62,1.437L22.1,25.961l1,2.321,4.764-2.056.62,1.437Zm14.414-6.221L31.962,18.6,33.02,25.7l-1.867.806-5.715-7.648L27.2,18.1l3.814,5.3-.969-6.53,2.048-.884L36.157,21.3,34.9,14.78l1.733-.748,1.609,9.421Z"/></g></g></svg>