<svg xmlns="http://www.w3.org/2000/svg" xmlns:xlink="http://www.w3.org/1999/xlink" width="48" height="48" viewBox="0 0 48 48"><defs><style>.a{fill:#fff;stroke:#707070;}.b{clip-path:url(#a);}.c{fill:#231f20;}</style><clipPath id="a"><rect class="a" width="48" height="48" transform="translate(676 54)"/></clipPath></defs><g class="b" transform="translate(-676 -54)"><g transform="translate(676 54)"><path class="c" d="M47.9,30.516,42.62,22.151V6.763L40.469,4.612H7.531L5.38,6.763V22.151L.1,30.516Zm-9.585-21.6V19.651A57.667,57.667,0,0,0,24,18.05a57.667,57.667,0,0,0-14.318,1.6V8.914Z"/><path class="c" d="M0,33.163v4.3H5.012v5.923h4.3V37.464H38.687v5.923h4.3V37.464H48v-4.3Z"/><path class="c" d="M22.254,15.812V13.306c0-1.487-2.159-2.694-4.821-2.694s-4.821,1.206-4.821,2.694v3.761a40.462,40.462,0,0,1,4.8-.9C19.17,16,22.254,15.812,22.254,15.812Z"/><path class="c" d="M35.388,17.067V13.306c0-1.487-2.159-2.694-4.821-2.694s-4.821,1.206-4.821,2.694v2.506s3.084.187,4.844.354A40.457,40.457,0,0,1,35.388,17.067Z"/></g></g></svg>