<svg xmlns="http://www.w3.org/2000/svg" xmlns:xlink="http://www.w3.org/1999/xlink" width="26" height="26" viewBox="0 0 26 26"><defs><style>.a,.c{fill:#fff;}.a{stroke:#707070;}.b{clip-path:url(#a);}</style><clipPath id="a"><rect class="a" width="26" height="26" transform="translate(1646 303)"/></clipPath></defs><g class="b" transform="translate(-1646 -303)"><g transform="translate(1646 303)"><path class="c" d="M24.073,2.45H6.233A1.934,1.934,0,0,0,4.306,4.377V15.462a1.934,1.934,0,0,0,1.927,1.927h12.3L21.314,20.2a.6.6,0,0,0,.428.19.614.614,0,0,0,.618-.618V17.389h1.713A1.934,1.934,0,0,0,26,15.462V4.377A1.934,1.934,0,0,0,24.073,2.45Zm-15.1,9.539a1.784,1.784,0,1,1,1.784-1.784A1.8,1.8,0,0,1,8.968,11.989Zm6.256,0a1.784,1.784,0,1,1,1.784-1.784A1.8,1.8,0,0,1,15.224,11.989Zm6.232,0a1.784,1.784,0,1,1,1.784-1.784A1.8,1.8,0,0,1,21.457,11.989Z"/><path class="c" d="M3.212,15.51V11.727H1.261A1.269,1.269,0,0,0,0,12.988v7.279a1.251,1.251,0,0,0,1.261,1.308H2.379v1.57a.417.417,0,0,0,.4.4.394.394,0,0,0,.285-.119L4.9,21.6h8.088a1.269,1.269,0,0,0,1.261-1.261V18.53H6.233A3.025,3.025,0,0,1,3.212,15.51Z"/></g></g></svg>