<svg xmlns="http://www.w3.org/2000/svg" xmlns:xlink="http://www.w3.org/1999/xlink" width="48" height="48" viewBox="0 0 48 48"><defs><style>.a{fill:#fff;}.b{clip-path:url(#a);}</style><clipPath id="a"><rect class="a" width="48" height="48" transform="translate(489 54)"/></clipPath></defs><g class="b" transform="translate(-489 -54)"><g transform="translate(492.386 54)"><path d="M24.538,27.071c3.312,0,11.1-3.986,11.1-13.536C35.636,6.06,34.627,0,24.538,0s-11.1,6.06-11.1,13.535C13.439,23.085,21.226,27.071,24.538,27.071ZM15.1,11.276c.78-1.508,2.466-3.25,6.092-3.173,0,0,2.162,5.243,12.773,2.889.043.838.056,1.692.056,2.543A12.069,12.069,0,0,1,30.23,22.7a9.693,9.693,0,0,1-5.692,2.755A9.693,9.693,0,0,1,18.845,22.7a12.069,12.069,0,0,1-3.79-9.165C15.055,12.78,15.066,12.023,15.1,11.276Z" transform="translate(-3.924 0)"/><path d="M44.745,42.028c-.567-3.523-1.733-8.061-4.073-9.674-1.6-1.1-7.172-4.079-9.552-5.351l-.041-.022a.778.778,0,0,0-.847.074,10.112,10.112,0,0,1-4.06,1.961.778.778,0,0,0-.558.483l-1.473,3.884L22.668,29.5a.778.778,0,0,0-.558-.483,10.112,10.112,0,0,1-4.06-1.961.778.778,0,0,0-.847-.074c-2.352,1.257-7.994,4.3-9.586,5.368-2.693,1.814-3.871,8.381-4.079,9.679a.779.779,0,0,0,.035.383c.1.272,2.568,6.664,20.569,6.664s20.473-6.392,20.569-6.664A.777.777,0,0,0,44.745,42.028Zm-8.295-2.15-3.523,1.1-3.523-1.1v-1.9H36.45Z" transform="translate(-3.528 -1.076)"/></g></g></svg>