<svg xmlns="http://www.w3.org/2000/svg" xmlns:xlink="http://www.w3.org/1999/xlink" width="48" height="48" viewBox="0 0 48 48"><defs><style>.a{fill:#fff;stroke:#707070;}.b{clip-path:url(#a);}</style><clipPath id="a"><rect class="a" width="48" height="48" transform="translate(676 117)"/></clipPath></defs><g class="b" transform="translate(-676 -117)"><g transform="translate(676 117)"><path d="M16.288,24.616c.032-.513.063-1.028.13-1.547a30.642,30.642,0,0,1,.665-3.67c.166-.6.346-1.192.535-1.772.242-.565.478-1.128.714-1.677a14.4,14.4,0,0,1,1.843-2.913c.169-.216.337-.426.5-.636.187-.187.375-.369.556-.551a13.945,13.945,0,0,1,1.094-.992A14.5,14.5,0,0,1,24.442,9.43a12.349,12.349,0,0,1,1.734-.867c1-.4,1.566-.6,1.566-.6s-.484.384-1.329,1.006a18.59,18.59,0,0,0-1.45,1.2,21.966,21.966,0,0,0-1.712,1.673c-.309.308-.549.7-.842,1.052q-.213.273-.438.551c-.122.205-.247.411-.375.621a17.505,17.505,0,0,0-1.379,2.721q-.262.756-.531,1.531c-.123.537-.259,1.079-.408,1.62a29.282,29.282,0,0,0-.537,3.409c-.066.423-.1.849-.137,1.278,9.259,0,16.425.007,26.451.007.034-.44.053-.885.053-1.332A16.231,16.231,0,0,0,31.037,6.971a2.622,2.622,0,1,0-3.574,0A16.23,16.23,0,0,0,13.392,23.293c0,.446.016.885.049,1.324Z"/><rect width="37.494" height="3.308" transform="translate(10.506 25.593)"/><path d="M32.607,31.249c-1.906.926-8.55,3.322-8.55,3.322L16.2,34.079s4.493-1.25,6.234-1.641a1.19,1.19,0,0,0,.021-2.357c-.964,0-9.371.347-9.371.347l-5.582,2.01,1.477,9.35s1.149-1.967,2.3-1.967,11.117.265,12.469,0,9.6-5.908,10.585-6.566S34.52,30.322,32.607,31.249Z"/><path d="M0,33.443v12.12l8.552-1.6L6.412,32.315Z"/></g></g></svg>