<svg xmlns="http://www.w3.org/2000/svg" width="15" height="14" viewBox="0 0 15 14">
  <path id="Path_98" data-name="Path 98" d="M1265.158,727.324a4.369,4.369,0,0,1-6.75,0,4.121,4.121,0,0,0-4.125,4.2c0,2.884,2.55,5.234,6.413,8.8l1.087,1,1.087-1.007c3.862-3.563,6.413-5.913,6.413-8.8A4.121,4.121,0,0,0,1265.158,727.324Zm-3.3,11.864-.075.076-.075-.076c-3.57-3.289-5.925-5.463-5.925-7.668a2.586,2.586,0,0,1,2.625-2.67,2.932,2.932,0,0,1,2.677,1.8h1.4a2.912,2.912,0,0,1,2.67-1.8,2.586,2.586,0,0,1,2.625,2.67C1267.783,733.725,1265.428,735.9,1261.858,739.188Z" transform="translate(-1254.283 -727.324)" fill="#4fcaca"/>
</svg>
