<svg height="512pt" viewBox="0 0 512 512" width="512pt" xmlns="http://www.w3.org/2000/svg"><path d="m452 60h-246.730469l-30-60h-175.269531v452c0 33.085938 26.914062 60 60 60h392c33.085938 0 60-26.914062 60-60v-332h-60zm-362 392c0 16.542969-13.457031 30-30 30s-30-13.457031-30-30v-422h126.730469l30 60h235.269531v30h-332zm392-302v302c0 16.542969-13.457031 30-30 30h-340.050781c5.117187-8.828125 8.050781-19.078125 8.050781-30v-302zm0 0"/><path d="m226 362c10.871094 0 20.855469-3.878906 28.644531-10.320312l77.253907 46.351562c-.585938 2.902344-.898438 5.898438-.898438 8.96875 0 24.8125 20.1875 45 45 45s45-20.1875 45-45-20.1875-45-45-45c-10.871094 0-20.855469 3.878906-28.644531 10.320312l-77.253907-46.351562c.585938-2.902344.898438-5.898438.898438-8.96875s-.3125-6.066406-.898438-8.96875l77.253907-46.351562c7.789062 6.441406 17.773437 10.320312 28.644531 10.320312 24.8125 0 45-20.1875 45-45s-20.1875-45-45-45-45 20.1875-45 45c0 3.070312.3125 6.066406.898438 8.96875l-77.253907 46.351562c-7.789062-6.441406-17.773437-10.320312-28.644531-10.320312-24.8125 0-45 20.1875-45 45s20.1875 45 45 45zm150 30c8.269531 0 15 6.730469 15 15s-6.730469 15-15 15-15-6.730469-15-15 6.730469-15 15-15zm0-180c8.269531 0 15 6.730469 15 15s-6.730469 15-15 15-15-6.730469-15-15 6.730469-15 15-15zm-150 90c8.269531 0 15 6.730469 15 15s-6.730469 15-15 15-15-6.730469-15-15 6.730469-15 15-15zm0 0"/></svg>