<svg xmlns="http://www.w3.org/2000/svg" width="16.348" height="16.348" viewBox="0 0 16.348 16.348"><defs><style>.a{opacity:0.66;}.b{fill:#585858;fill-rule:evenodd;}</style></defs><g class="a"><g transform="translate(0 0)"><path class="b" d="M16.3,7.267a.532.532,0,0,0-.525-.4,1.8,1.8,0,0,1-1.235-3.141.454.454,0,0,0,.05-.616A8.088,8.088,0,0,0,13.293,1.8a.455.455,0,0,0-.621.05,1.884,1.884,0,0,1-2.039.458A1.816,1.816,0,0,1,9.529.532a.453.453,0,0,0-.4-.477,8.161,8.161,0,0,0-1.839,0,.455.455,0,0,0-.4.468A1.819,1.819,0,0,1,5.765,2.261,1.889,1.889,0,0,1,3.742,1.8a.456.456,0,0,0-.617-.052A8.119,8.119,0,0,0,1.8,3.056a.455.455,0,0,0,.049.621,1.811,1.811,0,0,1,.457,2.039A1.89,1.89,0,0,1,.53,6.822a.444.444,0,0,0-.472.4,8.188,8.188,0,0,0,0,1.859.541.541,0,0,0,.536.4A1.793,1.793,0,0,1,2.272,10.6a1.818,1.818,0,0,1-.457,2.021.454.454,0,0,0-.05.616A8.118,8.118,0,0,0,3.058,14.55.455.455,0,0,0,3.68,14.5a1.881,1.881,0,0,1,2.038-.458,1.813,1.813,0,0,1,1.106,1.774.454.454,0,0,0,.4.477,8.135,8.135,0,0,0,1.839,0,.455.455,0,0,0,.4-.468,1.817,1.817,0,0,1,1.118-1.743,1.886,1.886,0,0,1,2.024.461.457.457,0,0,0,.617.052,8.138,8.138,0,0,0,1.322-1.307.454.454,0,0,0-.049-.621,1.811,1.811,0,0,1-.458-2.039,1.83,1.83,0,0,1,1.672-1.108l.1,0a.455.455,0,0,0,.478-.4A8.181,8.181,0,0,0,16.3,7.267ZM8.19,10.918a2.726,2.726,0,1,1,2.726-2.726A2.729,2.729,0,0,1,8.19,10.918Z" transform="translate(-0.003 0)"/></g></g></svg>