<svg width="101" height="151" viewBox="0 0 101 151" fill="none" xmlns="http://www.w3.org/2000/svg">
<rect x="0.358582" width="100" height="150" rx="6" fill="#3B5998"/>
<path d="M12.3794 25.3959L12.5868 23.7671H11.2899V22.7101C11.2899 22.2645 11.471 21.8302 12.0519 21.8302H12.6415V20.4434C12.6415 20.4434 12.1064 20.3334 11.5949 20.3334C10.5268 20.3334 9.8287 21.1135 9.8287 22.5257V23.7671H8.64148V25.3959H9.8287V29.3334H11.2899V25.3959H12.3794Z" fill="white"/>
<path d="M14.6416 17H5.87012V15.2598L10.0098 10.8477C10.5781 10.2266 10.9971 9.68457 11.2666 9.22168C11.542 8.75879 11.6797 8.31934 11.6797 7.90332C11.6797 7.33496 11.5361 6.88965 11.249 6.56738C10.9619 6.23926 10.5518 6.0752 10.0186 6.0752C9.44434 6.0752 8.99023 6.27441 8.65625 6.67285C8.32812 7.06543 8.16406 7.58398 8.16406 8.22852H5.61523C5.61523 7.44922 5.7998 6.7373 6.16895 6.09277C6.54395 5.44824 7.07129 4.94434 7.75098 4.58105C8.43066 4.21191 9.20117 4.02734 10.0625 4.02734C11.3809 4.02734 12.4033 4.34375 13.1299 4.97656C13.8623 5.60938 14.2285 6.50293 14.2285 7.65723C14.2285 8.29004 14.0645 8.93457 13.7363 9.59082C13.4082 10.2471 12.8457 11.0117 12.0488 11.8848L9.13965 14.9521H14.6416V17Z" fill="white"/>
<path d="M88.454 124.937L88.2466 126.566L89.5435 126.566L89.5435 127.623C89.5435 128.069 89.3623 128.503 88.7815 128.503L88.1919 128.503L88.1919 129.89C88.1919 129.89 88.7269 130 89.2385 130C90.3065 130 91.0046 129.22 91.0046 127.808L91.0046 126.566L92.1919 126.566L92.1919 124.938L91.0046 124.937L91.0046 121L89.5435 121L89.5435 124.937L88.454 124.937Z" fill="white"/>
<path d="M86.1917 133.333L94.9632 133.333L94.9632 135.074L90.8236 139.486C90.2552 140.107 89.8363 140.649 89.5667 141.112C89.2914 141.575 89.1537 142.014 89.1537 142.43C89.1537 142.998 89.2972 143.444 89.5843 143.766C89.8714 144.094 90.2816 144.258 90.8148 144.258C91.389 144.258 91.8431 144.059 92.1771 143.661C92.5052 143.268 92.6693 142.749 92.6693 142.105L95.2181 142.105C95.2181 142.884 95.0335 143.596 94.6644 144.241C94.2894 144.885 93.7621 145.389 93.0824 145.752C92.4027 146.121 91.6322 146.306 90.7708 146.306C89.4525 146.306 88.43 145.99 87.7035 145.357C86.971 144.724 86.6048 143.83 86.6048 142.676C86.6048 142.043 86.7689 141.399 87.097 140.743C87.4251 140.086 87.9876 139.322 88.7845 138.449L91.6937 135.381L86.1917 135.381L86.1917 133.333Z" fill="white"/>
<path d="M40.5721 41.3187C40.2067 40.6806 40 40 40 39.1771C40 37.2859 41.5507 35.4999 43.5758 35.4999H45.0958C44.8908 34.9495 44.7271 34.2912 44.7271 33.5001C44.7271 30.3723 46.2975 29 48.6967 29C51.2636 29 51.1172 33.0792 51.6867 33.6664C52.6345 34.6438 53.754 36.5216 54.5517 37.25H58.6667C59.403 37.25 60 37.8656 60 38.625V48.9375C60 49.6969 59.403 50.3125 58.6667 50.3125H56C55.3795 50.3125 54.858 49.8753 54.7092 49.2834C52.8547 49.3264 51.5817 50.9996 47.3008 50.9996C47 50.9996 46.6667 51 46.375 51C43.1618 51 41.7089 49.306 41.6692 46.9038C41.1142 46.1121 40.8234 45.0509 40.9467 44.0253C40.5361 43.2325 40.3773 42.2918 40.5721 41.3187ZM43.145 43.6317C42.6217 44.5396 43.0925 45.7548 43.7258 46.1054C43.405 48.2014 44.4595 48.9371 45.9392 48.9371H47.515C50.5 48.9371 52.4329 47.312 54.6667 47.312V39.3125H54.2117C53.03 39.3125 51.3792 36.2664 50.2725 35.1248C49.0908 33.9062 49.4846 31.875 48.6967 31.0625C46.7271 31.0625 46.7271 32.4796 46.7271 33.5001C46.7271 35.1832 47.9087 35.9373 47.9087 37.5624H43.5758C42.6962 37.5624 42.0037 38.3749 42 39.1875C41.9962 39.9996 42.5342 40.8121 42.9279 40.8121C42.3659 41.4375 42.2458 42.7558 43.145 43.6317V43.6317ZM56.3333 47.5625C56.3333 48.1321 56.781 48.5938 57.3333 48.5938C57.8856 48.5938 58.3333 48.1321 58.3333 47.5625C58.3333 46.9929 57.8856 46.5312 57.3333 46.5312C56.781 46.5312 56.3333 46.9929 56.3333 47.5625Z" fill="white"/>
<path d="M59.4279 105.681C59.7933 106.319 60 107 60 107.823C60 109.714 58.4493 111.5 56.4242 111.5L54.9042 111.5C55.1092 112.051 55.2729 112.709 55.2729 113.5C55.2729 116.628 53.7025 118 51.3033 118C48.7364 118 48.8828 113.921 48.3133 113.334C47.3655 112.356 46.246 110.478 45.4483 109.75L41.3333 109.75C40.597 109.75 40 109.134 40 108.375L40 98.0625C40 97.3031 40.597 96.6875 41.3333 96.6875L44 96.6875C44.6205 96.6875 45.142 97.1247 45.2907 97.7166C47.1453 97.6736 48.4182 96.0004 52.6992 96.0004C53 96.0004 53.3333 96 53.625 96C56.8382 96 58.2911 97.694 58.3308 100.096C58.8858 100.888 59.1766 101.949 59.0533 102.975C59.4639 103.768 59.6227 104.708 59.4279 105.681ZM56.855 103.368C57.3783 102.46 56.9075 101.245 56.2742 100.895C56.595 98.7986 55.5405 98.0629 54.0608 98.0629L52.485 98.0629C49.5 98.0629 47.5671 99.688 45.3333 99.688L45.3333 107.688L45.7883 107.688C46.97 107.688 48.6208 110.734 49.7275 111.875C50.9092 113.094 50.5154 115.125 51.3033 115.937C53.2729 115.937 53.2729 114.52 53.2729 113.5C53.2729 111.817 52.0913 111.063 52.0913 109.438L56.4242 109.438C57.3038 109.438 57.9963 108.625 58 107.813C58.0038 107 57.4658 106.188 57.0721 106.188C57.6341 105.562 57.7542 104.244 56.855 103.368V103.368ZM43.6667 99.4375C43.6667 98.868 43.219 98.4063 42.6667 98.4063C42.1144 98.4063 41.6667 98.868 41.6667 99.4375C41.6667 100.007 42.1144 100.469 42.6667 100.469C43.219 100.469 43.6667 100.007 43.6667 99.4375Z" fill="white"/>
</svg>
