<svg width="101" height="151" viewBox="0 0 101 151" fill="none" xmlns="http://www.w3.org/2000/svg">
<rect x="0.358582" width="100" height="150" rx="6" fill="#3B5998"/>
<path d="M12.3794 25.3959L12.5868 23.7671H11.2899V22.7101C11.2899 22.2645 11.471 21.8302 12.0519 21.8302H12.6415V20.4434C12.6415 20.4434 12.1064 20.3334 11.5949 20.3334C10.5268 20.3334 9.8287 21.1135 9.8287 22.5257V23.7671H8.64148V25.3959H9.8287V29.3334H11.2899V25.3959H12.3794Z" fill="white"/>
<path d="M13.3848 12.1836H14.835V14.2314H13.3848V17H10.8447V14.2314H5.59766L5.4834 12.6318L10.8184 4.20312H13.3848V12.1836ZM8.01465 12.1836H10.8447V7.66602L10.6777 7.95605L8.01465 12.1836Z" fill="white"/>
<path d="M88.454 124.937L88.2466 126.566L89.5435 126.566L89.5435 127.623C89.5435 128.069 89.3623 128.503 88.7815 128.503L88.1919 128.503L88.1919 129.89C88.1919 129.89 88.7269 130 89.2385 130C90.3065 130 91.0046 129.22 91.0046 127.808L91.0046 126.566L92.1919 126.566L92.1919 124.938L91.0046 124.937L91.0046 121L89.5435 121L89.5435 124.937L88.454 124.937Z" fill="white"/>
<path d="M87.4486 138.15L85.9984 138.15L85.9984 136.102L87.4486 136.102L87.4486 133.333L89.9886 133.333L89.9886 136.102L95.2357 136.102L95.3499 137.702L90.015 146.13L87.4486 146.13L87.4486 138.15ZM92.8187 138.15L89.9886 138.15L89.9886 142.667L90.1556 142.377L92.8187 138.15Z" fill="white"/>
<path d="M18.5721 41.3187C18.2067 40.6806 18 40 18 39.1771C18 37.2859 19.5507 35.4999 21.5758 35.4999H23.0958C22.8908 34.9495 22.7271 34.2912 22.7271 33.5001C22.7271 30.3723 24.2975 29 26.6967 29C29.2636 29 29.1172 33.0792 29.6867 33.6664C30.6345 34.6438 31.754 36.5216 32.5517 37.25H36.6667C37.403 37.25 38 37.8656 38 38.625V48.9375C38 49.6969 37.403 50.3125 36.6667 50.3125H34C33.3795 50.3125 32.858 49.8753 32.7092 49.2834C30.8547 49.3264 29.5817 50.9996 25.3008 50.9996C25 50.9996 24.6667 51 24.375 51C21.1618 51 19.7089 49.306 19.6692 46.9038C19.1142 46.1121 18.8234 45.0509 18.9467 44.0253C18.5361 43.2325 18.3773 42.2918 18.5721 41.3187ZM21.145 43.6317C20.6217 44.5396 21.0925 45.7548 21.7258 46.1054C21.405 48.2014 22.4595 48.9371 23.9392 48.9371H25.515C28.5 48.9371 30.4329 47.312 32.6667 47.312V39.3125H32.2117C31.03 39.3125 29.3792 36.2664 28.2725 35.1248C27.0908 33.9062 27.4846 31.875 26.6967 31.0625C24.7271 31.0625 24.7271 32.4796 24.7271 33.5001C24.7271 35.1832 25.9087 35.9373 25.9087 37.5624H21.5758C20.6962 37.5624 20.0037 38.3749 20 39.1875C19.9962 39.9996 20.5342 40.8121 20.9279 40.8121C20.3659 41.4375 20.2458 42.7558 21.145 43.6317V43.6317ZM34.3333 47.5625C34.3333 48.1321 34.781 48.5938 35.3333 48.5938C35.8856 48.5938 36.3333 48.1321 36.3333 47.5625C36.3333 46.9929 35.8856 46.5312 35.3333 46.5312C34.781 46.5312 34.3333 46.9929 34.3333 47.5625Z" fill="white"/>
<path d="M37.4279 105.681C37.7933 106.319 38 107 38 107.823C38 109.714 36.4493 111.5 34.4242 111.5L32.9042 111.5C33.1092 112.051 33.2729 112.709 33.2729 113.5C33.2729 116.628 31.7025 118 29.3033 118C26.7364 118 26.8828 113.921 26.3133 113.334C25.3655 112.356 24.246 110.478 23.4483 109.75L19.3333 109.75C18.597 109.75 18 109.134 18 108.375L18 98.0625C18 97.3031 18.597 96.6875 19.3333 96.6875L22 96.6875C22.6205 96.6875 23.142 97.1247 23.2907 97.7166C25.1453 97.6736 26.4182 96.0004 30.6992 96.0004C31 96.0004 31.3333 96 31.625 96C34.8382 96 36.2911 97.694 36.3308 100.096C36.8858 100.888 37.1766 101.949 37.0533 102.975C37.4639 103.768 37.6227 104.708 37.4279 105.681ZM34.855 103.368C35.3783 102.46 34.9075 101.245 34.2742 100.895C34.595 98.7986 33.5405 98.0629 32.0608 98.0629L30.485 98.0629C27.5 98.0629 25.5671 99.688 23.3333 99.688L23.3333 107.688L23.7883 107.688C24.97 107.688 26.6208 110.734 27.7275 111.875C28.9092 113.094 28.5154 115.125 29.3033 115.937C31.2729 115.937 31.2729 114.52 31.2729 113.5C31.2729 111.817 30.0913 111.063 30.0913 109.438L34.4242 109.438C35.3038 109.438 35.9963 108.625 36 107.813C36.0038 107 35.4658 106.188 35.0721 106.188C35.6341 105.562 35.7542 104.244 34.855 103.368V103.368ZM21.6667 99.4375C21.6667 98.868 21.219 98.4063 20.6667 98.4063C20.1144 98.4063 19.6667 98.868 19.6667 99.4375C19.6667 100.007 20.1144 100.469 20.6667 100.469C21.219 100.469 21.6667 100.007 21.6667 99.4375Z" fill="white"/>
<path d="M64.5721 41.3187C64.2067 40.6806 64 40 64 39.1771C64 37.2859 65.5507 35.4999 67.5758 35.4999H69.0958C68.8908 34.9495 68.7271 34.2912 68.7271 33.5001C68.7271 30.3723 70.2975 29 72.6967 29C75.2636 29 75.1172 33.0792 75.6867 33.6664C76.6345 34.6438 77.754 36.5216 78.5517 37.25H82.6667C83.403 37.25 84 37.8656 84 38.625V48.9375C84 49.6969 83.403 50.3125 82.6667 50.3125H80C79.3795 50.3125 78.858 49.8753 78.7092 49.2834C76.8547 49.3264 75.5817 50.9996 71.3008 50.9996C71 50.9996 70.6667 51 70.375 51C67.1618 51 65.7089 49.306 65.6692 46.9038C65.1142 46.1121 64.8234 45.0509 64.9467 44.0253C64.5361 43.2325 64.3773 42.2918 64.5721 41.3187ZM67.145 43.6317C66.6217 44.5396 67.0925 45.7548 67.7258 46.1054C67.405 48.2014 68.4595 48.9371 69.9392 48.9371H71.515C74.5 48.9371 76.4329 47.312 78.6667 47.312V39.3125H78.2117C77.03 39.3125 75.3792 36.2664 74.2725 35.1248C73.0908 33.9062 73.4846 31.875 72.6967 31.0625C70.7271 31.0625 70.7271 32.4796 70.7271 33.5001C70.7271 35.1832 71.9087 35.9373 71.9087 37.5624H67.5758C66.6962 37.5624 66.0037 38.3749 66 39.1875C65.9962 39.9996 66.5342 40.8121 66.9279 40.8121C66.3659 41.4375 66.2458 42.7558 67.145 43.6317V43.6317ZM80.3333 47.5625C80.3333 48.1321 80.781 48.5938 81.3333 48.5938C81.8856 48.5938 82.3333 48.1321 82.3333 47.5625C82.3333 46.9929 81.8856 46.5312 81.3333 46.5312C80.781 46.5312 80.3333 46.9929 80.3333 47.5625Z" fill="white"/>
<path d="M83.4279 105.681C83.7933 106.319 84 107 84 107.823C84 109.714 82.4493 111.5 80.4242 111.5L78.9042 111.5C79.1092 112.051 79.2729 112.709 79.2729 113.5C79.2729 116.628 77.7025 118 75.3033 118C72.7364 118 72.8828 113.921 72.3133 113.334C71.3655 112.356 70.246 110.478 69.4483 109.75L65.3333 109.75C64.597 109.75 64 109.134 64 108.375L64 98.0625C64 97.3031 64.597 96.6875 65.3333 96.6875L68 96.6875C68.6205 96.6875 69.142 97.1247 69.2907 97.7166C71.1453 97.6736 72.4182 96.0004 76.6992 96.0004C77 96.0004 77.3333 96 77.625 96C80.8382 96 82.2911 97.694 82.3308 100.096C82.8858 100.888 83.1766 101.949 83.0533 102.975C83.4639 103.768 83.6227 104.708 83.4279 105.681ZM80.855 103.368C81.3783 102.46 80.9075 101.245 80.2742 100.895C80.595 98.7986 79.5405 98.0629 78.0608 98.0629L76.485 98.0629C73.5 98.0629 71.5671 99.688 69.3333 99.688L69.3333 107.688L69.7883 107.688C70.97 107.688 72.6208 110.734 73.7275 111.875C74.9092 113.094 74.5154 115.125 75.3033 115.937C77.2729 115.937 77.2729 114.52 77.2729 113.5C77.2729 111.817 76.0913 111.063 76.0913 109.438L80.4242 109.438C81.3038 109.438 81.9963 108.625 82 107.813C82.0038 107 81.4658 106.188 81.0721 106.188C81.6341 105.562 81.7542 104.244 80.855 103.368V103.368ZM67.6667 99.4375C67.6667 98.868 67.219 98.4063 66.6667 98.4063C66.1144 98.4063 65.6667 98.868 65.6667 99.4375C65.6667 100.007 66.1144 100.469 66.6667 100.469C67.219 100.469 67.6667 100.007 67.6667 99.4375Z" fill="white"/>
</svg>
