<svg width="101" height="151" viewBox="0 0 101 151" fill="none" xmlns="http://www.w3.org/2000/svg">
<rect x="0.358582" width="100" height="150" rx="6" fill="#3B5998"/>
<path d="M12.3794 25.3959L12.5868 23.7671H11.2899V22.7101C11.2899 22.2645 11.471 21.8302 12.0519 21.8302H12.6415V20.4434C12.6415 20.4434 12.1064 20.3334 11.5949 20.3334C10.5268 20.3334 9.8287 21.1135 9.8287 22.5257V23.7671H8.64148V25.3959H9.8287V29.3334H11.2899V25.3959H12.3794Z" fill="white"/>
<path d="M6.24805 10.707L6.98633 4.20312H14.1582V6.32129H9.06934L8.75293 9.07227C9.35645 8.75 9.99805 8.58887 10.6777 8.58887C11.8965 8.58887 12.8516 8.9668 13.543 9.72266C14.2344 10.4785 14.5801 11.5361 14.5801 12.8955C14.5801 13.7217 14.4043 14.4629 14.0527 15.1191C13.707 15.7695 13.209 16.2764 12.5586 16.6396C11.9082 16.9971 11.1406 17.1758 10.2559 17.1758C9.48242 17.1758 8.76465 17.0205 8.10254 16.71C7.44043 16.3936 6.91602 15.9512 6.5293 15.3828C6.14844 14.8145 5.94629 14.167 5.92285 13.4404H8.43652C8.48926 13.9736 8.67383 14.3896 8.99023 14.6885C9.3125 14.9814 9.73145 15.1279 10.2471 15.1279C10.8213 15.1279 11.2637 14.9229 11.5742 14.5127C11.8848 14.0967 12.04 13.5107 12.04 12.7549C12.04 12.0283 11.8613 11.4717 11.5039 11.085C11.1465 10.6982 10.6396 10.5049 9.9834 10.5049C9.37988 10.5049 8.89062 10.6631 8.51562 10.9795L8.26953 11.208L6.24805 10.707Z" fill="white"/>
<path d="M88.454 124.937L88.2466 126.566L89.5435 126.566L89.5435 127.623C89.5435 128.069 89.3623 128.503 88.7815 128.503L88.1919 128.503L88.1919 129.89C88.1919 129.89 88.7269 130 89.2385 130C90.3065 130 91.0046 129.22 91.0046 127.808L91.0046 126.566L92.1919 126.566L92.1919 124.938L91.0046 124.937L91.0046 121L89.5435 121L89.5435 124.937L88.454 124.937Z" fill="white"/>
<path d="M94.5853 139.626L93.847 146.13L86.6751 146.13L86.6751 144.012L91.764 144.012L92.0804 141.261C91.4769 141.583 90.8353 141.745 90.1556 141.745C88.9369 141.745 87.9818 141.367 87.2904 140.611C86.599 139.855 86.2533 138.797 86.2533 137.438C86.2533 136.612 86.429 135.87 86.7806 135.214C87.1263 134.564 87.6244 134.057 88.2747 133.694C88.9251 133.336 89.6927 133.158 90.5775 133.158C91.3509 133.158 92.0687 133.313 92.7308 133.623C93.3929 133.94 93.9173 134.382 94.304 134.951C94.6849 135.519 94.887 136.166 94.9105 136.893L92.3968 136.893C92.3441 136.36 92.1595 135.944 91.8431 135.645C91.5208 135.352 91.1019 135.205 90.5863 135.205C90.012 135.205 89.5697 135.411 89.2591 135.821C88.9486 136.237 88.7933 136.823 88.7933 137.578C88.7933 138.305 88.972 138.862 89.3294 139.248C89.6869 139.635 90.1937 139.828 90.8499 139.828C91.4535 139.828 91.9427 139.67 92.3177 139.354L92.5638 139.125L94.5853 139.626Z" fill="white"/>
<path d="M18.5721 41.3187C18.2067 40.6806 18 40 18 39.1771C18 37.2859 19.5507 35.4999 21.5758 35.4999H23.0958C22.8908 34.9495 22.7271 34.2912 22.7271 33.5001C22.7271 30.3723 24.2975 29 26.6967 29C29.2636 29 29.1172 33.0792 29.6867 33.6664C30.6345 34.6438 31.754 36.5216 32.5517 37.25H36.6667C37.403 37.25 38 37.8656 38 38.625V48.9375C38 49.6969 37.403 50.3125 36.6667 50.3125H34C33.3795 50.3125 32.858 49.8753 32.7092 49.2834C30.8547 49.3264 29.5817 50.9996 25.3008 50.9996C25 50.9996 24.6667 51 24.375 51C21.1618 51 19.7089 49.306 19.6692 46.9038C19.1142 46.1121 18.8234 45.0509 18.9467 44.0253C18.5361 43.2325 18.3773 42.2918 18.5721 41.3187ZM21.145 43.6317C20.6217 44.5396 21.0925 45.7548 21.7258 46.1054C21.405 48.2014 22.4595 48.9371 23.9392 48.9371H25.515C28.5 48.9371 30.4329 47.312 32.6667 47.312V39.3125H32.2117C31.03 39.3125 29.3792 36.2664 28.2725 35.1248C27.0908 33.9062 27.4846 31.875 26.6967 31.0625C24.7271 31.0625 24.7271 32.4796 24.7271 33.5001C24.7271 35.1832 25.9087 35.9373 25.9087 37.5624H21.5758C20.6962 37.5624 20.0037 38.3749 20 39.1875C19.9962 39.9996 20.5342 40.8121 20.9279 40.8121C20.3659 41.4375 20.2458 42.7558 21.145 43.6317V43.6317ZM34.3333 47.5625C34.3333 48.1321 34.781 48.5938 35.3333 48.5938C35.8856 48.5938 36.3333 48.1321 36.3333 47.5625C36.3333 46.9929 35.8856 46.5312 35.3333 46.5312C34.781 46.5312 34.3333 46.9929 34.3333 47.5625Z" fill="white"/>
<path d="M37.4279 105.681C37.7933 106.319 38 107 38 107.823C38 109.714 36.4493 111.5 34.4242 111.5L32.9042 111.5C33.1092 112.051 33.2729 112.709 33.2729 113.5C33.2729 116.628 31.7025 118 29.3033 118C26.7364 118 26.8828 113.921 26.3133 113.334C25.3655 112.356 24.246 110.478 23.4483 109.75L19.3333 109.75C18.597 109.75 18 109.134 18 108.375L18 98.0625C18 97.3031 18.597 96.6875 19.3333 96.6875L22 96.6875C22.6205 96.6875 23.142 97.1247 23.2907 97.7166C25.1453 97.6736 26.4182 96.0004 30.6992 96.0004C31 96.0004 31.3333 96 31.625 96C34.8382 96 36.2911 97.694 36.3308 100.096C36.8858 100.888 37.1766 101.949 37.0533 102.975C37.4639 103.768 37.6227 104.708 37.4279 105.681ZM34.855 103.368C35.3783 102.46 34.9075 101.245 34.2742 100.895C34.595 98.7986 33.5405 98.0629 32.0608 98.0629L30.485 98.0629C27.5 98.0629 25.5671 99.688 23.3333 99.688L23.3333 107.688L23.7883 107.688C24.97 107.688 26.6208 110.734 27.7275 111.875C28.9092 113.094 28.5154 115.125 29.3033 115.937C31.2729 115.937 31.2729 114.52 31.2729 113.5C31.2729 111.817 30.0913 111.063 30.0913 109.438L34.4242 109.438C35.3038 109.438 35.9963 108.625 36 107.813C36.0038 107 35.4658 106.188 35.0721 106.188C35.6341 105.562 35.7542 104.244 34.855 103.368V103.368ZM21.6667 99.4375C21.6667 98.868 21.219 98.4063 20.6667 98.4063C20.1144 98.4063 19.6667 98.868 19.6667 99.4375C19.6667 100.007 20.1144 100.469 20.6667 100.469C21.219 100.469 21.6667 100.007 21.6667 99.4375Z" fill="white"/>
<path d="M64.5721 41.3187C64.2067 40.6806 64 40 64 39.1771C64 37.2859 65.5507 35.4999 67.5758 35.4999H69.0958C68.8908 34.9495 68.7271 34.2912 68.7271 33.5001C68.7271 30.3723 70.2975 29 72.6967 29C75.2636 29 75.1172 33.0792 75.6867 33.6664C76.6345 34.6438 77.754 36.5216 78.5517 37.25H82.6667C83.403 37.25 84 37.8656 84 38.625V48.9375C84 49.6969 83.403 50.3125 82.6667 50.3125H80C79.3795 50.3125 78.858 49.8753 78.7092 49.2834C76.8547 49.3264 75.5817 50.9996 71.3008 50.9996C71 50.9996 70.6667 51 70.375 51C67.1618 51 65.7089 49.306 65.6692 46.9038C65.1142 46.1121 64.8234 45.0509 64.9467 44.0253C64.5361 43.2325 64.3773 42.2918 64.5721 41.3187ZM67.145 43.6317C66.6217 44.5396 67.0925 45.7548 67.7258 46.1054C67.405 48.2014 68.4595 48.9371 69.9392 48.9371H71.515C74.5 48.9371 76.4329 47.312 78.6667 47.312V39.3125H78.2117C77.03 39.3125 75.3792 36.2664 74.2725 35.1248C73.0908 33.9062 73.4846 31.875 72.6967 31.0625C70.7271 31.0625 70.7271 32.4796 70.7271 33.5001C70.7271 35.1832 71.9087 35.9373 71.9087 37.5624H67.5758C66.6962 37.5624 66.0037 38.3749 66 39.1875C65.9962 39.9996 66.5342 40.8121 66.9279 40.8121C66.3659 41.4375 66.2458 42.7558 67.145 43.6317V43.6317ZM80.3333 47.5625C80.3333 48.1321 80.781 48.5938 81.3333 48.5938C81.8856 48.5938 82.3333 48.1321 82.3333 47.5625C82.3333 46.9929 81.8856 46.5312 81.3333 46.5312C80.781 46.5312 80.3333 46.9929 80.3333 47.5625Z" fill="white"/>
<path d="M43.5721 75.3187C43.2067 74.6806 43 74 43 73.1771C43 71.2859 44.5507 69.4999 46.5758 69.4999H48.0958C47.8908 68.9495 47.7271 68.2912 47.7271 67.5001C47.7271 64.3723 49.2975 63 51.6967 63C54.2636 63 54.1172 67.0792 54.6867 67.6664C55.6345 68.6438 56.754 70.5216 57.5517 71.25H61.6667C62.403 71.25 63 71.8656 63 72.625V82.9375C63 83.6969 62.403 84.3125 61.6667 84.3125H59C58.3795 84.3125 57.858 83.8753 57.7092 83.2834C55.8547 83.3264 54.5817 84.9996 50.3008 84.9996C50 84.9996 49.6667 85 49.375 85C46.1618 85 44.7089 83.306 44.6692 80.9038C44.1142 80.1121 43.8234 79.0509 43.9467 78.0253C43.5361 77.2325 43.3773 76.2918 43.5721 75.3187ZM46.145 77.6317C45.6217 78.5396 46.0925 79.7548 46.7258 80.1054C46.405 82.2014 47.4595 82.9371 48.9392 82.9371H50.515C53.5 82.9371 55.4329 81.312 57.6667 81.312V73.3125H57.2117C56.03 73.3125 54.3792 70.2664 53.2725 69.1248C52.0908 67.9062 52.4846 65.875 51.6967 65.0625C49.7271 65.0625 49.7271 66.4796 49.7271 67.5001C49.7271 69.1832 50.9087 69.9373 50.9087 71.5624H46.5758C45.6962 71.5624 45.0037 72.3749 45 73.1875C44.9962 73.9996 45.5342 74.8121 45.9279 74.8121C45.3659 75.4375 45.2458 76.7558 46.145 77.6317V77.6317ZM59.3333 81.5625C59.3333 82.1321 59.781 82.5938 60.3333 82.5938C60.8856 82.5938 61.3333 82.1321 61.3333 81.5625C61.3333 80.9929 60.8856 80.5312 60.3333 80.5312C59.781 80.5312 59.3333 80.9929 59.3333 81.5625Z" fill="white"/>
<path d="M83.4279 105.681C83.7933 106.319 84 107 84 107.823C84 109.714 82.4493 111.5 80.4242 111.5L78.9042 111.5C79.1092 112.051 79.2729 112.709 79.2729 113.5C79.2729 116.628 77.7025 118 75.3033 118C72.7364 118 72.8828 113.921 72.3133 113.334C71.3655 112.356 70.246 110.478 69.4483 109.75L65.3333 109.75C64.597 109.75 64 109.134 64 108.375L64 98.0625C64 97.3031 64.597 96.6875 65.3333 96.6875L68 96.6875C68.6205 96.6875 69.142 97.1247 69.2907 97.7166C71.1453 97.6736 72.4182 96.0004 76.6992 96.0004C77 96.0004 77.3333 96 77.625 96C80.8382 96 82.2911 97.694 82.3308 100.096C82.8858 100.888 83.1766 101.949 83.0533 102.975C83.4639 103.768 83.6227 104.708 83.4279 105.681ZM80.855 103.368C81.3783 102.46 80.9075 101.245 80.2742 100.895C80.595 98.7986 79.5405 98.0629 78.0608 98.0629L76.485 98.0629C73.5 98.0629 71.5671 99.688 69.3333 99.688L69.3333 107.688L69.7883 107.688C70.97 107.688 72.6208 110.734 73.7275 111.875C74.9092 113.094 74.5154 115.125 75.3033 115.937C77.2729 115.937 77.2729 114.52 77.2729 113.5C77.2729 111.817 76.0913 111.063 76.0913 109.438L80.4242 109.438C81.3038 109.438 81.9963 108.625 82 107.813C82.0038 107 81.4658 106.188 81.0721 106.188C81.6341 105.562 81.7542 104.244 80.855 103.368V103.368ZM67.6667 99.4375C67.6667 98.868 67.219 98.4063 66.6667 98.4063C66.1144 98.4063 65.6667 98.868 65.6667 99.4375C65.6667 100.007 66.1144 100.469 66.6667 100.469C67.219 100.469 67.6667 100.007 67.6667 99.4375Z" fill="white"/>
</svg>
