<svg width="101" height="150" viewBox="0 0 101 150" fill="none" xmlns="http://www.w3.org/2000/svg">
<rect x="0.358643" width="100" height="150" rx="6" fill="#3B5998"/>
<path d="M13.7379 25.0625L13.9454 23.4337H12.6484V22.3767C12.6484 21.9311 12.8296 21.4968 13.4105 21.4968H14.0001V20.11C14.0001 20.11 13.465 20 12.9535 20C11.8854 20 11.1873 20.7801 11.1873 22.1923V23.4337H10.0001V25.0625H11.1873V29H12.6484V25.0625H13.7379Z" fill="white"/>
<path d="M10.2579 18H8.00006V9.29688L5.30475 10.1328V8.29688L10.0157 6.60938H10.2579V18ZM19.6172 13.2969C19.6172 14.8698 19.2917 16.0729 18.6407 16.9062C17.9896 17.7396 17.0365 18.1562 15.7813 18.1562C14.5417 18.1562 13.5938 17.7474 12.9376 16.9297C12.2813 16.112 11.9454 14.9401 11.9297 13.4141V11.3203C11.9297 9.73177 12.2579 8.52604 12.9141 7.70312C13.5756 6.88021 14.5261 6.46875 15.7657 6.46875C17.0053 6.46875 17.9532 6.8776 18.6094 7.69531C19.2657 8.50781 19.6016 9.67708 19.6172 11.2031V13.2969ZM17.3594 11C17.3594 10.0573 17.2292 9.3724 16.9688 8.94531C16.7136 8.51302 16.3126 8.29688 15.7657 8.29688C15.2344 8.29688 14.8412 8.5026 14.586 8.91406C14.336 9.32031 14.2032 9.95833 14.1876 10.8281V13.5938C14.1876 14.5208 14.3126 15.2109 14.5626 15.6641C14.8178 16.112 15.224 16.3359 15.7813 16.3359C16.3334 16.3359 16.7318 16.1198 16.9766 15.6875C17.2214 15.2552 17.349 14.5938 17.3594 13.7031V11Z" fill="white"/>
<path d="M86.2622 126.937L86.0548 128.566L87.3517 128.566L87.3517 129.623C87.3517 130.069 87.1705 130.503 86.5897 130.503L86.0001 130.503L86.0001 131.89C86.0001 131.89 86.5351 132 87.0467 132C88.1147 132 88.8128 131.22 88.8128 129.808L88.8128 128.566L90.0001 128.566L90.0001 126.938L88.8128 126.937L88.8128 123L87.3517 123L87.3517 126.937L86.2622 126.937Z" fill="white"/>
<path d="M89.7422 134L92.0001 134L92.0001 142.703L94.6954 141.867L94.6954 143.703L89.9844 145.391L89.7422 145.391L89.7422 134ZM80.3829 138.703C80.3829 137.13 80.7084 135.927 81.3594 135.094C82.0105 134.26 82.9636 133.844 84.2188 133.844C85.4584 133.844 86.4063 134.253 87.0626 135.07C87.7188 135.888 88.0547 137.06 88.0704 138.586L88.0704 140.68C88.0704 142.268 87.7422 143.474 87.086 144.297C86.4245 145.12 85.474 145.531 84.2344 145.531C82.9949 145.531 82.0469 145.122 81.3907 144.305C80.7344 143.492 80.3985 142.323 80.3829 140.797L80.3829 138.703ZM82.6407 141C82.6407 141.943 82.7709 142.628 83.0313 143.055C83.2865 143.487 83.6876 143.703 84.2344 143.703C84.7657 143.703 85.1589 143.497 85.4141 143.086C85.6641 142.68 85.7969 142.042 85.8126 141.172L85.8126 138.406C85.8126 137.479 85.6876 136.789 85.4376 136.336C85.1824 135.888 84.7761 135.664 84.2188 135.664C83.6667 135.664 83.2683 135.88 83.0235 136.312C82.7787 136.745 82.6511 137.406 82.6407 138.297L82.6407 141Z" fill="white"/>
<path d="M43.4863 63.0789C43.1757 62.5569 43.0001 62 43.0001 61.3268C43.0001 59.7794 44.3182 58.3181 46.0395 58.3181H47.3315C47.1573 57.8677 47.0181 57.3291 47.0181 56.6819C47.0181 54.1228 48.3529 53 50.3922 53C52.5741 53 52.4497 56.3375 52.9337 56.818C53.7394 57.6177 54.6909 59.154 55.369 59.75H58.8667C59.4926 59.75 60.0001 60.2537 60.0001 60.875V69.3125C60.0001 69.9338 59.4926 70.4375 58.8667 70.4375H56.6001C56.0726 70.4375 55.6294 70.0798 55.5029 69.5955C53.9266 69.6307 52.8445 70.9996 49.2058 70.9996C48.9501 70.9996 48.6667 71 48.4188 71C45.6876 71 44.4526 69.614 44.4189 67.6486C43.9471 67.0008 43.6999 66.1325 43.8047 65.2934C43.4557 64.6447 43.3208 63.8751 43.4863 63.0789ZM45.6733 64.9714C45.2285 65.7143 45.6287 66.7085 46.167 66.9954C45.8943 68.7103 46.7906 69.3121 48.0484 69.3121H49.3878C51.925 69.3121 53.568 67.9825 55.4667 67.9825V61.4375H55.08C54.0756 61.4375 52.6724 58.9453 51.7317 58.0112C50.7273 57.0141 51.062 55.3523 50.3922 54.6875C48.7181 54.6875 48.7181 55.847 48.7181 56.6819C48.7181 58.059 49.7225 58.676 49.7225 60.0056H46.0395C45.2919 60.0056 44.7032 60.6704 44.7001 61.3352C44.6969 61.9996 45.1541 62.6645 45.4888 62.6645C45.0111 63.1762 44.909 64.2548 45.6733 64.9714ZM56.8834 68.1875C56.8834 68.6535 57.2639 69.0312 57.7334 69.0312C58.2028 69.0312 58.5834 68.6535 58.5834 68.1875C58.5834 67.7215 58.2028 67.3437 57.7334 67.3437C57.2639 67.3437 56.8834 67.7215 56.8834 68.1875Z" fill="white"/>
<path d="M43.4863 36.0789C43.1757 35.5569 43.0001 35 43.0001 34.3268C43.0001 32.7794 44.3182 31.3181 46.0395 31.3181H47.3315C47.1573 30.8677 47.0181 30.3291 47.0181 29.6819C47.0181 27.1228 48.3529 26 50.3922 26C52.5741 26 52.4497 29.3375 52.9337 29.818C53.7394 30.6177 54.6909 32.154 55.369 32.75H58.8667C59.4926 32.75 60.0001 33.2537 60.0001 33.875V42.3125C60.0001 42.9338 59.4926 43.4375 58.8667 43.4375H56.6001C56.0726 43.4375 55.6294 43.0798 55.5029 42.5955C53.9266 42.6307 52.8445 43.9996 49.2058 43.9996C48.9501 43.9996 48.6667 44 48.4188 44C45.6876 44 44.4526 42.614 44.4189 40.6486C43.9471 40.0008 43.6999 39.1325 43.8047 38.2934C43.4557 37.6447 43.3208 36.8751 43.4863 36.0789ZM45.6733 37.9714C45.2285 38.7143 45.6287 39.7085 46.167 39.9954C45.8943 41.7103 46.7906 42.3121 48.0484 42.3121H49.3878C51.925 42.3121 53.568 40.9825 55.4667 40.9825V34.4375H55.08C54.0756 34.4375 52.6724 31.9453 51.7317 31.0112C50.7273 30.0141 51.062 28.3523 50.3922 27.6875C48.7181 27.6875 48.7181 28.847 48.7181 29.6819C48.7181 31.059 49.7225 31.676 49.7225 33.0056H46.0395C45.2919 33.0056 44.7032 33.6704 44.7001 34.3352C44.6969 34.9996 45.1541 35.6645 45.4888 35.6645C45.0111 36.1762 44.909 37.2548 45.6733 37.9714ZM56.8834 41.1875C56.8834 41.6535 57.2639 42.0312 57.7334 42.0312C58.2028 42.0312 58.5834 41.6535 58.5834 41.1875C58.5834 40.7215 58.2028 40.3437 57.7334 40.3437C57.2639 40.3437 56.8834 40.7215 56.8834 41.1875Z" fill="white"/>
<path d="M59.5138 87.9211C59.8244 88.4431 60.0001 89 60.0001 89.6732C60.0001 91.2206 58.6819 92.6819 56.9606 92.6819L55.6686 92.6819C55.8429 93.1323 55.982 93.6709 55.982 94.3181C55.982 96.8773 54.6472 98 52.6079 98C50.426 98 50.5504 94.6625 50.0664 94.182C49.2608 93.3823 48.3092 91.846 47.6311 91.25L44.1334 91.25C43.5075 91.25 43.0001 90.7463 43.0001 90.125L43.0001 81.6875C43.0001 81.0662 43.5075 80.5625 44.1334 80.5625L46.4001 80.5625C46.9275 80.5625 47.3708 80.9202 47.4972 81.4045C49.0736 81.3693 50.1556 80.0004 53.7944 80.0004C54.0501 80.0004 54.3334 80 54.5813 80C57.3125 80 58.5475 81.386 58.5813 83.3514C59.053 83.9992 59.3002 84.8675 59.1954 85.7066C59.5444 86.3553 59.6793 87.1249 59.5138 87.9211ZM57.3268 86.0286C57.7716 85.2857 57.3714 84.2915 56.8331 84.0047C57.1058 82.2897 56.2095 81.6879 54.9518 81.6879L53.6123 81.6879C51.0751 81.6879 49.4321 83.0175 47.5334 83.0175L47.5334 89.5625L47.9201 89.5625C48.9246 89.5625 50.3278 92.0547 51.2684 92.9888C52.2729 93.9859 51.9382 95.6477 52.6079 96.3125C54.282 96.3125 54.282 95.153 54.282 94.3181C54.282 92.941 53.2776 92.324 53.2776 90.9944L56.9606 90.9944C57.7082 90.9944 58.2969 90.3296 58.3001 89.6648C58.3033 89.0004 57.846 88.3355 57.5113 88.3355C57.9891 87.8239 58.0911 86.7452 57.3268 86.0286V86.0286ZM46.1167 82.8125C46.1167 82.3465 45.7362 81.9688 45.2667 81.9688C44.7973 81.9688 44.4167 82.3465 44.4167 82.8125C44.4167 83.2785 44.7973 83.6563 45.2667 83.6563C45.7362 83.6563 46.1167 83.2785 46.1167 82.8125Z" fill="white"/>
<path d="M59.5138 114.921C59.8244 115.443 60.0001 116 60.0001 116.673C60.0001 118.221 58.6819 119.682 56.9606 119.682L55.6686 119.682C55.8429 120.132 55.982 120.671 55.982 121.318C55.982 123.877 54.6472 125 52.6079 125C50.426 125 50.5504 121.663 50.0664 121.182C49.2608 120.382 48.3092 118.846 47.6311 118.25L44.1334 118.25C43.5075 118.25 43.0001 117.746 43.0001 117.125L43.0001 108.688C43.0001 108.066 43.5075 107.563 44.1334 107.563L46.4001 107.563C46.9275 107.563 47.3708 107.92 47.4972 108.404C49.0736 108.369 50.1556 107 53.7944 107C54.0501 107 54.3334 107 54.5813 107C57.3125 107 58.5475 108.386 58.5813 110.351C59.053 110.999 59.3002 111.867 59.1954 112.707C59.5444 113.355 59.6793 114.125 59.5138 114.921ZM57.3268 113.029C57.7716 112.286 57.3714 111.292 56.8331 111.005C57.1058 109.29 56.2095 108.688 54.9518 108.688L53.6123 108.688C51.0751 108.688 49.4321 110.017 47.5334 110.017L47.5334 116.563L47.9201 116.563C48.9246 116.563 50.3278 119.055 51.2684 119.989C52.2729 120.986 51.9382 122.648 52.6079 123.312C54.282 123.312 54.282 122.153 54.282 121.318C54.282 119.941 53.2776 119.324 53.2776 117.994L56.9606 117.994C57.7082 117.994 58.2969 117.33 58.3001 116.665C58.3032 116 57.846 115.336 57.5113 115.336C57.9891 114.824 58.0911 113.745 57.3268 113.029V113.029ZM46.1167 109.813C46.1167 109.347 45.7362 108.969 45.2667 108.969C44.7973 108.969 44.4167 109.347 44.4167 109.813C44.4167 110.278 44.7973 110.656 45.2667 110.656C45.7362 110.656 46.1167 110.278 46.1167 109.813Z" fill="white"/>
<path d="M21.4577 49.0789C21.1654 48.5569 21.0001 48 21.0001 47.3268C21.0001 45.7794 22.2407 44.3181 23.8607 44.3181H25.0767C24.9127 43.8677 24.7817 43.3291 24.7817 42.6819C24.7817 40.1228 26.0381 39 27.9574 39C30.011 39 29.8938 42.3375 30.3494 42.818C31.1076 43.6177 32.0032 45.154 32.6414 45.75H35.9334C36.5225 45.75 37.0001 46.2537 37.0001 46.875V55.3125C37.0001 55.9338 36.5225 56.4375 35.9334 56.4375H33.8001C33.3036 56.4375 32.8865 56.0798 32.7675 55.5955C31.2838 55.6307 30.2655 56.9996 26.8407 56.9996C26.6001 56.9996 26.3334 57 26.1001 57C23.5295 57 22.3672 55.614 22.3354 53.6486C21.8914 53.0008 21.6588 52.1325 21.7574 51.2934C21.4289 50.6447 21.3019 49.8751 21.4577 49.0789ZM23.5161 50.9714C23.0974 51.7143 23.4741 52.7085 23.9807 52.9954C23.7241 54.7103 24.5677 55.3121 25.7514 55.3121H27.0121C29.4 55.3121 30.9464 53.9825 32.7334 53.9825V47.4375H32.3694C31.4241 47.4375 30.1034 44.9453 29.2181 44.0112C28.2727 43.0141 28.5877 41.3523 27.9574 40.6875C26.3817 40.6875 26.3817 41.847 26.3817 42.6819C26.3817 44.059 27.3271 44.676 27.3271 46.0056H23.8607C23.1571 46.0056 22.6031 46.6704 22.6001 47.3352C22.5971 47.9996 23.0274 48.6645 23.3424 48.6645C22.8928 49.1762 22.7967 50.2548 23.5161 50.9714ZM34.0667 54.1875C34.0667 54.6535 34.4249 55.0312 34.8667 55.0312C35.3086 55.0312 35.6667 54.6535 35.6667 54.1875C35.6667 53.7215 35.3086 53.3437 34.8667 53.3437C34.4249 53.3437 34.0667 53.7215 34.0667 54.1875Z" fill="white"/>
<path d="M21.4577 76.0789C21.1654 75.5569 21.0001 75 21.0001 74.3268C21.0001 72.7794 22.2407 71.3181 23.8607 71.3181H25.0767C24.9127 70.8677 24.7817 70.3291 24.7817 69.6819C24.7817 67.1228 26.0381 66 27.9574 66C30.011 66 29.8938 69.3375 30.3494 69.818C31.1076 70.6177 32.0032 72.154 32.6414 72.75H35.9334C36.5225 72.75 37.0001 73.2537 37.0001 73.875V82.3125C37.0001 82.9338 36.5225 83.4375 35.9334 83.4375H33.8001C33.3036 83.4375 32.8865 83.0798 32.7675 82.5955C31.2838 82.6307 30.2655 83.9996 26.8407 83.9996C26.6001 83.9996 26.3334 84 26.1001 84C23.5295 84 22.3672 82.614 22.3354 80.6486C21.8914 80.0008 21.6588 79.1325 21.7574 78.2934C21.4289 77.6447 21.3019 76.8751 21.4577 76.0789ZM23.5161 77.9714C23.0974 78.7143 23.4741 79.7085 23.9807 79.9954C23.7241 81.7103 24.5677 82.3121 25.7514 82.3121H27.0121C29.4 82.3121 30.9464 80.9825 32.7334 80.9825V74.4375H32.3694C31.4241 74.4375 30.1034 71.9453 29.2181 71.0112C28.2727 70.0141 28.5877 68.3523 27.9574 67.6875C26.3817 67.6875 26.3817 68.847 26.3817 69.6819C26.3817 71.059 27.3271 71.676 27.3271 73.0056H23.8607C23.1571 73.0056 22.6031 73.6704 22.6001 74.3352C22.5971 74.9996 23.0274 75.6645 23.3424 75.6645C22.8928 76.1762 22.7967 77.2548 23.5161 77.9714V77.9714ZM34.0667 81.1875C34.0667 81.6535 34.4249 82.0312 34.8667 82.0312C35.3086 82.0312 35.6667 81.6535 35.6667 81.1875C35.6667 80.7215 35.3086 80.3438 34.8667 80.3438C34.4249 80.3438 34.0667 80.7215 34.0667 81.1875Z" fill="white"/>
<path d="M36.5424 100.921C36.8347 101.443 37.0001 102 37.0001 102.673C37.0001 104.221 35.7595 105.682 34.1394 105.682L32.9234 105.682C33.0874 106.132 33.2184 106.671 33.2184 107.318C33.2184 109.877 31.9621 111 30.0427 111C27.9892 111 28.1063 107.663 27.6507 107.182C26.8925 106.382 25.9969 104.846 25.3587 104.25L22.0667 104.25C21.4776 104.25 21.0001 103.746 21.0001 103.125L21.0001 94.6875C21.0001 94.0662 21.4776 93.5625 22.0667 93.5625L24.2001 93.5625C24.6965 93.5625 25.1137 93.9202 25.2327 94.4045C26.7163 94.3693 27.7347 93.0004 31.1594 93.0004C31.4001 93.0004 31.6667 93 31.9001 93C34.4706 93 35.6329 94.386 35.6647 96.3514C36.1087 96.9992 36.3414 97.8675 36.2427 98.7066C36.5712 99.3553 36.6982 100.125 36.5424 100.921ZM34.4841 99.0286C34.9027 98.2857 34.5261 97.2915 34.0194 97.0046C34.2761 95.2897 33.4325 94.6879 32.2487 94.6879L30.9881 94.6879C28.6001 94.6879 27.0538 96.0175 25.2667 96.0175L25.2667 102.563L25.6307 102.563C26.5761 102.563 27.8967 105.055 28.7821 105.989C29.7274 106.986 29.4124 108.648 30.0427 109.312C31.6184 109.312 31.6184 108.153 31.6184 107.318C31.6184 105.941 30.6731 105.324 30.6731 103.994L34.1394 103.994C34.8431 103.994 35.3971 103.33 35.4001 102.665C35.4031 102 34.9727 101.336 34.6577 101.336C35.1074 100.824 35.2034 99.7452 34.4841 99.0286V99.0286ZM23.9334 95.8125C23.9334 95.3465 23.5752 94.9688 23.1334 94.9688C22.6916 94.9688 22.3334 95.3465 22.3334 95.8125C22.3334 96.2785 22.6916 96.6563 23.1334 96.6563C23.5752 96.6563 23.9334 96.2785 23.9334 95.8125Z" fill="white"/>
<path d="M66.4577 49.0789C66.1654 48.5569 66.0001 48 66.0001 47.3268C66.0001 45.7794 67.2407 44.3181 68.8607 44.3181H70.0767C69.9127 43.8677 69.7817 43.3291 69.7817 42.6819C69.7817 40.1228 71.0381 39 72.9574 39C75.011 39 74.8938 42.3375 75.3494 42.818C76.1076 43.6177 77.0032 45.154 77.6414 45.75H80.9334C81.5225 45.75 82.0001 46.2537 82.0001 46.875V55.3125C82.0001 55.9338 81.5225 56.4375 80.9334 56.4375H78.8001C78.3036 56.4375 77.8865 56.0798 77.7675 55.5955C76.2838 55.6307 75.2655 56.9996 71.8407 56.9996C71.6001 56.9996 71.3334 57 71.1001 57C68.5295 57 67.3672 55.614 67.3354 53.6486C66.8914 53.0008 66.6588 52.1325 66.7574 51.2934C66.4289 50.6447 66.3019 49.8751 66.4577 49.0789ZM68.5161 50.9714C68.0974 51.7143 68.4741 52.7085 68.9807 52.9954C68.7241 54.7103 69.5677 55.3121 70.7514 55.3121H72.0121C74.4 55.3121 75.9464 53.9825 77.7334 53.9825V47.4375H77.3694C76.4241 47.4375 75.1034 44.9453 74.2181 44.0112C73.2727 43.0141 73.5877 41.3523 72.9574 40.6875C71.3817 40.6875 71.3817 41.847 71.3817 42.6819C71.3817 44.059 72.3271 44.676 72.3271 46.0056H68.8607C68.1571 46.0056 67.6031 46.6704 67.6001 47.3352C67.5971 47.9996 68.0274 48.6645 68.3424 48.6645C67.8928 49.1762 67.7967 50.2548 68.5161 50.9714ZM79.0667 54.1875C79.0667 54.6535 79.4249 55.0312 79.8667 55.0312C80.3086 55.0312 80.6667 54.6535 80.6667 54.1875C80.6667 53.7215 80.3086 53.3437 79.8667 53.3437C79.4249 53.3437 79.0667 53.7215 79.0667 54.1875Z" fill="white"/>
<path d="M66.4577 76.0789C66.1654 75.5569 66.0001 75 66.0001 74.3268C66.0001 72.7794 67.2407 71.3181 68.8607 71.3181H70.0767C69.9127 70.8677 69.7817 70.3291 69.7817 69.6819C69.7817 67.1228 71.0381 66 72.9574 66C75.011 66 74.8938 69.3375 75.3494 69.818C76.1076 70.6177 77.0032 72.154 77.6414 72.75H80.9334C81.5225 72.75 82.0001 73.2537 82.0001 73.875V82.3125C82.0001 82.9338 81.5225 83.4375 80.9334 83.4375H78.8001C78.3036 83.4375 77.8865 83.0798 77.7675 82.5955C76.2838 82.6307 75.2655 83.9996 71.8407 83.9996C71.6001 83.9996 71.3334 84 71.1001 84C68.5295 84 67.3672 82.614 67.3354 80.6486C66.8914 80.0008 66.6588 79.1325 66.7574 78.2934C66.4289 77.6447 66.3019 76.8751 66.4577 76.0789ZM68.5161 77.9714C68.0974 78.7143 68.4741 79.7085 68.9807 79.9954C68.7241 81.7103 69.5677 82.3121 70.7514 82.3121H72.0121C74.4 82.3121 75.9464 80.9825 77.7334 80.9825V74.4375H77.3694C76.4241 74.4375 75.1034 71.9453 74.2181 71.0112C73.2727 70.0141 73.5877 68.3523 72.9574 67.6875C71.3817 67.6875 71.3817 68.847 71.3817 69.6819C71.3817 71.059 72.3271 71.676 72.3271 73.0056H68.8607C68.1571 73.0056 67.6031 73.6704 67.6001 74.3352C67.5971 74.9996 68.0274 75.6645 68.3424 75.6645C67.8928 76.1762 67.7967 77.2548 68.5161 77.9714V77.9714ZM79.0667 81.1875C79.0667 81.6535 79.4249 82.0312 79.8667 82.0312C80.3086 82.0312 80.6667 81.6535 80.6667 81.1875C80.6667 80.7215 80.3086 80.3438 79.8667 80.3438C79.4249 80.3438 79.0667 80.7215 79.0667 81.1875Z" fill="white"/>
<path d="M81.5424 100.921C81.8347 101.443 82.0001 102 82.0001 102.673C82.0001 104.221 80.7595 105.682 79.1394 105.682L77.9234 105.682C78.0874 106.132 78.2184 106.671 78.2184 107.318C78.2184 109.877 76.9621 111 75.0427 111C72.9892 111 73.1063 107.663 72.6507 107.182C71.8925 106.382 70.9969 104.846 70.3587 104.25L67.0667 104.25C66.4776 104.25 66.0001 103.746 66.0001 103.125L66.0001 94.6875C66.0001 94.0662 66.4776 93.5625 67.0667 93.5625L69.2001 93.5625C69.6965 93.5625 70.1137 93.9202 70.2327 94.4045C71.7163 94.3693 72.7347 93.0004 76.1594 93.0004C76.4001 93.0004 76.6667 93 76.9001 93C79.4706 93 80.6329 94.386 80.6647 96.3514C81.1087 96.9992 81.3414 97.8675 81.2427 98.7066C81.5712 99.3553 81.6982 100.125 81.5424 100.921ZM79.4841 99.0286C79.9027 98.2857 79.5261 97.2915 79.0194 97.0046C79.2761 95.2897 78.4325 94.6879 77.2487 94.6879L75.9881 94.6879C73.6001 94.6879 72.0538 96.0175 70.2667 96.0175L70.2667 102.563L70.6307 102.563C71.5761 102.563 72.8967 105.055 73.7821 105.989C74.7274 106.986 74.4124 108.648 75.0427 109.312C76.6184 109.312 76.6184 108.153 76.6184 107.318C76.6184 105.941 75.6731 105.324 75.6731 103.994L79.1394 103.994C79.8431 103.994 80.3971 103.33 80.4001 102.665C80.4031 102 79.9727 101.336 79.6577 101.336C80.1074 100.824 80.2034 99.7452 79.4841 99.0286V99.0286ZM68.9334 95.8125C68.9334 95.3465 68.5752 94.9688 68.1334 94.9688C67.6916 94.9688 67.3334 95.3465 67.3334 95.8125C67.3334 96.2785 67.6916 96.6563 68.1334 96.6563C68.5752 96.6563 68.9334 96.2785 68.9334 95.8125Z" fill="white"/>
</svg>
