<svg width="101" height="151" viewBox="0 0 101 151" fill="none" xmlns="http://www.w3.org/2000/svg">
<rect x="0.358643" width="100" height="150" rx="6" fill="#3B5998"/>
<path d="M12.3794 25.3959L12.5868 23.7671H11.2899V22.7101C11.2899 22.2645 11.4711 21.8302 12.0519 21.8302H12.6415V20.4434C12.6415 20.4434 12.1065 20.3334 11.5949 20.3334C10.5269 20.3334 9.82876 21.1135 9.82876 22.5257V23.7671H8.64154V25.3959H9.82876V29.3334H11.2899V25.3959H12.3794Z" fill="white"/>
<path d="M11.3018 4.20312H13.9385V13.0625C13.9385 13.877 13.7569 14.5977 13.3936 15.2246C13.0362 15.8457 12.5294 16.3262 11.8731 16.666C11.2169 17.0059 10.4756 17.1758 9.64948 17.1758C8.29596 17.1758 7.24127 16.833 6.48541 16.1475C5.72955 15.4561 5.35162 14.4805 5.35162 13.2207H8.00592C8.00592 13.8477 8.13776 14.3105 8.40143 14.6094C8.6651 14.9082 9.08112 15.0576 9.64948 15.0576C10.1534 15.0576 10.5547 14.8848 10.8536 14.5391C11.1524 14.1934 11.3018 13.7012 11.3018 13.0625V4.20312Z" fill="white"/>
<path d="M88.454 124.937L88.2466 126.566L89.5435 126.566L89.5435 127.623C89.5435 128.069 89.3623 128.503 88.7815 128.503L88.1919 128.503L88.1919 129.89C88.1919 129.89 88.7269 130 89.2385 130C90.3065 130 91.0047 129.22 91.0047 127.808L91.0047 126.566L92.1919 126.566L92.1919 124.938L91.0047 124.937L91.0047 121L89.5435 121L89.5435 124.937L88.454 124.937Z" fill="white"/>
<path d="M89.5316 146.13L86.8949 146.13L86.8949 137.271C86.8949 136.456 87.0765 135.736 87.4398 135.109C87.7972 134.488 88.3041 134.007 88.9603 133.667C89.6166 133.328 90.3578 133.158 91.184 133.158C92.5375 133.158 93.5922 133.5 94.348 134.186C95.1039 134.877 95.4818 135.853 95.4818 137.113L92.8275 137.113C92.8275 136.486 92.6957 136.023 92.432 135.724C92.1683 135.425 91.7523 135.276 91.184 135.276C90.6801 135.276 90.2787 135.449 89.9799 135.794C89.681 136.14 89.5316 136.632 89.5316 137.271L89.5316 146.13Z" fill="white"/>
<path d="M64.7719 81.75L66.535 67.9958H55.5113V59.0702C55.5113 55.3073 57.0512 51.6395 61.9884 51.6395H67V39.9292C67 39.9292 62.4521 39 58.1039 39C49.0255 39 43.0914 45.5877 43.0914 57.5131V67.9958H33V81.75H43.0914V115H55.5113V81.75H64.7719Z" fill="white"/>
</svg>
