<svg width="101" height="151" viewBox="0 0 101 151" fill="none" xmlns="http://www.w3.org/2000/svg">
<rect x="0.358643" width="100" height="150" rx="6" fill="#3B5998"/>
<path d="M12.3794 25.3959L12.5868 23.7671H11.2899V22.7101C11.2899 22.2645 11.4711 21.8302 12.0519 21.8302H12.6415V20.4434C12.6415 20.4434 12.1065 20.3334 11.5949 20.3334C10.5269 20.3334 9.82876 21.1135 9.82876 22.5257V23.7671H8.64154V25.3959H9.82876V29.3334H11.2899V25.3959H12.3794Z" fill="white"/>
<path d="M16.6368 10.8916C16.6368 12.0869 16.4434 13.127 16.0567 14.0117C15.67 14.8906 15.1339 15.5967 14.4483 16.1299L16.5753 17.7998L14.8965 19.2852L12.1719 17.0967C11.8614 17.1494 11.5391 17.1758 11.2051 17.1758C10.1446 17.1758 9.1983 16.9209 8.36627 16.4111C7.53424 15.9014 6.88971 15.1748 6.43268 14.2314C5.97565 13.2822 5.7442 12.1924 5.73834 10.9619V10.3291C5.73834 9.06934 5.96393 7.96191 6.4151 7.00684C6.87213 6.0459 7.51373 5.31055 8.3399 4.80078C9.17194 4.28516 10.1212 4.02734 11.1876 4.02734C12.254 4.02734 13.2003 4.28516 14.0264 4.80078C14.8585 5.31055 15.5001 6.0459 15.9512 7.00684C16.4083 7.96191 16.6368 9.06641 16.6368 10.3203V10.8916ZM13.9649 10.3115C13.9649 8.96973 13.7247 7.9502 13.2442 7.25293C12.7637 6.55566 12.0782 6.20703 11.1876 6.20703C10.3028 6.20703 9.62018 6.55273 9.13971 7.24414C8.65924 7.92969 8.41608 8.9375 8.41022 10.2676V10.8916C8.41022 12.1982 8.65045 13.2119 9.13092 13.9326C9.61139 14.6533 10.3028 15.0137 11.2051 15.0137C12.0899 15.0137 12.7696 14.668 13.2442 13.9766C13.7188 13.2793 13.959 12.2656 13.9649 10.9355V10.3115Z" fill="white"/>
<path d="M88.454 124.937L88.2466 126.566L89.5435 126.566L89.5435 127.623C89.5435 128.069 89.3623 128.503 88.7815 128.503L88.1919 128.503L88.1919 129.89C88.1919 129.89 88.7269 130 89.2385 130C90.3065 130 91.0047 129.22 91.0047 127.808L91.0047 126.566L92.1919 126.566L92.1919 124.938L91.0047 124.937L91.0047 121L89.5435 121L89.5435 124.937L88.454 124.937Z" fill="white"/>
<path d="M84.1967 139.442C84.1967 138.246 84.39 137.206 84.7767 136.322C85.1635 135.443 85.6996 134.737 86.3851 134.203L84.2582 132.534L85.9369 131.048L88.6615 133.237C88.972 133.184 89.2943 133.158 89.6283 133.158C90.6888 133.158 91.6351 133.412 92.4672 133.922C93.2992 134.432 93.9437 135.159 94.4008 136.102C94.8578 137.051 95.0892 138.141 95.0951 139.371L95.0951 140.004C95.0951 141.264 94.8695 142.371 94.4183 143.327C93.9613 144.287 93.3197 145.023 92.4935 145.533C91.6615 146.048 90.7123 146.306 89.6459 146.306C88.5795 146.306 87.6332 146.048 86.807 145.533C85.975 145.023 85.3334 144.287 84.8822 143.327C84.4252 142.371 84.1967 141.267 84.1967 140.013L84.1967 139.442ZM86.8685 140.022C86.8685 141.364 87.1088 142.383 87.5892 143.08C88.0697 143.778 88.7552 144.126 89.6459 144.126C90.5306 144.126 91.2133 143.781 91.6937 143.089C92.1742 142.404 92.4174 141.396 92.4232 140.066L92.4232 139.442C92.4232 138.135 92.183 137.121 91.7025 136.401C91.222 135.68 90.5306 135.32 89.6283 135.32C88.7435 135.32 88.0638 135.665 87.5892 136.357C87.1146 137.054 86.8744 138.068 86.8685 139.398L86.8685 140.022Z" fill="white"/>
<path d="M64.7719 81.75L66.535 67.9958H55.5113V59.0702C55.5113 55.3073 57.0512 51.6395 61.9884 51.6395H67V39.9292C67 39.9292 62.4521 39 58.1039 39C49.0255 39 43.0914 45.5877 43.0914 57.5131V67.9958H33V81.75H43.0914V115H55.5113V81.75H64.7719Z" fill="white"/>
</svg>
