<svg width="100" height="150" viewBox="0 0 100 150" fill="none" xmlns="http://www.w3.org/2000/svg">
<rect width="100" height="150" rx="6" fill="#C62C19"/>
<path d="M12.2903 22.9986C12.3261 23.1753 12.3516 23.352 12.3516 23.5812C12.3516 25.5819 10.914 27 8.75 27C6.67805 27 5 25.4338 5 23.5C5 21.5662 6.67805 20 8.75 20C9.76297 20 10.6071 20.3438 11.2619 20.9168L10.2438 21.8288C9.96758 21.5805 9.48158 21.2892 8.75 21.2892C7.47102 21.2892 6.42734 22.2776 6.42734 23.5C6.42734 24.7224 7.47102 25.7108 8.75 25.7108C10.2336 25.7108 10.7913 24.7128 10.8782 24.2019H8.75V22.9986H12.2903V22.9986ZM15.9115 23.116V22.1H14.8177V23.116H13.7292V24.1368H14.8177V25.1528H15.9115V24.1368H17V23.116H15.9115V23.116Z" fill="white"/>
<path d="M13.8524 7.60449C13.8524 8.22559 13.6971 8.77637 13.3865 9.25684C13.076 9.7373 12.6483 10.1211 12.1033 10.4082C12.7244 10.707 13.2166 11.1201 13.5799 11.6475C13.9432 12.1689 14.1248 12.7842 14.1248 13.4932C14.1248 14.6299 13.7381 15.5293 12.9647 16.1914C12.1912 16.8477 11.1395 17.1758 9.80939 17.1758C8.47931 17.1758 7.42462 16.8447 6.64532 16.1826C5.86603 15.5205 5.47638 14.624 5.47638 13.4932C5.47638 12.7842 5.65802 12.166 6.0213 11.6387C6.38458 11.1113 6.87384 10.7012 7.48907 10.4082C6.94415 10.1211 6.51642 9.7373 6.20587 9.25684C5.90118 8.77637 5.74884 8.22559 5.74884 7.60449C5.74884 6.51465 6.11212 5.64746 6.83868 5.00293C7.56525 4.35254 8.55255 4.02734 9.8006 4.02734C11.0428 4.02734 12.0272 4.34961 12.7537 4.99414C13.4861 5.63281 13.8524 6.50293 13.8524 7.60449ZM11.576 13.3086C11.576 12.752 11.4149 12.3066 11.0926 11.9727C10.7703 11.6387 10.3367 11.4717 9.79181 11.4717C9.25275 11.4717 8.82208 11.6387 8.49982 11.9727C8.17755 12.3008 8.01642 12.7461 8.01642 13.3086C8.01642 13.8535 8.17462 14.293 8.49103 14.627C8.80743 14.9609 9.24689 15.1279 9.80939 15.1279C10.3602 15.1279 10.7908 14.9668 11.1014 14.6445C11.4178 14.3223 11.576 13.877 11.576 13.3086ZM11.3123 7.72754C11.3123 7.22949 11.1805 6.83105 10.9168 6.53223C10.6531 6.22754 10.2811 6.0752 9.8006 6.0752C9.32599 6.0752 8.95685 6.22168 8.69318 6.51465C8.4295 6.80762 8.29767 7.21191 8.29767 7.72754C8.29767 8.2373 8.4295 8.64746 8.69318 8.95801C8.95685 9.26855 9.32892 9.42383 9.80939 9.42383C10.2899 9.42383 10.659 9.26855 10.9168 8.95801C11.1805 8.64746 11.3123 8.2373 11.3123 7.72754Z" fill="white"/>
<path d="M88.7097 127.001C88.6739 126.825 88.6484 126.648 88.6484 126.419C88.6484 124.418 90.086 123 92.25 123C94.322 123 96 124.566 96 126.5C96 128.434 94.322 130 92.25 130C91.237 130 90.3929 129.656 89.7381 129.083L90.7562 128.171C91.0324 128.42 91.5184 128.711 92.25 128.711C93.529 128.711 94.5727 127.722 94.5727 126.5C94.5727 125.278 93.529 124.289 92.25 124.289C90.7664 124.289 90.2087 125.287 90.1218 125.798L92.25 125.798L92.25 127.001L88.7097 127.001L88.7097 127.001ZM85.0885 126.884L85.0885 127.9L86.1823 127.9L86.1823 126.884L87.2708 126.884L87.2708 125.863L86.1823 125.863L86.1823 124.847L85.0885 124.847L85.0885 125.863L84 125.863L84 126.884L85.0885 126.884V126.884Z" fill="white"/>
<path d="M87.1476 142.396C87.1476 141.774 87.3029 141.224 87.6135 140.743C87.924 140.263 88.3517 139.879 88.8967 139.592C88.2756 139.293 87.7834 138.88 87.4201 138.353C87.0568 137.831 86.8752 137.216 86.8752 136.507C86.8752 135.37 87.2619 134.471 88.0353 133.809C88.8088 133.152 89.8605 132.824 91.1906 132.824C92.5207 132.824 93.5754 133.155 94.3547 133.817C95.134 134.479 95.5236 135.376 95.5236 136.507C95.5236 137.216 95.342 137.834 94.9787 138.361C94.6154 138.889 94.1262 139.299 93.5109 139.592C94.0558 139.879 94.4836 140.263 94.7941 140.743C95.0988 141.224 95.2512 141.774 95.2512 142.396C95.2512 143.485 94.8879 144.353 94.1613 144.997C93.4348 145.647 92.4474 145.973 91.1994 145.973C89.9572 145.973 88.9728 145.65 88.2463 145.006C87.5139 144.367 87.1476 143.497 87.1476 142.396ZM89.424 136.691C89.424 137.248 89.5851 137.693 89.9074 138.027C90.2297 138.361 90.6633 138.528 91.2082 138.528C91.7473 138.528 92.1779 138.361 92.5002 138.027C92.8224 137.699 92.9836 137.254 92.9836 136.691C92.9836 136.146 92.8254 135.707 92.509 135.373C92.1926 135.039 91.7531 134.872 91.1906 134.872C90.6398 134.872 90.2092 135.033 89.8986 135.355C89.5822 135.678 89.424 136.123 89.424 136.691ZM89.6877 142.272C89.6877 142.771 89.8195 143.169 90.0832 143.468C90.3469 143.772 90.7189 143.925 91.1994 143.925C91.674 143.925 92.0432 143.778 92.3068 143.485C92.5705 143.192 92.7023 142.788 92.7023 142.272C92.7023 141.763 92.5705 141.353 92.3068 141.042C92.0432 140.731 91.6711 140.576 91.1906 140.576C90.7101 140.576 90.341 140.731 90.0832 141.042C89.8195 141.353 89.6877 141.763 89.6877 142.272Z" fill="white"/>
<path d="M78.0714 49.8929H73.8929V54.0714C73.8929 54.5842 73.477 55 72.9643 55H72.0357C71.523 55 71.1071 54.5842 71.1071 54.0714V49.8929H66.9286C66.4158 49.8929 66 49.477 66 48.9643V48.0357C66 47.523 66.4158 47.1071 66.9286 47.1071H71.1071V42.9286C71.1071 42.4158 71.523 42 72.0357 42H72.9643C73.477 42 73.8929 42.4158 73.8929 42.9286V47.1071H78.0714C78.5842 47.1071 79 47.523 79 48.0357V48.9643C79 49.477 78.5842 49.8929 78.0714 49.8929Z" fill="white"/>
<path d="M78.0714 76.5H73.8929V81C73.8929 81.5522 73.477 82 72.9643 82H72.0357C71.523 82 71.1071 81.5522 71.1071 81V76.5H66.9286C66.4158 76.5 66 76.0522 66 75.5V74.5C66 73.9478 66.4158 73.5 66.9286 73.5H71.1071V69C71.1071 68.4478 71.523 68 72.0357 68H72.9643C73.477 68 73.8929 68.4478 73.8929 69V73.5H78.0714C78.5842 73.5 79 73.9478 79 74.5V75.5C79 76.0522 78.5842 76.5 78.0714 76.5Z" fill="white"/>
<path d="M78.0714 103.5H73.8929V108C73.8929 108.552 73.477 109 72.9643 109H72.0357C71.523 109 71.1071 108.552 71.1071 108V103.5H66.9286C66.4158 103.5 66 103.052 66 102.5V101.5C66 100.948 66.4158 100.5 66.9286 100.5H71.1071V96C71.1071 95.4478 71.523 95 72.0357 95H72.9643C73.477 95 73.8929 95.4478 73.8929 96V100.5H78.0714C78.5842 100.5 79 100.948 79 101.5V102.5C79 103.052 78.5842 103.5 78.0714 103.5Z" fill="white"/>
<path d="M33.0714 49.8929H28.8929V54.0714C28.8929 54.5842 28.477 55 27.9643 55H27.0357C26.523 55 26.1071 54.5842 26.1071 54.0714V49.8929H21.9286C21.4158 49.8929 21 49.477 21 48.9643V48.0357C21 47.523 21.4158 47.1071 21.9286 47.1071H26.1071V42.9286C26.1071 42.4158 26.523 42 27.0357 42H27.9643C28.477 42 28.8929 42.4158 28.8929 42.9286V47.1071H33.0714C33.5842 47.1071 34 47.523 34 48.0357V48.9643C34 49.477 33.5842 49.8929 33.0714 49.8929Z" fill="white"/>
<path d="M33.0714 76.5H28.8929V81C28.8929 81.5522 28.477 82 27.9643 82H27.0357C26.523 82 26.1071 81.5522 26.1071 81V76.5H21.9286C21.4158 76.5 21 76.0522 21 75.5V74.5C21 73.9478 21.4158 73.5 21.9286 73.5H26.1071V69C26.1071 68.4478 26.523 68 27.0357 68H27.9643C28.477 68 28.8929 68.4478 28.8929 69V73.5H33.0714C33.5842 73.5 34 73.9478 34 74.5V75.5C34 76.0522 33.5842 76.5 33.0714 76.5Z" fill="white"/>
<path d="M33.0714 102.893H28.8929V107.071C28.8929 107.584 28.477 108 27.9643 108H27.0357C26.523 108 26.1071 107.584 26.1071 107.071V102.893H21.9286C21.4158 102.893 21 102.477 21 101.964V101.036C21 100.523 21.4158 100.107 21.9286 100.107H26.1071V95.9286C26.1071 95.4158 26.523 95 27.0357 95H27.9643C28.477 95 28.8929 95.4158 28.8929 95.9286V100.107H33.0714C33.5842 100.107 34 100.523 34 101.036V101.964C34 102.477 33.5842 102.893 33.0714 102.893Z" fill="white"/>
<path d="M56.0714 61.8929H51.8929V66.0714C51.8929 66.5842 51.477 67 50.9643 67H50.0357C49.523 67 49.1071 66.5842 49.1071 66.0714V61.8929H44.9286C44.4158 61.8929 44 61.477 44 60.9643V60.0357C44 59.523 44.4158 59.1071 44.9286 59.1071H49.1071V54.9286C49.1071 54.4158 49.523 54 50.0357 54H50.9643C51.477 54 51.8929 54.4158 51.8929 54.9286V59.1071H56.0714C56.5842 59.1071 57 59.523 57 60.0357V60.9643C57 61.477 56.5842 61.8929 56.0714 61.8929Z" fill="white"/>
<path d="M56.0714 88.5H51.8929V93C51.8929 93.5522 51.477 94 50.9643 94H50.0357C49.523 94 49.1071 93.5522 49.1071 93V88.5H44.9286C44.4158 88.5 44 88.0522 44 87.5V86.5C44 85.9478 44.4158 85.5 44.9286 85.5H49.1071V81C49.1071 80.4478 49.523 80 50.0357 80H50.9643C51.477 80 51.8929 80.4478 51.8929 81V85.5H56.0714C56.5842 85.5 57 85.9478 57 86.5V87.5C57 88.0522 56.5842 88.5 56.0714 88.5Z" fill="white"/>
</svg>
