<svg width="100" height="150" viewBox="0 0 100 150" fill="none" xmlns="http://www.w3.org/2000/svg">
<rect width="100" height="150" rx="6" fill="#C62C19"/>
<path d="M12.2903 22.9986C12.3261 23.1753 12.3516 23.352 12.3516 23.5812C12.3516 25.5819 10.914 27 8.75 27C6.67805 27 5 25.4338 5 23.5C5 21.5662 6.67805 20 8.75 20C9.76297 20 10.6071 20.3438 11.2619 20.9168L10.2438 21.8288C9.96758 21.5805 9.48158 21.2892 8.75 21.2892C7.47102 21.2892 6.42734 22.2776 6.42734 23.5C6.42734 24.7224 7.47102 25.7108 8.75 25.7108C10.2336 25.7108 10.7913 24.7128 10.8782 24.2019H8.75V22.9986H12.2903V22.9986ZM15.9115 23.116V22.1H14.8177V23.116H13.7292V24.1368H14.8177V25.1528H15.9115V24.1368H17V23.116H15.9115V23.116Z" fill="white"/>
<path d="M10.9432 4.20312H13.5799V13.0625C13.5799 13.877 13.3983 14.5977 13.035 15.2246C12.6776 15.8457 12.1707 16.3262 11.5145 16.666C10.8582 17.0059 10.117 17.1758 9.29083 17.1758C7.93732 17.1758 6.88263 16.833 6.12677 16.1475C5.37091 15.4561 4.99298 14.4805 4.99298 13.2207H7.64728C7.64728 13.8477 7.77911 14.3105 8.04279 14.6094C8.30646 14.9082 8.72247 15.0576 9.29083 15.0576C9.79474 15.0576 10.1961 14.8848 10.4949 14.5391C10.7938 14.1934 10.9432 13.7012 10.9432 13.0625V4.20312Z" fill="white"/>
<path d="M88.7097 127.001C88.6739 126.825 88.6484 126.648 88.6484 126.419C88.6484 124.418 90.086 123 92.25 123C94.322 123 96 124.566 96 126.5C96 128.434 94.322 130 92.25 130C91.237 130 90.3929 129.656 89.7381 129.083L90.7562 128.171C91.0324 128.42 91.5184 128.711 92.25 128.711C93.529 128.711 94.5727 127.722 94.5727 126.5C94.5727 125.278 93.529 124.289 92.25 124.289C90.7664 124.289 90.2087 125.287 90.1218 125.798L92.25 125.798L92.25 127.001L88.7097 127.001L88.7097 127.001ZM85.0885 126.884L85.0885 127.9L86.1823 127.9L86.1823 126.884L87.2708 126.884L87.2708 125.863L86.1823 125.863L86.1823 124.847L85.0885 124.847L85.0885 125.863L84 125.863L84 126.884L85.0885 126.884V126.884Z" fill="white"/>
<path d="M90.0568 145.797L87.4201 145.797L87.4201 136.937C87.4201 136.123 87.6017 135.402 87.965 134.775C88.3225 134.154 88.8293 133.674 89.4855 133.334C90.1418 132.994 90.883 132.824 91.7092 132.824C93.0627 132.824 94.1174 133.167 94.8732 133.853C95.6291 134.544 96.007 135.52 96.007 136.779L93.3527 136.779C93.3527 136.152 93.2209 135.689 92.9572 135.391C92.6935 135.092 92.2775 134.942 91.7092 134.942C91.2053 134.942 90.8039 135.115 90.5051 135.461C90.2062 135.807 90.0568 136.299 90.0568 136.937L90.0568 145.797Z" fill="white"/>
<path d="M60.0964 71.2783C60.2934 72.2374 60.434 73.1965 60.434 74.4406C60.434 85.3015 52.5272 93 40.625 93C29.2293 93 20 84.498 20 74C20 63.502 29.2293 55 40.625 55C46.1963 55 50.839 56.8663 54.4406 59.9768L48.8412 64.9277C47.3217 63.5798 44.6487 61.9986 40.625 61.9986C33.5906 61.9986 27.8504 67.3643 27.8504 74C27.8504 80.6358 33.5906 86.0014 40.625 86.0014C48.7849 86.0014 51.852 80.5839 52.3302 77.8103H40.625V71.2782H60.0964V71.2783ZM80.0131 71.9152V66.4H73.9973V71.9152H68.0104V77.457H73.9973V82.9723H80.0131V77.457H86V71.9152H80.0131V71.9152Z" fill="white"/>
</svg>
