<svg width="100" height="150" viewBox="0 0 100 150" fill="none" xmlns="http://www.w3.org/2000/svg">
<rect width="100" height="150" rx="6" fill="#C62C19"/>
<path d="M12.2903 22.9986C12.3261 23.1753 12.3516 23.352 12.3516 23.5812C12.3516 25.5819 10.914 27 8.75 27C6.67805 27 5 25.4338 5 23.5C5 21.5662 6.67805 20 8.75 20C9.76297 20 10.6071 20.3438 11.2619 20.9168L10.2438 21.8288C9.96758 21.5805 9.48158 21.2892 8.75 21.2892C7.47102 21.2892 6.42734 22.2776 6.42734 23.5C6.42734 24.7224 7.47102 25.7108 8.75 25.7108C10.2336 25.7108 10.7913 24.7128 10.8782 24.2019H8.75V22.9986H12.2903V22.9986ZM15.9115 23.116V22.1H14.8177V23.116H13.7292V24.1368H14.8177V25.1528H15.9115V24.1368H17V23.116H15.9115V23.116Z" fill="white"/>
<path d="M9.79181 11.8672L8.42072 13.3438V17H5.784V4.20312H8.42072V10.0039L9.58087 8.41309L12.8416 4.20312H16.0848L11.5408 9.88965L16.2166 17H13.0789L9.79181 11.8672Z" fill="white"/>
<path d="M88.7097 127.001C88.6739 126.825 88.6484 126.648 88.6484 126.419C88.6484 124.418 90.086 123 92.25 123C94.322 123 96 124.566 96 126.5C96 128.434 94.322 130 92.25 130C91.237 130 90.3929 129.656 89.7381 129.083L90.7562 128.171C91.0324 128.42 91.5184 128.711 92.25 128.711C93.529 128.711 94.5727 127.722 94.5727 126.5C94.5727 125.278 93.529 124.289 92.25 124.289C90.7664 124.289 90.2087 125.287 90.1218 125.798L92.25 125.798L92.25 127.001L88.7097 127.001L88.7097 127.001ZM85.0885 126.884L85.0885 127.9L86.1823 127.9L86.1823 126.884L87.2708 126.884L87.2708 125.863L86.1823 125.863L86.1823 124.847L85.0885 124.847L85.0885 125.863L84 125.863L84 126.884L85.0885 126.884V126.884Z" fill="white"/>
<path d="M91.2082 138.133L92.5793 136.656L92.5793 133L95.216 133L95.216 145.797L92.5793 145.797L92.5793 139.996L91.4191 141.587L88.1584 145.797L84.9152 145.797L89.4592 140.11L84.7834 133L87.9211 133L91.2082 138.133Z" fill="white"/>
<path d="M60.0964 71.2783C60.2934 72.2374 60.434 73.1965 60.434 74.4406C60.434 85.3015 52.5272 93 40.625 93C29.2293 93 20 84.498 20 74C20 63.502 29.2293 55 40.625 55C46.1963 55 50.839 56.8663 54.4406 59.9768L48.8412 64.9277C47.3217 63.5798 44.6487 61.9986 40.625 61.9986C33.5906 61.9986 27.8504 67.3643 27.8504 74C27.8504 80.6358 33.5906 86.0014 40.625 86.0014C48.7849 86.0014 51.852 80.5839 52.3302 77.8103H40.625V71.2782H60.0964V71.2783ZM80.0131 71.9152V66.4H73.9973V71.9152H68.0104V77.457H73.9973V82.9723H80.0131V77.457H86V71.9152H80.0131V71.9152Z" fill="white"/>
</svg>
