<svg width="100" height="150" viewBox="0 0 100 150" fill="none" xmlns="http://www.w3.org/2000/svg">
<rect width="100" height="150" rx="6" fill="#1DA1F2"/>
<path d="M14.283 17H5.51154V15.2598L9.65118 10.8477C10.2195 10.2266 10.6385 9.68457 10.908 9.22168C11.1834 8.75879 11.3211 8.31934 11.3211 7.90332C11.3211 7.33496 11.1776 6.88965 10.8904 6.56738C10.6033 6.23926 10.1932 6.0752 9.65997 6.0752C9.08575 6.0752 8.63165 6.27441 8.29767 6.67285C7.96954 7.06543 7.80548 7.58398 7.80548 8.22852H5.25665C5.25665 7.44922 5.44122 6.7373 5.81036 6.09277C6.18536 5.44824 6.71271 4.94434 7.3924 4.58105C8.07208 4.21191 8.84259 4.02734 9.70392 4.02734C11.0223 4.02734 12.0447 4.34375 12.7713 4.97656C13.5037 5.60938 13.8699 6.50293 13.8699 7.65723C13.8699 8.29004 13.7059 8.93457 13.3777 9.59082C13.0496 10.2471 12.4871 11.0117 11.6902 11.8848L8.78107 14.9521H14.283V17Z" fill="white"/>
<path d="M14.8693 22.243C14.8763 22.3414 14.8763 22.4398 14.8763 22.5383C14.8763 25.5406 12.6079 29 8.46194 29C7.18465 29 5.9981 28.6273 5 27.9805C5.18148 28.0016 5.35595 28.0086 5.54442 28.0086C6.59834 28.0086 7.56853 27.65 8.34328 27.0383C7.35216 27.0172 6.52157 26.3633 6.2354 25.4633C6.37501 25.4844 6.51459 25.4984 6.66118 25.4984C6.86358 25.4984 7.06601 25.4703 7.25445 25.4211C6.22146 25.2101 5.44668 24.2961 5.44668 23.1922V23.1641C5.7468 23.3328 6.09581 23.4383 6.46571 23.4523C5.85848 23.0445 5.46065 22.3484 5.46065 21.5609C5.46065 21.1391 5.5723 20.7523 5.76775 20.4148C6.87753 21.793 8.54569 22.6929 10.4162 22.7914C10.3813 22.6226 10.3604 22.4469 10.3604 22.2711C10.3604 21.0195 11.3655 20 12.6148 20C13.264 20 13.8502 20.2742 14.2621 20.7172C14.7716 20.6188 15.2601 20.4289 15.6929 20.1688C15.5254 20.6961 15.1694 21.1391 14.7018 21.4203C15.1555 21.3711 15.5952 21.2445 16 21.0688C15.6929 21.5187 15.309 21.9195 14.8693 22.243V22.243Z" fill="white"/>
<path d="M85.717 133L94.4885 133L94.4885 134.74L90.3488 139.152C89.7805 139.773 89.3615 140.315 89.092 140.778C88.8166 141.241 88.6789 141.681 88.6789 142.097C88.6789 142.665 88.8224 143.11 89.1096 143.433C89.3967 143.761 89.8068 143.925 90.34 143.925C90.9142 143.925 91.3683 143.726 91.7023 143.327C92.0305 142.935 92.1945 142.416 92.1945 141.771L94.7433 141.771C94.7433 142.551 94.5588 143.263 94.1896 143.907C93.8146 144.552 93.2873 145.056 92.6076 145.419C91.9279 145.788 91.1574 145.973 90.2961 145.973C88.9777 145.973 87.9553 145.656 87.2287 145.023C86.4963 144.391 86.1301 143.497 86.1301 142.343C86.1301 141.71 86.2941 141.065 86.6223 140.409C86.9504 139.753 87.5129 138.988 88.3098 138.115L91.2189 135.048L85.717 135.048L85.717 133Z" fill="white"/>
<path d="M85.1307 127.757C85.1237 127.659 85.1237 127.56 85.1237 127.462C85.1237 124.459 87.3921 121 91.5381 121C92.8154 121 94.0019 121.373 95 122.02C94.8185 121.998 94.644 121.991 94.4556 121.991C93.4017 121.991 92.4315 122.35 91.6567 122.962C92.6478 122.983 93.4784 123.637 93.7646 124.537C93.625 124.516 93.4854 124.502 93.3388 124.502C93.1364 124.502 92.934 124.53 92.7456 124.579C93.7785 124.79 94.5533 125.704 94.5533 126.808L94.5533 126.836C94.2532 126.667 93.9042 126.562 93.5343 126.548C94.1415 126.955 94.5394 127.652 94.5394 128.439C94.5394 128.861 94.4277 129.248 94.2323 129.585C93.1225 128.207 91.4543 127.307 89.5838 127.209C89.6187 127.377 89.6396 127.553 89.6396 127.729C89.6396 128.98 88.6345 130 87.3852 130C86.736 130 86.1498 129.726 85.7379 129.283C85.2284 129.381 84.7399 129.571 84.3071 129.831C84.4746 129.304 84.8306 128.861 85.2982 128.58C84.8445 128.629 84.4048 128.755 84 128.931C84.3071 128.481 84.691 128.08 85.1307 127.757V127.757Z" fill="white"/>
<path d="M49.0014 33C42.9264 33 38.0029 37.1563 38.0029 42.2857C38.0029 44.4107 38.8578 46.3571 40.2756 47.9241C39.6355 49.683 38.3036 51.1741 38.2821 51.192C37.9986 51.5045 37.9212 51.9598 38.0845 52.3527C38.2477 52.7455 38.6215 53 39.034 53C41.6762 53 43.7599 51.8527 45.0101 50.933C46.2518 51.3393 47.5922 51.5714 49.0014 51.5714C55.0764 51.5714 60 47.4152 60 42.2857C60 37.1563 55.0764 33 49.0014 33ZM49.0014 49.4286C47.8543 49.4286 46.7201 49.2455 45.6331 48.8884L44.6578 48.567L43.8201 49.183C43.2057 49.6339 42.3636 50.1384 41.3497 50.4777C41.6633 49.9375 41.9684 49.3304 42.2047 48.683L42.6601 47.4286L41.775 46.4554C40.9974 45.5938 40.0651 44.1696 40.0651 42.2857C40.0651 38.3482 44.0735 35.1429 49.0014 35.1429C53.9293 35.1429 57.9378 38.3482 57.9378 42.2857C57.9378 46.2232 53.9293 49.4286 49.0014 49.4286Z" fill="white"/>
<path d="M48.9986 113C55.0736 113 59.9971 108.844 59.9971 103.714C59.9971 101.589 59.1422 99.6429 57.7244 98.0759C58.3645 96.317 59.6964 94.8259 59.7179 94.808C60.0014 94.4955 60.0788 94.0402 59.9155 93.6473C59.7523 93.2545 59.3785 93 58.966 93C56.3238 93 54.2401 94.1473 52.9899 95.067C51.7482 94.6607 50.4078 94.4286 48.9986 94.4286C42.9236 94.4286 38 98.5848 38 103.714C38 108.844 42.9236 113 48.9986 113ZM48.9986 96.5714C50.1457 96.5714 51.2799 96.7545 52.3669 97.1116L53.3422 97.433L54.1799 96.817C54.7943 96.3661 55.6364 95.8616 56.6503 95.5223C56.3367 96.0625 56.0316 96.6696 55.7954 97.317L55.3399 98.5714L56.225 99.5446C57.0026 100.406 57.9349 101.83 57.9349 103.714C57.9349 107.652 53.9264 110.857 48.9986 110.857C44.0707 110.857 40.0622 107.652 40.0622 103.714C40.0622 99.7768 44.0707 96.5714 48.9986 96.5714Z" fill="white"/>
</svg>
