<svg width="100" height="150" viewBox="0 0 100 150" fill="none" xmlns="http://www.w3.org/2000/svg">
<rect width="100" height="150" rx="6" fill="#1DA1F2"/>
<path d="M8.09552 9.47656H9.44904C10.0936 9.47656 10.5711 9.31543 10.8817 8.99316C11.1922 8.6709 11.3475 8.24316 11.3475 7.70996C11.3475 7.19434 11.1922 6.79297 10.8817 6.50586C10.577 6.21875 10.1551 6.0752 9.61603 6.0752C9.1297 6.0752 8.72247 6.20996 8.39435 6.47949C8.06622 6.74316 7.90216 7.08887 7.90216 7.5166H5.36212C5.36212 6.84863 5.54083 6.25098 5.89825 5.72363C6.26154 5.19043 6.76544 4.77441 7.40997 4.47559C8.06036 4.17676 8.77521 4.02734 9.5545 4.02734C10.908 4.02734 11.9686 4.35254 12.7361 5.00293C13.5037 5.64746 13.8875 6.53809 13.8875 7.6748C13.8875 8.26074 13.7088 8.7998 13.3514 9.29199C12.994 9.78418 12.5252 10.1621 11.9451 10.4258C12.6658 10.6836 13.202 11.0703 13.5535 11.5859C13.9109 12.1016 14.0897 12.7109 14.0897 13.4141C14.0897 14.5508 13.6736 15.4619 12.8416 16.1475C12.0154 16.833 10.9197 17.1758 9.5545 17.1758C8.27716 17.1758 7.23126 16.8389 6.41681 16.165C5.60822 15.4912 5.20392 14.6006 5.20392 13.4932H7.74396C7.74396 13.9736 7.92267 14.3662 8.28009 14.6709C8.64337 14.9756 9.08868 15.1279 9.61603 15.1279C10.2195 15.1279 10.6912 14.9697 11.0311 14.6533C11.3768 14.3311 11.5496 13.9062 11.5496 13.3789C11.5496 12.1016 10.8465 11.4629 9.44025 11.4629H8.09552V9.47656Z" fill="white"/>
<path d="M14.8693 22.243C14.8763 22.3414 14.8763 22.4398 14.8763 22.5383C14.8763 25.5406 12.6079 29 8.46194 29C7.18465 29 5.9981 28.6273 5 27.9805C5.18148 28.0016 5.35595 28.0086 5.54442 28.0086C6.59834 28.0086 7.56853 27.65 8.34328 27.0383C7.35216 27.0172 6.52157 26.3633 6.2354 25.4633C6.37501 25.4844 6.51459 25.4984 6.66118 25.4984C6.86358 25.4984 7.06601 25.4703 7.25445 25.4211C6.22146 25.2101 5.44668 24.2961 5.44668 23.1922V23.1641C5.7468 23.3328 6.09581 23.4383 6.46571 23.4523C5.85848 23.0445 5.46065 22.3484 5.46065 21.5609C5.46065 21.1391 5.5723 20.7523 5.76775 20.4148C6.87753 21.793 8.54569 22.6929 10.4162 22.7914C10.3813 22.6226 10.3604 22.4469 10.3604 22.2711C10.3604 21.0195 11.3655 20 12.6148 20C13.264 20 13.8502 20.2742 14.2621 20.7172C14.7716 20.6188 15.2601 20.4289 15.6929 20.1688C15.5254 20.6961 15.1694 21.1391 14.7018 21.4203C15.1555 21.3711 15.5952 21.2445 16 21.0688C15.6929 21.5187 15.309 21.9195 14.8693 22.243V22.243Z" fill="white"/>
<path d="M91.9045 140.523L90.551 140.523C89.9064 140.523 89.4289 140.685 89.1183 141.007C88.8078 141.329 88.6525 141.757 88.6525 142.29C88.6525 142.806 88.8078 143.207 89.1183 143.494C89.423 143.781 89.8449 143.925 90.384 143.925C90.8703 143.925 91.2775 143.79 91.6057 143.521C91.9338 143.257 92.0978 142.911 92.0978 142.483L94.6379 142.483C94.6379 143.151 94.4592 143.749 94.1017 144.276C93.7385 144.81 93.2346 145.226 92.59 145.524C91.9396 145.823 91.2248 145.973 90.4455 145.973C89.092 145.973 88.0314 145.647 87.2639 144.997C86.4963 144.353 86.1125 143.462 86.1125 142.325C86.1125 141.739 86.2912 141.2 86.6486 140.708C87.006 140.216 87.4748 139.838 88.0549 139.574C87.3342 139.316 86.798 138.93 86.4465 138.414C86.0891 137.898 85.9103 137.289 85.9103 136.586C85.9103 135.449 86.3264 134.538 87.1584 133.853C87.9846 133.167 89.0803 132.824 90.4455 132.824C91.7228 132.824 92.7687 133.161 93.5832 133.835C94.3918 134.509 94.7961 135.399 94.7961 136.507L92.256 136.507C92.256 136.026 92.0773 135.634 91.7199 135.329C91.3566 135.024 90.9113 134.872 90.384 134.872C89.7805 134.872 89.3088 135.03 88.9689 135.347C88.6232 135.669 88.4504 136.094 88.4504 136.621C88.4504 137.898 89.1535 138.537 90.5598 138.537L91.9045 138.537L91.9045 140.523Z" fill="white"/>
<path d="M85.1307 127.757C85.1237 127.659 85.1237 127.56 85.1237 127.462C85.1237 124.459 87.3921 121 91.5381 121C92.8154 121 94.0019 121.373 95 122.02C94.8185 121.998 94.644 121.991 94.4556 121.991C93.4017 121.991 92.4315 122.35 91.6567 122.962C92.6478 122.983 93.4784 123.637 93.7646 124.537C93.625 124.516 93.4854 124.502 93.3388 124.502C93.1364 124.502 92.934 124.53 92.7456 124.579C93.7785 124.79 94.5533 125.704 94.5533 126.808L94.5533 126.836C94.2532 126.667 93.9042 126.562 93.5343 126.548C94.1415 126.955 94.5394 127.652 94.5394 128.439C94.5394 128.861 94.4277 129.248 94.2323 129.585C93.1225 128.207 91.4543 127.307 89.5838 127.209C89.6187 127.377 89.6396 127.553 89.6396 127.729C89.6396 128.98 88.6345 130 87.3852 130C86.736 130 86.1498 129.726 85.7379 129.283C85.2284 129.381 84.7399 129.571 84.3071 129.831C84.4746 129.304 84.8306 128.861 85.2982 128.58C84.8445 128.629 84.4048 128.755 84 128.931C84.3071 128.481 84.691 128.08 85.1307 127.757V127.757Z" fill="white"/>
<path d="M49.0014 33C42.9264 33 38.0029 37.1563 38.0029 42.2857C38.0029 44.4107 38.8578 46.3571 40.2756 47.9241C39.6355 49.683 38.3036 51.1741 38.2821 51.192C37.9986 51.5045 37.9212 51.9598 38.0845 52.3527C38.2477 52.7455 38.6215 53 39.034 53C41.6762 53 43.7599 51.8527 45.0101 50.933C46.2518 51.3393 47.5922 51.5714 49.0014 51.5714C55.0764 51.5714 60 47.4152 60 42.2857C60 37.1563 55.0764 33 49.0014 33ZM49.0014 49.4286C47.8543 49.4286 46.7201 49.2455 45.6331 48.8884L44.6578 48.567L43.8201 49.183C43.2057 49.6339 42.3636 50.1384 41.3497 50.4777C41.6633 49.9375 41.9684 49.3304 42.2047 48.683L42.6601 47.4286L41.775 46.4554C40.9974 45.5938 40.0651 44.1696 40.0651 42.2857C40.0651 38.3482 44.0735 35.1429 49.0014 35.1429C53.9293 35.1429 57.9378 38.3482 57.9378 42.2857C57.9378 46.2232 53.9293 49.4286 49.0014 49.4286Z" fill="white"/>
<path d="M49.0014 63C42.9264 63 38.0029 67.1563 38.0029 72.2857C38.0029 74.4107 38.8578 76.3571 40.2756 77.9241C39.6355 79.683 38.3036 81.1741 38.2821 81.192C37.9986 81.5045 37.9212 81.9598 38.0845 82.3527C38.2477 82.7455 38.6215 83 39.034 83C41.6762 83 43.7599 81.8527 45.0101 80.933C46.2518 81.3393 47.5922 81.5714 49.0014 81.5714C55.0764 81.5714 60 77.4152 60 72.2857C60 67.1563 55.0764 63 49.0014 63ZM49.0014 79.4286C47.8543 79.4286 46.7201 79.2455 45.6331 78.8884L44.6578 78.567L43.8201 79.183C43.2057 79.6339 42.3636 80.1384 41.3497 80.4777C41.6633 79.9375 41.9684 79.3304 42.2047 78.683L42.6601 77.4286L41.775 76.4554C40.9974 75.5938 40.0651 74.1696 40.0651 72.2857C40.0651 68.3482 44.0735 65.1429 49.0014 65.1429C53.9293 65.1429 57.9378 68.3482 57.9378 72.2857C57.9378 76.2232 53.9293 79.4286 49.0014 79.4286Z" fill="white"/>
<path d="M48.9986 113C55.0736 113 59.9971 108.844 59.9971 103.714C59.9971 101.589 59.1422 99.6429 57.7244 98.0759C58.3645 96.317 59.6964 94.8259 59.7179 94.808C60.0014 94.4955 60.0788 94.0402 59.9155 93.6473C59.7523 93.2545 59.3785 93 58.966 93C56.3238 93 54.2401 94.1473 52.9899 95.067C51.7482 94.6607 50.4078 94.4286 48.9986 94.4286C42.9236 94.4286 38 98.5848 38 103.714C38 108.844 42.9236 113 48.9986 113ZM48.9986 96.5714C50.1457 96.5714 51.2799 96.7545 52.3669 97.1116L53.3422 97.433L54.1799 96.817C54.7943 96.3661 55.6364 95.8616 56.6503 95.5223C56.3367 96.0625 56.0316 96.6696 55.7954 97.317L55.3399 98.5714L56.225 99.5446C57.0026 100.406 57.9349 101.83 57.9349 103.714C57.9349 107.652 53.9264 110.857 48.9986 110.857C44.0707 110.857 40.0622 107.652 40.0622 103.714C40.0622 99.7768 44.0707 96.5714 48.9986 96.5714Z" fill="white"/>
</svg>
