<svg width="100" height="150" viewBox="0 0 100 150" fill="none" xmlns="http://www.w3.org/2000/svg">
<rect width="100" height="150" rx="6" fill="#1DA1F2"/>
<path d="M13.8524 7.60449C13.8524 8.22559 13.6971 8.77637 13.3865 9.25684C13.076 9.7373 12.6483 10.1211 12.1033 10.4082C12.7244 10.707 13.2166 11.1201 13.5799 11.6475C13.9432 12.1689 14.1248 12.7842 14.1248 13.4932C14.1248 14.6299 13.7381 15.5293 12.9647 16.1914C12.1912 16.8477 11.1395 17.1758 9.80939 17.1758C8.47931 17.1758 7.42462 16.8447 6.64532 16.1826C5.86603 15.5205 5.47638 14.624 5.47638 13.4932C5.47638 12.7842 5.65802 12.166 6.0213 11.6387C6.38458 11.1113 6.87384 10.7012 7.48907 10.4082C6.94415 10.1211 6.51642 9.7373 6.20587 9.25684C5.90118 8.77637 5.74884 8.22559 5.74884 7.60449C5.74884 6.51465 6.11212 5.64746 6.83868 5.00293C7.56525 4.35254 8.55255 4.02734 9.8006 4.02734C11.0428 4.02734 12.0272 4.34961 12.7537 4.99414C13.4861 5.63281 13.8524 6.50293 13.8524 7.60449ZM11.576 13.3086C11.576 12.752 11.4149 12.3066 11.0926 11.9727C10.7703 11.6387 10.3367 11.4717 9.79181 11.4717C9.25275 11.4717 8.82208 11.6387 8.49982 11.9727C8.17755 12.3008 8.01642 12.7461 8.01642 13.3086C8.01642 13.8535 8.17462 14.293 8.49103 14.627C8.80743 14.9609 9.24689 15.1279 9.80939 15.1279C10.3602 15.1279 10.7908 14.9668 11.1014 14.6445C11.4178 14.3223 11.576 13.877 11.576 13.3086ZM11.3123 7.72754C11.3123 7.22949 11.1805 6.83105 10.9168 6.53223C10.6531 6.22754 10.2811 6.0752 9.8006 6.0752C9.32599 6.0752 8.95685 6.22168 8.69318 6.51465C8.4295 6.80762 8.29767 7.21191 8.29767 7.72754C8.29767 8.2373 8.4295 8.64746 8.69318 8.95801C8.95685 9.26855 9.32892 9.42383 9.80939 9.42383C10.2899 9.42383 10.659 9.26855 10.9168 8.95801C11.1805 8.64746 11.3123 8.2373 11.3123 7.72754Z" fill="white"/>
<path d="M14.8693 22.243C14.8763 22.3414 14.8763 22.4398 14.8763 22.5383C14.8763 25.5406 12.6079 29 8.46194 29C7.18465 29 5.9981 28.6273 5 27.9805C5.18148 28.0016 5.35595 28.0086 5.54442 28.0086C6.59834 28.0086 7.56853 27.65 8.34328 27.0383C7.35216 27.0172 6.52157 26.3633 6.2354 25.4633C6.37501 25.4844 6.51459 25.4984 6.66118 25.4984C6.86358 25.4984 7.06601 25.4703 7.25445 25.4211C6.22146 25.2101 5.44668 24.2961 5.44668 23.1922V23.1641C5.7468 23.3328 6.09581 23.4383 6.46571 23.4523C5.85848 23.0445 5.46065 22.3484 5.46065 21.5609C5.46065 21.1391 5.5723 20.7523 5.76775 20.4148C6.87753 21.793 8.54569 22.6929 10.4162 22.7914C10.3813 22.6226 10.3604 22.4469 10.3604 22.2711C10.3604 21.0195 11.3655 20 12.6148 20C13.264 20 13.8502 20.2742 14.2621 20.7172C14.7716 20.6188 15.2601 20.4289 15.6929 20.1688C15.5254 20.6961 15.1694 21.1391 14.7018 21.4203C15.1555 21.3711 15.5952 21.2445 16 21.0688C15.6929 21.5187 15.309 21.9195 14.8693 22.243V22.243Z" fill="white"/>
<path d="M86.1476 142.396C86.1476 141.774 86.3029 141.224 86.6135 140.743C86.924 140.263 87.3517 139.879 87.8967 139.592C87.2756 139.293 86.7834 138.88 86.4201 138.353C86.0568 137.831 85.8752 137.216 85.8752 136.507C85.8752 135.37 86.2619 134.471 87.0353 133.809C87.8088 133.152 88.8605 132.824 90.1906 132.824C91.5207 132.824 92.5754 133.155 93.3547 133.817C94.134 134.479 94.5236 135.376 94.5236 136.507C94.5236 137.216 94.342 137.834 93.9787 138.361C93.6154 138.889 93.1262 139.299 92.5109 139.592C93.0558 139.879 93.4836 140.263 93.7941 140.743C94.0988 141.224 94.2512 141.774 94.2512 142.396C94.2512 143.485 93.8879 144.353 93.1613 144.997C92.4348 145.647 91.4474 145.973 90.1994 145.973C88.9572 145.973 87.9728 145.65 87.2463 145.006C86.5139 144.367 86.1476 143.497 86.1476 142.396ZM88.424 136.691C88.424 137.248 88.5851 137.693 88.9074 138.027C89.2297 138.361 89.6633 138.528 90.2082 138.528C90.7473 138.528 91.1779 138.361 91.5002 138.027C91.8224 137.699 91.9836 137.254 91.9836 136.691C91.9836 136.146 91.8254 135.707 91.509 135.373C91.1926 135.039 90.7531 134.872 90.1906 134.872C89.6398 134.872 89.2092 135.033 88.8986 135.355C88.5822 135.678 88.424 136.123 88.424 136.691ZM88.6877 142.272C88.6877 142.771 88.8195 143.169 89.0832 143.468C89.3469 143.772 89.7189 143.925 90.1994 143.925C90.674 143.925 91.0432 143.778 91.3068 143.485C91.5705 143.192 91.7023 142.788 91.7023 142.272C91.7023 141.763 91.5705 141.353 91.3068 141.042C91.0432 140.731 90.6711 140.576 90.1906 140.576C89.7101 140.576 89.341 140.731 89.0832 141.042C88.8195 141.353 88.6877 141.763 88.6877 142.272Z" fill="white"/>
<path d="M85.1307 127.757C85.1237 127.659 85.1237 127.56 85.1237 127.462C85.1237 124.459 87.3921 121 91.5381 121C92.8154 121 94.0019 121.373 95 122.02C94.8185 121.998 94.644 121.991 94.4556 121.991C93.4017 121.991 92.4315 122.35 91.6567 122.962C92.6478 122.983 93.4784 123.637 93.7646 124.537C93.625 124.516 93.4854 124.502 93.3388 124.502C93.1364 124.502 92.934 124.53 92.7456 124.579C93.7785 124.79 94.5533 125.704 94.5533 126.808L94.5533 126.836C94.2532 126.667 93.9042 126.562 93.5343 126.548C94.1415 126.955 94.5394 127.652 94.5394 128.439C94.5394 128.861 94.4277 129.248 94.2323 129.585C93.1225 128.207 91.4543 127.307 89.5838 127.209C89.6187 127.377 89.6396 127.553 89.6396 127.729C89.6396 128.98 88.6345 130 87.3852 130C86.736 130 86.1498 129.726 85.7379 129.283C85.2284 129.381 84.7399 129.571 84.3071 129.831C84.4746 129.304 84.8306 128.861 85.2982 128.58C84.8445 128.629 84.4048 128.755 84 128.931C84.3071 128.481 84.691 128.08 85.1307 127.757V127.757Z" fill="white"/>
<path d="M72.001 42C67.5829 42 64.0021 44.9094 64.0021 48.5C64.0021 49.9875 64.6239 51.35 65.655 52.4469C65.1894 53.6781 64.2208 54.7219 64.2052 54.7344C63.9989 54.9531 63.9427 55.2719 64.0614 55.5469C64.1802 55.8219 64.452 56 64.752 56C66.6736 56 68.189 55.1969 69.0983 54.5531C70.0013 54.8375 70.9762 55 72.001 55C76.4192 55 80 52.0906 80 48.5C80 44.9094 76.4192 42 72.001 42ZM72.001 53.5C71.1668 53.5 70.3419 53.3719 69.5514 53.1219L68.8421 52.8969L68.2328 53.3281C67.786 53.6438 67.1735 53.9969 66.4361 54.2344C66.6642 53.8562 66.8861 53.4312 67.0579 52.9781L67.3891 52.1L66.7455 51.4187C66.1799 50.8156 65.5019 49.8188 65.5019 48.5C65.5019 45.7438 68.4171 43.5 72.001 43.5C75.5849 43.5 78.5002 45.7438 78.5002 48.5C78.5002 51.2562 75.5849 53.5 72.001 53.5Z" fill="white"/>
<path d="M72.001 68C67.5829 68 64.0021 70.9094 64.0021 74.5C64.0021 75.9875 64.6239 77.35 65.655 78.4469C65.1894 79.6781 64.2208 80.7219 64.2052 80.7344C63.9989 80.9531 63.9427 81.2719 64.0614 81.5469C64.1802 81.8219 64.452 82 64.752 82C66.6736 82 68.189 81.1969 69.0983 80.5531C70.0013 80.8375 70.9762 81 72.001 81C76.4192 81 80 78.0906 80 74.5C80 70.9094 76.4192 68 72.001 68ZM72.001 79.5C71.1668 79.5 70.3419 79.3719 69.5514 79.1219L68.8421 78.8969L68.2328 79.3281C67.786 79.6438 67.1735 79.9969 66.4361 80.2344C66.6642 79.8562 66.8861 79.4312 67.0579 78.9781L67.3891 78.1L66.7455 77.4187C66.1799 76.8156 65.5019 75.8188 65.5019 74.5C65.5019 71.7438 68.4171 69.5 72.001 69.5C75.5849 69.5 78.5002 71.7438 78.5002 74.5C78.5002 77.2562 75.5849 79.5 72.001 79.5Z" fill="white"/>
<path d="M71.999 108C76.4171 108 79.9979 105.091 79.9979 101.5C79.9979 100.013 79.3761 98.65 78.345 97.5531C78.8106 96.3219 79.7792 95.2781 79.7948 95.2656C80.0011 95.0469 80.0573 94.7281 79.9386 94.4531C79.8198 94.1781 79.548 94 79.248 94C77.3264 94 75.811 94.8031 74.9017 95.4469C73.9987 95.1625 73.0238 95 71.999 95C67.5808 95 64 97.9094 64 101.5C64 105.091 67.5808 108 71.999 108ZM71.999 96.5C72.8332 96.5 73.6581 96.6281 74.4486 96.8781L75.1579 97.1031L75.7672 96.6719C76.214 96.3562 76.8265 96.0031 77.5639 95.7656C77.3358 96.1437 77.1139 96.5688 76.9421 97.0219L76.6109 97.9L77.2545 98.5812C77.8201 99.1844 78.4981 100.181 78.4981 101.5C78.4981 104.256 75.5829 106.5 71.999 106.5C68.4151 106.5 65.4998 104.256 65.4998 101.5C65.4998 98.7437 68.4151 96.5 71.999 96.5Z" fill="white"/>
<path d="M27.001 42C22.5829 42 19.0021 44.9094 19.0021 48.5C19.0021 49.9875 19.6239 51.35 20.655 52.4469C20.1894 53.6781 19.2208 54.7219 19.2052 54.7344C18.9989 54.9531 18.9427 55.2719 19.0614 55.5469C19.1802 55.8219 19.452 56 19.752 56C21.6736 56 23.189 55.1969 24.0983 54.5531C25.0013 54.8375 25.9762 55 27.001 55C31.4192 55 35 52.0906 35 48.5C35 44.9094 31.4192 42 27.001 42ZM27.001 53.5C26.1668 53.5 25.3419 53.3719 24.5514 53.1219L23.8421 52.8969L23.2328 53.3281C22.786 53.6438 22.1735 53.9969 21.4361 54.2344C21.6642 53.8562 21.8861 53.4312 22.0579 52.9781L22.3891 52.1L21.7455 51.4187C21.1799 50.8156 20.5019 49.8188 20.5019 48.5C20.5019 45.7438 23.4171 43.5 27.001 43.5C30.5849 43.5 33.5002 45.7438 33.5002 48.5C33.5002 51.2562 30.5849 53.5 27.001 53.5Z" fill="white"/>
<path d="M27.001 68C22.5829 68 19.0021 70.9094 19.0021 74.5C19.0021 75.9875 19.6239 77.35 20.655 78.4469C20.1894 79.6781 19.2208 80.7219 19.2052 80.7344C18.9989 80.9531 18.9427 81.2719 19.0614 81.5469C19.1802 81.8219 19.452 82 19.752 82C21.6736 82 23.189 81.1969 24.0983 80.5531C25.0013 80.8375 25.9762 81 27.001 81C31.4192 81 35 78.0906 35 74.5C35 70.9094 31.4192 68 27.001 68ZM27.001 79.5C26.1668 79.5 25.3419 79.3719 24.5514 79.1219L23.8421 78.8969L23.2328 79.3281C22.786 79.6438 22.1735 79.9969 21.4361 80.2344C21.6642 79.8562 21.8861 79.4312 22.0579 78.9781L22.3891 78.1L21.7455 77.4187C21.1799 76.8156 20.5019 75.8188 20.5019 74.5C20.5019 71.7438 23.4171 69.5 27.001 69.5C30.5849 69.5 33.5002 71.7438 33.5002 74.5C33.5002 77.2562 30.5849 79.5 27.001 79.5Z" fill="white"/>
<path d="M26.999 108C31.4171 108 34.9979 105.091 34.9979 101.5C34.9979 100.013 34.3761 98.65 33.345 97.5531C33.8106 96.3219 34.7792 95.2781 34.7948 95.2656C35.0011 95.0469 35.0573 94.7281 34.9386 94.4531C34.8198 94.1781 34.548 94 34.248 94C32.3264 94 30.811 94.8031 29.9017 95.4469C28.9987 95.1625 28.0238 95 26.999 95C22.5808 95 19 97.9094 19 101.5C19 105.091 22.5808 108 26.999 108ZM26.999 96.5C27.8332 96.5 28.6581 96.6281 29.4486 96.8781L30.1579 97.1031L30.7672 96.6719C31.214 96.3562 31.8265 96.0031 32.5639 95.7656C32.3358 96.1437 32.1139 96.5688 31.9421 97.0219L31.6109 97.9L32.2545 98.5812C32.8201 99.1844 33.4981 100.181 33.4981 101.5C33.4981 104.256 30.5829 106.5 26.999 106.5C23.4151 106.5 20.4998 104.256 20.4998 101.5C20.4998 98.7437 23.4151 96.5 26.999 96.5Z" fill="white"/>
<path d="M50.001 53C45.5829 53 42.0021 55.9094 42.0021 59.5C42.0021 60.9875 42.6239 62.35 43.655 63.4469C43.1894 64.6781 42.2208 65.7219 42.2052 65.7344C41.9989 65.9531 41.9427 66.2719 42.0614 66.5469C42.1802 66.8219 42.452 67 42.752 67C44.6736 67 46.189 66.1969 47.0983 65.5531C48.0013 65.8375 48.9762 66 50.001 66C54.4192 66 58 63.0906 58 59.5C58 55.9094 54.4192 53 50.001 53ZM50.001 64.5C49.1668 64.5 48.3419 64.3719 47.5514 64.1219L46.8421 63.8969L46.2328 64.3281C45.786 64.6438 45.1735 64.9969 44.4361 65.2344C44.6642 64.8562 44.8861 64.4312 45.0579 63.9781L45.3891 63.1L44.7455 62.4187C44.1799 61.8156 43.5019 60.8188 43.5019 59.5C43.5019 56.7438 46.4171 54.5 50.001 54.5C53.5849 54.5 56.5002 56.7438 56.5002 59.5C56.5002 62.2562 53.5849 64.5 50.001 64.5Z" fill="white"/>
<path d="M49.999 93C54.4171 93 57.9979 90.0906 57.9979 86.5C57.9979 85.0125 57.3761 83.65 56.345 82.5531C56.8106 81.3219 57.7792 80.2781 57.7948 80.2656C58.0011 80.0469 58.0573 79.7281 57.9386 79.4531C57.8198 79.1781 57.548 79 57.248 79C55.3264 79 53.811 79.8031 52.9017 80.4469C51.9987 80.1625 51.0238 80 49.999 80C45.5808 80 42 82.9094 42 86.5C42 90.0906 45.5808 93 49.999 93ZM49.999 81.5C50.8332 81.5 51.6581 81.6281 52.4486 81.8781L53.1579 82.1031L53.7672 81.6719C54.214 81.3562 54.8265 81.0031 55.5639 80.7656C55.3358 81.1437 55.1139 81.5688 54.9421 82.0219L54.6109 82.9L55.2545 83.5812C55.8201 84.1844 56.4981 85.1812 56.4981 86.5C56.4981 89.2562 53.5829 91.5 49.999 91.5C46.4151 91.5 43.4998 89.2562 43.4998 86.5C43.4998 83.7437 46.4151 81.5 49.999 81.5Z" fill="white"/>
</svg>
