<svg width="100" height="150" viewBox="0 0 100 150" fill="none" xmlns="http://www.w3.org/2000/svg">
<rect width="100" height="150" rx="6" fill="#1DA1F2"/>
<path d="M9.79181 11.8672L8.42072 13.3438V17H5.784V4.20312H8.42072V10.0039L9.58087 8.41309L12.8416 4.20312H16.0848L11.5408 9.88965L16.2166 17H13.0789L9.79181 11.8672Z" fill="white"/>
<path d="M14.8693 22.243C14.8763 22.3414 14.8763 22.4398 14.8763 22.5383C14.8763 25.5406 12.6079 29 8.46194 29C7.18465 29 5.9981 28.6273 5 27.9805C5.18148 28.0016 5.35595 28.0086 5.54442 28.0086C6.59834 28.0086 7.56853 27.65 8.34328 27.0383C7.35216 27.0172 6.52157 26.3633 6.2354 25.4633C6.37501 25.4844 6.51459 25.4984 6.66118 25.4984C6.86358 25.4984 7.06601 25.4703 7.25445 25.4211C6.22146 25.2101 5.44668 24.2961 5.44668 23.1922V23.1641C5.7468 23.3328 6.09581 23.4383 6.46571 23.4523C5.85848 23.0445 5.46065 22.3484 5.46065 21.5609C5.46065 21.1391 5.5723 20.7523 5.76775 20.4148C6.87753 21.793 8.54569 22.6929 10.4162 22.7914C10.3813 22.6226 10.3604 22.4469 10.3604 22.2711C10.3604 21.0195 11.3655 20 12.6148 20C13.264 20 13.8502 20.2742 14.2621 20.7172C14.7716 20.6188 15.2601 20.4289 15.6929 20.1688C15.5254 20.6961 15.1694 21.1391 14.7018 21.4203C15.1555 21.3711 15.5952 21.2445 16 21.0688C15.6929 21.5187 15.309 21.9195 14.8693 22.243V22.243Z" fill="white"/>
<path d="M90.2082 138.133L91.5793 136.656L91.5793 133L94.216 133L94.216 145.797L91.5793 145.797L91.5793 139.996L90.4191 141.587L87.1584 145.797L83.9152 145.797L88.4592 140.11L83.7834 133L86.9211 133L90.2082 138.133Z" fill="white"/>
<path d="M85.1307 127.757C85.1237 127.659 85.1237 127.56 85.1237 127.462C85.1237 124.459 87.3921 121 91.5381 121C92.8154 121 94.0019 121.373 95 122.02C94.8185 121.998 94.644 121.991 94.4556 121.991C93.4017 121.991 92.4315 122.35 91.6567 122.962C92.6478 122.983 93.4784 123.637 93.7646 124.537C93.625 124.516 93.4854 124.502 93.3388 124.502C93.1364 124.502 92.934 124.53 92.7456 124.579C93.7785 124.79 94.5533 125.704 94.5533 126.808L94.5533 126.836C94.2532 126.667 93.9042 126.562 93.5343 126.548C94.1415 126.955 94.5394 127.652 94.5394 128.439C94.5394 128.861 94.4277 129.248 94.2323 129.585C93.1225 128.207 91.4543 127.307 89.5838 127.209C89.6187 127.377 89.6396 127.553 89.6396 127.729C89.6396 128.98 88.6345 130 87.3852 130C86.736 130 86.1498 129.726 85.7379 129.283C85.2284 129.381 84.7399 129.571 84.3071 129.831C84.4746 129.304 84.8306 128.861 85.2982 128.58C84.8445 128.629 84.4048 128.755 84 128.931C84.3071 128.481 84.691 128.08 85.1307 127.757V127.757Z" fill="white"/>
<path d="M73.0382 62.7132C73.075 63.2273 73.075 63.7414 73.075 64.2555C73.075 79.9343 61.1144 98 39.2539 98C32.519 98 26.2627 96.0538 21 92.6758C21.9569 92.7859 22.8769 92.8227 23.8706 92.8227C29.4276 92.8227 34.5432 90.9501 38.6282 87.7555C33.4023 87.6453 29.0228 84.2305 27.5139 79.5305C28.25 79.6405 28.986 79.714 29.7589 79.714C30.8262 79.714 31.8935 79.5671 32.8871 79.3102C27.4404 78.2085 23.3552 73.4351 23.3552 67.6703V67.5235C24.9377 68.4047 26.7779 68.9555 28.7283 69.0289C25.5265 66.8991 23.4289 63.264 23.4289 59.1515C23.4289 56.9484 24.0176 54.9289 25.0481 53.1664C30.8997 60.3632 39.6954 65.0631 49.5583 65.5773C49.3743 64.696 49.2639 63.7782 49.2639 62.8602C49.2639 56.3242 54.5634 51 61.151 51C64.5736 51 67.6649 52.432 69.8363 54.7453C72.5228 54.2313 75.0989 53.2398 77.3808 51.8813C76.4974 54.6352 74.6205 56.9485 72.1548 58.4172C74.547 58.1603 76.8655 57.4992 79 56.5813C77.381 58.9312 75.3567 61.0241 73.0382 62.7132V62.7132Z" fill="white"/>
</svg>
