<svg width="100" height="150" viewBox="0 0 100 150" fill="none" xmlns="http://www.w3.org/2000/svg">
<rect width="100" height="150" rx="6" fill="#FF0000"/>
<path d="M15.7701 21.2517C15.6436 20.759 15.2709 20.371 14.7976 20.2393C13.9398 20 10.5 20 10.5 20C10.5 20 7.06022 20 6.20237 20.2393C5.7291 20.371 5.35636 20.759 5.22986 21.2517C5 22.1448 5 24.0081 5 24.0081C5 24.0081 5 25.8714 5.22986 26.7644C5.35636 27.2571 5.7291 27.629 6.20237 27.7607C7.06022 28 10.5 28 10.5 28C10.5 28 13.9398 28 14.7976 27.7607C15.2709 27.629 15.6436 27.2571 15.7701 26.7644C16 25.8714 16 24.0081 16 24.0081C16 24.0081 16 22.1448 15.7701 21.2517ZM9.37499 25.6998V22.3164L12.25 24.0081L9.37499 25.6998Z" fill="white"/>
<path d="M13.0086 14.3633H8.38556L7.50665 17H4.70294L9.46661 4.20312H11.91L16.7 17H13.8963L13.0086 14.3633ZM9.09747 12.2275H12.2967L10.6883 7.4375L9.09747 12.2275Z" fill="white"/>
<path d="M85.2299 128.748C85.3564 129.241 85.7291 129.629 86.2024 129.761C87.0602 130 90.5 130 90.5 130C90.5 130 93.9398 130 94.7976 129.761C95.2709 129.629 95.6436 129.241 95.7701 128.748C96 127.855 96 125.992 96 125.992C96 125.992 96 124.129 95.7701 123.236C95.6436 122.743 95.2709 122.371 94.7976 122.239C93.9398 122 90.5 122 90.5 122C90.5 122 87.0602 122 86.2024 122.239C85.7291 122.371 85.3564 122.743 85.2299 123.236C85 124.129 85 125.992 85 125.992C85 125.992 85 127.855 85.2299 128.748ZM91.625 124.3L91.625 127.684L88.75 125.992L91.625 124.3Z" fill="white"/>
<path d="M87.9914 135.637L92.6144 135.637L93.4933 133L96.2971 133L91.5334 145.797L89.09 145.797L84.3 133L87.1037 133L87.9914 135.637ZM91.9025 137.772L88.7033 137.772L90.3117 142.562L91.9025 137.772Z" fill="white"/>
<path d="M50 64.5C49.0064 64.5155 48.0201 64.6734 47.0712 64.9688C47.5101 65.7406 47.7438 66.6121 47.75 67.5C47.75 68.1894 47.6142 68.8721 47.3504 69.5091C47.0865 70.146 46.6998 70.7248 46.2123 71.2123C45.7248 71.6998 45.146 72.0865 44.5091 72.3504C43.8721 72.6142 43.1894 72.75 42.5 72.75C41.6121 72.7438 40.7406 72.5102 39.9687 72.0712C39.3598 74.1832 39.4307 76.4333 40.1716 78.5027C40.9125 80.5721 42.2857 82.356 44.0967 83.6016C45.9077 84.8472 48.0648 85.4915 50.2623 85.443C52.4598 85.3946 54.5864 84.656 56.3408 83.3319C58.0952 82.0077 59.3885 80.1651 60.0375 78.065C60.6865 75.965 60.6583 73.714 59.9569 71.6309C59.2555 69.5478 57.9165 67.7381 56.1295 66.4583C54.3424 65.1785 52.198 64.4934 50 64.5V64.5ZM76.6738 73.6312C71.5897 63.7116 61.5247 57 50 57C38.4753 57 28.4075 63.7163 23.3262 73.6322C23.1117 74.0564 23 74.5251 23 75.0005C23 75.4758 23.1117 75.9445 23.3262 76.3688C28.4103 86.2884 38.4753 93 50 93C61.5247 93 71.5925 86.2837 76.6738 76.3678C76.8883 75.9436 77 75.4749 77 74.9995C77 74.5242 76.8883 74.0555 76.6738 73.6312V73.6312ZM50 88.5C40.7515 88.5 32.2728 83.3438 27.694 75C32.2728 66.6562 40.7506 61.5 50 61.5C59.2494 61.5 67.7272 66.6562 72.306 75C67.7282 83.3438 59.2494 88.5 50 88.5Z" fill="white"/>
</svg>
