<svg width="100" height="150" viewBox="0 0 100 150" fill="none" xmlns="http://www.w3.org/2000/svg">
<rect width="100" height="150" rx="6" fill="#FF0000"/>
<path d="M15.7701 21.2517C15.6436 20.759 15.2709 20.371 14.7976 20.2393C13.9398 20 10.5 20 10.5 20C10.5 20 7.06022 20 6.20237 20.2393C5.7291 20.371 5.35636 20.759 5.22986 21.2517C5 22.1448 5 24.0081 5 24.0081C5 24.0081 5 25.8714 5.22986 26.7644C5.35636 27.2571 5.7291 27.629 6.20237 27.7607C7.06022 28 10.5 28 10.5 28C10.5 28 13.9398 28 14.7976 27.7607C15.2709 27.629 15.6436 27.2571 15.7701 26.7644C16 25.8714 16 24.0081 16 24.0081C16 24.0081 16 22.1448 15.7701 21.2517ZM9.37499 25.6998V22.3164L12.25 24.0081L9.37499 25.6998Z" fill="white"/>
<path d="M12.4022 4.07129V6.16309H12.1561C11.0076 6.18066 10.0818 6.47949 9.37872 7.05957C8.68146 7.63965 8.26251 8.44531 8.12189 9.47656C8.80157 8.78516 9.65997 8.43945 10.6971 8.43945C11.8104 8.43945 12.6951 8.83789 13.3514 9.63477C14.0076 10.4316 14.3358 11.4805 14.3358 12.7812C14.3358 13.6133 14.1541 14.3662 13.7908 15.04C13.4334 15.7139 12.9236 16.2383 12.2615 16.6133C11.6053 16.9883 10.8611 17.1758 10.0291 17.1758C8.68146 17.1758 7.59161 16.707 6.75958 15.7695C5.93341 14.832 5.52032 13.5811 5.52032 12.0166V11.1025C5.52032 9.71387 5.78107 8.48926 6.30255 7.42871C6.8299 6.3623 7.58282 5.53906 8.56134 4.95898C9.54572 4.37305 10.6854 4.07715 11.9803 4.07129H12.4022ZM9.92365 10.4785C9.51349 10.4785 9.14142 10.5869 8.80743 10.8037C8.47345 11.0146 8.22736 11.2959 8.06915 11.6475V12.4209C8.06915 13.2705 8.23615 13.9355 8.57013 14.416C8.90411 14.8906 9.37286 15.1279 9.97638 15.1279C10.5213 15.1279 10.9608 14.9141 11.2947 14.4863C11.6346 14.0527 11.8045 13.4932 11.8045 12.8076C11.8045 12.1104 11.6346 11.5479 11.2947 11.1201C10.9549 10.6924 10.4979 10.4785 9.92365 10.4785Z" fill="white"/>
<path d="M85.2299 128.748C85.3564 129.241 85.7291 129.629 86.2024 129.761C87.0602 130 90.5 130 90.5 130C90.5 130 93.9398 130 94.7976 129.761C95.2709 129.629 95.6436 129.241 95.7701 128.748C96 127.855 96 125.992 96 125.992C96 125.992 96 124.129 95.7701 123.236C95.6436 122.743 95.2709 122.371 94.7976 122.239C93.9398 122 90.5 122 90.5 122C90.5 122 87.0602 122 86.2024 122.239C85.7291 122.371 85.3564 122.743 85.2299 123.236C85 124.129 85 125.992 85 125.992C85 125.992 85 127.855 85.2299 128.748ZM91.625 124.3L91.625 127.684L88.75 125.992L91.625 124.3Z" fill="white"/>
<path d="M88.5978 145.929L88.5978 143.837L88.8439 143.837C89.9924 143.819 90.9182 143.521 91.6213 142.94C92.3185 142.36 92.7375 141.555 92.8781 140.523C92.1984 141.215 91.34 141.561 90.3029 141.561C89.1896 141.561 88.3049 141.162 87.6486 140.365C86.9924 139.568 86.6642 138.52 86.6642 137.219C86.6642 136.387 86.8459 135.634 87.2092 134.96C87.5666 134.286 88.0764 133.762 88.7385 133.387C89.3947 133.012 90.1389 132.824 90.9709 132.824C92.3185 132.824 93.4084 133.293 94.2404 134.23C95.0666 135.168 95.4797 136.419 95.4797 137.983L95.4797 138.897C95.4797 140.286 95.2189 141.511 94.6974 142.571C94.1701 143.638 93.4172 144.461 92.4387 145.041C91.4543 145.627 90.3146 145.923 89.0197 145.929L88.5978 145.929ZM91.0764 139.521C91.4865 139.521 91.8586 139.413 92.1926 139.196C92.5266 138.985 92.7726 138.704 92.9308 138.353L92.9308 137.579C92.9308 136.729 92.7639 136.064 92.4299 135.584C92.0959 135.109 91.6271 134.872 91.0236 134.872C90.4787 134.872 90.0392 135.086 89.7053 135.514C89.3654 135.947 89.1955 136.507 89.1955 137.192C89.1955 137.89 89.3654 138.452 89.7053 138.88C90.0451 139.308 90.5021 139.521 91.0764 139.521Z" fill="white"/>
<path d="M72.5 44.2917C72.1872 44.2964 71.8767 44.3446 71.578 44.4349C71.7162 44.6707 71.7897 44.937 71.7917 45.2083C71.7917 45.419 71.7489 45.6276 71.6659 45.8222C71.5828 46.0168 71.4611 46.1937 71.3076 46.3427C71.1541 46.4916 70.9719 46.6098 70.7714 46.6904C70.5709 46.771 70.3559 46.8125 70.1389 46.8125C69.8594 46.8106 69.585 46.7392 69.342 46.6051C69.1503 47.2504 69.1726 47.938 69.4059 48.5703C69.6391 49.2026 70.0714 49.7477 70.6416 50.1283C71.2117 50.5089 71.8908 50.7057 72.5826 50.6909C73.2744 50.6761 73.9439 50.4505 74.4962 50.0458C75.0485 49.6412 75.4556 49.0782 75.66 48.4365C75.8643 47.7949 75.8554 47.1071 75.6346 46.4705C75.4138 45.834 74.9922 45.2811 74.4296 44.89C73.8671 44.499 73.192 44.2896 72.5 44.2917V44.2917ZM80.8973 47.0818C79.2968 44.0508 76.1281 42 72.5 42C68.8719 42 65.7023 44.0522 64.1027 47.0821C64.0352 47.2117 64 47.3549 64 47.5001C64 47.6454 64.0352 47.7886 64.1027 47.9182C65.7032 50.9492 68.8719 53 72.5 53C76.1281 53 79.2977 50.9478 80.8973 47.9179C80.9648 47.7883 81 47.6451 81 47.4999C81 47.3546 80.9648 47.2114 80.8973 47.0818V47.0818ZM72.5 51.625C69.5884 51.625 66.9192 50.0495 65.4777 47.5C66.9192 44.9505 69.5882 43.375 72.5 43.375C75.4118 43.375 78.0808 44.9505 79.5223 47.5C78.0811 50.0495 75.4118 51.625 72.5 51.625Z" fill="white"/>
<path d="M72.5 72.2917C72.1872 72.2964 71.8767 72.3446 71.578 72.4349C71.7162 72.6707 71.7897 72.937 71.7917 73.2083C71.7917 73.419 71.7489 73.6276 71.6659 73.8222C71.5828 74.0168 71.4611 74.1937 71.3076 74.3427C71.1541 74.4916 70.9719 74.6098 70.7714 74.6904C70.5709 74.771 70.3559 74.8125 70.1389 74.8125C69.8594 74.8106 69.585 74.7392 69.342 74.6051C69.1503 75.2504 69.1726 75.938 69.4059 76.5703C69.6391 77.2026 70.0714 77.7477 70.6416 78.1283C71.2117 78.5089 71.8908 78.7057 72.5826 78.6909C73.2744 78.6761 73.9439 78.4505 74.4962 78.0458C75.0485 77.6412 75.4556 77.0782 75.66 76.4365C75.8643 75.7949 75.8554 75.1071 75.6346 74.4705C75.4138 73.834 74.9922 73.2811 74.4296 72.89C73.8671 72.499 73.192 72.2896 72.5 72.2917V72.2917ZM80.8973 75.0818C79.2968 72.0508 76.1281 70 72.5 70C68.8719 70 65.7023 72.0522 64.1027 75.0821C64.0352 75.2117 64 75.3549 64 75.5001C64 75.6454 64.0352 75.7886 64.1027 75.9182C65.7032 78.9492 68.8719 81 72.5 81C76.1281 81 79.2977 78.9478 80.8973 75.9179C80.9648 75.7883 81 75.6451 81 75.4999C81 75.3546 80.9648 75.2114 80.8973 75.0818V75.0818ZM72.5 79.625C69.5884 79.625 66.9192 78.0495 65.4777 75.5C66.9192 72.9505 69.5882 71.375 72.5 71.375C75.4118 71.375 78.0808 72.9505 79.5223 75.5C78.0811 78.0495 75.4118 79.625 72.5 79.625Z" fill="white"/>
<path d="M72.5 100.292C72.1872 100.296 71.8767 100.345 71.578 100.435C71.7162 100.671 71.7897 100.937 71.7917 101.208C71.7917 101.419 71.7489 101.628 71.6659 101.822C71.5828 102.017 71.4611 102.194 71.3076 102.343C71.1541 102.492 70.9719 102.61 70.7714 102.69C70.5709 102.771 70.3559 102.813 70.1389 102.813C69.8594 102.811 69.585 102.739 69.342 102.605C69.1503 103.25 69.1726 103.938 69.4059 104.57C69.6391 105.203 70.0714 105.748 70.6416 106.128C71.2117 106.509 71.8908 106.706 72.5826 106.691C73.2744 106.676 73.9439 106.45 74.4962 106.046C75.0485 105.641 75.4556 105.078 75.66 104.437C75.8643 103.795 75.8554 103.107 75.6346 102.471C75.4138 101.834 74.9922 101.281 74.4296 100.89C73.8671 100.499 73.192 100.29 72.5 100.292V100.292ZM80.8973 103.082C79.2968 100.051 76.1281 98 72.5 98C68.8719 98 65.7023 100.052 64.1027 103.082C64.0352 103.212 64 103.355 64 103.5C64 103.645 64.0352 103.789 64.1027 103.918C65.7032 106.949 68.8719 109 72.5 109C76.1281 109 79.2977 106.948 80.8973 103.918C80.9648 103.788 81 103.645 81 103.5C81 103.355 80.9648 103.211 80.8973 103.082V103.082ZM72.5 107.625C69.5884 107.625 66.9192 106.049 65.4777 103.5C66.9192 100.951 69.5882 99.375 72.5 99.375C75.4118 99.375 78.0808 100.951 79.5223 103.5C78.0811 106.049 75.4118 107.625 72.5 107.625Z" fill="white"/>
<path d="M27.5 44.2917C27.1872 44.2964 26.8767 44.3446 26.578 44.4349C26.7162 44.6707 26.7897 44.937 26.7917 45.2083C26.7917 45.419 26.7489 45.6276 26.6659 45.8222C26.5828 46.0168 26.4611 46.1937 26.3076 46.3427C26.1541 46.4916 25.9719 46.6098 25.7714 46.6904C25.5709 46.771 25.3559 46.8125 25.1389 46.8125C24.8594 46.8106 24.585 46.7392 24.342 46.6051C24.1503 47.2504 24.1726 47.938 24.4059 48.5703C24.6391 49.2026 25.0714 49.7477 25.6416 50.1283C26.2117 50.5089 26.8908 50.7057 27.5826 50.6909C28.2744 50.6761 28.9439 50.4505 29.4962 50.0458C30.0485 49.6412 30.4556 49.0782 30.66 48.4365C30.8643 47.7949 30.8554 47.1071 30.6346 46.4705C30.4138 45.834 29.9922 45.2811 29.4296 44.89C28.8671 44.499 28.192 44.2896 27.5 44.2917V44.2917ZM35.8973 47.0818C34.2968 44.0508 31.1281 42 27.5 42C23.8719 42 20.7023 44.0522 19.1027 47.0821C19.0352 47.2117 19 47.3549 19 47.5001C19 47.6454 19.0352 47.7886 19.1027 47.9182C20.7032 50.9492 23.8719 53 27.5 53C31.1281 53 34.2977 50.9478 35.8973 47.9179C35.9648 47.7883 36 47.6451 36 47.4999C36 47.3546 35.9648 47.2114 35.8973 47.0818V47.0818ZM27.5 51.625C24.5884 51.625 21.9192 50.0495 20.4777 47.5C21.9192 44.9505 24.5882 43.375 27.5 43.375C30.4118 43.375 33.0808 44.9505 34.5223 47.5C33.0811 50.0495 30.4118 51.625 27.5 51.625Z" fill="white"/>
<path d="M27.5 72.2917C27.1872 72.2964 26.8767 72.3446 26.578 72.4349C26.7162 72.6707 26.7897 72.937 26.7917 73.2083C26.7917 73.419 26.7489 73.6276 26.6659 73.8222C26.5828 74.0168 26.4611 74.1937 26.3076 74.3427C26.1541 74.4916 25.9719 74.6098 25.7714 74.6904C25.5709 74.771 25.3559 74.8125 25.1389 74.8125C24.8594 74.8106 24.585 74.7392 24.342 74.6051C24.1503 75.2504 24.1726 75.938 24.4059 76.5703C24.6391 77.2026 25.0714 77.7477 25.6416 78.1283C26.2117 78.5089 26.8908 78.7057 27.5826 78.6909C28.2744 78.6761 28.9439 78.4505 29.4962 78.0458C30.0485 77.6412 30.4556 77.0782 30.66 76.4365C30.8643 75.7949 30.8554 75.1071 30.6346 74.4705C30.4138 73.834 29.9922 73.2811 29.4296 72.89C28.8671 72.499 28.192 72.2896 27.5 72.2917V72.2917ZM35.8973 75.0818C34.2968 72.0508 31.1281 70 27.5 70C23.8719 70 20.7023 72.0522 19.1027 75.0821C19.0352 75.2117 19 75.3549 19 75.5001C19 75.6454 19.0352 75.7886 19.1027 75.9182C20.7032 78.9492 23.8719 81 27.5 81C31.1281 81 34.2977 78.9478 35.8973 75.9179C35.9648 75.7883 36 75.6451 36 75.4999C36 75.3546 35.9648 75.2114 35.8973 75.0818V75.0818ZM27.5 79.625C24.5884 79.625 21.9192 78.0495 20.4777 75.5C21.9192 72.9505 24.5882 71.375 27.5 71.375C30.4118 71.375 33.0808 72.9505 34.5223 75.5C33.0811 78.0495 30.4118 79.625 27.5 79.625Z" fill="white"/>
<path d="M27.5 100.292C27.1872 100.296 26.8767 100.345 26.578 100.435C26.7162 100.671 26.7897 100.937 26.7917 101.208C26.7917 101.419 26.7489 101.628 26.6659 101.822C26.5828 102.017 26.4611 102.194 26.3076 102.343C26.1541 102.492 25.9719 102.61 25.7714 102.69C25.5709 102.771 25.3559 102.813 25.1389 102.813C24.8594 102.811 24.585 102.739 24.342 102.605C24.1503 103.25 24.1726 103.938 24.4059 104.57C24.6391 105.203 25.0714 105.748 25.6416 106.128C26.2117 106.509 26.8908 106.706 27.5826 106.691C28.2744 106.676 28.9439 106.45 29.4962 106.046C30.0485 105.641 30.4556 105.078 30.66 104.437C30.8643 103.795 30.8554 103.107 30.6346 102.471C30.4138 101.834 29.9922 101.281 29.4296 100.89C28.8671 100.499 28.192 100.29 27.5 100.292V100.292ZM35.8973 103.082C34.2968 100.051 31.1281 98 27.5 98C23.8719 98 20.7023 100.052 19.1027 103.082C19.0352 103.212 19 103.355 19 103.5C19 103.645 19.0352 103.789 19.1027 103.918C20.7032 106.949 23.8719 109 27.5 109C31.1281 109 34.2977 106.948 35.8973 103.918C35.9648 103.788 36 103.645 36 103.5C36 103.355 35.9648 103.211 35.8973 103.082V103.082ZM27.5 107.625C24.5884 107.625 21.9192 106.049 20.4777 103.5C21.9192 100.951 24.5882 99.375 27.5 99.375C30.4118 99.375 33.0808 100.951 34.5223 103.5C33.0811 106.049 30.4118 107.625 27.5 107.625Z" fill="white"/>
<path d="M50.5 59.2917C50.1872 59.2964 49.8767 59.3446 49.578 59.4349C49.7162 59.6707 49.7897 59.937 49.7917 60.2083C49.7917 60.419 49.7489 60.6276 49.6659 60.8222C49.5828 61.0168 49.4611 61.1937 49.3076 61.3427C49.1541 61.4916 48.9719 61.6098 48.7714 61.6904C48.5709 61.771 48.3559 61.8125 48.1389 61.8125C47.8594 61.8106 47.585 61.7392 47.342 61.6051C47.1503 62.2504 47.1726 62.938 47.4059 63.5703C47.6391 64.2026 48.0714 64.7477 48.6416 65.1283C49.2117 65.5089 49.8908 65.7057 50.5826 65.6909C51.2744 65.6761 51.9439 65.4505 52.4962 65.0458C53.0485 64.6412 53.4556 64.0782 53.66 63.4365C53.8643 62.7949 53.8554 62.1071 53.6346 61.4705C53.4138 60.834 52.9922 60.2811 52.4296 59.89C51.8671 59.499 51.192 59.2896 50.5 59.2917V59.2917ZM58.8973 62.0818C57.2968 59.0508 54.1281 57 50.5 57C46.8719 57 43.7023 59.0522 42.1027 62.0821C42.0352 62.2117 42 62.3549 42 62.5001C42 62.6454 42.0352 62.7886 42.1027 62.9182C43.7032 65.9492 46.8719 68 50.5 68C54.1281 68 57.2977 65.9478 58.8973 62.9179C58.9648 62.7883 59 62.6451 59 62.4999C59 62.3546 58.9648 62.2114 58.8973 62.0818V62.0818ZM50.5 66.625C47.5884 66.625 44.9192 65.0495 43.4777 62.5C44.9192 59.9505 47.5882 58.375 50.5 58.375C53.4118 58.375 56.0808 59.9505 57.5223 62.5C56.0811 65.0495 53.4118 66.625 50.5 66.625Z" fill="white"/>
</svg>
