<svg width="100" height="150" viewBox="0 0 100 150" fill="none" xmlns="http://www.w3.org/2000/svg">
<rect width="100" height="150" rx="6" fill="#FF0000"/>
<path d="M15.7701 21.2517C15.6436 20.759 15.2709 20.371 14.7976 20.2393C13.9398 20 10.5 20 10.5 20C10.5 20 7.06022 20 6.20237 20.2393C5.7291 20.371 5.35636 20.759 5.22986 21.2517C5 22.1448 5 24.0081 5 24.0081C5 24.0081 5 25.8714 5.22986 26.7644C5.35636 27.2571 5.7291 27.629 6.20237 27.7607C7.06022 28 10.5 28 10.5 28C10.5 28 13.9398 28 14.7976 27.7607C15.2709 27.629 15.6436 27.2571 15.7701 26.7644C16 25.8714 16 24.0081 16 24.0081C16 24.0081 16 22.1448 15.7701 21.2517ZM9.37499 25.6998V22.3164L12.25 24.0081L9.37499 25.6998Z" fill="white"/>
<path d="M13.8524 7.60449C13.8524 8.22559 13.6971 8.77637 13.3865 9.25684C13.076 9.7373 12.6483 10.1211 12.1033 10.4082C12.7244 10.707 13.2166 11.1201 13.5799 11.6475C13.9432 12.1689 14.1248 12.7842 14.1248 13.4932C14.1248 14.6299 13.7381 15.5293 12.9647 16.1914C12.1912 16.8477 11.1395 17.1758 9.80939 17.1758C8.47931 17.1758 7.42462 16.8447 6.64532 16.1826C5.86603 15.5205 5.47638 14.624 5.47638 13.4932C5.47638 12.7842 5.65802 12.166 6.0213 11.6387C6.38458 11.1113 6.87384 10.7012 7.48907 10.4082C6.94415 10.1211 6.51642 9.7373 6.20587 9.25684C5.90118 8.77637 5.74884 8.22559 5.74884 7.60449C5.74884 6.51465 6.11212 5.64746 6.83868 5.00293C7.56525 4.35254 8.55255 4.02734 9.8006 4.02734C11.0428 4.02734 12.0272 4.34961 12.7537 4.99414C13.4861 5.63281 13.8524 6.50293 13.8524 7.60449ZM11.576 13.3086C11.576 12.752 11.4149 12.3066 11.0926 11.9727C10.7703 11.6387 10.3367 11.4717 9.79181 11.4717C9.25275 11.4717 8.82208 11.6387 8.49982 11.9727C8.17755 12.3008 8.01642 12.7461 8.01642 13.3086C8.01642 13.8535 8.17462 14.293 8.49103 14.627C8.80743 14.9609 9.24689 15.1279 9.80939 15.1279C10.3602 15.1279 10.7908 14.9668 11.1014 14.6445C11.4178 14.3223 11.576 13.877 11.576 13.3086ZM11.3123 7.72754C11.3123 7.22949 11.1805 6.83105 10.9168 6.53223C10.6531 6.22754 10.2811 6.0752 9.8006 6.0752C9.32599 6.0752 8.95685 6.22168 8.69318 6.51465C8.4295 6.80762 8.29767 7.21191 8.29767 7.72754C8.29767 8.2373 8.4295 8.64746 8.69318 8.95801C8.95685 9.26855 9.32892 9.42383 9.80939 9.42383C10.2899 9.42383 10.659 9.26855 10.9168 8.95801C11.1805 8.64746 11.3123 8.2373 11.3123 7.72754Z" fill="white"/>
<path d="M85.2299 128.748C85.3564 129.241 85.7291 129.629 86.2024 129.761C87.0602 130 90.5 130 90.5 130C90.5 130 93.9398 130 94.7976 129.761C95.2709 129.629 95.6436 129.241 95.7701 128.748C96 127.855 96 125.992 96 125.992C96 125.992 96 124.129 95.7701 123.236C95.6436 122.743 95.2709 122.371 94.7976 122.239C93.9398 122 90.5 122 90.5 122C90.5 122 87.0602 122 86.2024 122.239C85.7291 122.371 85.3564 122.743 85.2299 123.236C85 124.129 85 125.992 85 125.992C85 125.992 85 127.855 85.2299 128.748ZM91.625 124.3L91.625 127.684L88.75 125.992L91.625 124.3Z" fill="white"/>
<path d="M87.1476 142.396C87.1476 141.774 87.3029 141.224 87.6135 140.743C87.924 140.263 88.3517 139.879 88.8967 139.592C88.2756 139.293 87.7834 138.88 87.4201 138.353C87.0568 137.831 86.8752 137.216 86.8752 136.507C86.8752 135.37 87.2619 134.471 88.0353 133.809C88.8088 133.152 89.8605 132.824 91.1906 132.824C92.5207 132.824 93.5754 133.155 94.3547 133.817C95.134 134.479 95.5236 135.376 95.5236 136.507C95.5236 137.216 95.342 137.834 94.9787 138.361C94.6154 138.889 94.1262 139.299 93.5109 139.592C94.0558 139.879 94.4836 140.263 94.7941 140.743C95.0988 141.224 95.2512 141.774 95.2512 142.396C95.2512 143.485 94.8879 144.353 94.1613 144.997C93.4348 145.647 92.4474 145.973 91.1994 145.973C89.9572 145.973 88.9728 145.65 88.2463 145.006C87.5139 144.367 87.1476 143.497 87.1476 142.396ZM89.424 136.691C89.424 137.248 89.5851 137.693 89.9074 138.027C90.2297 138.361 90.6633 138.528 91.2082 138.528C91.7473 138.528 92.1779 138.361 92.5002 138.027C92.8224 137.699 92.9836 137.254 92.9836 136.691C92.9836 136.146 92.8254 135.707 92.509 135.373C92.1926 135.039 91.7531 134.872 91.1906 134.872C90.6398 134.872 90.2092 135.033 89.8986 135.355C89.5822 135.678 89.424 136.123 89.424 136.691ZM89.6877 142.272C89.6877 142.771 89.8195 143.169 90.0832 143.468C90.3469 143.772 90.7189 143.925 91.1994 143.925C91.674 143.925 92.0432 143.778 92.3068 143.485C92.5705 143.192 92.7023 142.788 92.7023 142.272C92.7023 141.763 92.5705 141.353 92.3068 141.042C92.0432 140.731 91.6711 140.576 91.1906 140.576C90.7101 140.576 90.341 140.731 90.0832 141.042C89.8195 141.353 89.6877 141.763 89.6877 142.272Z" fill="white"/>
<path d="M72.5 44.2917C72.1872 44.2964 71.8767 44.3446 71.578 44.4349C71.7162 44.6707 71.7897 44.937 71.7917 45.2083C71.7917 45.419 71.7489 45.6276 71.6659 45.8222C71.5828 46.0168 71.4611 46.1937 71.3076 46.3427C71.1541 46.4916 70.9719 46.6098 70.7714 46.6904C70.5709 46.771 70.3559 46.8125 70.1389 46.8125C69.8594 46.8106 69.585 46.7392 69.342 46.6051C69.1503 47.2504 69.1726 47.938 69.4059 48.5703C69.6391 49.2026 70.0714 49.7477 70.6416 50.1283C71.2117 50.5089 71.8908 50.7057 72.5826 50.6909C73.2744 50.6761 73.9439 50.4505 74.4962 50.0458C75.0485 49.6412 75.4556 49.0782 75.66 48.4365C75.8643 47.7949 75.8554 47.1071 75.6346 46.4705C75.4138 45.834 74.9922 45.2811 74.4296 44.89C73.8671 44.499 73.192 44.2896 72.5 44.2917V44.2917ZM80.8973 47.0818C79.2968 44.0508 76.1281 42 72.5 42C68.8719 42 65.7023 44.0522 64.1027 47.0821C64.0352 47.2117 64 47.3549 64 47.5001C64 47.6454 64.0352 47.7886 64.1027 47.9182C65.7032 50.9492 68.8719 53 72.5 53C76.1281 53 79.2977 50.9478 80.8973 47.9179C80.9648 47.7883 81 47.6451 81 47.4999C81 47.3546 80.9648 47.2114 80.8973 47.0818V47.0818ZM72.5 51.625C69.5884 51.625 66.9192 50.0495 65.4777 47.5C66.9192 44.9505 69.5882 43.375 72.5 43.375C75.4118 43.375 78.0808 44.9505 79.5223 47.5C78.0811 50.0495 75.4118 51.625 72.5 51.625Z" fill="white"/>
<path d="M72.5 72.2917C72.1872 72.2964 71.8767 72.3446 71.578 72.4349C71.7162 72.6707 71.7897 72.937 71.7917 73.2083C71.7917 73.419 71.7489 73.6276 71.6659 73.8222C71.5828 74.0168 71.4611 74.1937 71.3076 74.3427C71.1541 74.4916 70.9719 74.6098 70.7714 74.6904C70.5709 74.771 70.3559 74.8125 70.1389 74.8125C69.8594 74.8106 69.585 74.7392 69.342 74.6051C69.1503 75.2504 69.1726 75.938 69.4059 76.5703C69.6391 77.2026 70.0714 77.7477 70.6416 78.1283C71.2117 78.5089 71.8908 78.7057 72.5826 78.6909C73.2744 78.6761 73.9439 78.4505 74.4962 78.0458C75.0485 77.6412 75.4556 77.0782 75.66 76.4365C75.8643 75.7949 75.8554 75.1071 75.6346 74.4705C75.4138 73.834 74.9922 73.2811 74.4296 72.89C73.8671 72.499 73.192 72.2896 72.5 72.2917V72.2917ZM80.8973 75.0818C79.2968 72.0508 76.1281 70 72.5 70C68.8719 70 65.7023 72.0522 64.1027 75.0821C64.0352 75.2117 64 75.3549 64 75.5001C64 75.6454 64.0352 75.7886 64.1027 75.9182C65.7032 78.9492 68.8719 81 72.5 81C76.1281 81 79.2977 78.9478 80.8973 75.9179C80.9648 75.7883 81 75.6451 81 75.4999C81 75.3546 80.9648 75.2114 80.8973 75.0818V75.0818ZM72.5 79.625C69.5884 79.625 66.9192 78.0495 65.4777 75.5C66.9192 72.9505 69.5882 71.375 72.5 71.375C75.4118 71.375 78.0808 72.9505 79.5223 75.5C78.0811 78.0495 75.4118 79.625 72.5 79.625Z" fill="white"/>
<path d="M72.5 100.292C72.1872 100.296 71.8767 100.345 71.578 100.435C71.7162 100.671 71.7897 100.937 71.7917 101.208C71.7917 101.419 71.7489 101.628 71.6659 101.822C71.5828 102.017 71.4611 102.194 71.3076 102.343C71.1541 102.492 70.9719 102.61 70.7714 102.69C70.5709 102.771 70.3559 102.813 70.1389 102.813C69.8594 102.811 69.585 102.739 69.342 102.605C69.1503 103.25 69.1726 103.938 69.4059 104.57C69.6391 105.203 70.0714 105.748 70.6416 106.128C71.2117 106.509 71.8908 106.706 72.5826 106.691C73.2744 106.676 73.9439 106.45 74.4962 106.046C75.0485 105.641 75.4556 105.078 75.66 104.437C75.8643 103.795 75.8554 103.107 75.6346 102.471C75.4138 101.834 74.9922 101.281 74.4296 100.89C73.8671 100.499 73.192 100.29 72.5 100.292V100.292ZM80.8973 103.082C79.2968 100.051 76.1281 98 72.5 98C68.8719 98 65.7023 100.052 64.1027 103.082C64.0352 103.212 64 103.355 64 103.5C64 103.645 64.0352 103.789 64.1027 103.918C65.7032 106.949 68.8719 109 72.5 109C76.1281 109 79.2977 106.948 80.8973 103.918C80.9648 103.788 81 103.645 81 103.5C81 103.355 80.9648 103.211 80.8973 103.082V103.082ZM72.5 107.625C69.5884 107.625 66.9192 106.049 65.4777 103.5C66.9192 100.951 69.5882 99.375 72.5 99.375C75.4118 99.375 78.0808 100.951 79.5223 103.5C78.0811 106.049 75.4118 107.625 72.5 107.625Z" fill="white"/>
<path d="M27.5 44.2917C27.1872 44.2964 26.8767 44.3446 26.578 44.4349C26.7162 44.6707 26.7897 44.937 26.7917 45.2083C26.7917 45.419 26.7489 45.6276 26.6659 45.8222C26.5828 46.0168 26.4611 46.1937 26.3076 46.3427C26.1541 46.4916 25.9719 46.6098 25.7714 46.6904C25.5709 46.771 25.3559 46.8125 25.1389 46.8125C24.8594 46.8106 24.585 46.7392 24.342 46.6051C24.1503 47.2504 24.1726 47.938 24.4059 48.5703C24.6391 49.2026 25.0714 49.7477 25.6416 50.1283C26.2117 50.5089 26.8908 50.7057 27.5826 50.6909C28.2744 50.6761 28.9439 50.4505 29.4962 50.0458C30.0485 49.6412 30.4556 49.0782 30.66 48.4365C30.8643 47.7949 30.8554 47.1071 30.6346 46.4705C30.4138 45.834 29.9922 45.2811 29.4296 44.89C28.8671 44.499 28.192 44.2896 27.5 44.2917V44.2917ZM35.8973 47.0818C34.2968 44.0508 31.1281 42 27.5 42C23.8719 42 20.7023 44.0522 19.1027 47.0821C19.0352 47.2117 19 47.3549 19 47.5001C19 47.6454 19.0352 47.7886 19.1027 47.9182C20.7032 50.9492 23.8719 53 27.5 53C31.1281 53 34.2977 50.9478 35.8973 47.9179C35.9648 47.7883 36 47.6451 36 47.4999C36 47.3546 35.9648 47.2114 35.8973 47.0818V47.0818ZM27.5 51.625C24.5884 51.625 21.9192 50.0495 20.4777 47.5C21.9192 44.9505 24.5882 43.375 27.5 43.375C30.4118 43.375 33.0808 44.9505 34.5223 47.5C33.0811 50.0495 30.4118 51.625 27.5 51.625Z" fill="white"/>
<path d="M27.5 72.2917C27.1872 72.2964 26.8767 72.3446 26.578 72.4349C26.7162 72.6707 26.7897 72.937 26.7917 73.2083C26.7917 73.419 26.7489 73.6276 26.6659 73.8222C26.5828 74.0168 26.4611 74.1937 26.3076 74.3427C26.1541 74.4916 25.9719 74.6098 25.7714 74.6904C25.5709 74.771 25.3559 74.8125 25.1389 74.8125C24.8594 74.8106 24.585 74.7392 24.342 74.6051C24.1503 75.2504 24.1726 75.938 24.4059 76.5703C24.6391 77.2026 25.0714 77.7477 25.6416 78.1283C26.2117 78.5089 26.8908 78.7057 27.5826 78.6909C28.2744 78.6761 28.9439 78.4505 29.4962 78.0458C30.0485 77.6412 30.4556 77.0782 30.66 76.4365C30.8643 75.7949 30.8554 75.1071 30.6346 74.4705C30.4138 73.834 29.9922 73.2811 29.4296 72.89C28.8671 72.499 28.192 72.2896 27.5 72.2917V72.2917ZM35.8973 75.0818C34.2968 72.0508 31.1281 70 27.5 70C23.8719 70 20.7023 72.0522 19.1027 75.0821C19.0352 75.2117 19 75.3549 19 75.5001C19 75.6454 19.0352 75.7886 19.1027 75.9182C20.7032 78.9492 23.8719 81 27.5 81C31.1281 81 34.2977 78.9478 35.8973 75.9179C35.9648 75.7883 36 75.6451 36 75.4999C36 75.3546 35.9648 75.2114 35.8973 75.0818V75.0818ZM27.5 79.625C24.5884 79.625 21.9192 78.0495 20.4777 75.5C21.9192 72.9505 24.5882 71.375 27.5 71.375C30.4118 71.375 33.0808 72.9505 34.5223 75.5C33.0811 78.0495 30.4118 79.625 27.5 79.625Z" fill="white"/>
<path d="M27.5 100.292C27.1872 100.296 26.8767 100.345 26.578 100.435C26.7162 100.671 26.7897 100.937 26.7917 101.208C26.7917 101.419 26.7489 101.628 26.6659 101.822C26.5828 102.017 26.4611 102.194 26.3076 102.343C26.1541 102.492 25.9719 102.61 25.7714 102.69C25.5709 102.771 25.3559 102.813 25.1389 102.813C24.8594 102.811 24.585 102.739 24.342 102.605C24.1503 103.25 24.1726 103.938 24.4059 104.57C24.6391 105.203 25.0714 105.748 25.6416 106.128C26.2117 106.509 26.8908 106.706 27.5826 106.691C28.2744 106.676 28.9439 106.45 29.4962 106.046C30.0485 105.641 30.4556 105.078 30.66 104.437C30.8643 103.795 30.8554 103.107 30.6346 102.471C30.4138 101.834 29.9922 101.281 29.4296 100.89C28.8671 100.499 28.192 100.29 27.5 100.292V100.292ZM35.8973 103.082C34.2968 100.051 31.1281 98 27.5 98C23.8719 98 20.7023 100.052 19.1027 103.082C19.0352 103.212 19 103.355 19 103.5C19 103.645 19.0352 103.789 19.1027 103.918C20.7032 106.949 23.8719 109 27.5 109C31.1281 109 34.2977 106.948 35.8973 103.918C35.9648 103.788 36 103.645 36 103.5C36 103.355 35.9648 103.211 35.8973 103.082V103.082ZM27.5 107.625C24.5884 107.625 21.9192 106.049 20.4777 103.5C21.9192 100.951 24.5882 99.375 27.5 99.375C30.4118 99.375 33.0808 100.951 34.5223 103.5C33.0811 106.049 30.4118 107.625 27.5 107.625Z" fill="white"/>
<path d="M50.5 59.2917C50.1872 59.2964 49.8767 59.3446 49.578 59.4349C49.7162 59.6707 49.7897 59.937 49.7917 60.2083C49.7917 60.419 49.7489 60.6276 49.6659 60.8222C49.5828 61.0168 49.4611 61.1937 49.3076 61.3427C49.1541 61.4916 48.9719 61.6098 48.7714 61.6904C48.5709 61.771 48.3559 61.8125 48.1389 61.8125C47.8594 61.8106 47.585 61.7392 47.342 61.6051C47.1503 62.2504 47.1726 62.938 47.4059 63.5703C47.6391 64.2026 48.0714 64.7477 48.6416 65.1283C49.2117 65.5089 49.8908 65.7057 50.5826 65.6909C51.2744 65.6761 51.9439 65.4505 52.4962 65.0458C53.0485 64.6412 53.4556 64.0782 53.66 63.4365C53.8643 62.7949 53.8554 62.1071 53.6346 61.4705C53.4138 60.834 52.9922 60.2811 52.4296 59.89C51.8671 59.499 51.192 59.2896 50.5 59.2917V59.2917ZM58.8973 62.0818C57.2968 59.0508 54.1281 57 50.5 57C46.8719 57 43.7023 59.0522 42.1027 62.0821C42.0352 62.2117 42 62.3549 42 62.5001C42 62.6454 42.0352 62.7886 42.1027 62.9182C43.7032 65.9492 46.8719 68 50.5 68C54.1281 68 57.2977 65.9478 58.8973 62.9179C58.9648 62.7883 59 62.6451 59 62.4999C59 62.3546 58.9648 62.2114 58.8973 62.0818V62.0818ZM50.5 66.625C47.5884 66.625 44.9192 65.0495 43.4777 62.5C44.9192 59.9505 47.5882 58.375 50.5 58.375C53.4118 58.375 56.0808 59.9505 57.5223 62.5C56.0811 65.0495 53.4118 66.625 50.5 66.625Z" fill="white"/>
<path d="M50.5 87.2917C50.1872 87.2964 49.8767 87.3446 49.578 87.4349C49.7162 87.6707 49.7897 87.937 49.7917 88.2083C49.7917 88.419 49.7489 88.6276 49.6659 88.8222C49.5828 89.0168 49.4611 89.1937 49.3076 89.3427C49.1541 89.4916 48.9719 89.6098 48.7714 89.6904C48.5709 89.771 48.3559 89.8125 48.1389 89.8125C47.8594 89.8106 47.585 89.7392 47.342 89.6051C47.1503 90.2504 47.1726 90.938 47.4059 91.5703C47.6391 92.2026 48.0714 92.7477 48.6416 93.1283C49.2117 93.5089 49.8908 93.7057 50.5826 93.6909C51.2744 93.6761 51.9439 93.4505 52.4962 93.0458C53.0485 92.6412 53.4556 92.0782 53.66 91.4365C53.8643 90.7949 53.8554 90.1071 53.6346 89.4705C53.4138 88.834 52.9922 88.2811 52.4296 87.89C51.8671 87.499 51.192 87.2896 50.5 87.2917V87.2917ZM58.8973 90.0818C57.2968 87.0508 54.1281 85 50.5 85C46.8719 85 43.7023 87.0522 42.1027 90.0821C42.0352 90.2117 42 90.3549 42 90.5001C42 90.6454 42.0352 90.7886 42.1027 90.9182C43.7032 93.9492 46.8719 96 50.5 96C54.1281 96 57.2977 93.9478 58.8973 90.9179C58.9648 90.7883 59 90.6451 59 90.4999C59 90.3546 58.9648 90.2114 58.8973 90.0818V90.0818ZM50.5 94.625C47.5884 94.625 44.9192 93.0495 43.4777 90.5C44.9192 87.9505 47.5882 86.375 50.5 86.375C53.4118 86.375 56.0808 87.9505 57.5223 90.5C56.0811 93.0495 53.4118 94.625 50.5 94.625Z" fill="white"/>
</svg>
