<svg width="100" height="150" viewBox="0 0 100 150" fill="none" xmlns="http://www.w3.org/2000/svg">
<rect width="100" height="150" rx="6" fill="#FF0000"/>
<path d="M15.7701 21.2517C15.6436 20.759 15.2709 20.371 14.7976 20.2393C13.9398 20 10.5 20 10.5 20C10.5 20 7.06022 20 6.20237 20.2393C5.7291 20.371 5.35636 20.759 5.22986 21.2517C5 22.1448 5 24.0081 5 24.0081C5 24.0081 5 25.8714 5.22986 26.7644C5.35636 27.2571 5.7291 27.629 6.20237 27.7607C7.06022 28 10.5 28 10.5 28C10.5 28 13.9398 28 14.7976 27.7607C15.2709 27.629 15.6436 27.2571 15.7701 26.7644C16 25.8714 16 24.0081 16 24.0081C16 24.0081 16 22.1448 15.7701 21.2517ZM9.37499 25.6998V22.3164L12.25 24.0081L9.37499 25.6998Z" fill="white"/>
<path d="M11.4529 11.8848C10.7908 12.5352 10.0174 12.8604 9.13263 12.8604C8.00177 12.8604 7.0965 12.4736 6.41681 11.7002C5.73712 10.9209 5.39728 9.87207 5.39728 8.55371C5.39728 7.71582 5.57892 6.94824 5.9422 6.25098C6.31134 5.54785 6.82404 5.00293 7.48029 4.61621C8.13654 4.22363 8.87482 4.02734 9.69513 4.02734C10.5389 4.02734 11.2889 4.23828 11.9451 4.66016C12.6014 5.08203 13.1111 5.68848 13.4744 6.47949C13.8377 7.27051 14.0223 8.17578 14.0281 9.19531V10.1357C14.0281 12.2686 13.4979 13.9443 12.4373 15.1631C11.3768 16.3818 9.87384 17.0322 7.92853 17.1143L7.3045 17.123V15.0049L7.867 14.9961C10.076 14.8965 11.2713 13.8594 11.4529 11.8848ZM9.75665 10.918C10.1668 10.918 10.5184 10.8125 10.8113 10.6016C11.1102 10.3906 11.3358 10.1357 11.4881 9.83691V8.79102C11.4881 7.92969 11.324 7.26172 10.9959 6.78711C10.6678 6.3125 10.2283 6.0752 9.67755 6.0752C9.16779 6.0752 8.74884 6.30957 8.42072 6.77832C8.09259 7.24121 7.92853 7.82422 7.92853 8.52734C7.92853 9.22461 8.08673 9.79883 8.40314 10.25C8.7254 10.6953 9.17657 10.918 9.75665 10.918Z" fill="white"/>
<path d="M85.2299 128.748C85.3564 129.241 85.7291 129.629 86.2024 129.761C87.0602 130 90.5 130 90.5 130C90.5 130 93.9398 130 94.7976 129.761C95.2709 129.629 95.6436 129.241 95.7701 128.748C96 127.855 96 125.992 96 125.992C96 125.992 96 124.129 95.7701 123.236C95.6436 122.743 95.2709 122.371 94.7976 122.239C93.9398 122 90.5 122 90.5 122C90.5 122 87.0602 122 86.2024 122.239C85.7291 122.371 85.3564 122.743 85.2299 123.236C85 124.129 85 125.992 85 125.992C85 125.992 85 127.855 85.2299 128.748ZM91.625 124.3L91.625 127.684L88.75 125.992L91.625 124.3Z" fill="white"/>
<path d="M89.5471 138.115C90.2092 137.465 90.9826 137.14 91.8674 137.14C92.9982 137.14 93.9035 137.526 94.5832 138.3C95.2629 139.079 95.6027 140.128 95.6027 141.446C95.6027 142.284 95.4211 143.052 95.0578 143.749C94.6887 144.452 94.176 144.997 93.5197 145.384C92.8635 145.776 92.1252 145.973 91.3049 145.973C90.4611 145.973 89.7111 145.762 89.0549 145.34C88.3986 144.918 87.8889 144.312 87.5256 143.521C87.1623 142.729 86.9777 141.824 86.9719 140.805L86.9719 139.864C86.9719 137.731 87.5021 136.056 88.5627 134.837C89.6232 133.618 91.1262 132.968 93.0715 132.886L93.6955 132.877L93.6955 134.995L93.133 135.004C90.924 135.104 89.7287 136.141 89.5471 138.115ZM91.2433 139.082C90.8332 139.082 90.4816 139.187 90.1887 139.398C89.8898 139.609 89.6642 139.864 89.5119 140.163L89.5119 141.209C89.5119 142.07 89.676 142.738 90.0041 143.213C90.3322 143.687 90.7717 143.925 91.3224 143.925C91.8322 143.925 92.2512 143.69 92.5793 143.222C92.9074 142.759 93.0715 142.176 93.0715 141.473C93.0715 140.775 92.9133 140.201 92.5969 139.75C92.2746 139.305 91.8234 139.082 91.2433 139.082Z" fill="white"/>
<path d="M50.5 72.2917C50.1872 72.2964 49.8767 72.3446 49.578 72.4349C49.7162 72.6707 49.7897 72.937 49.7917 73.2083C49.7917 73.419 49.7489 73.6276 49.6659 73.8222C49.5828 74.0168 49.4611 74.1937 49.3076 74.3427C49.1541 74.4916 48.9719 74.6098 48.7714 74.6904C48.5709 74.771 48.3559 74.8125 48.1389 74.8125C47.8594 74.8106 47.585 74.7392 47.342 74.6051C47.1503 75.2504 47.1726 75.938 47.4059 76.5703C47.6391 77.2026 48.0714 77.7477 48.6416 78.1283C49.2117 78.5089 49.8908 78.7057 50.5826 78.6909C51.2744 78.6761 51.9439 78.4505 52.4962 78.0458C53.0485 77.6412 53.4556 77.0782 53.66 76.4365C53.8643 75.7949 53.8554 75.1071 53.6346 74.4705C53.4138 73.834 52.9922 73.2811 52.4296 72.89C51.8671 72.499 51.192 72.2896 50.5 72.2917V72.2917ZM58.8973 75.0818C57.2968 72.0508 54.1281 70 50.5 70C46.8719 70 43.7023 72.0522 42.1027 75.0821C42.0352 75.2117 42 75.3549 42 75.5001C42 75.6454 42.0352 75.7886 42.1027 75.9182C43.7032 78.9492 46.8719 81 50.5 81C54.1281 81 57.2977 78.9478 58.8973 75.9179C58.9648 75.7883 59 75.6451 59 75.4999C59 75.3546 58.9648 75.2114 58.8973 75.0818V75.0818ZM50.5 79.625C47.5884 79.625 44.9192 78.0495 43.4777 75.5C44.9192 72.9505 47.5882 71.375 50.5 71.375C53.4118 71.375 56.0808 72.9505 57.5223 75.5C56.0811 78.0495 53.4118 79.625 50.5 79.625Z" fill="white"/>
<path d="M71.5 30.2917C71.1872 30.2964 70.8767 30.3446 70.578 30.4349C70.7162 30.6707 70.7897 30.937 70.7917 31.2083C70.7917 31.419 70.7489 31.6276 70.6659 31.8222C70.5828 32.0168 70.4611 32.1937 70.3076 32.3427C70.1541 32.4916 69.9719 32.6098 69.7714 32.6904C69.5709 32.771 69.3559 32.8125 69.1389 32.8125C68.8594 32.8106 68.585 32.7392 68.342 32.6051C68.1503 33.2504 68.1726 33.938 68.4059 34.5703C68.6391 35.2026 69.0714 35.7477 69.6416 36.1283C70.2117 36.5089 70.8908 36.7057 71.5826 36.6909C72.2744 36.6761 72.9439 36.4505 73.4962 36.0458C74.0485 35.6412 74.4556 35.0782 74.66 34.4365C74.8643 33.7949 74.8554 33.1071 74.6346 32.4705C74.4138 31.834 73.9922 31.2811 73.4296 30.89C72.8671 30.499 72.192 30.2896 71.5 30.2917V30.2917ZM79.8973 33.0818C78.2968 30.0508 75.1281 28 71.5 28C67.8719 28 64.7023 30.0522 63.1027 33.0821C63.0352 33.2117 63 33.3549 63 33.5001C63 33.6454 63.0352 33.7886 63.1027 33.9182C64.7032 36.9492 67.8719 39 71.5 39C75.1281 39 78.2977 36.9478 79.8973 33.9179C79.9648 33.7883 80 33.6451 80 33.4999C80 33.3546 79.9648 33.2114 79.8973 33.0818V33.0818ZM71.5 37.625C68.5884 37.625 65.9192 36.0495 64.4777 33.5C65.9192 30.9505 68.5882 29.375 71.5 29.375C74.4118 29.375 77.0808 30.9505 78.5223 33.5C77.0811 36.0495 74.4118 37.625 71.5 37.625Z" fill="white"/>
<path d="M71.5 58.2917C71.1872 58.2964 70.8767 58.3446 70.578 58.4349C70.7162 58.6707 70.7897 58.937 70.7917 59.2083C70.7917 59.419 70.7489 59.6276 70.6659 59.8222C70.5828 60.0168 70.4611 60.1937 70.3076 60.3427C70.1541 60.4916 69.9719 60.6098 69.7714 60.6904C69.5709 60.771 69.3559 60.8125 69.1389 60.8125C68.8594 60.8106 68.585 60.7392 68.342 60.6051C68.1503 61.2504 68.1726 61.938 68.4059 62.5703C68.6391 63.2026 69.0714 63.7477 69.6416 64.1283C70.2117 64.5089 70.8908 64.7057 71.5826 64.6909C72.2744 64.6761 72.9439 64.4505 73.4962 64.0458C74.0485 63.6412 74.4556 63.0782 74.66 62.4365C74.8643 61.7949 74.8554 61.1071 74.6346 60.4705C74.4138 59.834 73.9922 59.2811 73.4296 58.89C72.8671 58.499 72.192 58.2896 71.5 58.2917V58.2917ZM79.8973 61.0818C78.2968 58.0508 75.1281 56 71.5 56C67.8719 56 64.7023 58.0522 63.1027 61.0821C63.0352 61.2117 63 61.3549 63 61.5001C63 61.6454 63.0352 61.7886 63.1027 61.9182C64.7032 64.9492 67.8719 67 71.5 67C75.1281 67 78.2977 64.9478 79.8973 61.9179C79.9648 61.7883 80 61.6451 80 61.4999C80 61.3546 79.9648 61.2114 79.8973 61.0818V61.0818ZM71.5 65.625C68.5884 65.625 65.9192 64.0495 64.4777 61.5C65.9192 58.9505 68.5882 57.375 71.5 57.375C74.4118 57.375 77.0808 58.9505 78.5223 61.5C77.0811 64.0495 74.4118 65.625 71.5 65.625Z" fill="white"/>
<path d="M71.5 86.2917C71.1872 86.2964 70.8767 86.3446 70.578 86.4349C70.7162 86.6707 70.7897 86.937 70.7917 87.2083C70.7917 87.419 70.7489 87.6276 70.6659 87.8222C70.5828 88.0168 70.4611 88.1937 70.3076 88.3427C70.1541 88.4916 69.9719 88.6098 69.7714 88.6904C69.5709 88.771 69.3559 88.8125 69.1389 88.8125C68.8594 88.8106 68.585 88.7392 68.342 88.6051C68.1503 89.2504 68.1726 89.938 68.4059 90.5703C68.6391 91.2026 69.0714 91.7477 69.6416 92.1283C70.2117 92.5089 70.8908 92.7057 71.5826 92.6909C72.2744 92.6761 72.9439 92.4505 73.4962 92.0458C74.0485 91.6412 74.4556 91.0782 74.66 90.4365C74.8643 89.7949 74.8554 89.1071 74.6346 88.4705C74.4138 87.834 73.9922 87.2811 73.4296 86.89C72.8671 86.499 72.192 86.2896 71.5 86.2917V86.2917ZM79.8973 89.0818C78.2968 86.0508 75.1281 84 71.5 84C67.8719 84 64.7023 86.0522 63.1027 89.0821C63.0352 89.2117 63 89.3549 63 89.5001C63 89.6454 63.0352 89.7886 63.1027 89.9182C64.7032 92.9492 67.8719 95 71.5 95C75.1281 95 78.2977 92.9478 79.8973 89.9179C79.9648 89.7883 80 89.6451 80 89.4999C80 89.3546 79.9648 89.2114 79.8973 89.0818V89.0818ZM71.5 93.625C68.5884 93.625 65.9192 92.0495 64.4777 89.5C65.9192 86.9505 68.5882 85.375 71.5 85.375C74.4118 85.375 77.0808 86.9505 78.5223 89.5C77.0811 92.0495 74.4118 93.625 71.5 93.625Z" fill="white"/>
<path d="M71.5 114.292C71.1872 114.296 70.8767 114.345 70.578 114.435C70.7162 114.671 70.7897 114.937 70.7917 115.208C70.7917 115.419 70.7489 115.628 70.6659 115.822C70.5828 116.017 70.4611 116.194 70.3076 116.343C70.1541 116.492 69.9719 116.61 69.7714 116.69C69.5709 116.771 69.3559 116.813 69.1389 116.813C68.8594 116.811 68.585 116.739 68.342 116.605C68.1503 117.25 68.1726 117.938 68.4059 118.57C68.6391 119.203 69.0714 119.748 69.6416 120.128C70.2117 120.509 70.8908 120.706 71.5826 120.691C72.2744 120.676 72.9439 120.45 73.4962 120.046C74.0485 119.641 74.4556 119.078 74.66 118.437C74.8643 117.795 74.8554 117.107 74.6346 116.471C74.4138 115.834 73.9922 115.281 73.4296 114.89C72.8671 114.499 72.192 114.29 71.5 114.292V114.292ZM79.8973 117.082C78.2968 114.051 75.1281 112 71.5 112C67.8719 112 64.7023 114.052 63.1027 117.082C63.0352 117.212 63 117.355 63 117.5C63 117.645 63.0352 117.789 63.1027 117.918C64.7032 120.949 67.8719 123 71.5 123C75.1281 123 78.2977 120.948 79.8973 117.918C79.9648 117.788 80 117.645 80 117.5C80 117.355 79.9648 117.211 79.8973 117.082V117.082ZM71.5 121.625C68.5884 121.625 65.9192 120.049 64.4777 117.5C65.9192 114.951 68.5882 113.375 71.5 113.375C74.4118 113.375 77.0808 114.951 78.5223 117.5C77.0811 120.049 74.4118 121.625 71.5 121.625Z" fill="white"/>
<path d="M28.5 30.2917C28.1872 30.2964 27.8767 30.3446 27.578 30.4349C27.7162 30.6707 27.7897 30.937 27.7917 31.2083C27.7917 31.419 27.7489 31.6276 27.6659 31.8222C27.5828 32.0168 27.4611 32.1937 27.3076 32.3427C27.1541 32.4916 26.9719 32.6098 26.7714 32.6904C26.5709 32.771 26.3559 32.8125 26.1389 32.8125C25.8594 32.8106 25.585 32.7392 25.342 32.6051C25.1503 33.2504 25.1726 33.938 25.4059 34.5703C25.6391 35.2026 26.0714 35.7477 26.6416 36.1283C27.2117 36.5089 27.8908 36.7057 28.5826 36.6909C29.2744 36.6761 29.9439 36.4505 30.4962 36.0458C31.0485 35.6412 31.4556 35.0782 31.66 34.4365C31.8643 33.7949 31.8554 33.1071 31.6346 32.4705C31.4138 31.834 30.9922 31.2811 30.4296 30.89C29.8671 30.499 29.192 30.2896 28.5 30.2917V30.2917ZM36.8973 33.0818C35.2968 30.0508 32.1281 28 28.5 28C24.8719 28 21.7023 30.0522 20.1027 33.0821C20.0352 33.2117 20 33.3549 20 33.5001C20 33.6454 20.0352 33.7886 20.1027 33.9182C21.7032 36.9492 24.8719 39 28.5 39C32.1281 39 35.2977 36.9478 36.8973 33.9179C36.9648 33.7883 37 33.6451 37 33.4999C37 33.3546 36.9648 33.2114 36.8973 33.0818V33.0818ZM28.5 37.625C25.5884 37.625 22.9192 36.0495 21.4777 33.5C22.9192 30.9505 25.5882 29.375 28.5 29.375C31.4118 29.375 34.0808 30.9505 35.5223 33.5C34.0811 36.0495 31.4118 37.625 28.5 37.625Z" fill="white"/>
<path d="M28.5 58.2917C28.1872 58.2964 27.8767 58.3446 27.578 58.4349C27.7162 58.6707 27.7897 58.937 27.7917 59.2083C27.7917 59.419 27.7489 59.6276 27.6659 59.8222C27.5828 60.0168 27.4611 60.1937 27.3076 60.3427C27.1541 60.4916 26.9719 60.6098 26.7714 60.6904C26.5709 60.771 26.3559 60.8125 26.1389 60.8125C25.8594 60.8106 25.585 60.7392 25.342 60.6051C25.1503 61.2504 25.1726 61.938 25.4059 62.5703C25.6391 63.2026 26.0714 63.7477 26.6416 64.1283C27.2117 64.5089 27.8908 64.7057 28.5826 64.6909C29.2744 64.6761 29.9439 64.4505 30.4962 64.0458C31.0485 63.6412 31.4556 63.0782 31.66 62.4365C31.8643 61.7949 31.8554 61.1071 31.6346 60.4705C31.4138 59.834 30.9922 59.2811 30.4296 58.89C29.8671 58.499 29.192 58.2896 28.5 58.2917V58.2917ZM36.8973 61.0818C35.2968 58.0508 32.1281 56 28.5 56C24.8719 56 21.7023 58.0522 20.1027 61.0821C20.0352 61.2117 20 61.3549 20 61.5001C20 61.6454 20.0352 61.7886 20.1027 61.9182C21.7032 64.9492 24.8719 67 28.5 67C32.1281 67 35.2977 64.9478 36.8973 61.9179C36.9648 61.7883 37 61.6451 37 61.4999C37 61.3546 36.9648 61.2114 36.8973 61.0818V61.0818ZM28.5 65.625C25.5884 65.625 22.9192 64.0495 21.4777 61.5C22.9192 58.9505 25.5882 57.375 28.5 57.375C31.4118 57.375 34.0808 58.9505 35.5223 61.5C34.0811 64.0495 31.4118 65.625 28.5 65.625Z" fill="white"/>
<path d="M28.5 86.2917C28.1872 86.2964 27.8767 86.3446 27.578 86.4349C27.7162 86.6707 27.7897 86.937 27.7917 87.2083C27.7917 87.419 27.7489 87.6276 27.6659 87.8222C27.5828 88.0168 27.4611 88.1937 27.3076 88.3427C27.1541 88.4916 26.9719 88.6098 26.7714 88.6904C26.5709 88.771 26.3559 88.8125 26.1389 88.8125C25.8594 88.8106 25.585 88.7392 25.342 88.6051C25.1503 89.2504 25.1726 89.938 25.4059 90.5703C25.6391 91.2026 26.0714 91.7477 26.6416 92.1283C27.2117 92.5089 27.8908 92.7057 28.5826 92.6909C29.2744 92.6761 29.9439 92.4505 30.4962 92.0458C31.0485 91.6412 31.4556 91.0782 31.66 90.4365C31.8643 89.7949 31.8554 89.1071 31.6346 88.4705C31.4138 87.834 30.9922 87.2811 30.4296 86.89C29.8671 86.499 29.192 86.2896 28.5 86.2917V86.2917ZM36.8973 89.0818C35.2968 86.0508 32.1281 84 28.5 84C24.8719 84 21.7023 86.0522 20.1027 89.0821C20.0352 89.2117 20 89.3549 20 89.5001C20 89.6454 20.0352 89.7886 20.1027 89.9182C21.7032 92.9492 24.8719 95 28.5 95C32.1281 95 35.2977 92.9478 36.8973 89.9179C36.9648 89.7883 37 89.6451 37 89.4999C37 89.3546 36.9648 89.2114 36.8973 89.0818V89.0818ZM28.5 93.625C25.5884 93.625 22.9192 92.0495 21.4777 89.5C22.9192 86.9505 25.5882 85.375 28.5 85.375C31.4118 85.375 34.0808 86.9505 35.5223 89.5C34.0811 92.0495 31.4118 93.625 28.5 93.625Z" fill="white"/>
<path d="M28.5 114.292C28.1872 114.296 27.8767 114.345 27.578 114.435C27.7162 114.671 27.7897 114.937 27.7917 115.208C27.7917 115.419 27.7489 115.628 27.6659 115.822C27.5828 116.017 27.4611 116.194 27.3076 116.343C27.1541 116.492 26.9719 116.61 26.7714 116.69C26.5709 116.771 26.3559 116.813 26.1389 116.813C25.8594 116.811 25.585 116.739 25.342 116.605C25.1503 117.25 25.1726 117.938 25.4059 118.57C25.6391 119.203 26.0714 119.748 26.6416 120.128C27.2117 120.509 27.8908 120.706 28.5826 120.691C29.2744 120.676 29.9439 120.45 30.4962 120.046C31.0485 119.641 31.4556 119.078 31.66 118.437C31.8643 117.795 31.8554 117.107 31.6346 116.471C31.4138 115.834 30.9922 115.281 30.4296 114.89C29.8671 114.499 29.192 114.29 28.5 114.292V114.292ZM36.8973 117.082C35.2968 114.051 32.1281 112 28.5 112C24.8719 112 21.7023 114.052 20.1027 117.082C20.0352 117.212 20 117.355 20 117.5C20 117.645 20.0352 117.789 20.1027 117.918C21.7032 120.949 24.8719 123 28.5 123C32.1281 123 35.2977 120.948 36.8973 117.918C36.9648 117.788 37 117.645 37 117.5C37 117.355 36.9648 117.211 36.8973 117.082V117.082ZM28.5 121.625C25.5884 121.625 22.9192 120.049 21.4777 117.5C22.9192 114.951 25.5882 113.375 28.5 113.375C31.4118 113.375 34.0808 114.951 35.5223 117.5C34.0811 120.049 31.4118 121.625 28.5 121.625Z" fill="white"/>
</svg>
