<svg xmlns="http://www.w3.org/2000/svg" xmlns:xlink="http://www.w3.org/1999/xlink" width="42" height="42" viewBox="0 0 42 42"><defs><style>.a,.i{fill:#fff;}.a{stroke:#707070;}.b{fill:#6fe2c3;}.b,.c{stroke:#fff;}.c{fill:#c98cfd;stroke-width:3px;}.d{clip-path:url(#a);}.e{clip-path:url(#b);}.f{fill:#c97e00;}.g{fill:#ffdb53;}.h{fill:#5f5e5e;}.j{fill:#070303;}.k{fill:#fabe00;}.l{stroke:none;}.m{fill:none;}</style><clipPath id="a"><circle class="a" cx="18" cy="18" r="18"/></clipPath><clipPath id="b"><path class="b" d="M18.352,0A18.352,18.352,0,1,1,0,18.352,18.352,18.352,0,0,1,18.352,0Z"/></clipPath></defs><g class="c"><circle class="l" cx="21" cy="21" r="21"/><circle class="m" cx="21" cy="21" r="19.5"/></g><g class="d" transform="translate(3 3)"><g class="e" transform="translate(0.138 -0.396)"><g transform="translate(6.522 3.555)"><g transform="translate(15.277 0.93)"><path class="f" d="M709.973,321.081a2.4,2.4,0,0,0,2.61-.574,3.916,3.916,0,0,0,.756-1.339c.018-1.085-1.108-1.7-1.226-1.793l.365-.47a3.028,3.028,0,0,1,1.3,2.3,3.2,3.2,0,0,1-3.393,2.715Z" transform="translate(-709.973 -316.296)"/><circle class="g" cx="0.803" cy="0.803" r="0.803" transform="translate(1.346 0)"/></g><g transform="translate(4.333)"><path class="f" d="M664.491,316.894a2.406,2.406,0,0,1-2.61-.574,3.921,3.921,0,0,1-.756-1.339c-.018-1.085,1.108-1.7,1.226-1.794l-.365-.47a3.028,3.028,0,0,0-1.305,2.3,3.2,3.2,0,0,0,3.393,2.715Z" transform="translate(-660.679 -312.109)"/><circle class="g" cx="0.803" cy="0.803" r="0.803" transform="translate(0.86)"/></g><path class="f" d="M716.416,368.414a3.438,3.438,0,0,1,2.7-.2c1.716.689,2.377,3.036,1.978,3.231-.6.294-.776-.978-2.336-1.568-1.49-.563-2.586-.076-2.741-.608C715.971,369.1,716.013,368.835,716.416,368.414Z" transform="translate(-699.388 -355.129)"/><path class="f" d="M716.416,385.017a3.439,3.439,0,0,1,2.7-.2c1.716.689,2.377,3.036,1.978,3.231-.6.294-.776-.978-2.336-1.568-1.49-.563-2.586-.076-2.741-.608C715.971,385.7,716.013,385.438,716.416,385.017Z" transform="translate(-699.388 -368.046)"/><path class="f" d="M716.416,403.664a3.439,3.439,0,0,1,2.7-.2c1.716.689,2.377,3.036,1.978,3.231-.6.294-.776-.978-2.336-1.568-1.49-.563-2.586-.076-2.741-.608C715.971,404.351,716.013,404.085,716.416,403.664Z" transform="translate(-699.388 -382.553)"/><path class="f" d="M716.416,419.315a3.437,3.437,0,0,1,2.7-.2c1.716.689,2.377,3.036,1.978,3.231-.6.294-.776-.978-2.336-1.568-1.49-.564-2.586-.076-2.741-.608C715.971,420,716.013,419.737,716.416,419.315Z" transform="translate(-699.388 -394.73)"/><path class="f" d="M716.416,436.1a3.438,3.438,0,0,1,2.7-.2c1.716.689,2.377,3.036,1.978,3.231-.6.294-.776-.978-2.336-1.568-1.49-.564-2.586-.076-2.741-.608C715.971,436.792,716.013,436.526,716.416,436.1Z" transform="translate(-699.388 -407.792)"/><path class="f" d="M716.416,452.708a3.438,3.438,0,0,1,2.7-.2c1.716.689,2.377,3.036,1.978,3.231-.6.294-.776-.978-2.336-1.568-1.49-.563-2.586-.076-2.741-.608C715.971,453.395,716.013,453.129,716.416,452.708Z" transform="translate(-699.388 -420.709)"/><path class="f" d="M645.955,368.414a3.439,3.439,0,0,0-2.7-.2c-1.716.689-2.377,3.036-1.978,3.231.6.294.776-.978,2.336-1.568,1.49-.563,2.585-.076,2.741-.608C646.4,369.1,646.358,368.835,645.955,368.414Z" transform="translate(-641.161 -355.129)"/><path class="f" d="M645.955,385.017a3.44,3.44,0,0,0-2.7-.2c-1.716.689-2.377,3.036-1.978,3.231.6.294.776-.978,2.336-1.568,1.49-.563,2.585-.076,2.741-.608C646.4,385.7,646.358,385.438,645.955,385.017Z" transform="translate(-641.161 -368.046)"/><path class="f" d="M645.955,403.664a3.44,3.44,0,0,0-2.7-.2c-1.716.689-2.377,3.036-1.978,3.231.6.294.776-.978,2.336-1.568,1.49-.563,2.585-.076,2.741-.608C646.4,404.351,646.358,404.085,645.955,403.664Z" transform="translate(-641.161 -382.553)"/><path class="f" d="M645.955,419.315a3.438,3.438,0,0,0-2.7-.2c-1.716.689-2.377,3.036-1.978,3.231.6.294.776-.978,2.336-1.568,1.49-.564,2.585-.076,2.741-.608C646.4,420,646.358,419.737,645.955,419.315Z" transform="translate(-641.161 -394.73)"/><path class="f" d="M645.955,436.1a3.439,3.439,0,0,0-2.7-.2c-1.716.689-2.377,3.036-1.978,3.231.6.294.776-.978,2.336-1.568,1.49-.564,2.585-.076,2.741-.608C646.4,436.792,646.358,436.526,645.955,436.1Z" transform="translate(-641.161 -407.792)"/><path class="f" d="M645.955,452.708a3.439,3.439,0,0,0-2.7-.2c-1.716.689-2.377,3.036-1.978,3.231.6.294.776-.978,2.336-1.568,1.49-.563,2.585-.076,2.741-.608C646.4,453.395,646.358,453.129,645.955,452.708Z" transform="translate(-641.161 -420.709)"/><path class="g" d="M659.078,314.568c-1.585-.451-3.689.654-4.86,1.813a9.835,9.835,0,0,0-2.31,4.31,43.108,43.108,0,0,0-1.277,7.715l-1.442,13.9a8.686,8.686,0,0,0,.219,4.038c.63,1.624,2.149,2.7,3.3,4,1.752,1.977,2.989,4.782,5.547,5.44a5.765,5.765,0,0,0,5.121-1.637c2.694-2.457,3.708-6.294,3.8-9.939s-.616-7.263-.753-10.906c-.165-4.39.479-8.908-.848-13.1-.935-2.951-3.409-5.861-6.5-5.635" transform="translate(-647.306 -313.468)"/><g transform="translate(6.239 10.243)"><path class="h" d="M671.279,357.384a5.182,5.182,0,0,0,3.463-.233l1.822-.667a5.29,5.29,0,0,1,1.358-.364,1.781,1.781,0,0,1,1.322.37,1.088,1.088,0,0,1,.3,1.273,1.74,1.74,0,0,1-.7.618,15.233,15.233,0,0,1-2.96,1.446,6.538,6.538,0,0,1-3.252.3,10.138,10.138,0,0,1-2.808-1.145,1.133,1.133,0,0,1-.486-.389.777.777,0,0,1,.359-.986,4.353,4.353,0,0,1,1.583-.223" transform="translate(-669.264 -356.112)"/><g transform="translate(0.866 0)"><path class="i" d="M681.629,362.331l.333.77.421-.709A7.306,7.306,0,0,1,681.629,362.331Z" transform="translate(-679.75 -360.951)"/><path class="i" d="M673.515,362.659l.409-.77a5.787,5.787,0,0,0-.756.076Z" transform="translate(-673.167 -360.607)"/><path class="i" d="M677.646,362.719l.447-.788c-.2-.028-.4-.059-.592-.091l-.239.005Z" transform="translate(-676.353 -360.569)"/><path class="i" d="M686.646,362.288l-.062.014a3.972,3.972,0,0,1-.621.057l.454.709Z" transform="translate(-683.122 -360.917)"/><path class="i" d="M701.449,357.076c-.152.05-.3.1-.452.158l-.327.12.575.494Z" transform="translate(-694.564 -356.862)"/><path class="i" d="M705.832,356.122a3.5,3.5,0,0,0-.693.137l.6.552.47-.689A2.239,2.239,0,0,0,705.832,356.122Z" transform="translate(-698.041 -356.114)"/><path class="i" d="M695.393,359.161l.54.525.315-.837Z" transform="translate(-690.458 -358.241)"/><path class="i" d="M691.13,360.768l-.013,0c-.265.1-.532.193-.8.267l.515.448Z" transform="translate(-686.506 -359.735)"/></g><g transform="translate(1.313 2.274)"><path class="i" d="M706.577,366.355l-.128.737c.294-.151.583-.311.87-.476Z" transform="translate(-699.506 -366.355)"/><path class="i" d="M680.6,370.873l-.422-.875-.35.637A6.434,6.434,0,0,0,680.6,370.873Z" transform="translate(-678.792 -369.189)"/><path class="i" d="M701.759,368.817l-.648-.425-.331.853C701.114,369.119,701.439,368.973,701.759,368.817Z" transform="translate(-695.096 -367.94)"/><path class="i" d="M688.435,371.788l-.565.619a6.19,6.19,0,0,0,1.142-.063Z" transform="translate(-685.051 -370.582)"/><path class="i" d="M675.177,369.215c.259.13.522.252.788.362l-.407-.814Z" transform="translate(-675.177 -368.228)"/><path class="i" d="M684.615,372.31l-.241-.626-.385.535c.033.007.065.016.1.022A5.252,5.252,0,0,0,684.615,372.31Z" transform="translate(-682.033 -370.501)"/><path class="i" d="M694.49,370.677l-.3.76a8.007,8.007,0,0,0,1.085-.278l.053-.019Z" transform="translate(-689.97 -369.717)"/></g></g><path class="i" d="M680.1,329.272a2.8,2.8,0,1,0,5.022-1.2,2.885,2.885,0,0,0-3.439-1.037A3.065,3.065,0,0,0,680.1,329.272Z" transform="translate(-671.386 -323.079)"/><circle class="j" cx="0.448" cy="0.448" r="0.448" transform="translate(11.064 5.751)"/><path class="k" d="M661.853,380.277a19.422,19.422,0,0,1-6.992-1.9q-.166,1.6-.331,3.194a23.468,23.468,0,0,0,16.138,1.025c-.032-1.231-.01-2.47.009-3.709A19.5,19.5,0,0,1,661.853,380.277Z" transform="translate(-651.561 -363.193)"/><path class="k" d="M660.068,408.72a28.477,28.477,0,0,1-7.942-1.434q-.128,1.231-.256,2.462a28.664,28.664,0,0,0,17.2,1.242c-.11-1.1-.23-2.2-.324-3.3A28.485,28.485,0,0,1,660.068,408.72Z" transform="translate(-649.492 -385.681)"/><path class="k" d="M657.284,433.77a66.311,66.311,0,0,0-7.693-1q-.082.787-.163,1.573c-.021.205-.042.412-.061.619a48.277,48.277,0,0,0,18.049,1.131c.017-.922-.016-1.842-.076-2.761C662.628,434.292,659.49,434.224,657.284,433.77Z" transform="translate(-647.545 -405.504)"/></g></g></g></svg>