<svg xmlns="http://www.w3.org/2000/svg" width="126.391" height="23.254" viewBox="0 0 126.391 23.254"><defs><style>.a{fill:#fff;}</style></defs><g transform="translate(-535.624 -589.566)"><g transform="translate(591.738 601.193)"><path class="a" d="M553.079,607.722v-1.23l1.09-.211v-7.344l-1.09-.211v-1.237h4.238v1.237l-1.1.211v7.212h2.889l.1-1.287h1.567v2.86Z" transform="translate(-553.079 -596.758)"/><path class="a" d="M565.569,607.977a3.428,3.428,0,0,1-2.629-1.054,3.772,3.772,0,0,1-.984-2.678v-.281a4.156,4.156,0,0,1,.931-2.79,3.473,3.473,0,0,1,4.888-.162,3.571,3.571,0,0,1,.851,2.509v1.117h-4.54l-.014.042a1.98,1.98,0,0,0,.5,1.237,1.561,1.561,0,0,0,1.212.485,3.929,3.929,0,0,0,1.132-.137,5.176,5.176,0,0,0,.984-.433l.555,1.265a4.034,4.034,0,0,1-1.22.626A5.16,5.16,0,0,1,565.569,607.977Zm-.183-6.312a1.069,1.069,0,0,0-.9.437,2.266,2.266,0,0,0-.408,1.145l.02.036h2.516V603.1a1.647,1.647,0,0,0-.3-1.044A1.1,1.1,0,0,0,565.386,601.664Z" transform="translate(-553.444 -596.865)"/><path class="a" d="M572.947,598.288v1.862h1.336v1.44h-1.336v3.873a.9.9,0,0,0,.182.634.654.654,0,0,0,.492.189,3.448,3.448,0,0,0,.369-.017c.105-.011.223-.032.356-.059l.175,1.482a4.778,4.778,0,0,1-.682.158,4.72,4.72,0,0,1-.732.053,2.19,2.19,0,0,1-1.634-.583,2.561,2.561,0,0,1-.572-1.849V601.59h-1.118v-1.44H570.9v-1.862Z" transform="translate(-553.766 -596.791)"/><path class="a" d="M577.786,598.069a3.428,3.428,0,0,1-.373,1.479,4.12,4.12,0,0,1-.906,1.268l-1.013-.555a4.541,4.541,0,0,0,.422-1.009,4.382,4.382,0,0,0,.148-1.183v-1.342h1.722Z" transform="translate(-554.001 -596.727)"/><path class="a" d="M584.517,602.839H583.14l-.218-.948a1.8,1.8,0,0,0-.53-.282,2.126,2.126,0,0,0-.707-.112,1.378,1.378,0,0,0-.857.242.737.737,0,0,0-.316.607.69.69,0,0,0,.3.573,3.225,3.225,0,0,0,1.209.4,4.913,4.913,0,0,1,2.094.826,1.817,1.817,0,0,1,.682,1.5,1.992,1.992,0,0,1-.882,1.676,3.82,3.82,0,0,1-2.322.65,4.876,4.876,0,0,1-1.614-.256,4.116,4.116,0,0,1-1.3-.735l-.021-1.708h1.434l.281.991a1.167,1.167,0,0,0,.5.228,2.9,2.9,0,0,0,.661.074,1.671,1.671,0,0,0,.952-.225.7.7,0,0,0,.327-.611.717.717,0,0,0-.331-.584,3.37,3.37,0,0,0-1.216-.435,4.857,4.857,0,0,1-2.027-.812,1.76,1.76,0,0,1-.686-1.465,2.126,2.126,0,0,1,.787-1.648,3.289,3.289,0,0,1,2.242-.691,5.767,5.767,0,0,1,1.676.239,3.556,3.556,0,0,1,1.241.611Z" transform="translate(-554.126 -596.866)"/></g><g transform="translate(627.323 602.901)"><path class="a" d="M597.693,601.716h-1.36l-.189-1.216a1.9,1.9,0,0,0-.68-.426,2.716,2.716,0,0,0-.968-.156,2.144,2.144,0,0,0-1.833.865,3.679,3.679,0,0,0-.642,2.255v.32a3.73,3.73,0,0,0,.639,2.263,2.108,2.108,0,0,0,1.8.871,3,3,0,0,0,.988-.156,1.656,1.656,0,0,0,.692-.426l.189-1.217h1.36V606.5a3.925,3.925,0,0,1-1.408,1.018,4.666,4.666,0,0,1-1.914.38,3.909,3.909,0,0,1-3.009-1.272,4.632,4.632,0,0,1-1.173-3.266v-.307a4.662,4.662,0,0,1,1.166-3.266,3.894,3.894,0,0,1,3.016-1.278,4.6,4.6,0,0,1,1.911.385,4.112,4.112,0,0,1,1.41,1.019Z" transform="translate(-590.19 -598.508)"/><path class="a" d="M598.891,599.748v-1.1h3.779v1.1l-.978.188v2.632h3.723v-2.632l-.978-.188v-1.1h3.78v1.1l-.978.188v6.55l.978.189v1.1h-3.78v-1.1l.978-.189v-2.507h-3.723v2.507l.978.189v1.1h-3.779v-1.1l.97-.189v-6.55Z" transform="translate(-590.548 -598.514)"/><path class="a" d="M609.257,606.675l.652-.095,2.777-7.935h1.874l2.758,7.935.652.095v1.1h-3.109v-1.1l.633-.114-.4-1.253h-2.958l-.4,1.253.633.114v1.1h-3.109Zm3.31-2.715h2.093l-1.029-3.215h-.037Z" transform="translate(-590.974 -598.514)"/><path class="a" d="M626.021,598.645v2.432h-1.4l-.075-1.022h-1.68v6.431l.978.189v1.1h-3.786v-1.1l.978-.189v-6.431h-1.673l-.076,1.022h-1.4v-2.432Z" transform="translate(-591.329 -598.514)"/></g><g transform="translate(535.624 589.566)"><path class="a" d="M612.071,589.637c-.19-.164-.366-.331-.535-.5a7.441,7.441,0,0,0,2.739-5.561,6.856,6.856,0,0,0-1.238-3.858c.139-.525.267-1.061.391-1.588a21.046,21.046,0,0,0,.536-4.022,1.717,1.717,0,1,0-1.043-.006c.057.018.115.025.174.038a10.33,10.33,0,0,1-.883,3.59c-.1.221-.216.415-.326.62a13.543,13.543,0,0,0-9.407-3.46,15.651,15.651,0,0,0-3.731.451,10.373,10.373,0,0,1-.595-2.936c.057-.013.115-.018.174-.037a1.729,1.729,0,1,0-1.044,0,21.493,21.493,0,0,0,.371,3.288c-4.108,1.359-6.973,4.39-6.973,7.921,0,4.8,5.282,8.685,11.8,8.685a15.043,15.043,0,0,0,5.976-1.206,7.809,7.809,0,0,0,1.117.53,8.84,8.84,0,0,0,5.737,0A11.5,11.5,0,0,1,612.071,589.637Z" transform="translate(-565.259 -569.011)"/><path class="a" d="M593.188,574.992c-2.618-3.275-7.448-5.475-12.982-5.475-8.318,0-15.062,4.964-15.062,11.088a9.544,9.544,0,0,0,3.6,7.193,16.669,16.669,0,0,1-4.28,2.623,12.257,12.257,0,0,0,8.376,0c.056-.022.109-.05.165-.074a19.384,19.384,0,0,0,7.2,1.345,18.464,18.464,0,0,0,9.7-2.614,9.3,9.3,0,0,1-1.857-5.484C588.049,580.19,590.03,577.126,593.188,574.992Z" transform="translate(-564.468 -569.026)"/></g></g></svg>