<?xml version="1.0" encoding="utf-8"?>
<!-- Generator: Adobe Illustrator 16.0.0, SVG Export Plug-In . SVG Version: 6.00 Build 0)  -->
<!DOCTYPE svg PUBLIC "-//W3C//DTD SVG 1.1//EN" "http://www.w3.org/Graphics/SVG/1.1/DTD/svg11.dtd">
<svg version="1.1" id="圖層_1" xmlns="http://www.w3.org/2000/svg" xmlns:xlink="http://www.w3.org/1999/xlink" x="0px" y="0px"
	 width="229.372px" height="180.302px" viewBox="0 0 229.372 180.302" enable-background="new 0 0 229.372 180.302"
	 xml:space="preserve">
<g>
	<g>
		<path fill="#419774" d="M190.667,102.919c-0.002-12.426-0.141-24.854,0.066-37.276c0.08-4.771-1.685-7.835-5.743-10.33
			c-21.378-13.143-42.734-26.326-63.864-39.862c-4.746-3.04-8.25-2.753-12.789,0.105C76.585,35.545,44.711,55.338,12.86,75.169
			c-1.888,1.175-3.814,2.413-5.892,3.128c-2.738,0.942-4.844-0.453-6.211-2.828c-1.276-2.221-0.927-4.412,0.956-6.082
			c1.663-1.474,3.521-2.759,5.408-3.941C40.604,44.475,74.167,23.634,107.53,2.48c5.405-3.426,9.444-3.25,14.775,0.199
			c19.607,12.685,39.518,24.901,59.35,37.238c3.853,2.396,7.352,5.863,11.654-0.4c2.638-3.844,8.698-1.765,8.436,3.159
			c-0.623,11.666,8.12,14.75,15.427,19.464c2.713,1.751,5.541,3.329,8.206,5.148c3.129,2.136,5.338,4.813,2.789,8.708
			c-2.337,3.568-5.506,2.739-8.514,0.988c-3.648-2.121-7.21-4.4-10.768-6.675c-3.947-2.523-6.349-2.545-6.325,3.181
			c0.093,22.117,0.075,44.236,0.027,66.354c-0.012,5.201,2.368,5.885,6.628,4.077c3.775-1.601,6.613-4.333,9.447-7.138
			c2.746-2.717,5.943-4.195,9.135-1.082c3.014,2.937,1.118,6.079-0.857,8.691c-4.348,5.747-10.289,9.426-17.089,11.386
			c-5.452,1.573-7.813,4.608-7.328,10.259c0.231,2.691-0.003,5.48-0.442,8.157c-0.477,2.899-2.115,5.186-5.386,5.219
			c-3.265,0.032-4.604-2.292-5.587-5.077c-1.488-4.219,2.102-10.533-3.529-12.63c-4.188-1.56-9.344-0.31-14.017-0.807
			c-33.255-3.542-65.511-10.231-91.692-33.081c-19.076-16.65-27.25-38.649-28.586-63.414c-0.403-7.474,3.258-9.695,9.669-6.294
			c3.159,1.675,6.426,2.547,9.829,3.269c23.518,4.984,46.051,12.274,65.584,27.025c17.638,13.32,29.094,30.273,32.423,52.435
			c1.269,8.452,2.467,8.686,13.05,8.34c7.239-0.237,6.854-4.85,6.842-9.727C190.651,127.277,190.671,115.098,190.667,102.919z
			 M66.229,67.544c-3.571,37.739,50.997,84.267,89.874,78.098C125.187,121.071,95.393,95.697,66.229,67.544z"/>
		<path fill="#419774" d="M26.667,126.248c0-13.67-0.055-27.339,0.047-41.007c0.021-2.693,0.314-5.486,1.096-8.046
			c0.783-2.566,2.959-3.988,5.805-3.644c2.547,0.31,4.02,2.097,4.438,4.424c0.436,2.423,0.488,4.938,0.49,7.414
			c0.033,24.106,0.008,48.213,0.028,72.322c0.009,10.598,0.039,10.615,10.947,10.629c14.911,0.02,29.823-0.004,44.735,0.018
			c2.232,0.004,4.487-0.008,6.692,0.288c3.026,0.403,5.098,2.147,5.262,5.333c0.168,3.253-1.888,5.264-4.829,5.671
			c-3.912,0.54-7.912,0.591-11.875,0.603c-17.148,0.056-34.297,0.075-51.445,0.002c-9.283-0.041-11.303-2.078-11.367-11.508
			C26.597,154.581,26.667,140.414,26.667,126.248z"/>
	</g>
</g>
</svg>
