<svg xmlns="http://www.w3.org/2000/svg" xmlns:xlink="http://www.w3.org/1999/xlink" width="26" height="26" viewBox="0 0 26 26"><defs><style>.a{fill:#fff;}.b{clip-path:url(#a);}</style><clipPath id="a"><rect class="a" width="26" height="26" transform="translate(0 0)"/></clipPath></defs><g class="b"><g transform="translate(0 0.316)"><g transform="translate(0 0)"><path class="a" d="M23.183,16.927a.742.742,0,0,0-.076.253.609.609,0,1,0,1.213.1A1.24,1.24,0,0,1,24.345,17v-.278a6.678,6.678,0,0,0-.354-2.122,6.3,6.3,0,0,0-4.3-3.967,6.7,6.7,0,0,0-1.592-.2,4.283,4.283,0,0,0-.556.025l-.531.076a.59.59,0,0,0,.2,1.162,2.49,2.49,0,0,1,.43-.051h.076c.126,0,.253-.025.379-.025a5,5,0,0,1,3.588,1.491,5.091,5.091,0,0,1,1.491,3.537V16.7Q23.183,16.851,23.183,16.927Z" transform="translate(-5.218 -3.611)"/><path class="a" d="M26.238,15.931a.609.609,0,1,0,1.213.1c.025-.278.025-.556.025-.834a11.324,11.324,0,0,0-.126-1.617,9.692,9.692,0,0,0-8.768-8.035c-.253-.025-.531-.025-.783-.025-.278,0-.556,0-.834.025s-.556.051-.834.1a.59.59,0,0,0,.2,1.162c.177-.025.328-.051.505-.076.076,0,.152-.025.227-.025.253-.025.505-.025.733-.025a8.708,8.708,0,0,1,2.451.354A8.4,8.4,0,0,1,23.812,9.16a8.679,8.679,0,0,1,1.9,2.855,8.54,8.54,0,0,1,.606,3.133V15.4A2.066,2.066,0,0,0,26.238,15.931Z" transform="translate(-4.938 -2.06)"/><path class="a" d="M26.806,4.328A13.118,13.118,0,0,0,17.482.462c-.379,0-.758.025-1.137.051a8.765,8.765,0,0,0-1.137.152.576.576,0,0,0-.48.682.576.576,0,0,0,.682.48c.177-.025.328-.051.505-.076a3.77,3.77,0,0,1,.531-.051c.354-.025.682-.051,1.036-.051A11.905,11.905,0,0,1,29.408,13.576v.556c0,.152-.025.3-.025.48a.609.609,0,1,0,1.213.1c.025-.379.051-.758.051-1.112A13.083,13.083,0,0,0,26.806,4.328Z" transform="translate(-4.646 -0.462)"/><path class="a" d="M25.065,20.056l-4.472-2.4c-1.491-.809-1.541-.278-3.108,1.39-.379.4-1.087,1.466-1.92,1.263-1.743-.43-5-2.982-6.064-4.144-.505-.556-2.678-3.209-2.7-4.068-.051-1.314,2.83-1.971,1.9-4.472l-2-4.472C4.826-1.143-.4,5.729.025,8.938,1.137,16.847,15.009,29.633,22.74,25.413,24.459,24.453,26.783,21.092,25.065,20.056Z" transform="translate(0 -0.878)"/></g></g></g></svg>