<svg xmlns="http://www.w3.org/2000/svg" xmlns:xlink="http://www.w3.org/1999/xlink" width="48" height="48" viewBox="0 0 48 48"><defs><style>.a{fill:#fff;stroke:#707070;}.b{clip-path:url(#a);}</style><clipPath id="a"><rect class="a" width="48" height="48" transform="translate(676 180)"/></clipPath></defs><g class="b" transform="translate(-676 -180)"><g transform="translate(676 180)"><path d="M40.5,26.472l7.391,15.183a.72.72,0,0,1-.7,1.123H.816a.72.72,0,0,1-.7-1.123L7.5,26.472a.856.856,0,0,1,.7-.439h6.337a.887.887,0,0,1,.587.27c.43.5.868.982,1.3,1.463.415.456.832.918,1.245,1.391H10.16a.856.856,0,0,0-.7.439l-4.9,10.058H43.438L38.542,29.6a.856.856,0,0,0-.7-.439H30.3c.414-.473.831-.935,1.245-1.391.438-.482.878-.966,1.309-1.463a.886.886,0,0,1,.586-.269h6.351A.856.856,0,0,1,40.5,26.472ZM34.866,16.1c0,8.3-6.907,9.852-10.155,17.825a.776.776,0,0,1-1.44,0c-2.93-7.188-8.834-9.16-9.964-15.563A11.11,11.11,0,0,1,22.933,5.273,10.876,10.876,0,0,1,34.866,16.1Zm-5.132,0a5.742,5.742,0,1,0-5.742,5.742A5.742,5.742,0,0,0,29.734,16.1Z"/></g></g></svg>