<svg xmlns="http://www.w3.org/2000/svg" width="26.182" height="28.363" viewBox="0 0 26.182 28.363"><defs><style>.a{fill:#5fe3ff;}</style></defs><g transform="translate(0)"><path class="a" d="M43.971.477A1.577,1.577,0,0,0,42.812,0a1.512,1.512,0,0,0-.477.068L28.153,4.432a1.683,1.683,0,0,0-.835.605A1.576,1.576,0,0,0,26.993,6V22.484a7.909,7.909,0,0,0-3.273-.665A8.271,8.271,0,0,0,22.076,22a9.645,9.645,0,0,0-1.764.545,3.874,3.874,0,0,0-1.466,1.031,2.276,2.276,0,0,0,0,3.034,3.872,3.872,0,0,0,1.466,1.031,9.67,9.67,0,0,0,1.764.545,7.665,7.665,0,0,0,3.29,0,9.664,9.664,0,0,0,1.764-.545A3.874,3.874,0,0,0,28.6,26.608a2.243,2.243,0,0,0,.58-1.517V13.006l13.091-4.04V18.12a7.913,7.913,0,0,0-3.273-.665,8.258,8.258,0,0,0-1.645.179,9.654,9.654,0,0,0-1.764.545,3.874,3.874,0,0,0-1.466,1.032,2.274,2.274,0,0,0,0,3.034,3.871,3.871,0,0,0,1.466,1.031,9.668,9.668,0,0,0,1.764.546,7.667,7.667,0,0,0,3.29,0,9.684,9.684,0,0,0,1.764-.546,3.87,3.87,0,0,0,1.466-1.031,2.242,2.242,0,0,0,.58-1.517V1.636A1.576,1.576,0,0,0,43.971.477Z" transform="translate(-18.266)"/></g></svg>