<?xml version="1.0" encoding="utf-8"?>
<!-- Generator: Adobe Illustrator 23.0.2, SVG Export Plug-In . SVG Version: 6.00 Build 0)  -->
<!DOCTYPE svg PUBLIC "-//W3C//DTD SVG 1.1//EN" "http://www.w3.org/Graphics/SVG/1.1/DTD/svg11.dtd" [
	<!ENTITY st0 "fill:none;stroke:#FFFFFF;stroke-miterlimit:10;">
]>
<svg version="1.1" xmlns="http://www.w3.org/2000/svg" xmlns:xlink="http://www.w3.org/1999/xlink" x="0px" y="0px" width="184.5px"
	 height="22.9px" viewBox="0 0 184.5 22.9" style="enable-background:new 0 0 184.5 22.9;" xml:space="preserve">
<g id="圖層_1">
	<path style="&st0;" d="M184.5,12h-58.4h-13.7h-2.1l-2.4-5.9l-4.2,6.6c0,0-5.3-0.3-5.8,0.5c-0.5,0.8-4.2,4.7-4.5,4.7
		c-0.9,0.7-4.5-7.9-4.9-8c-5.7-1.1-9.6-7.6-9.9-7.6C73.1,10.5,68.3,9,68.3,9s-2,4.4-2.2,4.2c-0.3-0.1-2.9-4.7-2.9-4.7l-3.8,0.9
		l-2.6-2.6h-5l-1.5,3.1c0,0-3.8,0-4,0.1c-3.1,10.3-6.5,12-6.7,11.7c-3.3,0-13.5-13.5-13.5-13.5l-3.6,7.1c-0.9,1.5-6.5-13.2-6.5-13.2
		l-5.3,10.8H0"/>
</g>
<g id="圖層_2">
</g>
</svg>
