<?xml version="1.0" encoding="utf-8"?>
<!-- Generator: Adobe Illustrator 23.0.2, SVG Export Plug-In . SVG Version: 6.00 Build 0)  -->
<!DOCTYPE svg PUBLIC "-//W3C//DTD SVG 1.1//EN" "http://www.w3.org/Graphics/SVG/1.1/DTD/svg11.dtd" [
	<!ENTITY st0 "fill:none;stroke:#FFFFFF;stroke-miterlimit:10;">
]>
<svg version="1.1" xmlns="http://www.w3.org/2000/svg" xmlns:xlink="http://www.w3.org/1999/xlink" x="0px" y="0px" width="184.5px"
	 height="22.9px" viewBox="0 0 184.5 22.9" style="enable-background:new 0 0 184.5 22.9;" xml:space="preserve">
<g id="圖層_1">
	<path style="&st0;" d="M0,12h58.4h13.7h2.1l2.4-5.9l4.2,6.6c0,0,5.3-0.3,5.8,0.5c0.5,0.8,4.2,4.7,4.5,4.7c0.9,0.7,4.5-7.9,4.9-8
		c5.7-1.1,9.6-7.6,9.9-7.6c5.5,8.3,10.3,6.7,10.3,6.7s2,4.4,2.2,4.2c0.3-0.1,2.9-4.7,2.9-4.7l3.8,0.9l2.6-2.6h5l1.5,3.1
		c0,0,3.8,0,4,0.1c3.1,10.3,6.5,12,6.7,11.7c3.3,0,13.5-13.5,13.5-13.5l3.6,7.1c0.9,1.5,6.5-13.2,6.5-13.2l5.3,10.8h10.8"/>
</g>
<g id="圖層_2">
</g>
</svg>
