<svg xmlns="http://www.w3.org/2000/svg" xmlns:xlink="http://www.w3.org/1999/xlink" width="33.344" height="36.036" viewBox="0 0 33.344 36.036"><defs><style>.a{fill:#ff4582;}.b{filter:url(#c);}.c{filter:url(#a);}</style><filter id="a" x="0" y="0" width="33.344" height="27.422" filterUnits="userSpaceOnUse"><feOffset input="SourceAlpha"/><feGaussianBlur stdDeviation="3" result="b"/><feFlood flood-color="#ff4582"/><feComposite operator="in" in2="b"/><feComposite in="SourceGraphic"/></filter><filter id="c" x="0" y="8.39" width="33.344" height="27.646" filterUnits="userSpaceOnUse"><feOffset input="SourceAlpha"/><feGaussianBlur stdDeviation="3" result="d"/><feFlood flood-color="#ff4582"/><feComposite operator="in" in2="d"/><feComposite in="SourceGraphic"/></filter></defs><g transform="translate(9 9)"><g class="c" transform="matrix(1, 0, 0, 1, -9, -9)"><path class="a" d="M32.02,9.422a.661.661,0,0,0,.673-.673V4.218H44.4l-1.7,1.7a.65.65,0,0,0,0,.942.651.651,0,0,0,.942,0L46.49,4.016a.65.65,0,0,0,0-.942L43.641.2A.65.65,0,0,0,42.7.2a.65.65,0,0,0,0,.942l1.7,1.727H32.02a.661.661,0,0,0-.673.673v5.2A.661.661,0,0,0,32.02,9.422Z" transform="translate(-22.35 9)"/></g><g class="b" transform="matrix(1, 0, 0, 1, -9, -9)"><path class="a" d="M46.019,195.4a.661.661,0,0,0-.673.673v4.756H33.635l1.7-1.7a.666.666,0,0,0-.942-.942l-2.849,2.849a.651.651,0,0,0,0,.942L34.4,204.84a.684.684,0,0,0,.471.2.673.673,0,0,0,.471-1.144l-1.7-1.727H46.019a.661.661,0,0,0,.673-.673v-5.429A.661.661,0,0,0,46.019,195.4Z" transform="translate(-22.35 -178.01)"/></g></g></svg>