<svg xmlns="http://www.w3.org/2000/svg" xmlns:xlink="http://www.w3.org/1999/xlink" width="36.978" height="33.233" viewBox="0 0 36.978 33.233"><defs><style>.a{fill:#ff4582;}.b{filter:url(#e);}.c{filter:url(#c);}.d{filter:url(#a);}</style><filter id="a" x="0" y="0" width="36.978" height="30.849" filterUnits="userSpaceOnUse"><feOffset input="SourceAlpha"/><feGaussianBlur stdDeviation="3" result="b"/><feFlood flood-color="#ff4582"/><feComposite operator="in" in2="b"/><feComposite in="SourceGraphic"/></filter><filter id="c" x="0" y="2.363" width="26.597" height="22.671" filterUnits="userSpaceOnUse"><feOffset input="SourceAlpha"/><feGaussianBlur stdDeviation="3" result="d"/><feFlood flood-color="#ff4582"/><feComposite operator="in" in2="d"/><feComposite in="SourceGraphic"/></filter><filter id="e" x="9.516" y="8.184" width="27.461" height="25.048" filterUnits="userSpaceOnUse"><feOffset input="SourceAlpha"/><feGaussianBlur stdDeviation="3" result="f"/><feFlood flood-color="#ff4582"/><feComposite operator="in" in2="f"/><feComposite in="SourceGraphic"/></filter></defs><g transform="translate(9 9)"><g class="d" transform="matrix(1, 0, 0, 1, -9, -9)"><path class="a" d="M16.588,44.837l-1.12,1.168a.742.742,0,0,0,.024,1.025.663.663,0,0,0,.5.191.739.739,0,0,0,.524-.215l2.264-2.383a.705.705,0,0,0,0-.977l-2.264-2.383a.708.708,0,1,0-1.025.977l1.12,1.168h-3.67a.713.713,0,0,0-.548.262L4.862,52.464H.715a.715.715,0,0,0,0,1.43H5.2a.776.776,0,0,0,.548-.238l7.531-8.818Z" transform="translate(9 -32.04)"/></g><g class="c" transform="matrix(1, 0, 0, 1, -9, -9)"><path class="a" d="M.715,94.264H4.862l2.479,2.979a.713.713,0,0,0,.548.262.629.629,0,0,0,.453-.167.718.718,0,0,0,.1-1L5.744,93.1a.713.713,0,0,0-.548-.262H.715a.715.715,0,0,0,0,1.43Z" transform="translate(9 -81.47)"/></g><g class="b" transform="matrix(1, 0, 0, 1, -9, -9)"><path class="a" d="M215.6,221.52a.708.708,0,0,0-1.025.977l1.12,1.168h-3.337l-2.5-2.955a.711.711,0,0,0-1.1.906l2.717,3.241a.713.713,0,0,0,.548.262h3.647l-1.12,1.168a.742.742,0,0,0,.024,1.025.663.663,0,0,0,.5.191.739.739,0,0,0,.524-.215l2.264-2.383a.705.705,0,0,0,0-.977Z" transform="translate(-190.08 -203.27)"/></g></g></svg>