<svg xmlns="http://www.w3.org/2000/svg" width="18.978" height="15.233" viewBox="0 0 18.978 15.233"><defs><style>.a{fill:#5fe3ff;}</style></defs><g transform="translate(0)"><path class="a" d="M16.588,44.837l-1.12,1.168a.742.742,0,0,0,.024,1.025.663.663,0,0,0,.5.191.739.739,0,0,0,.524-.215l2.264-2.383a.705.705,0,0,0,0-.977l-2.264-2.383a.708.708,0,1,0-1.025.977l1.12,1.168h-3.67a.713.713,0,0,0-.548.262L4.862,52.464H.715a.715.715,0,0,0,0,1.43H5.2a.776.776,0,0,0,.548-.238l7.531-8.818Z" transform="translate(0 -41.045)"/><g transform="translate(0 2.363)"><path class="a" d="M.715,94.264H4.862l2.479,2.979a.713.713,0,0,0,.548.262.629.629,0,0,0,.453-.167.718.718,0,0,0,.1-1L5.744,93.1a.713.713,0,0,0-.548-.262H.715a.715.715,0,0,0,0,1.43Z" transform="translate(0 -92.834)"/><path class="a" d="M215.6,221.52a.708.708,0,0,0-1.025.977l1.12,1.168h-3.337l-2.5-2.955a.711.711,0,0,0-1.1.906l2.717,3.241a.713.713,0,0,0,.548.262h3.647l-1.12,1.168a.742.742,0,0,0,.024,1.025.663.663,0,0,0,.5.191.739.739,0,0,0,.524-.215l2.264-2.383a.705.705,0,0,0,0-.977Z" transform="translate(-199.084 -214.632)"/></g></g></svg>