<svg xmlns="http://www.w3.org/2000/svg" width="11.738" height="10.956" viewBox="0 0 11.738 10.956"><defs><style>.a{fill:#5fe3ff;}</style></defs><path class="a" d="M6.821,16.029a.39.39,0,0,0-.414.047L2.6,19.121H.783A.784.784,0,0,0,0,19.9v3.13a.783.783,0,0,0,.783.783H2.6l3.806,3.045a.392.392,0,0,0,.415.046.391.391,0,0,0,.221-.352V16.382A.393.393,0,0,0,6.821,16.029Z" transform="translate(0 -15.99)"/><path class="a" d="M342.418,122.365a.392.392,0,0,0-.55.557,3.121,3.121,0,0,1,0,4.42.391.391,0,1,0,.55.556,3.9,3.9,0,0,0,0-5.533Z" transform="translate(-333.394 -119.654)"/><path class="a" d="M387.535,77.238a.391.391,0,1,0-.552.556,4.669,4.669,0,0,1,0,6.627.391.391,0,0,0,.552.556,5.453,5.453,0,0,0,0-7.739Z" transform="translate(-377.407 -75.63)"/></svg>