<svg xmlns="http://www.w3.org/2000/svg" xmlns:xlink="http://www.w3.org/1999/xlink" width="42" height="42" viewBox="0 0 42 42"><defs><style>.a,.g{fill:#fff;}.a{stroke:#707070;}.b{fill:#ff9b9b;stroke:#fff;stroke-width:3px;}.c{clip-path:url(#a);}.d{fill:#0096a8;}.e{fill:#a7d4db;}.f{fill:#ffeb00;}.h{fill:#070303;}.i{stroke:none;}.j{fill:none;}</style><clipPath id="a"><circle class="a" cx="18" cy="18" r="18"/></clipPath></defs><g class="b"><circle class="i" cx="21" cy="21" r="21"/><circle class="j" cx="21" cy="21" r="19.5"/></g><g class="c" transform="translate(3 3)"><g transform="translate(2.813 5.695)"><g transform="translate(0 2.572)"><path class="d" d="M120.776,447.149a4.159,4.159,0,0,1-4.448-.906,4.335,4.335,0,0,1,.659-6.013c-.587.089-3.663.606-4.778,2.883-1.852,3.783,3.067,9.645,5.684,9.144C118.393,452.161,119.843,451.635,120.776,447.149Z" transform="translate(-111.802 -440.23)"/><path class="e" d="M116.708,446.492a4.84,4.84,0,0,1,.493-.432,3.884,3.884,0,0,0,2.16.7,4.557,4.557,0,0,0-.164.676,2.253,2.253,0,0,1-1.561-.119A2.225,2.225,0,0,1,116.708,446.492Z" transform="translate(-115.538 -444.669)"/><path class="e" d="M111.884,457a9.835,9.835,0,0,0,3.615.25,3.883,3.883,0,0,0,.148.551,3.611,3.611,0,0,1-3.812-.273A4.511,4.511,0,0,1,111.884,457Z" transform="translate(-111.827 -452.999)"/><path class="e" d="M116.267,466.632a7.729,7.729,0,0,0,1.884-.82,3.347,3.347,0,0,0,.418.361,3.268,3.268,0,0,1-4.092,1.576c-.145-.269-.278-.545-.394-.824A7.729,7.729,0,0,0,116.267,466.632Z" transform="translate(-113.539 -459.712)"/><path class="e" d="M125.675,469.713c.077.022.155.041.234.058-.077,1.062-.5,3.012-1.918,3.654a2.531,2.531,0,0,1-1.217.2,8.925,8.925,0,0,1-.91-.862,4.531,4.531,0,0,0,2.577-1.05A4.452,4.452,0,0,0,125.675,469.713Z" transform="translate(-119.465 -462.683)"/></g><g transform="translate(20.669 1.761)"><path class="d" d="M198.488,443.747a4.159,4.159,0,0,0,4.448-.906,4.336,4.336,0,0,0-.659-6.013c.587.089,3.663.606,4.778,2.883,1.852,3.783-3.067,9.645-5.684,9.143C200.872,448.759,199.421,448.233,198.488,443.747Z" transform="translate(-198.488 -436.828)"/><path class="e" d="M222.748,443.09a4.834,4.834,0,0,0-.493-.433,3.886,3.886,0,0,1-2.16.7,4.59,4.59,0,0,1,.164.675,2.252,2.252,0,0,0,1.56-.119A2.223,2.223,0,0,0,222.748,443.09Z" transform="translate(-214.943 -441.267)"/><path class="e" d="M223.87,453.6a9.834,9.834,0,0,1-3.615.25,3.909,3.909,0,0,1-.148.551,3.611,3.611,0,0,0,3.812-.273A4.51,4.51,0,0,0,223.87,453.6Z" transform="translate(-214.952 -449.597)"/><path class="e" d="M217.333,463.23a7.724,7.724,0,0,1-1.884-.82,3.367,3.367,0,0,1-.418.361,3.268,3.268,0,0,0,4.092,1.576,9.08,9.08,0,0,0,.394-.824A7.726,7.726,0,0,1,217.333,463.23Z" transform="translate(-211.086 -456.31)"/><path class="e" d="M209.333,466.312c-.077.022-.156.04-.235.058.077,1.062.5,3.012,1.918,3.655a2.53,2.53,0,0,0,1.217.2,8.907,8.907,0,0,0,.91-.862,4.529,4.529,0,0,1-2.577-1.05A4.451,4.451,0,0,1,209.333,466.312Z" transform="translate(-206.568 -459.282)"/></g><path class="f" d="M149.346,440.321a11.01,11.01,0,0,0-5.325-4.489v-.03c0-.385-.035-.784,0-1.168a.56.56,0,0,1,.053-.2,2.509,2.509,0,1,0-1.1-.443,1.7,1.7,0,0,0-.135.493,7.052,7.052,0,0,0-.019.948,10.509,10.509,0,0,0-3-.389c-.719.014-1.782.032-2.781.123a7.717,7.717,0,0,0-.018-1.019,1.658,1.658,0,0,0-.043-.225,2.554,2.554,0,1,0-1.128.5c.017.3,0,.6,0,.9a2.858,2.858,0,0,0-1.329.5c-3.606.9-5.426,5.279-5.828,8.974a9.435,9.435,0,0,0,4.2,8.715,3.578,3.578,0,0,0-1.18.85,2.642,2.642,0,0,0-.611,2.24c.315.374,1.655-.739,2.743-.18.682.351.55.992,1.157,1.2.911.3,1.529-1.031,2.656-.893S139,458.3,139.9,458.246c.865-.053,1.017-1.4,1.924-1.464.927-.067,1.454,1.289,2.089,1.092.581-.18.34-1.382,1.028-1.708.768-.364,1.669.85,2.324.479a1.445,1.445,0,0,0,.273-1.744,1.586,1.586,0,0,0-.8-.707,8.144,8.144,0,0,0,2.756-2.988A11.074,11.074,0,0,0,149.346,440.321Z" transform="translate(-124.628 -429.443)"/><path class="d" d="M155.192,495.57c3.01-.165,6.415.511,9.087.18a4.618,4.618,0,0,1,.2,2.329,3.01,3.01,0,0,1-.636,2.106,2.943,2.943,0,0,1-1.151.635,8.8,8.8,0,0,1-6.025-.158,3.558,3.558,0,0,1-1.018-.577,2.813,2.813,0,0,1-.618-.807,4.714,4.714,0,0,1,.162-3.708" transform="translate(-144.481 -479.783)"/><g transform="translate(11.757 15.762)"><path class="g" d="M161.692,496.606c.385.128,1.043-.223,1.4-.99-.664-.039-1.326-.068-1.977-.068A1.174,1.174,0,0,0,161.692,496.606Z" transform="translate(-161.11 -495.548)"/><path class="g" d="M172.546,496.038c-.8-.046-1.615-.109-2.432-.16a1.423,1.423,0,0,0,.846,1.255A1.533,1.533,0,0,0,172.546,496.038Z" transform="translate(-167.967 -495.799)"/><path class="g" d="M183.38,496.627c-.73.03-1.5.009-2.288-.034a1.444,1.444,0,0,0,1.091,1.261C182.625,497.871,183.193,497.391,183.38,496.627Z" transform="translate(-176.328 -496.344)"/></g><g transform="translate(12.457 20.197)"><path class="g" d="M165.11,514.266a1.511,1.511,0,0,0-1.062.746,8.673,8.673,0,0,0,2.421.495,1.061,1.061,0,0,0-.1-.713A1.239,1.239,0,0,0,165.11,514.266Z" transform="translate(-164.048 -514.228)"/><path class="g" d="M178.388,514.313a1.114,1.114,0,0,0-1.155,0c-.317.273-.193.763-.332,1.131a8.739,8.739,0,0,0,2.127-.286A1.312,1.312,0,0,0,178.388,514.313Z" transform="translate(-173.836 -514.15)"/></g><path class="g" d="M187.414,433.722a1.8,1.8,0,1,0,3.221-.77,1.85,1.85,0,0,0-2.206-.665A1.966,1.966,0,0,0,187.414,433.722Z" transform="translate(-169.34 -431.504)"/><circle class="h" cx="0.481" cy="0.481" r="0.481" transform="translate(19.913 2.404)"/><path class="g" d="M153.1,433.722a1.8,1.8,0,1,1-3.221-.77,1.85,1.85,0,0,1,2.206-.665A1.966,1.966,0,0,1,153.1,433.722Z" transform="translate(-140.562 -431.504)"/><circle class="h" cx="0.481" cy="0.481" r="0.481" transform="translate(9.738 2.404)"/></g></g></svg>