<svg xmlns="http://www.w3.org/2000/svg" xmlns:xlink="http://www.w3.org/1999/xlink" width="42" height="42" viewBox="0 0 42 42"><defs><style>.a,.n{fill:#fff;}.a{stroke:#707070;}.b,.c{fill:#6fe2c3;}.b{stroke:#fff;}.d{clip-path:url(#a);}.e{clip-path:url(#b);}.f,.l{fill:none;stroke-miterlimit:10;}.f{stroke:#606375;}.g{fill:#e8819c;}.h{fill:#606375;}.i{fill:#f7d0d8;}.j{fill:#070303;}.k{fill:#f5e5e5;}.l{stroke:#070303;}.m,.n{stroke:none;}</style><clipPath id="a"><circle class="a" cx="18" cy="18" r="18"/></clipPath><clipPath id="b"><path class="b" d="M18.352,0A18.352,18.352,0,1,1,0,18.352,18.352,18.352,0,0,1,18.352,0Z"/></clipPath></defs><g class="c"><path class="m" d="M 21 40.5 C 18.36685943603516 40.5 15.81326961517334 39.9846305847168 13.41018009185791 38.96820831298828 C 11.08831024169922 37.98614120483398 9.002750396728516 36.57991027832031 7.211420059204102 34.78858184814453 C 5.420090198516846 32.99724960327148 4.01386022567749 30.91168975830078 3.031790018081665 28.58982086181641 C 2.015369892120361 26.18672943115234 1.5 23.63314056396484 1.5 21 C 1.5 18.36685943603516 2.015369892120361 15.81326961517334 3.031790018081665 13.41018009185791 C 4.01386022567749 11.08831024169922 5.420090198516846 9.002750396728516 7.211420059204102 7.211420059204102 C 9.002750396728516 5.420090198516846 11.08831024169922 4.01386022567749 13.41018009185791 3.031790018081665 C 15.81326961517334 2.015369892120361 18.36685943603516 1.5 21 1.5 C 23.63314056396484 1.5 26.18672943115234 2.015369892120361 28.58982086181641 3.031790018081665 C 30.91168975830078 4.01386022567749 32.99724960327148 5.420090198516846 34.78858184814453 7.211420059204102 C 36.57991027832031 9.002750396728516 37.98614120483398 11.08831024169922 38.96820831298828 13.41018009185791 C 39.9846305847168 15.81326961517334 40.5 18.36685943603516 40.5 21 C 40.5 23.63314056396484 39.9846305847168 26.18672943115234 38.96820831298828 28.58982086181641 C 37.98614120483398 30.91168975830078 36.57991027832031 32.99724960327148 34.78858184814453 34.78858184814453 C 32.99724960327148 36.57991027832031 30.91168975830078 37.98614120483398 28.58982086181641 38.96820831298828 C 26.18672943115234 39.9846305847168 23.63314056396484 40.5 21 40.5 Z"/><path class="n" d="M 21 3 C 16.19202995300293 3 11.67182922363281 4.872329711914062 8.272079467773438 8.272079467773438 C 4.872329711914062 11.67182922363281 3 16.19202995300293 3 21 C 3 25.80797004699707 4.872329711914062 30.32817077636719 8.272079467773438 33.72792053222656 C 11.67182922363281 37.12767028808594 16.19202995300293 39 21 39 C 25.80797004699707 39 30.32817077636719 37.12767028808594 33.72792053222656 33.72792053222656 C 37.12767028808594 30.32817077636719 39 25.80797004699707 39 21 C 39 16.19202995300293 37.12767028808594 11.67182922363281 33.72792053222656 8.272079467773438 C 30.32817077636719 4.872329711914062 25.80797004699707 3 21 3 M 21 0 C 32.59798049926758 0 42 9.402019500732422 42 21 C 42 32.59798049926758 32.59798049926758 42 21 42 C 9.402019500732422 42 0 32.59798049926758 0 21 C 0 9.402019500732422 9.402019500732422 0 21 0 Z"/></g><g class="d" transform="translate(3 3)"><g class="e" transform="translate(0.138 -0.396)"><g transform="translate(3.237 3.776)"><path class="f" d="M153.169,271.724a8.1,8.1,0,0,1-2.227,0,2.727,2.727,0,0,1-1.847-1.14,3.282,3.282,0,0,1,.039-2.933,5.318,5.318,0,0,0,.737-2.62,2.667,2.667,0,0,0-1.009-1.645,7.93,7.93,0,0,0-1.709-.982" transform="translate(-145.464 -252.912)"/><path class="g" d="M141.373,253.283a6.354,6.354,0,0,0,2.08,1.458,1.112,1.112,0,0,1,.434.363.921.921,0,0,1,.125.425,1.481,1.481,0,0,1-.56,1.255,1.077,1.077,0,0,1-.4.2,1.349,1.349,0,0,1-1.283-.584,3.625,3.625,0,0,1-.4-3.117" transform="translate(-141.194 -246.376)"/><path class="h" d="M168.84,319.058a13.587,13.587,0,0,0-1,4.991,1.934,1.934,0,0,0,.151.733.807.807,0,0,0,.555.466.87.87,0,0,0,.529-.1,2.908,2.908,0,0,0,1.133-1.325,21,21,0,0,0,2.287-5.611.816.816,0,0,0-.1-.755.719.719,0,0,0-.382-.166c-.8-.151-2.561,1.222-3.167,1.766" transform="translate(-160.278 -292.235)"/><path class="h" d="M207.9,319.058a13.587,13.587,0,0,1,1,4.991,1.929,1.929,0,0,1-.151.733.806.806,0,0,1-.555.466.871.871,0,0,1-.529-.1,2.908,2.908,0,0,1-1.133-1.325,21,21,0,0,1-2.287-5.611.816.816,0,0,1,.1-.755.719.719,0,0,1,.382-.166c.8-.151,2.561,1.222,3.167,1.766" transform="translate(-186.345 -292.235)"/><g transform="translate(5.305)"><path class="h" d="M164.889,237.878a3.013,3.013,0,0,0,1.29-2.713c-.266-1.746-2.538-1.883-3.734-4.389a6.093,6.093,0,0,1-.541-1.861,7.338,7.338,0,0,0-1.871,3.684c-.265,1.519-.26,4.553,1.646,5.534A3.184,3.184,0,0,0,164.889,237.878Z" transform="translate(-159.91 -228.915)"/><path class="i" d="M167.71,247.185c.527-.794-.58-2.339-1.573-3.064-.342-.25-.632-.462-.9-.366-.713.26-1.155,2.757.12,3.621A1.868,1.868,0,0,0,167.71,247.185Z" transform="translate(-163.237 -239.532)"/></g><g transform="translate(18.806)"><path class="h" d="M208.861,237.878a3.013,3.013,0,0,1-1.29-2.713c.266-1.746,2.538-1.883,3.735-4.389a6.111,6.111,0,0,0,.541-1.861,7.34,7.34,0,0,1,1.87,3.684c.265,1.519.26,4.553-1.646,5.534A3.183,3.183,0,0,1,208.861,237.878Z" transform="translate(-207.547 -228.915)"/><path class="i" d="M213.625,247.185c-.527-.794.58-2.339,1.572-3.064.342-.25.632-.462.9-.366.713.26,1.155,2.757-.12,3.621A1.867,1.867,0,0,1,213.625,247.185Z" transform="translate(-211.805 -239.532)"/></g><path class="g" d="M163.706,249.65c2.149,0,4.527.234,6.676.234.586,0,1.932-.056,2.516-.019,1.044.067,1.711-.011,2.188.58,1.252,1.553,1.256,3.178,1.54,5.152.612,4.264.8,5.18,1.417,9.445.054.376.917,5.255.419,6.2a5.57,5.57,0,0,1-1.908,1.788c-2.616,1.139-6.388,1.02-9.236.859s-4.41.257-6.875-1.161a5.564,5.564,0,0,1-1.869-1.47c-1.012-1.431-.3-5.527.234-7.2,1.18-3.727,1.58-7.612,2.286-11.457.238-1.3,1.3-2.819,2.614-2.95" transform="translate(-153.282 -243.773)"/><circle class="j" cx="0.572" cy="0.572" r="0.572" transform="translate(17.53 12.899)"/><circle class="j" cx="0.572" cy="0.572" r="0.572" transform="translate(11.492 12.899)"/><rect class="k" width="1.805" height="2.678" transform="translate(13.997 19.587) rotate(9.347)"/><rect class="k" width="1.805" height="2.678" transform="translate(17.907 22.23) rotate(170.653)"/><path class="l" d="M174.583,292.9c1.837,1.253,4.177,1.462,6.4,1.494a7.733,7.733,0,0,0,2.135-.182,8.34,8.34,0,0,0,2.653-1.484" transform="translate(-165.12 -274.642)"/><path class="g" d="M221.172,299.7a9.082,9.082,0,0,1,2.615,2.179,1.292,1.292,0,0,1,.228.445.539.539,0,0,1-.094.475.584.584,0,0,1-.317.171,1.947,1.947,0,0,1-1.146-.216,14.034,14.034,0,0,1-3.544-1.964c-.137-.112-.284-.259-.264-.436a.478.478,0,0,1,.13-.247c.354-.414,1.846-.437,2.39-.408" transform="translate(-196.696 -279.628)"/><path class="g" d="M154.881,299.7a9.078,9.078,0,0,0-2.615,2.179,1.294,1.294,0,0,0-.229.445.54.54,0,0,0,.094.475.586.586,0,0,0,.317.171,1.946,1.946,0,0,0,1.146-.216,14.031,14.031,0,0,0,3.544-1.964c.137-.112.284-.259.264-.436a.48.48,0,0,0-.13-.247c-.354-.414-1.846-.437-2.39-.408" transform="translate(-148.952 -279.628)"/></g></g></g></svg>