<svg xmlns="http://www.w3.org/2000/svg" xmlns:xlink="http://www.w3.org/1999/xlink" width="42" height="42" viewBox="0 0 42 42"><defs><style>.a,.g{fill:#fff;}.a{stroke:#707070;}.b{fill:#fff086;stroke:#fff;stroke-width:3px;}.c{clip-path:url(#a);}.d{fill:#207584;}.e{fill:#66c4d6;}.f{fill:#002d4c;}.h{fill:#070303;}.i{stroke:none;}.j{fill:none;}</style><clipPath id="a"><circle class="a" cx="18" cy="18" r="18"/></clipPath></defs><g class="b"><circle class="i" cx="21" cy="21" r="21"/><circle class="j" cx="21" cy="21" r="19.5"/></g><g class="c" transform="translate(3 3)"><g transform="translate(2.643 2.122)"><path class="d" d="M301.152,416.7a15.285,15.285,0,0,0-3.139,1.786c-.36.266-3.424,2.556-2.977,3.518.115.247.5.484,1.678.433l1.949-2-.271,2.219c5.475,1.585,10.248.036,15.372.054a4.159,4.159,0,0,0-.216-2.219,4.024,4.024,0,0,0-.6-1.029,5.309,5.309,0,0,1,2.273,3.356h1.191a11.9,11.9,0,0,0-.92-3.9,11.56,11.56,0,0,0-2.706-3.9C310.29,413.066,305.507,413.721,301.152,416.7Z" transform="translate(-290.652 -389.432)"/><path class="d" d="M383.5,361.488a4.385,4.385,0,0,1-.6-2,4.79,4.79,0,0,1,1.028-3.031c.3-.351.372-.313.541-.6.657-1.092-.019-2.414.162-2.49s1.1,1.071,1.678,2.869c.278.861,1.3,4.024-.325,6.17-.474.628-1.45,1.533-2.057,1.245C383.464,363.431,383.292,362.538,383.5,361.488Z" transform="translate(-356.192 -344.295)"/><path class="d" d="M281.323,361.488a4.386,4.386,0,0,0,.6-2,4.79,4.79,0,0,0-1.029-3.031c-.3-.351-.371-.313-.541-.6-.657-1.092.019-2.414-.162-2.49s-1.1,1.071-1.678,2.869c-.277.861-1.3,4.024.325,6.17.474.628,1.45,1.533,2.057,1.245C281.357,363.431,281.528,362.538,281.323,361.488Z" transform="translate(-277.936 -344.295)"/><path class="e" d="M311.061,328.485a12.314,12.314,0,0,0-2.084-2.594l3.264-1.884H308.82l1.582-1.4-4.009-.037,1.067-2.023-3.09.92.7-2.538-3.678,1.986.368-3.2-2.465,2.979-1.287-2.979-.622,3.3L293.8,319.3l1.155,2.608-3.9-.656,1.525,2.341c-3.516,1.591-5.328,6.2-5.757,10.153a11.031,11.031,0,0,0,5.9,10.785,18.8,18.8,0,0,0,7.389,1.561c2.662.148,5.484.11,7.78-1.246a9.493,9.493,0,0,0,3.347-3.58A13,13,0,0,0,311.061,328.485Z" transform="translate(-284.517 -317.717)"/><path class="f" d="M304.121,388.5a26.42,26.42,0,0,0,6.167,1.038,13.572,13.572,0,0,0,9.19-3.29,10.517,10.517,0,0,1-4.538,6.467c-4.576,2.75-10.292.633-12.933-2.156a11.652,11.652,0,0,1-1.7-3.517A34.61,34.61,0,0,0,304.121,388.5Z" transform="translate(-294.613 -368.81)"/><path class="g" d="M364.3,392.828l1-.654-.2-.572c-.32.192-.674.387-1.06.576Z" transform="translate(-342.131 -372.801)"/><path class="g" d="M353.146,397.748l1.113-.615-.276-.658a13.092,13.092,0,0,1-1.287.369Z" transform="translate(-333.673 -376.434)"/><path class="g" d="M361.779,402.655l-.654-.548-.974.891.59.691A9.321,9.321,0,0,0,361.779,402.655Z" transform="translate(-339.231 -380.633)"/><path class="g" d="M348.171,410.091l-1.364.724.275.7a8.881,8.881,0,0,0,1.626-.554Z" transform="translate(-329.282 -386.586)"/><path class="g" d="M340.966,399.022l.178.988,1.308-.223-.069-.829A12.593,12.593,0,0,1,340.966,399.022Z" transform="translate(-324.928 -378.286)"/><path class="g" d="M320.229,396.5l-.219.953,1.252.313.326-.964C321.085,396.707,320.636,396.6,320.229,396.5Z" transform="translate(-309.304 -376.454)"/><path class="g" d="M311.127,394.076a10.228,10.228,0,0,1-1.1-.35l-.326.859,1.059.5.474-.982Z" transform="translate(-301.619 -374.385)"/><path class="g" d="M328.574,412.977a11.464,11.464,0,0,0,1.526.279l.136-.892-1.447-.195Z" transform="translate(-315.689 -388.135)"/><path class="g" d="M314.166,406.9a12.078,12.078,0,0,0,1.184.674l.5-.777-1.28-.64Z" transform="translate(-304.947 -383.65)"/><path class="g" d="M310.6,359.193a3.211,3.211,0,1,0,5.757-1.377,3.307,3.307,0,0,0-3.942-1.189A3.514,3.514,0,0,0,310.6,359.193Z" transform="translate(-302.206 -346.544)"/><path class="g" d="M341.76,357.964a3.211,3.211,0,1,0,5.756-1.376,3.306,3.306,0,0,0-3.942-1.189A3.513,3.513,0,0,0,341.76,357.964Z" transform="translate(-325.44 -345.627)"/><circle class="h" cx="0.513" cy="0.513" r="0.513" transform="translate(18.239 12.344)"/><circle class="h" cx="0.513" cy="0.513" r="0.513" transform="translate(12.819 12.344)"/></g></g></svg>