<svg xmlns="http://www.w3.org/2000/svg" xmlns:xlink="http://www.w3.org/1999/xlink" width="42" height="42" viewBox="0 0 42 42"><defs><style>.a{fill:#fff;stroke:#707070;}.b{fill:#69d1ff;stroke:#fff;stroke-width:3px;}.c{clip-path:url(#a);}.d{fill:#53b4aa;}.e{fill:#92a70b;}.f{fill:#d1d783;}.g{fill:#070303;}.h{stroke:none;}.i{fill:none;}</style><clipPath id="a"><circle class="a" cx="18" cy="18" r="18"/></clipPath></defs><g class="b"><circle class="h" cx="21" cy="21" r="21"/><circle class="i" cx="21" cy="21" r="19.5"/></g><g class="c" transform="translate(3 3)"><g transform="translate(6.75 2.599)"><path class="d" d="M125.443,73.986A8.913,8.913,0,0,0,128,68.715a8.607,8.607,0,0,0-.452-3.765h0l.6-.452a17.5,17.5,0,0,1,.9,4.217c.185,2.114.387,4.427-.9,5.271C127.895,74.156,127.089,74.584,125.443,73.986Z" transform="translate(-111.095 -60.434)"/><path class="d" d="M93.564,65.277A8.913,8.913,0,0,1,91,60.006a8.611,8.611,0,0,1,.452-3.765h0l-.6-.452a17.52,17.52,0,0,0-.9,4.217c-.185,2.114-.387,4.427.9,5.271C91.113,65.447,91.918,65.875,93.564,65.277Z" transform="translate(-85.362 -54.144)"/><path class="e" d="M77.688,82.264c-4.378,2.868-3.739,4.289-3.849,5.278a11.289,11.289,0,0,0,3.3,9.016c3.736,3.365,9.924,3.087,13.965.22,2.633-1.868,5.88-5.918,4.728-10.226-1.45-5.425-10.226-6.6-12.425-6.6C82.856,79.955,80.877,80.175,77.688,82.264Z" transform="translate(-73.786 -71.598)"/><circle class="e" cx="1.419" cy="1.419" r="1.419" transform="translate(15.113 2.419)"/><circle class="e" cx="1.419" cy="1.419" r="1.419" transform="translate(4.6)"/><path class="f" d="M96.779,105.021a15.4,15.4,0,0,1-4.879.129c-2.089-.357-4.066-3.467-4.066-5.814V97.682a4.084,4.084,0,0,1,3.844-4.267H98.4a4.084,4.084,0,0,1,3.844,4.267v1.654C102.239,101.682,98.864,104.635,96.779,105.021Z" transform="translate(-83.932 -81.319)"/><circle class="g" cx="0.56" cy="0.56" r="0.56" transform="translate(13.117 15.834)"/><circle class="g" cx="0.56" cy="0.56" r="0.56" transform="translate(7.201 15.834)"/><path class="g" d="M110.24,122.213c-.156.689-1.47.955-2.322.947a2.851,2.851,0,0,1-2.084-.744c-.149-.314.41-.593.48-.612.6-.166,1,.33,1.594.36,1.111.057,1.716-.893,2.143-.593A.648.648,0,0,1,110.24,122.213Z" transform="translate(-96.914 -101.613)"/><path class="e" d="M106.375,75.644a1.727,1.727,0,0,0-.33-2.419,1.774,1.774,0,0,1,1.21.66,1.5,1.5,0,0,1,.22.44.558.558,0,0,0,.22-.99,1.081,1.081,0,0,1,.66.66.981.981,0,0,1,0,.55.63.63,0,0,0,.66-.44.573.573,0,0,0-.11-.44,1.361,1.361,0,0,1,.44,1.979Z" transform="translate(-97.085 -66.737)"/><path class="e" d="M101.46,149.879a26.678,26.678,0,0,0,4.5.367,25.379,25.379,0,0,0,4.052-.351l-2.551-7.785-3.849.11Z" transform="translate(-93.774 -116.488)"/><path class="e" d="M122.2,147.133a6.256,6.256,0,0,1,4.484,3.249,5.753,5.753,0,0,1,.383,3.61c-.164-.007-.648-.57-.811-.577.051-.311.363-1.474-1.088-3.248a6.1,6.1,0,0,0-3.3-2.212Z" transform="translate(-108.512 -120.117)"/><path class="e" d="M99.71,147.925a6.254,6.254,0,0,0-4.484,3.249,5.753,5.753,0,0,0-.383,3.61c.164-.007.648-.57.812-.577-.051-.311-.363-1.474,1.088-3.247a6.094,6.094,0,0,1,3.3-2.212Z" transform="translate(-88.899 -120.689)"/></g></g></svg>