<svg xmlns="http://www.w3.org/2000/svg" width="185.088" height="155.008" viewBox="0 0 185.088 155.008">
  <g id="Group_95" data-name="Group 95" transform="translate(-317.963 -647.317)">
    <g id="Group_94" data-name="Group 94" transform="translate(317.963 647.317)">
      <g id="Group_90" data-name="Group 90" transform="translate(32.768 0)">
        <path id="Path_89" data-name="Path 89" d="M38.293-35.272,41.108-7.208A12.33,12.33,0,0,0,50,1.687L78.064,4.5,50,7.314a12.327,12.327,0,0,0-8.893,8.895L38.293,44.272,35.479,16.209a12.327,12.327,0,0,0-8.893-8.895L-1.478,4.5,26.586,1.687a12.33,12.33,0,0,0,8.893-8.895Z" transform="translate(1.478 35.272)" fill="#fff"/>
        <circle id="Ellipse_12" data-name="Ellipse 12" cx="25.665" cy="25.665" r="25.665" transform="translate(15.504 13.381)" fill="#fff" opacity="0.3"/>
      </g>
      <g id="Group_91" data-name="Group 91" transform="translate(79.678 78.729)">
        <path id="Path_89-2" data-name="Path 89" d="M36.66-35.272l2.7,26.912A11.824,11.824,0,0,0,47.887.17L74.8,2.868l-26.912,2.7a11.821,11.821,0,0,0-8.528,8.53l-2.7,26.912L33.962,14.1a11.821,11.821,0,0,0-8.528-8.53l-26.912-2.7L25.434.17a11.824,11.824,0,0,0,8.528-8.53Z" transform="translate(1.478 35.272)" fill="#fff"/>
        <circle id="Ellipse_12-2" data-name="Ellipse 12" cx="24.611" cy="24.611" r="24.611" transform="translate(14.867 12.832)" fill="#fff" opacity="0.3"/>
      </g>
      <g id="Group_92" data-name="Group 92" transform="translate(40.084 72.723)">
        <path id="Path_89-3" data-name="Path 89" d="M34.751-35.272,37.314-9.708a11.232,11.232,0,0,0,8.1,8.1L70.979.958,45.415,3.52a11.229,11.229,0,0,0-8.1,8.1L34.751,37.187,32.187,11.623a11.229,11.229,0,0,0-8.1-8.1L-1.478.958,24.086-1.605a11.232,11.232,0,0,0,8.1-8.1Z" transform="translate(1.478 35.272)" fill="#fff"/>
        <circle id="Ellipse_12-3" data-name="Ellipse 12" cx="23.379" cy="23.379" r="23.379" transform="translate(14.123 12.189)" fill="#fff" opacity="0.3"/>
      </g>
      <g id="Group_93" data-name="Group 93" transform="translate(88.965 15.986)">
        <path id="Path_89-4" data-name="Path 89" d="M34.751-35.272,37.314-9.708a11.232,11.232,0,0,0,8.1,8.1L70.979.958,45.415,3.52a11.229,11.229,0,0,0-8.1,8.1L34.751,37.187,32.187,11.623a11.229,11.229,0,0,0-8.1-8.1L-1.478.958,24.086-1.605a11.232,11.232,0,0,0,8.1-8.1Z" transform="translate(1.478 35.272)" fill="#fff"/>
        <circle id="Ellipse_12-4" data-name="Ellipse 12" cx="23.379" cy="23.379" r="23.379" transform="translate(14.123 12.189)" fill="#fff" opacity="0.3"/>
      </g>
      <g id="Group_145" data-name="Group 145" transform="translate(0 29.127)">
        <path id="Path_89-5" data-name="Path 89" d="M38.293-35.272,41.108-7.208A12.33,12.33,0,0,0,50,1.687L78.064,4.5,50,7.314a12.327,12.327,0,0,0-8.893,8.895L38.293,44.272,35.479,16.209a12.327,12.327,0,0,0-8.893-8.895L-1.478,4.5,26.586,1.687a12.33,12.33,0,0,0,8.893-8.895Z" transform="translate(1.478 35.272)" fill="#fff"/>
        <circle id="Ellipse_12-5" data-name="Ellipse 12" cx="25.665" cy="25.665" r="25.665" transform="translate(15.504 13.381)" fill="#fff" opacity="0.3"/>
      </g>
      <g id="Group_146" data-name="Group 146" transform="translate(112.631 61.498)">
        <path id="Path_89-6" data-name="Path 89" d="M34.751-35.272,37.314-9.708a11.232,11.232,0,0,0,8.1,8.1L70.979.958,45.415,3.52a11.229,11.229,0,0,0-8.1,8.1L34.751,37.187,32.187,11.623a11.229,11.229,0,0,0-8.1-8.1L-1.478.958,24.086-1.605a11.232,11.232,0,0,0,8.1-8.1Z" transform="translate(1.478 35.272)" fill="#fff"/>
        <circle id="Ellipse_12-6" data-name="Ellipse 12" cx="23.379" cy="23.379" r="23.379" transform="translate(14.123 12.189)" fill="#fff" opacity="0.3"/>
      </g>
    </g>
  </g>
</svg>
