<svg width="133" height="48" viewBox="0 0 133 48" fill="none" xmlns="http://www.w3.org/2000/svg">
<path d="M39.5 15.9063C36.9432 15.9063 34.8636 18.0089 34.8636 20.5939C34.8636 21.0256 35.2094 21.3752 35.6364 21.3752C36.0633 21.3752 36.4091 21.0256 36.4091 20.5939C36.4091 18.8703 37.7961 17.4689 39.5 17.4689C39.9269 17.4689 40.2727 17.1192 40.2727 16.6876C40.2727 16.2559 39.9269 15.9063 39.5 15.9063ZM35.6393 34.4208C35.6393 34.5747 35.6842 34.7246 35.7687 34.8525L36.9524 36.6514C37.0959 36.8691 37.3373 37 37.5957 37H41.4038C41.6627 37 41.9041 36.8691 42.0471 36.6514L43.2308 34.8525C43.3149 34.7246 43.3598 34.5742 43.3603 34.4208L43.3627 32.3124H35.6373L35.6393 34.4208ZM39.5 12C34.5603 12 31 16.0513 31 20.5939C31 22.7605 31.7945 24.7371 33.1038 26.2473C33.9074 27.1746 35.1679 29.1185 35.6354 30.7474V30.7504H37.9536V30.7445C37.9531 30.5116 37.9188 30.2801 37.8497 30.0575C37.5798 29.1878 36.7476 26.8948 34.8472 24.7024C33.8552 23.5583 33.3249 22.1071 33.3206 20.5939C33.3109 16.9981 36.2024 14.3438 39.5 14.3438C42.9087 14.3438 45.6818 17.1476 45.6818 20.5939C45.6818 22.1062 45.139 23.5652 44.1533 24.7024C42.2644 26.8807 41.4284 29.1688 41.1541 30.0472C41.0833 30.2731 41.0472 30.5086 41.0469 30.7455V30.7504H43.3651V30.7479C43.8326 29.1185 45.0931 27.1746 45.8967 26.2478C47.2055 24.7371 48 22.7605 48 20.5939C48 15.8477 44.1943 12 39.5 12Z" fill="#03DD8F"/>
<path d="M67.5576 31H64.9209V25.5156H59.7793V31H57.1426V18.2031H59.7793V23.3887H64.9209V18.2031H67.5576V31ZM72.6729 31H70.0361V18.2031H72.6729V31ZM85.5312 31H82.8945L77.7617 22.5801V31H75.125V18.2031H77.7617L82.9033 26.6406V18.2031H85.5312V31ZM97.2031 20.3389H93.2832V31H90.6465V20.3389H86.7793V18.2031H97.2031V20.3389Z" fill="#03DD8F"/>
<rect x="1" y="1" width="131" height="46" rx="23" stroke="#03DD8F" stroke-width="2"/>
</svg>
