<svg width="133" height="48" viewBox="0 0 133 48" fill="none" xmlns="http://www.w3.org/2000/svg">
<rect x="1" y="1" width="131" height="46" rx="23" stroke="#03DD8F" stroke-width="2"/>
<path d="M67.5488 30H64.9121L59.7793 21.5801V30H57.1426V17.2031H59.7793L64.9209 25.6406V17.2031H67.5488V30ZM77.5508 24.4541H72.4883V27.8818H78.4297V30H69.8516V17.2031H78.4121V19.3389H72.4883V22.3887H77.5508V24.4541ZM89.9434 26.3086L91.666 17.2031H94.2939L91.4551 30H88.8008L86.7178 21.4395L84.6348 30H81.9805L79.1416 17.2031H81.7695L83.501 26.291L85.6104 17.2031H87.8428L89.9434 26.3086Z" fill="#03DD8F"/>
<path d="M44.0523 22.3851L29.909 14.2565C28.7599 13.5964 27 14.237 27 15.8698V32.123C27 33.5878 28.6353 34.4706 29.909 33.7362L44.0523 25.6116C45.3139 24.8889 45.3179 23.1078 44.0523 22.3851V22.3851Z" fill="#03DD8F"/>
</svg>
