<svg width="133" height="48" viewBox="0 0 133 48" fill="none" xmlns="http://www.w3.org/2000/svg">
<path d="M37.4204 23.9021H29.4759C29.2131 23.9021 29 23.6889 29 23.4259V15.4762C29 15.2132 29.2131 15 29.4759 15H31.3794C31.6422 15 31.8553 15.2132 31.8553 15.4762V18.5759C33.6704 16.5587 36.3071 15.2964 39.2383 15.3177C44.6675 15.3572 49.0115 19.7472 49 25.1801C48.9884 30.6055 44.5897 35 39.1652 35C36.6237 35 34.3075 34.0352 32.5621 32.4518C32.3598 32.2684 32.3505 31.9536 32.5435 31.7605L33.8905 30.4126C34.068 30.2351 34.353 30.2254 34.5409 30.3918C35.7717 31.4816 37.3905 32.1429 39.1652 32.1429C43.0225 32.1429 46.1448 29.0192 46.1448 25.1587C46.1448 21.2989 43.0232 18.1746 39.1652 18.1746C36.8455 18.1746 34.7919 19.3046 33.5232 21.045H37.4204C37.6832 21.045 37.8962 21.2582 37.8962 21.5212V23.4259C37.8962 23.6889 37.6832 23.9021 37.4204 23.9021V23.9021Z" fill="#03DD8F"/>
<path d="M66.8281 18.2031V26.6318C66.8281 28.0322 66.3887 29.1396 65.5098 29.9541C64.6367 30.7686 63.4414 31.1758 61.9238 31.1758C60.4297 31.1758 59.2432 30.7803 58.3643 29.9893C57.4854 29.1982 57.0371 28.1113 57.0195 26.7285V18.2031H59.6562V26.6494C59.6562 27.4873 59.8555 28.0996 60.2539 28.4863C60.6582 28.8672 61.2148 29.0576 61.9238 29.0576C63.4062 29.0576 64.1592 28.2783 64.1826 26.7197V18.2031H66.8281ZM79.3965 31H76.7598L71.627 22.5801V31H68.9902V18.2031H71.627L76.7686 26.6406V18.2031H79.3965V31ZM81.6992 31V18.2031H85.6367C86.7617 18.2031 87.7666 18.458 88.6514 18.9678C89.542 19.4717 90.2363 20.1924 90.7344 21.1299C91.2324 22.0615 91.4814 23.1221 91.4814 24.3115V24.9004C91.4814 26.0898 91.2354 27.1475 90.7432 28.0732C90.2568 28.999 89.5684 29.7168 88.6777 30.2266C87.7871 30.7363 86.7822 30.9941 85.6631 31H81.6992ZM84.3359 20.3389V28.8818H85.6104C86.6416 28.8818 87.4297 28.5449 87.9746 27.8711C88.5195 27.1973 88.7979 26.2334 88.8096 24.9795V24.3027C88.8096 23.002 88.54 22.0176 88.001 21.3496C87.4619 20.6758 86.6738 20.3389 85.6367 20.3389H84.3359ZM103.918 24.8916C103.918 26.1514 103.695 27.2559 103.25 28.2051C102.805 29.1543 102.166 29.8867 101.334 30.4023C100.508 30.918 99.5586 31.1758 98.4863 31.1758C97.4258 31.1758 96.4795 30.9209 95.6475 30.4111C94.8154 29.9014 94.1709 29.1748 93.7139 28.2314C93.2568 27.2822 93.0254 26.1924 93.0195 24.9619V24.3291C93.0195 23.0693 93.2451 21.9619 93.6963 21.0068C94.1533 20.0459 94.7949 19.3105 95.6211 18.8008C96.4531 18.2852 97.4023 18.0273 98.4688 18.0273C99.5352 18.0273 100.481 18.2852 101.308 18.8008C102.14 19.3105 102.781 20.0459 103.232 21.0068C103.689 21.9619 103.918 23.0664 103.918 24.3203V24.8916ZM101.246 24.3115C101.246 22.9697 101.006 21.9502 100.525 21.2529C100.045 20.5557 99.3594 20.207 98.4688 20.207C97.584 20.207 96.9014 20.5527 96.4209 21.2441C95.9404 21.9297 95.6973 22.9375 95.6914 24.2676V24.8916C95.6914 26.1982 95.9316 27.2119 96.4121 27.9326C96.8926 28.6533 97.584 29.0137 98.4863 29.0137C99.3711 29.0137 100.051 28.668 100.525 27.9766C101 27.2793 101.24 26.2656 101.246 24.9355V24.3115Z" fill="#03DD8F"/>
<rect x="1" y="1" width="131" height="46" rx="23" stroke="#03DD8F" stroke-width="2"/>
</svg>
