<?xml version="1.0" encoding="utf-8"?>
<!-- Generator: Adobe Illustrator 23.0.2, SVG Export Plug-In . SVG Version: 6.00 Build 0)  -->
<svg version="1.1" id="圖層_1" xmlns="http://www.w3.org/2000/svg" xmlns:xlink="http://www.w3.org/1999/xlink" x="0px" y="0px"
	 width="24px" height="26px" viewBox="0 0 24 26" style="enable-background:new 0 0 24 26;" xml:space="preserve">
<style type="text/css">
	.st0{fill:none;}
	.st1{fill:none;stroke:#303133;stroke-width:1.5;stroke-miterlimit:10;}
	.st2{enable-background:new    ;}
	.st3{fill:#303133;}
</style>
<g id="step2" transform="translate(-559 -93)">
	<g id="border" transform="translate(559 95)">
		<circle class="st0" cx="12" cy="11" r="12"/>
		<circle class="st1" cx="12" cy="11" r="11.3"/>
	</g>
	<g class="st2">
		<path class="st3" d="M567.3,110c3.7-3.2,5.4-5.6,5.4-7.6c0-1.3-0.7-2.3-2.2-2.3c-1,0-1.8,0.6-2.4,1.4l-0.8-0.8c1-1,2-1.7,3.5-1.7
			c2.1,0,3.4,1.4,3.4,3.5c0,2.3-1.8,4.7-4.6,7.3c0.6,0,1.3-0.1,1.9-0.1h3.2v1.3h-7.4L567.3,110L567.3,110z"/>
	</g>
</g>
</svg>
