<?xml version="1.0" encoding="utf-8"?>
<!-- Generator: Adobe Illustrator 23.0.2, SVG Export Plug-In . SVG Version: 6.00 Build 0)  -->
<svg version="1.1" id="圖層_1" xmlns="http://www.w3.org/2000/svg" xmlns:xlink="http://www.w3.org/1999/xlink" x="0px" y="0px"
	 width="24px" height="25px" viewBox="0 0 24 25" style="enable-background:new 0 0 24 25;" xml:space="preserve">
<style type="text/css">
	.st0{fill:none;}
	.st1{fill:none;stroke:#909399;stroke-width:1.5;stroke-miterlimit:10;}
	.st2{enable-background:new    ;}
	.st3{fill:#909399;}
</style>
<g id="step3" transform="translate(-846 -94)">
	<g id="border" transform="translate(846 95)">
		<circle class="st0" cx="12" cy="11.5" r="12"/>
		<circle class="st1" cx="12" cy="11.5" r="11.3"/>
	</g>
	<g class="st2">
		<path class="st3" d="M854.2,110.5l0.7-1c0.7,0.7,1.6,1.3,2.9,1.3c1.4,0,2.4-0.8,2.4-2.2c0-1.4-0.9-2.4-3.6-2.4v-1.1
			c2.4,0,3.2-1,3.2-2.2c0-1.1-0.8-1.9-2-1.9c-0.9,0-1.8,0.5-2.4,1.2l-0.8-0.9c0.9-0.8,1.9-1.4,3.3-1.4c2,0,3.4,1.1,3.4,2.9
			c0,1.4-0.8,2.4-2.1,2.8v0.1c1.4,0.3,2.5,1.4,2.5,3c0,2.1-1.7,3.3-3.8,3.3C856.2,112.1,855,111.3,854.2,110.5z"/>
	</g>
</g>
</svg>
