<svg width="101" height="151" viewBox="0 0 101 151" fill="none" xmlns="http://www.w3.org/2000/svg">
<rect x="0.358582" width="100" height="150" rx="6" fill="#3B5998"/>
<path d="M12.3794 25.3959L12.5868 23.7671H11.2899V22.7101C11.2899 22.2645 11.471 21.8302 12.0519 21.8302H12.6415V20.4434C12.6415 20.4434 12.1064 20.3334 11.5949 20.3334C10.5268 20.3334 9.8287 21.1135 9.8287 22.5257V23.7671H8.64148V25.3959H9.8287V29.3334H11.2899V25.3959H12.3794Z" fill="white"/>
<path d="M13.3672 14.3633H8.74414L7.86523 17H5.06152L9.8252 4.20312H12.2686L17.0586 17H14.2549L13.3672 14.3633ZM9.45605 12.2275H12.6553L11.0469 7.4375L9.45605 12.2275Z" fill="white"/>
<path d="M88.454 124.937L88.2466 126.566L89.5435 126.566L89.5435 127.623C89.5435 128.069 89.3623 128.503 88.7815 128.503L88.1919 128.503L88.1919 129.89C88.1919 129.89 88.7269 130 89.2385 130C90.3065 130 91.0046 129.22 91.0046 127.808L91.0046 126.566L92.1919 126.566L92.1919 124.938L91.0046 124.937L91.0046 121L89.5435 121L89.5435 124.937L88.454 124.937Z" fill="white"/>
<path d="M87.4662 135.97L92.0892 135.97L92.9681 133.333L95.7718 133.333L91.0081 146.13L88.5648 146.13L83.7748 133.333L86.5785 133.333L87.4662 135.97ZM91.3773 138.106L88.1781 138.106L89.7865 142.896L91.3773 138.106Z" fill="white"/>
<path d="M76.5698 72.8635C77.4833 71.3167 78 69.6667 78 67.6719C78 63.087 74.1231 58.7573 69.0604 58.7573H65.2604C65.7729 57.4229 66.1823 55.8271 66.1823 53.9094C66.1823 46.3267 62.2562 43 56.2583 43C49.8409 43 50.207 52.8889 48.7833 54.3125C46.4139 56.682 43.6151 61.2341 41.6208 63H31.3333C29.4924 63 28 64.4924 28 66.3333V91.3333C28 93.1743 29.4924 94.6667 31.3333 94.6667H38C39.5514 94.6667 40.855 93.6069 41.2269 92.1719C45.8632 92.2761 49.0456 96.3323 59.7479 96.3323C60.5 96.3323 61.3333 96.3333 62.0625 96.3333C70.0955 96.3333 73.7277 92.2268 73.8271 86.4031C75.2145 84.4839 75.9416 81.9112 75.6333 79.425C76.6598 77.5029 77.0567 75.2226 76.5698 72.8635ZM70.1375 78.4708C71.4458 80.6719 70.2687 83.6177 68.6854 84.4677C69.4875 89.549 66.8512 91.3323 63.1521 91.3323H59.2125C51.7501 91.3323 46.9178 87.3927 41.3333 87.3927V68H42.4708C45.425 68 49.5521 60.6156 52.3188 57.8479C55.2729 54.8937 54.2885 49.9698 56.2583 48C61.1823 48 61.1823 51.4354 61.1823 53.9094C61.1823 57.9896 58.2281 59.8177 58.2281 63.7573H69.0604C71.2594 63.7573 72.9906 65.7271 73 67.6969C73.0094 69.6656 71.6646 71.6354 70.6802 71.6354C72.0853 73.1516 72.3855 76.3475 70.1375 78.4708V78.4708ZM37.1667 88C37.1667 89.3807 36.0474 90.5 34.6667 90.5C33.2859 90.5 32.1667 89.3807 32.1667 88C32.1667 86.6193 33.2859 85.5 34.6667 85.5C36.0474 85.5 37.1667 86.6193 37.1667 88Z" fill="white"/>
</svg>
