<svg width="101" height="151" viewBox="0 0 101 151" fill="none" xmlns="http://www.w3.org/2000/svg">
<rect x="0.358582" width="100" height="150" rx="6" fill="#3B5998"/>
<path d="M12.3794 25.3959L12.5868 23.7671H11.2899V22.7101C11.2899 22.2645 11.471 21.8302 12.0519 21.8302H12.6415V20.4434C12.6415 20.4434 12.1064 20.3334 11.5949 20.3334C10.5268 20.3334 9.8287 21.1135 9.8287 22.5257V23.7671H8.64148V25.3959H9.8287V29.3334H11.2899V25.3959H12.3794Z" fill="white"/>
<path d="M8.4541 9.47656H9.80762C10.4521 9.47656 10.9297 9.31543 11.2402 8.99316C11.5508 8.6709 11.7061 8.24316 11.7061 7.70996C11.7061 7.19434 11.5508 6.79297 11.2402 6.50586C10.9355 6.21875 10.5137 6.0752 9.97461 6.0752C9.48828 6.0752 9.08105 6.20996 8.75293 6.47949C8.4248 6.74316 8.26074 7.08887 8.26074 7.5166H5.7207C5.7207 6.84863 5.89941 6.25098 6.25684 5.72363C6.62012 5.19043 7.12402 4.77441 7.76855 4.47559C8.41895 4.17676 9.13379 4.02734 9.91309 4.02734C11.2666 4.02734 12.3271 4.35254 13.0947 5.00293C13.8623 5.64746 14.2461 6.53809 14.2461 7.6748C14.2461 8.26074 14.0674 8.7998 13.71 9.29199C13.3525 9.78418 12.8838 10.1621 12.3037 10.4258C13.0244 10.6836 13.5605 11.0703 13.9121 11.5859C14.2695 12.1016 14.4482 12.7109 14.4482 13.4141C14.4482 14.5508 14.0322 15.4619 13.2002 16.1475C12.374 16.833 11.2783 17.1758 9.91309 17.1758C8.63574 17.1758 7.58984 16.8389 6.77539 16.165C5.9668 15.4912 5.5625 14.6006 5.5625 13.4932H8.10254C8.10254 13.9736 8.28125 14.3662 8.63867 14.6709C9.00195 14.9756 9.44727 15.1279 9.97461 15.1279C10.5781 15.1279 11.0498 14.9697 11.3896 14.6533C11.7354 14.3311 11.9082 13.9062 11.9082 13.3789C11.9082 12.1016 11.2051 11.4629 9.79883 11.4629H8.4541V9.47656Z" fill="white"/>
<path d="M88.454 124.937L88.2466 126.566L89.5435 126.566L89.5435 127.623C89.5435 128.069 89.3623 128.503 88.7815 128.503L88.1919 128.503L88.1919 129.89C88.1919 129.89 88.7269 130 89.2385 130C90.3065 130 91.0046 129.22 91.0046 127.808L91.0046 126.566L92.1919 126.566L92.1919 124.938L91.0046 124.937L91.0046 121L89.5435 121L89.5435 124.937L88.454 124.937Z" fill="white"/>
<path d="M92.3792 140.857L91.0257 140.857C90.3812 140.857 89.9037 141.018 89.5931 141.34C89.2826 141.662 89.1273 142.09 89.1273 142.623C89.1273 143.139 89.2826 143.54 89.5931 143.828C89.8978 144.115 90.3197 144.258 90.8587 144.258C91.3451 144.258 91.7523 144.123 92.0804 143.854C92.4085 143.59 92.5726 143.245 92.5726 142.817L95.1126 142.817C95.1126 143.485 94.9339 144.082 94.5765 144.61C94.2132 145.143 93.7093 145.559 93.0648 145.858C92.4144 146.157 91.6996 146.306 90.9203 146.306C89.5667 146.306 88.5062 145.981 87.7386 145.33C86.971 144.686 86.5873 143.795 86.5873 142.659C86.5873 142.073 86.766 141.534 87.1234 141.041C87.4808 140.549 87.9496 140.171 88.5296 139.908C87.8089 139.65 87.2728 139.263 86.9212 138.747C86.5638 138.232 86.3851 137.622 86.3851 136.919C86.3851 135.783 86.8011 134.871 87.6331 134.186C88.4593 133.5 89.555 133.158 90.9203 133.158C92.1976 133.158 93.2435 133.495 94.058 134.168C94.8665 134.842 95.2708 135.733 95.2708 136.84L92.7308 136.84C92.7308 136.36 92.5521 135.967 92.1947 135.662C91.8314 135.358 91.3861 135.205 90.8587 135.205C90.2552 135.205 89.7835 135.364 89.4437 135.68C89.098 136.002 88.9251 136.427 88.9251 136.954C88.9251 138.232 89.6283 138.87 91.0345 138.87L92.3792 138.87L92.3792 140.857Z" fill="white"/>
<path d="M40.5721 43.3187C40.2067 42.6806 40 42 40 41.1771C40 39.2859 41.5507 37.4999 43.5758 37.4999H45.0958C44.8908 36.9495 44.7271 36.2912 44.7271 35.5001C44.7271 32.3723 46.2975 31 48.6967 31C51.2636 31 51.1172 35.0792 51.6867 35.6664C52.6345 36.6438 53.754 38.5216 54.5517 39.25H58.6667C59.403 39.25 60 39.8656 60 40.625V50.9375C60 51.6969 59.403 52.3125 58.6667 52.3125H56C55.3795 52.3125 54.858 51.8753 54.7092 51.2834C52.8547 51.3264 51.5817 52.9996 47.3008 52.9996C47 52.9996 46.6667 53 46.375 53C43.1618 53 41.7089 51.306 41.6692 48.9038C41.1142 48.1121 40.8234 47.0509 40.9467 46.0253C40.5361 45.2325 40.3773 44.2918 40.5721 43.3187ZM43.145 45.6317C42.6217 46.5396 43.0925 47.7548 43.7258 48.1054C43.405 50.2014 44.4595 50.9371 45.9392 50.9371H47.515C50.5 50.9371 52.4329 49.312 54.6667 49.312V41.3125H54.2117C53.03 41.3125 51.3792 38.2664 50.2725 37.1248C49.0908 35.9062 49.4846 33.875 48.6967 33.0625C46.7271 33.0625 46.7271 34.4796 46.7271 35.5001C46.7271 37.1832 47.9087 37.9373 47.9087 39.5624H43.5758C42.6962 39.5624 42.0037 40.3749 42 41.1875C41.9962 41.9996 42.5342 42.8121 42.9279 42.8121C42.3659 43.4375 42.2458 44.7558 43.145 45.6317V45.6317ZM56.3333 49.5625C56.3333 50.1321 56.781 50.5938 57.3333 50.5938C57.8856 50.5938 58.3333 50.1321 58.3333 49.5625C58.3333 48.9929 57.8856 48.5312 57.3333 48.5312C56.781 48.5312 56.3333 48.9929 56.3333 49.5625Z" fill="white"/>
<path d="M40.5721 76.3187C40.2067 75.6806 40 75 40 74.1771C40 72.2859 41.5507 70.4999 43.5758 70.4999H45.0958C44.8908 69.9495 44.7271 69.2912 44.7271 68.5001C44.7271 65.3723 46.2975 64 48.6967 64C51.2636 64 51.1172 68.0792 51.6867 68.6664C52.6345 69.6438 53.754 71.5216 54.5517 72.25H58.6667C59.403 72.25 60 72.8656 60 73.625V83.9375C60 84.6969 59.403 85.3125 58.6667 85.3125H56C55.3795 85.3125 54.858 84.8753 54.7092 84.2834C52.8547 84.3264 51.5817 85.9996 47.3008 85.9996C47 85.9996 46.6667 86 46.375 86C43.1618 86 41.7089 84.306 41.6692 81.9038C41.1142 81.1121 40.8234 80.0509 40.9467 79.0253C40.5361 78.2325 40.3773 77.2918 40.5721 76.3187ZM43.145 78.6317C42.6217 79.5396 43.0925 80.7548 43.7258 81.1054C43.405 83.2014 44.4595 83.9371 45.9392 83.9371H47.515C50.5 83.9371 52.4329 82.312 54.6667 82.312V74.3125H54.2117C53.03 74.3125 51.3792 71.2664 50.2725 70.1248C49.0908 68.9062 49.4846 66.875 48.6967 66.0625C46.7271 66.0625 46.7271 67.4796 46.7271 68.5001C46.7271 70.1832 47.9087 70.9373 47.9087 72.5624H43.5758C42.6962 72.5624 42.0037 73.3749 42 74.1875C41.9962 74.9996 42.5342 75.8121 42.9279 75.8121C42.3659 76.4375 42.2458 77.7558 43.145 78.6317V78.6317ZM56.3333 82.5625C56.3333 83.1321 56.781 83.5938 57.3333 83.5938C57.8856 83.5938 58.3333 83.1321 58.3333 82.5625C58.3333 81.9929 57.8856 81.5312 57.3333 81.5312C56.781 81.5312 56.3333 81.9929 56.3333 82.5625Z" fill="white"/>
<path d="M59.4279 107.681C59.7933 108.319 60 109 60 109.823C60 111.714 58.4493 113.5 56.4242 113.5L54.9042 113.5C55.1092 114.051 55.2729 114.709 55.2729 115.5C55.2729 118.628 53.7025 120 51.3033 120C48.7364 120 48.8828 115.921 48.3133 115.334C47.3655 114.356 46.246 112.478 45.4483 111.75L41.3333 111.75C40.597 111.75 40 111.134 40 110.375L40 100.063C40 99.3031 40.597 98.6875 41.3333 98.6875L44 98.6875C44.6205 98.6875 45.142 99.1247 45.2907 99.7166C47.1453 99.6736 48.4182 98.0004 52.6992 98.0004C53 98.0004 53.3333 98 53.625 98C56.8382 98 58.2911 99.694 58.3308 102.096C58.8858 102.888 59.1766 103.949 59.0533 104.975C59.4639 105.768 59.6227 106.708 59.4279 107.681ZM56.855 105.368C57.3783 104.46 56.9075 103.245 56.2742 102.895C56.595 100.799 55.5405 100.063 54.0608 100.063L52.485 100.063C49.5 100.063 47.5671 101.688 45.3333 101.688L45.3333 109.688L45.7883 109.688C46.97 109.688 48.6208 112.734 49.7275 113.875C50.9092 115.094 50.5154 117.125 51.3033 117.937C53.2729 117.937 53.2729 116.52 53.2729 115.5C53.2729 113.817 52.0913 113.063 52.0913 111.438L56.4242 111.438C57.3038 111.438 57.9963 110.625 58 109.813C58.0038 109 57.4658 108.188 57.0721 108.188C57.6341 107.562 57.7542 106.244 56.855 105.368V105.368ZM43.6667 101.438C43.6667 100.868 43.219 100.406 42.6667 100.406C42.1144 100.406 41.6667 100.868 41.6667 101.438C41.6667 102.007 42.1144 102.469 42.6667 102.469C43.219 102.469 43.6667 102.007 43.6667 101.438Z" fill="white"/>
</svg>
