<svg width="101" height="151" viewBox="0 0 101 151" fill="none" xmlns="http://www.w3.org/2000/svg">
<rect x="0.358582" width="100" height="150" rx="6" fill="#3B5998"/>
<path d="M12.3794 25.3959L12.5868 23.7671H11.2899V22.7101C11.2899 22.2645 11.471 21.8302 12.0519 21.8302H12.6415V20.4434C12.6415 20.4434 12.1064 20.3334 11.5949 20.3334C10.5268 20.3334 9.8287 21.1135 9.8287 22.5257V23.7671H8.64148V25.3959H9.8287V29.3334H11.2899V25.3959H12.3794Z" fill="white"/>
<path d="M14.2109 7.60449C14.2109 8.22559 14.0557 8.77637 13.7451 9.25684C13.4346 9.7373 13.0068 10.1211 12.4619 10.4082C13.083 10.707 13.5752 11.1201 13.9385 11.6475C14.3018 12.1689 14.4834 12.7842 14.4834 13.4932C14.4834 14.6299 14.0967 15.5293 13.3232 16.1914C12.5498 16.8477 11.498 17.1758 10.168 17.1758C8.83789 17.1758 7.7832 16.8447 7.00391 16.1826C6.22461 15.5205 5.83496 14.624 5.83496 13.4932C5.83496 12.7842 6.0166 12.166 6.37988 11.6387C6.74316 11.1113 7.23242 10.7012 7.84766 10.4082C7.30273 10.1211 6.875 9.7373 6.56445 9.25684C6.25977 8.77637 6.10742 8.22559 6.10742 7.60449C6.10742 6.51465 6.4707 5.64746 7.19727 5.00293C7.92383 4.35254 8.91113 4.02734 10.1592 4.02734C11.4014 4.02734 12.3857 4.34961 13.1123 4.99414C13.8447 5.63281 14.2109 6.50293 14.2109 7.60449ZM11.9346 13.3086C11.9346 12.752 11.7734 12.3066 11.4512 11.9727C11.1289 11.6387 10.6953 11.4717 10.1504 11.4717C9.61133 11.4717 9.18066 11.6387 8.8584 11.9727C8.53613 12.3008 8.375 12.7461 8.375 13.3086C8.375 13.8535 8.5332 14.293 8.84961 14.627C9.16602 14.9609 9.60547 15.1279 10.168 15.1279C10.7188 15.1279 11.1494 14.9668 11.46 14.6445C11.7764 14.3223 11.9346 13.877 11.9346 13.3086ZM11.6709 7.72754C11.6709 7.22949 11.5391 6.83105 11.2754 6.53223C11.0117 6.22754 10.6396 6.0752 10.1592 6.0752C9.68457 6.0752 9.31543 6.22168 9.05176 6.51465C8.78809 6.80762 8.65625 7.21191 8.65625 7.72754C8.65625 8.2373 8.78809 8.64746 9.05176 8.95801C9.31543 9.26855 9.6875 9.42383 10.168 9.42383C10.6484 9.42383 11.0176 9.26855 11.2754 8.95801C11.5391 8.64746 11.6709 8.2373 11.6709 7.72754Z" fill="white"/>
<path d="M88.454 124.937L88.2466 126.566L89.5435 126.566L89.5435 127.623C89.5435 128.069 89.3623 128.503 88.7815 128.503L88.1919 128.503L88.1919 129.89C88.1919 129.89 88.7269 130 89.2385 130C90.3065 130 91.0046 129.22 91.0046 127.808L91.0046 126.566L92.1919 126.566L92.1919 124.938L91.0046 124.937L91.0046 121L89.5435 121L89.5435 124.937L88.454 124.937Z" fill="white"/>
<path d="M86.6224 142.729C86.6224 142.108 86.7777 141.557 87.0882 141.077C87.3988 140.596 87.8265 140.212 88.3714 139.925C87.7503 139.626 87.2581 139.213 86.8949 138.686C86.5316 138.164 86.3499 137.549 86.3499 136.84C86.3499 135.703 86.7367 134.804 87.5101 134.142C88.2835 133.486 89.3353 133.158 90.6654 133.158C91.9955 133.158 93.0501 133.489 93.8294 134.151C94.6087 134.813 94.9984 135.709 94.9984 136.84C94.9984 137.549 94.8167 138.167 94.4535 138.695C94.0902 139.222 93.6009 139.632 92.9857 139.925C93.5306 140.212 93.9583 140.596 94.2689 141.077C94.5736 141.557 94.7259 142.108 94.7259 142.729C94.7259 143.819 94.3626 144.686 93.6361 145.33C92.9095 145.981 91.9222 146.306 90.6742 146.306C89.432 146.306 88.4476 145.984 87.721 145.339C86.9886 144.701 86.6224 143.83 86.6224 142.729ZM88.8988 137.025C88.8988 137.581 89.0599 138.027 89.3822 138.361C89.7044 138.695 90.138 138.862 90.683 138.862C91.222 138.862 91.6527 138.695 91.9749 138.361C92.2972 138.033 92.4583 137.587 92.4583 137.025C92.4583 136.48 92.3001 136.04 91.9837 135.706C91.6673 135.372 91.2279 135.205 90.6654 135.205C90.1146 135.205 89.6839 135.367 89.3734 135.689C89.057 136.011 88.8988 136.456 88.8988 137.025ZM89.1624 142.606C89.1624 143.104 89.2943 143.502 89.558 143.801C89.8216 144.106 90.1937 144.258 90.6742 144.258C91.1488 144.258 91.5179 144.112 91.7816 143.819C92.0453 143.526 92.1771 143.121 92.1771 142.606C92.1771 142.096 92.0453 141.686 91.7816 141.375C91.5179 141.065 91.1458 140.91 90.6654 140.91C90.1849 140.91 89.8158 141.065 89.558 141.375C89.2943 141.686 89.1624 142.096 89.1624 142.606Z" fill="white"/>
<path d="M42.4863 63.0789C42.1757 62.5569 42.0001 62 42.0001 61.3268C42.0001 59.7794 43.3182 58.3181 45.0395 58.3181H46.3315C46.1573 57.8677 46.0181 57.3291 46.0181 56.6819C46.0181 54.1228 47.3529 53 49.3922 53C51.5741 53 51.4497 56.3375 51.9337 56.818C52.7394 57.6177 53.6909 59.154 54.369 59.75H57.8667C58.4926 59.75 59.0001 60.2537 59.0001 60.875V69.3125C59.0001 69.9338 58.4926 70.4375 57.8667 70.4375H55.6001C55.0726 70.4375 54.6294 70.0798 54.5029 69.5955C52.9266 69.6307 51.8445 70.9996 48.2058 70.9996C47.9501 70.9996 47.6667 71 47.4188 71C44.6876 71 43.4526 69.614 43.4189 67.6486C42.9471 67.0008 42.6999 66.1325 42.8047 65.2934C42.4557 64.6447 42.3208 63.8751 42.4863 63.0789ZM44.6733 64.9714C44.2285 65.7143 44.6287 66.7085 45.167 66.9954C44.8943 68.7103 45.7906 69.3121 47.0484 69.3121H48.3878C50.925 69.3121 52.568 67.9825 54.4667 67.9825V61.4375H54.08C53.0756 61.4375 51.6724 58.9453 50.7317 58.0112C49.7273 57.0141 50.062 55.3523 49.3922 54.6875C47.7181 54.6875 47.7181 55.847 47.7181 56.6819C47.7181 58.059 48.7225 58.676 48.7225 60.0056H45.0395C44.2919 60.0056 43.7032 60.6704 43.7001 61.3352C43.6969 61.9996 44.1541 62.6645 44.4888 62.6645C44.0111 63.1762 43.909 64.2548 44.6733 64.9714ZM55.8834 68.1875C55.8834 68.6535 56.2639 69.0312 56.7334 69.0312C57.2028 69.0312 57.5834 68.6535 57.5834 68.1875C57.5834 67.7215 57.2028 67.3437 56.7334 67.3437C56.2639 67.3437 55.8834 67.7215 55.8834 68.1875Z" fill="white"/>
<path d="M58.5138 87.9211C58.8244 88.4431 59.0001 89 59.0001 89.6732C59.0001 91.2206 57.6819 92.6819 55.9606 92.6819L54.6686 92.6819C54.8429 93.1323 54.982 93.6709 54.982 94.3181C54.982 96.8773 53.6472 98 51.6079 98C49.426 98 49.5504 94.6625 49.0664 94.182C48.2608 93.3823 47.3092 91.846 46.6311 91.25L43.1334 91.25C42.5075 91.25 42.0001 90.7463 42.0001 90.125L42.0001 81.6875C42.0001 81.0662 42.5075 80.5625 43.1334 80.5625L45.4001 80.5625C45.9275 80.5625 46.3708 80.9202 46.4972 81.4045C48.0736 81.3693 49.1556 80.0004 52.7944 80.0004C53.0501 80.0004 53.3334 80 53.5813 80C56.3125 80 57.5475 81.386 57.5813 83.3514C58.053 83.9992 58.3002 84.8675 58.1954 85.7066C58.5444 86.3553 58.6793 87.1249 58.5138 87.9211ZM56.3268 86.0286C56.7716 85.2857 56.3714 84.2915 55.8331 84.0047C56.1058 82.2897 55.2095 81.6879 53.9518 81.6879L52.6123 81.6879C50.0751 81.6879 48.4321 83.0175 46.5334 83.0175L46.5334 89.5625L46.9201 89.5625C47.9246 89.5625 49.3278 92.0547 50.2684 92.9888C51.2729 93.9859 50.9382 95.6477 51.6079 96.3125C53.282 96.3125 53.282 95.153 53.282 94.3181C53.282 92.941 52.2776 92.324 52.2776 90.9944L55.9606 90.9944C56.7082 90.9944 57.2969 90.3296 57.3001 89.6648C57.3033 89.0004 56.846 88.3355 56.5113 88.3355C56.9891 87.8239 57.0911 86.7452 56.3268 86.0286V86.0286ZM45.1167 82.8125C45.1167 82.3465 44.7362 81.9688 44.2667 81.9688C43.7973 81.9688 43.4167 82.3465 43.4167 82.8125C43.4167 83.2785 43.7973 83.6563 44.2667 83.6563C44.7362 83.6563 45.1167 83.2785 45.1167 82.8125Z" fill="white"/>
<path d="M20.4577 49.0789C20.1654 48.5569 20.0001 48 20.0001 47.3268C20.0001 45.7794 21.2407 44.3181 22.8607 44.3181H24.0767C23.9127 43.8677 23.7817 43.3291 23.7817 42.6819C23.7817 40.1228 25.0381 39 26.9574 39C29.011 39 28.8938 42.3375 29.3494 42.818C30.1076 43.6177 31.0032 45.154 31.6414 45.75H34.9334C35.5225 45.75 36.0001 46.2537 36.0001 46.875V55.3125C36.0001 55.9338 35.5225 56.4375 34.9334 56.4375H32.8001C32.3036 56.4375 31.8865 56.0798 31.7675 55.5955C30.2838 55.6307 29.2655 56.9996 25.8407 56.9996C25.6001 56.9996 25.3334 57 25.1001 57C22.5295 57 21.3672 55.614 21.3354 53.6486C20.8914 53.0008 20.6588 52.1325 20.7574 51.2934C20.4289 50.6447 20.3019 49.8751 20.4577 49.0789ZM22.5161 50.9714C22.0974 51.7143 22.4741 52.7085 22.9807 52.9954C22.7241 54.7103 23.5677 55.3121 24.7514 55.3121H26.0121C28.4 55.3121 29.9464 53.9825 31.7334 53.9825V47.4375H31.3694C30.4241 47.4375 29.1034 44.9453 28.2181 44.0112C27.2727 43.0141 27.5877 41.3523 26.9574 40.6875C25.3817 40.6875 25.3817 41.847 25.3817 42.6819C25.3817 44.059 26.3271 44.676 26.3271 46.0056H22.8607C22.1571 46.0056 21.6031 46.6704 21.6001 47.3352C21.5971 47.9996 22.0274 48.6645 22.3424 48.6645C21.8928 49.1762 21.7967 50.2548 22.5161 50.9714ZM33.0667 54.1875C33.0667 54.6535 33.4249 55.0312 33.8667 55.0312C34.3086 55.0312 34.6667 54.6535 34.6667 54.1875C34.6667 53.7215 34.3086 53.3437 33.8667 53.3437C33.4249 53.3437 33.0667 53.7215 33.0667 54.1875Z" fill="white"/>
<path d="M20.4577 76.0789C20.1654 75.5569 20.0001 75 20.0001 74.3268C20.0001 72.7794 21.2407 71.3181 22.8607 71.3181H24.0767C23.9127 70.8677 23.7817 70.3291 23.7817 69.6819C23.7817 67.1228 25.0381 66 26.9574 66C29.011 66 28.8938 69.3375 29.3494 69.818C30.1076 70.6177 31.0032 72.154 31.6414 72.75H34.9334C35.5225 72.75 36.0001 73.2537 36.0001 73.875V82.3125C36.0001 82.9338 35.5225 83.4375 34.9334 83.4375H32.8001C32.3036 83.4375 31.8865 83.0798 31.7675 82.5955C30.2838 82.6307 29.2655 83.9996 25.8407 83.9996C25.6001 83.9996 25.3334 84 25.1001 84C22.5295 84 21.3672 82.614 21.3354 80.6486C20.8914 80.0008 20.6588 79.1325 20.7574 78.2934C20.4289 77.6447 20.3019 76.8751 20.4577 76.0789ZM22.5161 77.9714C22.0974 78.7143 22.4741 79.7085 22.9807 79.9954C22.7241 81.7103 23.5677 82.3121 24.7514 82.3121H26.0121C28.4 82.3121 29.9464 80.9825 31.7334 80.9825V74.4375H31.3694C30.4241 74.4375 29.1034 71.9453 28.2181 71.0112C27.2727 70.0141 27.5877 68.3523 26.9574 67.6875C25.3817 67.6875 25.3817 68.847 25.3817 69.6819C25.3817 71.059 26.3271 71.676 26.3271 73.0056H22.8607C22.1571 73.0056 21.6031 73.6704 21.6001 74.3352C21.5971 74.9996 22.0274 75.6645 22.3424 75.6645C21.8928 76.1762 21.7967 77.2548 22.5161 77.9714V77.9714ZM33.0667 81.1875C33.0667 81.6535 33.4249 82.0312 33.8667 82.0312C34.3086 82.0312 34.6667 81.6535 34.6667 81.1875C34.6667 80.7215 34.3086 80.3438 33.8667 80.3438C33.4249 80.3438 33.0667 80.7215 33.0667 81.1875Z" fill="white"/>
<path d="M35.5424 100.921C35.8347 101.443 36.0001 102 36.0001 102.673C36.0001 104.221 34.7595 105.682 33.1394 105.682L31.9234 105.682C32.0874 106.132 32.2184 106.671 32.2184 107.318C32.2184 109.877 30.9621 111 29.0427 111C26.9892 111 27.1063 107.663 26.6507 107.182C25.8925 106.382 24.9969 104.846 24.3587 104.25L21.0667 104.25C20.4776 104.25 20.0001 103.746 20.0001 103.125L20.0001 94.6875C20.0001 94.0662 20.4776 93.5625 21.0667 93.5625L23.2001 93.5625C23.6965 93.5625 24.1137 93.9202 24.2327 94.4045C25.7163 94.3693 26.7347 93.0004 30.1594 93.0004C30.4001 93.0004 30.6667 93 30.9001 93C33.4706 93 34.6329 94.386 34.6647 96.3514C35.1087 96.9992 35.3414 97.8675 35.2427 98.7066C35.5712 99.3553 35.6982 100.125 35.5424 100.921ZM33.4841 99.0286C33.9027 98.2857 33.5261 97.2915 33.0194 97.0046C33.2761 95.2897 32.4325 94.6879 31.2487 94.6879L29.9881 94.6879C27.6001 94.6879 26.0538 96.0175 24.2667 96.0175L24.2667 102.563L24.6307 102.563C25.5761 102.563 26.8967 105.055 27.7821 105.989C28.7274 106.986 28.4124 108.648 29.0427 109.312C30.6184 109.312 30.6184 108.153 30.6184 107.318C30.6184 105.941 29.6731 105.324 29.6731 103.994L33.1394 103.994C33.8431 103.994 34.3971 103.33 34.4001 102.665C34.4031 102 33.9727 101.336 33.6577 101.336C34.1074 100.824 34.2034 99.7452 33.4841 99.0286V99.0286ZM22.9334 95.8125C22.9334 95.3465 22.5752 94.9688 22.1334 94.9688C21.6916 94.9688 21.3334 95.3465 21.3334 95.8125C21.3334 96.2785 21.6916 96.6563 22.1334 96.6563C22.5752 96.6563 22.9334 96.2785 22.9334 95.8125Z" fill="white"/>
<path d="M65.4577 49.0789C65.1654 48.5569 65.0001 48 65.0001 47.3268C65.0001 45.7794 66.2407 44.3181 67.8607 44.3181H69.0767C68.9127 43.8677 68.7817 43.3291 68.7817 42.6819C68.7817 40.1228 70.0381 39 71.9574 39C74.011 39 73.8938 42.3375 74.3494 42.818C75.1076 43.6177 76.0032 45.154 76.6414 45.75H79.9334C80.5225 45.75 81.0001 46.2537 81.0001 46.875V55.3125C81.0001 55.9338 80.5225 56.4375 79.9334 56.4375H77.8001C77.3036 56.4375 76.8865 56.0798 76.7675 55.5955C75.2838 55.6307 74.2655 56.9996 70.8407 56.9996C70.6001 56.9996 70.3334 57 70.1001 57C67.5295 57 66.3672 55.614 66.3354 53.6486C65.8914 53.0008 65.6588 52.1325 65.7574 51.2934C65.4289 50.6447 65.3019 49.8751 65.4577 49.0789ZM67.5161 50.9714C67.0974 51.7143 67.4741 52.7085 67.9807 52.9954C67.7241 54.7103 68.5677 55.3121 69.7514 55.3121H71.0121C73.4 55.3121 74.9464 53.9825 76.7334 53.9825V47.4375H76.3694C75.4241 47.4375 74.1034 44.9453 73.2181 44.0112C72.2727 43.0141 72.5877 41.3523 71.9574 40.6875C70.3817 40.6875 70.3817 41.847 70.3817 42.6819C70.3817 44.059 71.3271 44.676 71.3271 46.0056H67.8607C67.1571 46.0056 66.6031 46.6704 66.6001 47.3352C66.5971 47.9996 67.0274 48.6645 67.3424 48.6645C66.8928 49.1762 66.7967 50.2548 67.5161 50.9714ZM78.0667 54.1875C78.0667 54.6535 78.4249 55.0312 78.8667 55.0312C79.3086 55.0312 79.6667 54.6535 79.6667 54.1875C79.6667 53.7215 79.3086 53.3437 78.8667 53.3437C78.4249 53.3437 78.0667 53.7215 78.0667 54.1875Z" fill="white"/>
<path d="M65.4577 76.0789C65.1654 75.5569 65.0001 75 65.0001 74.3268C65.0001 72.7794 66.2407 71.3181 67.8607 71.3181H69.0767C68.9127 70.8677 68.7817 70.3291 68.7817 69.6819C68.7817 67.1228 70.0381 66 71.9574 66C74.011 66 73.8938 69.3375 74.3494 69.818C75.1076 70.6177 76.0032 72.154 76.6414 72.75H79.9334C80.5225 72.75 81.0001 73.2537 81.0001 73.875V82.3125C81.0001 82.9338 80.5225 83.4375 79.9334 83.4375H77.8001C77.3036 83.4375 76.8865 83.0798 76.7675 82.5955C75.2838 82.6307 74.2655 83.9996 70.8407 83.9996C70.6001 83.9996 70.3334 84 70.1001 84C67.5295 84 66.3672 82.614 66.3354 80.6486C65.8914 80.0008 65.6588 79.1325 65.7574 78.2934C65.4289 77.6447 65.3019 76.8751 65.4577 76.0789ZM67.5161 77.9714C67.0974 78.7143 67.4741 79.7085 67.9807 79.9954C67.7241 81.7103 68.5677 82.3121 69.7514 82.3121H71.0121C73.4 82.3121 74.9464 80.9825 76.7334 80.9825V74.4375H76.3694C75.4241 74.4375 74.1034 71.9453 73.2181 71.0112C72.2727 70.0141 72.5877 68.3523 71.9574 67.6875C70.3817 67.6875 70.3817 68.847 70.3817 69.6819C70.3817 71.059 71.3271 71.676 71.3271 73.0056H67.8607C67.1571 73.0056 66.6031 73.6704 66.6001 74.3352C66.5971 74.9996 67.0274 75.6645 67.3424 75.6645C66.8928 76.1762 66.7967 77.2548 67.5161 77.9714V77.9714ZM78.0667 81.1875C78.0667 81.6535 78.4249 82.0312 78.8667 82.0312C79.3086 82.0312 79.6667 81.6535 79.6667 81.1875C79.6667 80.7215 79.3086 80.3438 78.8667 80.3438C78.4249 80.3438 78.0667 80.7215 78.0667 81.1875Z" fill="white"/>
<path d="M80.5424 100.921C80.8347 101.443 81.0001 102 81.0001 102.673C81.0001 104.221 79.7595 105.682 78.1394 105.682L76.9234 105.682C77.0874 106.132 77.2184 106.671 77.2184 107.318C77.2184 109.877 75.9621 111 74.0427 111C71.9892 111 72.1063 107.663 71.6507 107.182C70.8925 106.382 69.9969 104.846 69.3587 104.25L66.0667 104.25C65.4776 104.25 65.0001 103.746 65.0001 103.125L65.0001 94.6875C65.0001 94.0662 65.4776 93.5625 66.0667 93.5625L68.2001 93.5625C68.6965 93.5625 69.1137 93.9202 69.2327 94.4045C70.7163 94.3693 71.7347 93.0004 75.1594 93.0004C75.4001 93.0004 75.6667 93 75.9001 93C78.4706 93 79.6329 94.386 79.6647 96.3514C80.1087 96.9992 80.3414 97.8675 80.2427 98.7066C80.5712 99.3553 80.6982 100.125 80.5424 100.921ZM78.4841 99.0286C78.9027 98.2857 78.5261 97.2915 78.0194 97.0046C78.2761 95.2897 77.4325 94.6879 76.2487 94.6879L74.9881 94.6879C72.6001 94.6879 71.0538 96.0175 69.2667 96.0175L69.2667 102.563L69.6307 102.563C70.5761 102.563 71.8967 105.055 72.7821 105.989C73.7274 106.986 73.4124 108.648 74.0427 109.312C75.6184 109.312 75.6184 108.153 75.6184 107.318C75.6184 105.941 74.6731 105.324 74.6731 103.994L78.1394 103.994C78.8431 103.994 79.3971 103.33 79.4001 102.665C79.4031 102 78.9727 101.336 78.6577 101.336C79.1074 100.824 79.2034 99.7452 78.4841 99.0286V99.0286ZM67.9334 95.8125C67.9334 95.3465 67.5752 94.9688 67.1334 94.9688C66.6916 94.9688 66.3334 95.3465 66.3334 95.8125C66.3334 96.2785 66.6916 96.6563 67.1334 96.6563C67.5752 96.6563 67.9334 96.2785 67.9334 95.8125Z" fill="white"/>
</svg>
