<svg width="101" height="151" viewBox="0 0 101 151" fill="none" xmlns="http://www.w3.org/2000/svg">
<rect x="0.358643" width="100" height="150" rx="6" fill="#3B5998"/>
<path d="M43.4863 76.0789C43.1757 75.5569 43.0001 75 43.0001 74.3268C43.0001 72.7794 44.3182 71.3181 46.0395 71.3181H47.3315C47.1573 70.8677 47.0181 70.3291 47.0181 69.6819C47.0181 67.1228 48.3529 66 50.3922 66C52.5741 66 52.4497 69.3375 52.9337 69.818C53.7394 70.6177 54.6909 72.154 55.369 72.75H58.8667C59.4926 72.75 60.0001 73.2537 60.0001 73.875V82.3125C60.0001 82.9338 59.4926 83.4375 58.8667 83.4375H56.6001C56.0726 83.4375 55.6294 83.0798 55.5029 82.5955C53.9266 82.6307 52.8445 83.9996 49.2058 83.9996C48.9501 83.9996 48.6667 84 48.4188 84C45.6876 84 44.4526 82.614 44.4189 80.6486C43.9471 80.0008 43.6999 79.1325 43.8047 78.2934C43.4557 77.6447 43.3208 76.8751 43.4863 76.0789ZM45.6733 77.9714C45.2285 78.7143 45.6287 79.7085 46.167 79.9954C45.8943 81.7103 46.7906 82.3121 48.0484 82.3121H49.3878C51.925 82.3121 53.568 80.9825 55.4667 80.9825V74.4375H55.08C54.0756 74.4375 52.6724 71.9453 51.7317 71.0112C50.7273 70.0141 51.062 68.3523 50.3922 67.6875C48.7181 67.6875 48.7181 68.847 48.7181 69.6819C48.7181 71.059 49.7225 71.676 49.7225 73.0056H46.0395C45.2919 73.0056 44.7032 73.6704 44.7001 74.3352C44.6969 74.9996 45.1541 75.6645 45.4888 75.6645C45.0111 76.1762 44.909 77.2548 45.6733 77.9714ZM56.8834 81.1875C56.8834 81.6535 57.2639 82.0312 57.7334 82.0312C58.2028 82.0312 58.5834 81.6535 58.5834 81.1875C58.5834 80.7215 58.2028 80.3437 57.7334 80.3437C57.2639 80.3437 56.8834 80.7215 56.8834 81.1875Z" fill="white"/>
<path d="M66.4863 63.0789C66.1757 62.5569 66.0001 62 66.0001 61.3268C66.0001 59.7794 67.3182 58.3181 69.0395 58.3181H70.3315C70.1573 57.8677 70.0181 57.3291 70.0181 56.6819C70.0181 54.1228 71.3529 53 73.3922 53C75.5741 53 75.4497 56.3375 75.9337 56.818C76.7394 57.6177 77.6909 59.154 78.369 59.75H81.8667C82.4926 59.75 83.0001 60.2537 83.0001 60.875V69.3125C83.0001 69.9338 82.4926 70.4375 81.8667 70.4375H79.6001C79.0726 70.4375 78.6294 70.0798 78.5029 69.5955C76.9266 69.6307 75.8445 70.9996 72.2058 70.9996C71.9501 70.9996 71.6667 71 71.4188 71C68.6876 71 67.4526 69.614 67.4189 67.6486C66.9471 67.0008 66.6999 66.1325 66.8047 65.2934C66.4557 64.6447 66.3208 63.8751 66.4863 63.0789ZM68.6733 64.9714C68.2285 65.7143 68.6287 66.7085 69.167 66.9954C68.8943 68.7103 69.7906 69.3121 71.0484 69.3121H72.3878C74.925 69.3121 76.568 67.9825 78.4667 67.9825V61.4375H78.08C77.0756 61.4375 75.6724 58.9453 74.7317 58.0112C73.7273 57.0141 74.062 55.3523 73.3922 54.6875C71.7181 54.6875 71.7181 55.847 71.7181 56.6819C71.7181 58.059 72.7225 58.676 72.7225 60.0056H69.0395C68.2919 60.0056 67.7032 60.6704 67.7001 61.3352C67.6969 61.9996 68.1541 62.6645 68.4888 62.6645C68.0111 63.1762 67.909 64.2548 68.6733 64.9714ZM79.8834 68.1875C79.8834 68.6535 80.2639 69.0312 80.7334 69.0312C81.2028 69.0312 81.5834 68.6535 81.5834 68.1875C81.5834 67.7215 81.2028 67.3437 80.7334 67.3437C80.2639 67.3437 79.8834 67.7215 79.8834 68.1875Z" fill="white"/>
<path d="M66.4863 36.0789C66.1757 35.5569 66.0001 35 66.0001 34.3268C66.0001 32.7794 67.3182 31.3181 69.0395 31.3181H70.3315C70.1573 30.8677 70.0181 30.3291 70.0181 29.6819C70.0181 27.1228 71.3529 26 73.3922 26C75.5741 26 75.4497 29.3375 75.9337 29.818C76.7394 30.6177 77.6909 32.154 78.369 32.75H81.8667C82.4926 32.75 83.0001 33.2537 83.0001 33.875V42.3125C83.0001 42.9338 82.4926 43.4375 81.8667 43.4375H79.6001C79.0726 43.4375 78.6294 43.0798 78.5029 42.5955C76.9266 42.6307 75.8445 43.9996 72.2058 43.9996C71.9501 43.9996 71.6667 44 71.4188 44C68.6876 44 67.4526 42.614 67.4189 40.6486C66.9471 40.0008 66.6999 39.1325 66.8047 38.2934C66.4557 37.6447 66.3208 36.8751 66.4863 36.0789ZM68.6733 37.9714C68.2285 38.7143 68.6287 39.7085 69.167 39.9954C68.8943 41.7103 69.7906 42.3121 71.0484 42.3121H72.3878C74.925 42.3121 76.568 40.9825 78.4667 40.9825V34.4375H78.08C77.0756 34.4375 75.6724 31.9453 74.7317 31.0112C73.7273 30.0141 74.062 28.3523 73.3922 27.6875C71.7181 27.6875 71.7181 28.847 71.7181 29.6819C71.7181 31.059 72.7225 31.676 72.7225 33.0056H69.0395C68.2919 33.0056 67.7032 33.6704 67.7001 34.3352C67.6969 34.9996 68.1541 35.6645 68.4888 35.6645C68.0111 36.1762 67.909 37.2548 68.6733 37.9714ZM79.8834 41.1875C79.8834 41.6535 80.2639 42.0312 80.7334 42.0312C81.2028 42.0312 81.5834 41.6535 81.5834 41.1875C81.5834 40.7215 81.2028 40.3437 80.7334 40.3437C80.2639 40.3437 79.8834 40.7215 79.8834 41.1875Z" fill="white"/>
<path d="M82.5138 87.9211C82.8244 88.4431 83.0001 89 83.0001 89.6732C83.0001 91.2206 81.6819 92.6819 79.9606 92.6819L78.6686 92.6819C78.8429 93.1323 78.982 93.6709 78.982 94.3181C78.982 96.8773 77.6472 98 75.6079 98C73.426 98 73.5504 94.6625 73.0664 94.182C72.2608 93.3823 71.3092 91.846 70.6311 91.25L67.1334 91.25C66.5075 91.25 66.0001 90.7463 66.0001 90.125L66.0001 81.6875C66.0001 81.0662 66.5075 80.5625 67.1334 80.5625L69.4001 80.5625C69.9275 80.5625 70.3708 80.9202 70.4972 81.4045C72.0736 81.3693 73.1556 80.0004 76.7944 80.0004C77.0501 80.0004 77.3334 80 77.5813 80C80.3125 80 81.5475 81.386 81.5813 83.3514C82.053 83.9992 82.3002 84.8675 82.1954 85.7066C82.5444 86.3553 82.6793 87.1249 82.5138 87.9211ZM80.3268 86.0286C80.7716 85.2857 80.3714 84.2915 79.8331 84.0047C80.1058 82.2897 79.2095 81.6879 77.9518 81.6879L76.6123 81.6879C74.0751 81.6879 72.4321 83.0175 70.5334 83.0175L70.5334 89.5625L70.9201 89.5625C71.9246 89.5625 73.3278 92.0547 74.2684 92.9888C75.2729 93.9859 74.9382 95.6477 75.6079 96.3125C77.282 96.3125 77.282 95.153 77.282 94.3181C77.282 92.941 76.2776 92.324 76.2776 90.9944L79.9606 90.9944C80.7082 90.9944 81.2969 90.3296 81.3001 89.6648C81.3033 89.0004 80.846 88.3355 80.5113 88.3355C80.9891 87.8239 81.0911 86.7452 80.3268 86.0286V86.0286ZM69.1167 82.8125C69.1167 82.3465 68.7362 81.9688 68.2667 81.9688C67.7973 81.9688 67.4167 82.3465 67.4167 82.8125C67.4167 83.2785 67.7973 83.6563 68.2667 83.6563C68.7362 83.6563 69.1167 83.2785 69.1167 82.8125Z" fill="white"/>
<path d="M82.5138 114.921C82.8244 115.443 83.0001 116 83.0001 116.673C83.0001 118.221 81.6819 119.682 79.9606 119.682L78.6686 119.682C78.8429 120.132 78.982 120.671 78.982 121.318C78.982 123.877 77.6472 125 75.6079 125C73.426 125 73.5504 121.663 73.0664 121.182C72.2608 120.382 71.3092 118.846 70.6311 118.25L67.1334 118.25C66.5075 118.25 66.0001 117.746 66.0001 117.125L66.0001 108.688C66.0001 108.066 66.5075 107.563 67.1334 107.563L69.4001 107.563C69.9275 107.563 70.3708 107.92 70.4972 108.404C72.0736 108.369 73.1556 107 76.7944 107C77.0501 107 77.3334 107 77.5813 107C80.3125 107 81.5475 108.386 81.5813 110.351C82.053 110.999 82.3002 111.867 82.1954 112.707C82.5444 113.355 82.6793 114.125 82.5138 114.921ZM80.3268 113.029C80.7716 112.286 80.3714 111.292 79.8331 111.005C80.1058 109.29 79.2095 108.688 77.9518 108.688L76.6123 108.688C74.0751 108.688 72.4321 110.017 70.5334 110.017L70.5334 116.563L70.9201 116.563C71.9246 116.563 73.3278 119.055 74.2684 119.989C75.2729 120.986 74.9382 122.648 75.6079 123.312C77.282 123.312 77.282 122.153 77.282 121.318C77.282 119.941 76.2776 119.324 76.2776 117.994L79.9606 117.994C80.7082 117.994 81.2969 117.33 81.3001 116.665C81.3032 116 80.846 115.336 80.5113 115.336C80.9891 114.824 81.0911 113.745 80.3268 113.029V113.029ZM69.1167 109.813C69.1167 109.347 68.7362 108.969 68.2667 108.969C67.7973 108.969 67.4167 109.347 67.4167 109.813C67.4167 110.278 67.7973 110.656 68.2667 110.656C68.7362 110.656 69.1167 110.278 69.1167 109.813Z" fill="white"/>
<path d="M20.4863 63.0789C20.1757 62.5569 20.0001 62 20.0001 61.3268C20.0001 59.7794 21.3182 58.3181 23.0395 58.3181H24.3315C24.1573 57.8677 24.0181 57.3291 24.0181 56.6819C24.0181 54.1228 25.3529 53 27.3922 53C29.5741 53 29.4497 56.3375 29.9337 56.818C30.7394 57.6177 31.6909 59.154 32.369 59.75H35.8667C36.4926 59.75 37.0001 60.2537 37.0001 60.875V69.3125C37.0001 69.9338 36.4926 70.4375 35.8667 70.4375H33.6001C33.0726 70.4375 32.6294 70.0798 32.5029 69.5955C30.9266 69.6307 29.8445 70.9996 26.2058 70.9996C25.9501 70.9996 25.6667 71 25.4188 71C22.6876 71 21.4526 69.614 21.4189 67.6486C20.9471 67.0008 20.6999 66.1325 20.8047 65.2934C20.4557 64.6447 20.3208 63.8751 20.4863 63.0789ZM22.6733 64.9714C22.2285 65.7143 22.6287 66.7085 23.167 66.9954C22.8943 68.7103 23.7906 69.3121 25.0484 69.3121H26.3878C28.925 69.3121 30.568 67.9825 32.4667 67.9825V61.4375H32.08C31.0756 61.4375 29.6724 58.9453 28.7317 58.0112C27.7273 57.0141 28.062 55.3523 27.3922 54.6875C25.7181 54.6875 25.7181 55.847 25.7181 56.6819C25.7181 58.059 26.7225 58.676 26.7225 60.0056H23.0395C22.2919 60.0056 21.7032 60.6704 21.7001 61.3352C21.6969 61.9996 22.1541 62.6645 22.4888 62.6645C22.0111 63.1762 21.909 64.2548 22.6733 64.9714ZM33.8834 68.1875C33.8834 68.6535 34.2639 69.0312 34.7334 69.0312C35.2028 69.0312 35.5834 68.6535 35.5834 68.1875C35.5834 67.7215 35.2028 67.3437 34.7334 67.3437C34.2639 67.3437 33.8834 67.7215 33.8834 68.1875Z" fill="white"/>
<path d="M20.4863 36.0789C20.1757 35.5569 20.0001 35 20.0001 34.3268C20.0001 32.7794 21.3182 31.3181 23.0395 31.3181H24.3315C24.1573 30.8677 24.0181 30.3291 24.0181 29.6819C24.0181 27.1228 25.3529 26 27.3922 26C29.5741 26 29.4497 29.3375 29.9337 29.818C30.7394 30.6177 31.6909 32.154 32.369 32.75H35.8667C36.4926 32.75 37.0001 33.2537 37.0001 33.875V42.3125C37.0001 42.9338 36.4926 43.4375 35.8667 43.4375H33.6001C33.0726 43.4375 32.6294 43.0798 32.5029 42.5955C30.9266 42.6307 29.8445 43.9996 26.2058 43.9996C25.9501 43.9996 25.6667 44 25.4188 44C22.6876 44 21.4526 42.614 21.4189 40.6486C20.9471 40.0008 20.6999 39.1325 20.8047 38.2934C20.4557 37.6447 20.3208 36.8751 20.4863 36.0789ZM22.6733 37.9714C22.2285 38.7143 22.6287 39.7085 23.167 39.9954C22.8943 41.7103 23.7906 42.3121 25.0484 42.3121H26.3878C28.925 42.3121 30.568 40.9825 32.4667 40.9825V34.4375H32.08C31.0756 34.4375 29.6724 31.9453 28.7317 31.0112C27.7273 30.0141 28.062 28.3523 27.3922 27.6875C25.7181 27.6875 25.7181 28.847 25.7181 29.6819C25.7181 31.059 26.7225 31.676 26.7225 33.0056H23.0395C22.2919 33.0056 21.7032 33.6704 21.7001 34.3352C21.6969 34.9996 22.1541 35.6645 22.4888 35.6645C22.0111 36.1762 21.909 37.2548 22.6733 37.9714ZM33.8834 41.1875C33.8834 41.6535 34.2639 42.0312 34.7334 42.0312C35.2028 42.0312 35.5834 41.6535 35.5834 41.1875C35.5834 40.7215 35.2028 40.3437 34.7334 40.3437C34.2639 40.3437 33.8834 40.7215 33.8834 41.1875Z" fill="white"/>
<path d="M36.5138 87.9211C36.8244 88.4431 37.0001 89 37.0001 89.6732C37.0001 91.2206 35.6819 92.6819 33.9606 92.6819L32.6686 92.6819C32.8429 93.1323 32.982 93.6709 32.982 94.3181C32.982 96.8773 31.6472 98 29.6079 98C27.426 98 27.5504 94.6625 27.0664 94.182C26.2608 93.3823 25.3092 91.846 24.6311 91.25L21.1334 91.25C20.5075 91.25 20.0001 90.7463 20.0001 90.125L20.0001 81.6875C20.0001 81.0662 20.5075 80.5625 21.1334 80.5625L23.4001 80.5625C23.9275 80.5625 24.3708 80.9202 24.4972 81.4045C26.0736 81.3693 27.1556 80.0004 30.7944 80.0004C31.0501 80.0004 31.3334 80 31.5813 80C34.3125 80 35.5475 81.386 35.5813 83.3514C36.053 83.9992 36.3002 84.8675 36.1954 85.7066C36.5444 86.3553 36.6793 87.1249 36.5138 87.9211ZM34.3268 86.0286C34.7716 85.2857 34.3714 84.2915 33.8331 84.0047C34.1058 82.2897 33.2095 81.6879 31.9518 81.6879L30.6123 81.6879C28.0751 81.6879 26.4321 83.0175 24.5334 83.0175L24.5334 89.5625L24.9201 89.5625C25.9246 89.5625 27.3278 92.0547 28.2684 92.9888C29.2729 93.9859 28.9382 95.6477 29.6079 96.3125C31.282 96.3125 31.282 95.153 31.282 94.3181C31.282 92.941 30.2776 92.324 30.2776 90.9944L33.9606 90.9944C34.7082 90.9944 35.2969 90.3296 35.3001 89.6648C35.3033 89.0004 34.846 88.3355 34.5113 88.3355C34.9891 87.8239 35.0911 86.7452 34.3268 86.0286V86.0286ZM23.1167 82.8125C23.1167 82.3465 22.7362 81.9688 22.2667 81.9688C21.7973 81.9688 21.4167 82.3465 21.4167 82.8125C21.4167 83.2785 21.7973 83.6563 22.2667 83.6563C22.7362 83.6563 23.1167 83.2785 23.1167 82.8125Z" fill="white"/>
<path d="M36.5138 114.921C36.8244 115.443 37.0001 116 37.0001 116.673C37.0001 118.221 35.6819 119.682 33.9606 119.682L32.6686 119.682C32.8429 120.132 32.982 120.671 32.982 121.318C32.982 123.877 31.6472 125 29.6079 125C27.426 125 27.5504 121.663 27.0664 121.182C26.2608 120.382 25.3092 118.846 24.6311 118.25L21.1334 118.25C20.5075 118.25 20.0001 117.746 20.0001 117.125L20.0001 108.688C20.0001 108.066 20.5075 107.563 21.1334 107.563L23.4001 107.563C23.9275 107.563 24.3708 107.92 24.4972 108.404C26.0736 108.369 27.1556 107 30.7944 107C31.0501 107 31.3334 107 31.5813 107C34.3125 107 35.5475 108.386 35.5813 110.351C36.053 110.999 36.3002 111.867 36.1954 112.707C36.5444 113.355 36.6793 114.125 36.5138 114.921ZM34.3268 113.029C34.7716 112.286 34.3714 111.292 33.8331 111.005C34.1058 109.29 33.2095 108.688 31.9518 108.688L30.6123 108.688C28.0751 108.688 26.4321 110.017 24.5334 110.017L24.5334 116.563L24.9201 116.563C25.9246 116.563 27.3278 119.055 28.2684 119.989C29.2729 120.986 28.9382 122.648 29.6079 123.312C31.282 123.312 31.282 122.153 31.282 121.318C31.282 119.941 30.2776 119.324 30.2776 117.994L33.9606 117.994C34.7082 117.994 35.2969 117.33 35.3001 116.665C35.3032 116 34.846 115.336 34.5113 115.336C34.9891 114.824 35.0911 113.745 34.3268 113.029V113.029ZM23.1167 109.813C23.1167 109.347 22.7362 108.969 22.2667 108.969C21.7973 108.969 21.4167 109.347 21.4167 109.813C21.4167 110.278 21.7973 110.656 22.2667 110.656C22.7362 110.656 23.1167 110.278 23.1167 109.813Z" fill="white"/>
<path d="M12.3794 25.3959L12.5868 23.7671H11.2899V22.7101C11.2899 22.2645 11.4711 21.8302 12.0519 21.8302H12.6415V20.4434C12.6415 20.4434 12.1065 20.3334 11.5949 20.3334C10.5269 20.3334 9.82876 21.1135 9.82876 22.5257V23.7671H8.64154V25.3959H9.82876V29.3334H11.2899V25.3959H12.3794Z" fill="white"/>
<path d="M11.8116 11.8848C11.1495 12.5352 10.376 12.8604 9.49127 12.8604C8.36041 12.8604 7.45514 12.4736 6.77545 11.7002C6.09576 10.9209 5.75592 9.87207 5.75592 8.55371C5.75592 7.71582 5.93756 6.94824 6.30084 6.25098C6.66998 5.54785 7.18268 5.00293 7.83893 4.61621C8.49518 4.22363 9.23346 4.02734 10.0538 4.02734C10.8975 4.02734 11.6475 4.23828 12.3038 4.66016C12.96 5.08203 13.4698 5.68848 13.8331 6.47949C14.1964 7.27051 14.3809 8.17578 14.3868 9.19531V10.1357C14.3868 12.2686 13.8565 13.9443 12.796 15.1631C11.7354 16.3818 10.2325 17.0322 8.28717 17.1143L7.66315 17.123V15.0049L8.22565 14.9961C10.4346 14.8965 11.6299 13.8594 11.8116 11.8848ZM10.1153 10.918C10.5255 10.918 10.877 10.8125 11.17 10.6016C11.4688 10.3906 11.6944 10.1357 11.8467 9.83691V8.79102C11.8467 7.92969 11.6827 7.26172 11.3546 6.78711C11.0264 6.3125 10.587 6.0752 10.0362 6.0752C9.52643 6.0752 9.10748 6.30957 8.77936 6.77832C8.45123 7.24121 8.28717 7.82422 8.28717 8.52734C8.28717 9.22461 8.44537 9.79883 8.76178 10.25C9.08405 10.6953 9.53522 10.918 10.1153 10.918Z" fill="white"/>
<path d="M88.4541 124.937L88.2466 126.566L89.5435 126.566L89.5435 127.623C89.5435 128.069 89.3624 128.503 88.7815 128.503L88.1919 128.503L88.1919 129.89C88.1919 129.89 88.727 130 89.2385 130C90.3066 130 91.0047 129.22 91.0047 127.808L91.0047 126.566L92.1919 126.566L92.1919 124.938L91.0047 124.937L91.0047 121L89.5435 121L89.5435 124.937L88.4541 124.937Z" fill="white"/>
<path d="M89.0219 138.449C89.684 137.798 90.4574 137.473 91.3422 137.473C92.4731 137.473 93.3783 137.86 94.058 138.633C94.7377 139.412 95.0775 140.461 95.0775 141.78C95.0775 142.618 94.8959 143.385 94.5326 144.082C94.1635 144.786 93.6508 145.33 92.9945 145.717C92.3383 146.11 91.6 146.306 90.7797 146.306C89.9359 146.306 89.1859 146.095 88.5297 145.673C87.8734 145.251 87.3637 144.645 87.0004 143.854C86.6371 143.063 86.4525 142.158 86.4467 141.138L86.4467 140.198C86.4467 138.065 86.977 136.389 88.0375 135.17C89.0981 133.952 90.601 133.301 92.5463 133.219L93.1703 133.21L93.1703 135.328L92.6078 135.337C90.3988 135.437 89.2035 136.474 89.0219 138.449ZM90.7182 139.415C90.308 139.415 89.9565 139.521 89.6635 139.732C89.3647 139.943 89.1391 140.198 88.9867 140.496L88.9867 141.542C88.9867 142.404 89.1508 143.072 89.4789 143.546C89.807 144.021 90.2465 144.258 90.7973 144.258C91.307 144.258 91.726 144.024 92.0541 143.555C92.3822 143.092 92.5463 142.509 92.5463 141.806C92.5463 141.109 92.3881 140.535 92.0717 140.083C91.7494 139.638 91.2982 139.415 90.7182 139.415Z" fill="white"/>
</svg>
