<svg width="101" height="151" viewBox="0 0 101 151" fill="none" xmlns="http://www.w3.org/2000/svg">
<rect x="0.358643" width="100" height="150" rx="6" fill="#3B5998"/>
<path d="M12.3794 25.3959L12.5868 23.7671H11.2899V22.7101C11.2899 22.2645 11.4711 21.8302 12.0519 21.8302H12.6415V20.4434C12.6415 20.4434 12.1065 20.3334 11.5949 20.3334C10.5269 20.3334 9.82876 21.1135 9.82876 22.5257V23.7671H8.64154V25.3959H9.82876V29.3334H11.2899V25.3959H12.3794Z" fill="white"/>
<path d="M10.1505 11.8672L8.77936 13.3438V17H6.14264V4.20312H8.77936V10.0039L9.93951 8.41309L13.2003 4.20312H16.4434L11.8995 9.88965L16.5753 17H13.4376L10.1505 11.8672Z" fill="white"/>
<path d="M88.454 124.937L88.2466 126.566L89.5435 126.566L89.5435 127.623C89.5435 128.069 89.3623 128.503 88.7815 128.503L88.1919 128.503L88.1919 129.89C88.1919 129.89 88.7269 130 89.2385 130C90.3065 130 91.0047 129.22 91.0047 127.808L91.0047 126.566L92.1919 126.566L92.1919 124.938L91.0047 124.937L91.0047 121L89.5435 121L89.5435 124.937L88.454 124.937Z" fill="white"/>
<path d="M90.683 138.466L92.0541 136.99L92.0541 133.333L94.6908 133.333L94.6908 146.13L92.0541 146.13L92.0541 140.329L90.8939 141.92L87.6332 146.13L84.39 146.13L88.934 140.444L84.2582 133.333L87.3959 133.333L90.683 138.466Z" fill="white"/>
<path d="M64.7719 81.75L66.535 67.9958H55.5113V59.0702C55.5113 55.3073 57.0512 51.6395 61.9884 51.6395H67V39.9292C67 39.9292 62.4521 39 58.1039 39C49.0255 39 43.0914 45.5877 43.0914 57.5131V67.9958H33V81.75H43.0914V115H55.5113V81.75H64.7719Z" fill="white"/>
</svg>
