<svg width="100" height="150" viewBox="0 0 100 150" fill="none" xmlns="http://www.w3.org/2000/svg">
<rect width="100" height="150" rx="6" fill="#C62C19"/>
<path d="M12.2903 22.9986C12.3261 23.1753 12.3516 23.352 12.3516 23.5812C12.3516 25.5819 10.914 27 8.75 27C6.67805 27 5 25.4338 5 23.5C5 21.5662 6.67805 20 8.75 20C9.76297 20 10.6071 20.3438 11.2619 20.9168L10.2438 21.8288C9.96758 21.5805 9.48158 21.2892 8.75 21.2892C7.47102 21.2892 6.42734 22.2776 6.42734 23.5C6.42734 24.7224 7.47102 25.7108 8.75 25.7108C10.2336 25.7108 10.7913 24.7128 10.8782 24.2019H8.75V22.9986H12.2903V22.9986ZM15.9115 23.116V22.1H14.8177V23.116H13.7292V24.1368H14.8177V25.1528H15.9115V24.1368H17V23.116H15.9115V23.116Z" fill="white"/>
<path d="M13.0086 14.3633H8.38556L7.50665 17H4.70294L9.46661 4.20312H11.91L16.7 17H13.8963L13.0086 14.3633ZM9.09747 12.2275H12.2967L10.6883 7.4375L9.09747 12.2275Z" fill="white"/>
<path d="M88.7097 127.001C88.6739 126.825 88.6484 126.648 88.6484 126.419C88.6484 124.418 90.086 123 92.25 123C94.322 123 96 124.566 96 126.5C96 128.434 94.322 130 92.25 130C91.237 130 90.3929 129.656 89.7381 129.083L90.7562 128.171C91.0324 128.42 91.5184 128.711 92.25 128.711C93.529 128.711 94.5727 127.722 94.5727 126.5C94.5727 125.278 93.529 124.289 92.25 124.289C90.7664 124.289 90.2087 125.287 90.1218 125.798L92.25 125.798L92.25 127.001L88.7097 127.001L88.7097 127.001ZM85.0885 126.884L85.0885 127.9L86.1823 127.9L86.1823 126.884L87.2708 126.884L87.2708 125.863L86.1823 125.863L86.1823 124.847L85.0885 124.847L85.0885 125.863L84 125.863L84 126.884L85.0885 126.884V126.884Z" fill="white"/>
<path d="M87.9914 135.637L92.6144 135.637L93.4933 133L96.2971 133L91.5334 145.797L89.09 145.797L84.3 133L87.1037 133L87.9914 135.637ZM91.9025 137.772L88.7033 137.772L90.3117 142.562L91.9025 137.772Z" fill="white"/>
<path d="M74.0714 80.3929H56.3929V98.0714C56.3929 100.241 54.6336 102 52.4643 102H48.5357C46.3664 102 44.6071 100.241 44.6071 98.0714V80.3929H26.9286C24.7593 80.3929 23 78.6336 23 76.4643V72.5357C23 70.3664 24.7593 68.6071 26.9286 68.6071H44.6071V50.9286C44.6071 48.7593 46.3664 47 48.5357 47H52.4643C54.6336 47 56.3929 48.7593 56.3929 50.9286V68.6071H74.0714C76.2407 68.6071 78 70.3664 78 72.5357V76.4643C78 78.6336 76.2407 80.3929 74.0714 80.3929Z" fill="white"/>
</svg>
