<svg width="100" height="150" viewBox="0 0 100 150" fill="none" xmlns="http://www.w3.org/2000/svg">
<rect width="100" height="150" rx="6" fill="#C62C19"/>
<path d="M12.2903 22.9986C12.3261 23.1753 12.3516 23.352 12.3516 23.5812C12.3516 25.5819 10.914 27 8.75 27C6.67805 27 5 25.4338 5 23.5C5 21.5662 6.67805 20 8.75 20C9.76297 20 10.6071 20.3438 11.2619 20.9168L10.2438 21.8288C9.96758 21.5805 9.48158 21.2892 8.75 21.2892C7.47102 21.2892 6.42734 22.2776 6.42734 23.5C6.42734 24.7224 7.47102 25.7108 8.75 25.7108C10.2336 25.7108 10.7913 24.7128 10.8782 24.2019H8.75V22.9986H12.2903V22.9986ZM15.9115 23.116V22.1H14.8177V23.116H13.7292V24.1368H14.8177V25.1528H15.9115V24.1368H17V23.116H15.9115V23.116Z" fill="white"/>
<path d="M14.283 17H5.51154V15.2598L9.65118 10.8477C10.2195 10.2266 10.6385 9.68457 10.908 9.22168C11.1834 8.75879 11.3211 8.31934 11.3211 7.90332C11.3211 7.33496 11.1776 6.88965 10.8904 6.56738C10.6033 6.23926 10.1932 6.0752 9.65997 6.0752C9.08575 6.0752 8.63165 6.27441 8.29767 6.67285C7.96954 7.06543 7.80548 7.58398 7.80548 8.22852H5.25665C5.25665 7.44922 5.44122 6.7373 5.81036 6.09277C6.18536 5.44824 6.71271 4.94434 7.3924 4.58105C8.07208 4.21191 8.84259 4.02734 9.70392 4.02734C11.0223 4.02734 12.0447 4.34375 12.7713 4.97656C13.5037 5.60938 13.8699 6.50293 13.8699 7.65723C13.8699 8.29004 13.7059 8.93457 13.3777 9.59082C13.0496 10.2471 12.4871 11.0117 11.6902 11.8848L8.78107 14.9521H14.283V17Z" fill="white"/>
<path d="M88.7097 127.001C88.6739 126.825 88.6484 126.648 88.6484 126.419C88.6484 124.418 90.086 123 92.25 123C94.322 123 96 124.566 96 126.5C96 128.434 94.322 130 92.25 130C91.237 130 90.3929 129.656 89.7381 129.083L90.7562 128.171C91.0324 128.42 91.5184 128.711 92.25 128.711C93.529 128.711 94.5727 127.722 94.5727 126.5C94.5727 125.278 93.529 124.289 92.25 124.289C90.7664 124.289 90.2087 125.287 90.1218 125.798L92.25 125.798L92.25 127.001L88.7097 127.001L88.7097 127.001ZM85.0885 126.884L85.0885 127.9L86.1823 127.9L86.1823 126.884L87.2708 126.884L87.2708 125.863L86.1823 125.863L86.1823 124.847L85.0885 124.847L85.0885 125.863L84 125.863L84 126.884L85.0885 126.884V126.884Z" fill="white"/>
<path d="M86.717 133L95.4885 133L95.4885 134.74L91.3488 139.152C90.7805 139.773 90.3615 140.315 90.092 140.778C89.8166 141.241 89.6789 141.681 89.6789 142.097C89.6789 142.665 89.8224 143.11 90.1096 143.433C90.3967 143.761 90.8068 143.925 91.34 143.925C91.9142 143.925 92.3683 143.726 92.7023 143.327C93.0305 142.935 93.1945 142.416 93.1945 141.771L95.7433 141.771C95.7433 142.551 95.5588 143.263 95.1896 143.907C94.8146 144.552 94.2873 145.056 93.6076 145.419C92.9279 145.788 92.1574 145.973 91.2961 145.973C89.9777 145.973 88.9553 145.656 88.2287 145.023C87.4963 144.391 87.1301 143.497 87.1301 142.343C87.1301 141.71 87.2941 141.065 87.6223 140.409C87.9504 139.753 88.5129 138.988 89.3098 138.115L92.2189 135.048L86.717 135.048L86.717 133Z" fill="white"/>
<path d="M57.6429 44.1429H51.5357V50.5714C51.5357 51.3603 50.928 52 50.1786 52H48.8214C48.072 52 47.4643 51.3603 47.4643 50.5714V44.1429H41.3571C40.6077 44.1429 40 43.5031 40 42.7143V41.2857C40 40.4969 40.6077 39.8571 41.3571 39.8571H47.4643V33.4286C47.4643 32.6397 48.072 32 48.8214 32H50.1786C50.928 32 51.5357 32.6397 51.5357 33.4286V39.8571H57.6429C58.3923 39.8571 59 40.4969 59 41.2857V42.7143C59 43.5031 58.3923 44.1429 57.6429 44.1429Z" fill="white"/>
<path d="M57.6429 109.143H51.5357V115.571C51.5357 116.36 50.928 117 50.1786 117H48.8214C48.072 117 47.4643 116.36 47.4643 115.571V109.143H41.3571C40.6077 109.143 40 108.503 40 107.714V106.286C40 105.497 40.6077 104.857 41.3571 104.857H47.4643V98.4286C47.4643 97.6397 48.072 97 48.8214 97H50.1786C50.928 97 51.5357 97.6397 51.5357 98.4286V104.857H57.6429C58.3923 104.857 59 105.497 59 106.286V107.714C59 108.503 58.3923 109.143 57.6429 109.143Z" fill="white"/>
</svg>
