<svg width="100" height="150" viewBox="0 0 100 150" fill="none" xmlns="http://www.w3.org/2000/svg">
<rect width="100" height="150" rx="6" fill="#C62C19"/>
<path d="M12.2903 22.9986C12.3261 23.1753 12.3516 23.352 12.3516 23.5812C12.3516 25.5819 10.914 27 8.75 27C6.67805 27 5 25.4338 5 23.5C5 21.5662 6.67805 20 8.75 20C9.76297 20 10.6071 20.3438 11.2619 20.9168L10.2438 21.8288C9.96758 21.5805 9.48158 21.2892 8.75 21.2892C7.47102 21.2892 6.42734 22.2776 6.42734 23.5C6.42734 24.7224 7.47102 25.7108 8.75 25.7108C10.2336 25.7108 10.7913 24.7128 10.8782 24.2019H8.75V22.9986H12.2903V22.9986ZM15.9115 23.116V22.1H14.8177V23.116H13.7292V24.1368H14.8177V25.1528H15.9115V24.1368H17V23.116H15.9115V23.116Z" fill="white"/>
<path d="M8.09552 9.47656H9.44904C10.0936 9.47656 10.5711 9.31543 10.8817 8.99316C11.1922 8.6709 11.3475 8.24316 11.3475 7.70996C11.3475 7.19434 11.1922 6.79297 10.8817 6.50586C10.577 6.21875 10.1551 6.0752 9.61603 6.0752C9.1297 6.0752 8.72247 6.20996 8.39435 6.47949C8.06622 6.74316 7.90216 7.08887 7.90216 7.5166H5.36212C5.36212 6.84863 5.54083 6.25098 5.89825 5.72363C6.26154 5.19043 6.76544 4.77441 7.40997 4.47559C8.06036 4.17676 8.77521 4.02734 9.5545 4.02734C10.908 4.02734 11.9686 4.35254 12.7361 5.00293C13.5037 5.64746 13.8875 6.53809 13.8875 7.6748C13.8875 8.26074 13.7088 8.7998 13.3514 9.29199C12.994 9.78418 12.5252 10.1621 11.9451 10.4258C12.6658 10.6836 13.202 11.0703 13.5535 11.5859C13.9109 12.1016 14.0897 12.7109 14.0897 13.4141C14.0897 14.5508 13.6736 15.4619 12.8416 16.1475C12.0154 16.833 10.9197 17.1758 9.5545 17.1758C8.27716 17.1758 7.23126 16.8389 6.41681 16.165C5.60822 15.4912 5.20392 14.6006 5.20392 13.4932H7.74396C7.74396 13.9736 7.92267 14.3662 8.28009 14.6709C8.64337 14.9756 9.08868 15.1279 9.61603 15.1279C10.2195 15.1279 10.6912 14.9697 11.0311 14.6533C11.3768 14.3311 11.5496 13.9062 11.5496 13.3789C11.5496 12.1016 10.8465 11.4629 9.44025 11.4629H8.09552V9.47656Z" fill="white"/>
<path d="M88.7097 127.001C88.6739 126.825 88.6484 126.648 88.6484 126.419C88.6484 124.418 90.086 123 92.25 123C94.322 123 96 124.566 96 126.5C96 128.434 94.322 130 92.25 130C91.237 130 90.3929 129.656 89.7381 129.083L90.7562 128.171C91.0324 128.42 91.5184 128.711 92.25 128.711C93.529 128.711 94.5727 127.722 94.5727 126.5C94.5727 125.278 93.529 124.289 92.25 124.289C90.7664 124.289 90.2087 125.287 90.1218 125.798L92.25 125.798L92.25 127.001L88.7097 127.001L88.7097 127.001ZM85.0885 126.884L85.0885 127.9L86.1823 127.9L86.1823 126.884L87.2708 126.884L87.2708 125.863L86.1823 125.863L86.1823 124.847L85.0885 124.847L85.0885 125.863L84 125.863L84 126.884L85.0885 126.884V126.884Z" fill="white"/>
<path d="M92.9045 140.523L91.551 140.523C90.9064 140.523 90.4289 140.685 90.1183 141.007C89.8078 141.329 89.6525 141.757 89.6525 142.29C89.6525 142.806 89.8078 143.207 90.1183 143.494C90.423 143.781 90.8449 143.925 91.384 143.925C91.8703 143.925 92.2775 143.79 92.6057 143.521C92.9338 143.257 93.0978 142.911 93.0978 142.483L95.6379 142.483C95.6379 143.151 95.4592 143.749 95.1017 144.276C94.7385 144.81 94.2346 145.226 93.59 145.524C92.9396 145.823 92.2248 145.973 91.4455 145.973C90.092 145.973 89.0314 145.647 88.2639 144.997C87.4963 144.353 87.1125 143.462 87.1125 142.325C87.1125 141.739 87.2912 141.2 87.6486 140.708C88.006 140.216 88.4748 139.838 89.0549 139.574C88.3342 139.316 87.798 138.93 87.4465 138.414C87.0891 137.898 86.9103 137.289 86.9103 136.586C86.9103 135.449 87.3264 134.538 88.1584 133.853C88.9846 133.167 90.0803 132.824 91.4455 132.824C92.7228 132.824 93.7687 133.161 94.5832 133.835C95.3918 134.509 95.7961 135.399 95.7961 136.507L93.256 136.507C93.256 136.026 93.0773 135.634 92.7199 135.329C92.3566 135.024 91.9113 134.872 91.384 134.872C90.7805 134.872 90.3088 135.03 89.9689 135.347C89.6232 135.669 89.4504 136.094 89.4504 136.621C89.4504 137.898 90.1535 138.537 91.5598 138.537L92.9045 138.537L92.9045 140.523Z" fill="white"/>
<path d="M58.6429 45.1429H52.5357V51.5714C52.5357 52.3603 51.928 53 51.1786 53H49.8214C49.072 53 48.4643 52.3603 48.4643 51.5714V45.1429H42.3571C41.6077 45.1429 41 44.5031 41 43.7143V42.2857C41 41.4969 41.6077 40.8571 42.3571 40.8571H48.4643V34.4286C48.4643 33.6397 49.072 33 49.8214 33H51.1786C51.928 33 52.5357 33.6397 52.5357 34.4286V40.8571H58.6429C59.3923 40.8571 60 41.4969 60 42.2857V43.7143C60 44.5031 59.3923 45.1429 58.6429 45.1429Z" fill="white"/>
<path d="M58.6429 77.1429H52.5357V83.5714C52.5357 84.3603 51.928 85 51.1786 85H49.8214C49.072 85 48.4643 84.3603 48.4643 83.5714V77.1429H42.3571C41.6077 77.1429 41 76.5031 41 75.7143V74.2857C41 73.4969 41.6077 72.8571 42.3571 72.8571H48.4643V66.4286C48.4643 65.6397 49.072 65 49.8214 65H51.1786C51.928 65 52.5357 65.6397 52.5357 66.4286V72.8571H58.6429C59.3923 72.8571 60 73.4969 60 74.2857V75.7143C60 76.5031 59.3923 77.1429 58.6429 77.1429Z" fill="white"/>
<path d="M58.6429 110.143H52.5357V116.571C52.5357 117.36 51.928 118 51.1786 118H49.8214C49.072 118 48.4643 117.36 48.4643 116.571V110.143H42.3571C41.6077 110.143 41 109.503 41 108.714V107.286C41 106.497 41.6077 105.857 42.3571 105.857H48.4643V99.4286C48.4643 98.6397 49.072 98 49.8214 98H51.1786C51.928 98 52.5357 98.6397 52.5357 99.4286V105.857H58.6429C59.3923 105.857 60 106.497 60 107.286V108.714C60 109.503 59.3923 110.143 58.6429 110.143Z" fill="white"/>
</svg>
