<svg width="100" height="150" viewBox="0 0 100 150" fill="none" xmlns="http://www.w3.org/2000/svg">
<rect width="100" height="150" rx="6" fill="#C62C19"/>
<path d="M12.2903 22.9986C12.3261 23.1753 12.3516 23.352 12.3516 23.5812C12.3516 25.5819 10.914 27 8.75 27C6.67805 27 5 25.4338 5 23.5C5 21.5662 6.67805 20 8.75 20C9.76297 20 10.6071 20.3438 11.2619 20.9168L10.2438 21.8288C9.96758 21.5805 9.48158 21.2892 8.75 21.2892C7.47102 21.2892 6.42734 22.2776 6.42734 23.5C6.42734 24.7224 7.47102 25.7108 8.75 25.7108C10.2336 25.7108 10.7913 24.7128 10.8782 24.2019H8.75V22.9986H12.2903V22.9986ZM15.9115 23.116V22.1H14.8177V23.116H13.7292V24.1368H14.8177V25.1528H15.9115V24.1368H17V23.116H15.9115V23.116Z" fill="white"/>
<path d="M13.0262 12.1836H14.4764V14.2314H13.0262V17H10.4861V14.2314H5.23907L5.12482 12.6318L10.4598 4.20312H13.0262V12.1836ZM7.65607 12.1836H10.4861V7.66602L10.3192 7.95605L7.65607 12.1836Z" fill="white"/>
<path d="M88.7097 127.001C88.6739 126.825 88.6484 126.648 88.6484 126.419C88.6484 124.418 90.086 123 92.25 123C94.322 123 96 124.566 96 126.5C96 128.434 94.322 130 92.25 130C91.237 130 90.3929 129.656 89.7381 129.083L90.7562 128.171C91.0324 128.42 91.5184 128.711 92.25 128.711C93.529 128.711 94.5727 127.722 94.5727 126.5C94.5727 125.278 93.529 124.289 92.25 124.289C90.7664 124.289 90.2087 125.287 90.1218 125.798L92.25 125.798L92.25 127.001L88.7097 127.001L88.7097 127.001ZM85.0885 126.884L85.0885 127.9L86.1823 127.9L86.1823 126.884L87.2708 126.884L87.2708 125.863L86.1823 125.863L86.1823 124.847L85.0885 124.847L85.0885 125.863L84 125.863L84 126.884L85.0885 126.884V126.884Z" fill="white"/>
<path d="M87.9738 137.816L86.5236 137.816L86.5236 135.769L87.9738 135.769L87.9738 133L90.5139 133L90.5139 135.769L95.7609 135.769L95.8752 137.368L90.5402 145.797L87.9738 145.797L87.9738 137.816ZM93.3439 137.816L90.5139 137.816L90.5139 142.334L90.6808 142.044L93.3439 137.816Z" fill="white"/>
<path d="M38.6429 44.1429H32.5357V50.5714C32.5357 51.3603 31.928 52 31.1786 52H29.8214C29.072 52 28.4643 51.3603 28.4643 50.5714V44.1429H22.3571C21.6077 44.1429 21 43.5031 21 42.7143V41.2857C21 40.4969 21.6077 39.8571 22.3571 39.8571H28.4643V33.4286C28.4643 32.6397 29.072 32 29.8214 32H31.1786C31.928 32 32.5357 32.6397 32.5357 33.4286V39.8571H38.6429C39.3923 39.8571 40 40.4969 40 41.2857V42.7143C40 43.5031 39.3923 44.1429 38.6429 44.1429Z" fill="white"/>
<path d="M38.6429 109.143H32.5357V115.571C32.5357 116.36 31.928 117 31.1786 117H29.8214C29.072 117 28.4643 116.36 28.4643 115.571V109.143H22.3571C21.6077 109.143 21 108.503 21 107.714V106.286C21 105.497 21.6077 104.857 22.3571 104.857H28.4643V98.4286C28.4643 97.6397 29.072 97 29.8214 97H31.1786C31.928 97 32.5357 97.6397 32.5357 98.4286V104.857H38.6429C39.3923 104.857 40 105.497 40 106.286V107.714C40 108.503 39.3923 109.143 38.6429 109.143Z" fill="white"/>
<path d="M79.6429 44.1429H73.5357V50.5714C73.5357 51.3603 72.928 52 72.1786 52H70.8214C70.072 52 69.4643 51.3603 69.4643 50.5714V44.1429H63.3571C62.6077 44.1429 62 43.5031 62 42.7143V41.2857C62 40.4969 62.6077 39.8571 63.3571 39.8571H69.4643V33.4286C69.4643 32.6397 70.072 32 70.8214 32H72.1786C72.928 32 73.5357 32.6397 73.5357 33.4286V39.8571H79.6429C80.3923 39.8571 81 40.4969 81 41.2857V42.7143C81 43.5031 80.3923 44.1429 79.6429 44.1429Z" fill="white"/>
<path d="M79.6429 109.143H73.5357V115.571C73.5357 116.36 72.928 117 72.1786 117H70.8214C70.072 117 69.4643 116.36 69.4643 115.571V109.143H63.3571C62.6077 109.143 62 108.503 62 107.714V106.286C62 105.497 62.6077 104.857 63.3571 104.857H69.4643V98.4286C69.4643 97.6397 70.072 97 70.8214 97H72.1786C72.928 97 73.5357 97.6397 73.5357 98.4286V104.857H79.6429C80.3923 104.857 81 105.497 81 106.286V107.714C81 108.503 80.3923 109.143 79.6429 109.143Z" fill="white"/>
</svg>
