<svg width="100" height="150" viewBox="0 0 100 150" fill="none" xmlns="http://www.w3.org/2000/svg">
<rect width="100" height="150" rx="6" fill="#C62C19"/>
<path d="M12.2903 22.9986C12.3261 23.1753 12.3516 23.352 12.3516 23.5812C12.3516 25.5819 10.914 27 8.75 27C6.67805 27 5 25.4338 5 23.5C5 21.5662 6.67805 20 8.75 20C9.76297 20 10.6071 20.3438 11.2619 20.9168L10.2438 21.8288C9.96758 21.5805 9.48158 21.2892 8.75 21.2892C7.47102 21.2892 6.42734 22.2776 6.42734 23.5C6.42734 24.7224 7.47102 25.7108 8.75 25.7108C10.2336 25.7108 10.7913 24.7128 10.8782 24.2019H8.75V22.9986H12.2903V22.9986ZM15.9115 23.116V22.1H14.8177V23.116H13.7292V24.1368H14.8177V25.1528H15.9115V24.1368H17V23.116H15.9115V23.116Z" fill="white"/>
<path d="M5.88947 10.707L6.62775 4.20312H13.7996V6.32129H8.71075L8.39435 9.07227C8.99786 8.75 9.63947 8.58887 10.3192 8.58887C11.5379 8.58887 12.493 8.9668 13.1844 9.72266C13.8758 10.4785 14.2215 11.5361 14.2215 12.8955C14.2215 13.7217 14.0457 14.4629 13.6942 15.1191C13.3484 15.7695 12.8504 16.2764 12.2 16.6396C11.5496 16.9971 10.782 17.1758 9.89728 17.1758C9.12384 17.1758 8.40607 17.0205 7.74396 16.71C7.08185 16.3936 6.55743 15.9512 6.17072 15.3828C5.78986 14.8145 5.58771 14.167 5.56427 13.4404H8.07794C8.13068 13.9736 8.31525 14.3896 8.63165 14.6885C8.95392 14.9814 9.37286 15.1279 9.88849 15.1279C10.4627 15.1279 10.9051 14.9229 11.2156 14.5127C11.5262 14.0967 11.6815 13.5107 11.6815 12.7549C11.6815 12.0283 11.5027 11.4717 11.1453 11.085C10.7879 10.6982 10.2811 10.5049 9.62482 10.5049C9.0213 10.5049 8.53204 10.6631 8.15704 10.9795L7.91095 11.208L5.88947 10.707Z" fill="white"/>
<path d="M88.7097 127.001C88.6739 126.825 88.6484 126.648 88.6484 126.419C88.6484 124.418 90.086 123 92.25 123C94.322 123 96 124.566 96 126.5C96 128.434 94.322 130 92.25 130C91.237 130 90.3929 129.656 89.7381 129.083L90.7562 128.171C91.0324 128.42 91.5184 128.711 92.25 128.711C93.529 128.711 94.5727 127.722 94.5727 126.5C94.5727 125.278 93.529 124.289 92.25 124.289C90.7664 124.289 90.2087 125.287 90.1218 125.798L92.25 125.798L92.25 127.001L88.7097 127.001L88.7097 127.001ZM85.0885 126.884L85.0885 127.9L86.1823 127.9L86.1823 126.884L87.2708 126.884L87.2708 125.863L86.1823 125.863L86.1823 124.847L85.0885 124.847L85.0885 125.863L84 125.863L84 126.884L85.0885 126.884V126.884Z" fill="white"/>
<path d="M95.1105 139.293L94.3723 145.797L87.2004 145.797L87.2004 143.679L92.2892 143.679L92.6057 140.928C92.0021 141.25 91.3605 141.411 90.6808 141.411C89.4621 141.411 88.507 141.033 87.8156 140.277C87.1242 139.521 86.7785 138.464 86.7785 137.104C86.7785 136.278 86.9543 135.537 87.3058 134.881C87.6516 134.23 88.1496 133.724 88.8 133.36C89.4504 133.003 90.218 132.824 91.1027 132.824C91.8762 132.824 92.5939 132.979 93.256 133.29C93.9182 133.606 94.4426 134.049 94.8293 134.617C95.2101 135.186 95.4123 135.833 95.4357 136.56L92.9221 136.56C92.8693 136.026 92.6848 135.61 92.3683 135.312C92.0461 135.019 91.6271 134.872 91.1115 134.872C90.5373 134.872 90.0949 135.077 89.7844 135.487C89.4738 135.903 89.3185 136.489 89.3185 137.245C89.3185 137.972 89.4973 138.528 89.8547 138.915C90.2121 139.302 90.7189 139.495 91.3752 139.495C91.9787 139.495 92.468 139.337 92.843 139.021L93.0891 138.792L95.1105 139.293Z" fill="white"/>
<path d="M38.6429 44.1429H32.5357V50.5714C32.5357 51.3603 31.928 52 31.1786 52H29.8214C29.072 52 28.4643 51.3603 28.4643 50.5714V44.1429H22.3571C21.6077 44.1429 21 43.5031 21 42.7143V41.2857C21 40.4969 21.6077 39.8571 22.3571 39.8571H28.4643V33.4286C28.4643 32.6397 29.072 32 29.8214 32H31.1786C31.928 32 32.5357 32.6397 32.5357 33.4286V39.8571H38.6429C39.3923 39.8571 40 40.4969 40 41.2857V42.7143C40 43.5031 39.3923 44.1429 38.6429 44.1429Z" fill="white"/>
<path d="M38.6429 109.143H32.5357V115.571C32.5357 116.36 31.928 117 31.1786 117H29.8214C29.072 117 28.4643 116.36 28.4643 115.571V109.143H22.3571C21.6077 109.143 21 108.503 21 107.714V106.286C21 105.497 21.6077 104.857 22.3571 104.857H28.4643V98.4286C28.4643 97.6397 29.072 97 29.8214 97H31.1786C31.928 97 32.5357 97.6397 32.5357 98.4286V104.857H38.6429C39.3923 104.857 40 105.497 40 106.286V107.714C40 108.503 39.3923 109.143 38.6429 109.143Z" fill="white"/>
<path d="M79.6429 44.1429H73.5357V50.5714C73.5357 51.3603 72.928 52 72.1786 52H70.8214C70.072 52 69.4643 51.3603 69.4643 50.5714V44.1429H63.3571C62.6077 44.1429 62 43.5031 62 42.7143V41.2857C62 40.4969 62.6077 39.8571 63.3571 39.8571H69.4643V33.4286C69.4643 32.6397 70.072 32 70.8214 32H72.1786C72.928 32 73.5357 32.6397 73.5357 33.4286V39.8571H79.6429C80.3923 39.8571 81 40.4969 81 41.2857V42.7143C81 43.5031 80.3923 44.1429 79.6429 44.1429Z" fill="white"/>
<path d="M57.6429 76.1429H51.5357V82.5714C51.5357 83.3603 50.928 84 50.1786 84H48.8214C48.072 84 47.4643 83.3603 47.4643 82.5714V76.1429H41.3571C40.6077 76.1429 40 75.5031 40 74.7143V73.2857C40 72.4969 40.6077 71.8571 41.3571 71.8571H47.4643V65.4286C47.4643 64.6397 48.072 64 48.8214 64H50.1786C50.928 64 51.5357 64.6397 51.5357 65.4286V71.8571H57.6429C58.3923 71.8571 59 72.4969 59 73.2857V74.7143C59 75.5031 58.3923 76.1429 57.6429 76.1429Z" fill="white"/>
<path d="M79.6429 109.143H73.5357V115.571C73.5357 116.36 72.928 117 72.1786 117H70.8214C70.072 117 69.4643 116.36 69.4643 115.571V109.143H63.3571C62.6077 109.143 62 108.503 62 107.714V106.286C62 105.497 62.6077 104.857 63.3571 104.857H69.4643V98.4286C69.4643 97.6397 70.072 97 70.8214 97H72.1786C72.928 97 73.5357 97.6397 73.5357 98.4286V104.857H79.6429C80.3923 104.857 81 105.497 81 106.286V107.714C81 108.503 80.3923 109.143 79.6429 109.143Z" fill="white"/>
</svg>
