<svg width="100" height="150" viewBox="0 0 100 150" fill="none" xmlns="http://www.w3.org/2000/svg">
<rect width="100" height="150" rx="6" fill="#C62C19"/>
<path d="M12.2903 22.9986C12.3261 23.1753 12.3516 23.352 12.3516 23.5812C12.3516 25.5819 10.914 27 8.75 27C6.67805 27 5 25.4338 5 23.5C5 21.5662 6.67805 20 8.75 20C9.76297 20 10.6071 20.3438 11.2619 20.9168L10.2438 21.8288C9.96758 21.5805 9.48158 21.2892 8.75 21.2892C7.47102 21.2892 6.42734 22.2776 6.42734 23.5C6.42734 24.7224 7.47102 25.7108 8.75 25.7108C10.2336 25.7108 10.7913 24.7128 10.8782 24.2019H8.75V22.9986H12.2903V22.9986ZM15.9115 23.116V22.1H14.8177V23.116H13.7292V24.1368H14.8177V25.1528H15.9115V24.1368H17V23.116H15.9115V23.116Z" fill="white"/>
<path d="M14.2127 5.62695L9.26447 17H6.5838L11.5408 6.25977H5.17755V4.20312H14.2127V5.62695Z" fill="white"/>
<path d="M88.7097 127.001C88.6739 126.825 88.6484 126.648 88.6484 126.419C88.6484 124.418 90.086 123 92.25 123C94.322 123 96 124.566 96 126.5C96 128.434 94.322 130 92.25 130C91.237 130 90.3929 129.656 89.7381 129.083L90.7562 128.171C91.0324 128.42 91.5184 128.711 92.25 128.711C93.529 128.711 94.5727 127.722 94.5727 126.5C94.5727 125.278 93.529 124.289 92.25 124.289C90.7664 124.289 90.2087 125.287 90.1218 125.798L92.25 125.798L92.25 127.001L88.7097 127.001L88.7097 127.001ZM85.0885 126.884L85.0885 127.9L86.1823 127.9L86.1823 126.884L87.2708 126.884L87.2708 125.863L86.1823 125.863L86.1823 124.847L85.0885 124.847L85.0885 125.863L84 125.863L84 126.884L85.0885 126.884V126.884Z" fill="white"/>
<path d="M86.7873 144.373L91.7355 133L94.4162 133L89.4592 143.74L95.8224 143.74L95.8224 145.797L86.7873 145.797L86.7873 144.373Z" fill="white"/>
<path d="M78.0714 49.8929H73.8929V54.0714C73.8929 54.5842 73.477 55 72.9643 55H72.0357C71.523 55 71.1071 54.5842 71.1071 54.0714V49.8929H66.9286C66.4158 49.8929 66 49.477 66 48.9643V48.0357C66 47.523 66.4158 47.1071 66.9286 47.1071H71.1071V42.9286C71.1071 42.4158 71.523 42 72.0357 42H72.9643C73.477 42 73.8929 42.4158 73.8929 42.9286V47.1071H78.0714C78.5842 47.1071 79 47.523 79 48.0357V48.9643C79 49.477 78.5842 49.8929 78.0714 49.8929Z" fill="white"/>
<path d="M78.0714 76.5H73.8929V81C73.8929 81.5522 73.477 82 72.9643 82H72.0357C71.523 82 71.1071 81.5522 71.1071 81V76.5H66.9286C66.4158 76.5 66 76.0522 66 75.5V74.5C66 73.9478 66.4158 73.5 66.9286 73.5H71.1071V69C71.1071 68.4478 71.523 68 72.0357 68H72.9643C73.477 68 73.8929 68.4478 73.8929 69V73.5H78.0714C78.5842 73.5 79 73.9478 79 74.5V75.5C79 76.0522 78.5842 76.5 78.0714 76.5Z" fill="white"/>
<path d="M78.0714 103.5H73.8929V108C73.8929 108.552 73.477 109 72.9643 109H72.0357C71.523 109 71.1071 108.552 71.1071 108V103.5H66.9286C66.4158 103.5 66 103.052 66 102.5V101.5C66 100.948 66.4158 100.5 66.9286 100.5H71.1071V96C71.1071 95.4478 71.523 95 72.0357 95H72.9643C73.477 95 73.8929 95.4478 73.8929 96V100.5H78.0714C78.5842 100.5 79 100.948 79 101.5V102.5C79 103.052 78.5842 103.5 78.0714 103.5Z" fill="white"/>
<path d="M33.0714 49.8929H28.8929V54.0714C28.8929 54.5842 28.477 55 27.9643 55H27.0357C26.523 55 26.1071 54.5842 26.1071 54.0714V49.8929H21.9286C21.4158 49.8929 21 49.477 21 48.9643V48.0357C21 47.523 21.4158 47.1071 21.9286 47.1071H26.1071V42.9286C26.1071 42.4158 26.523 42 27.0357 42H27.9643C28.477 42 28.8929 42.4158 28.8929 42.9286V47.1071H33.0714C33.5842 47.1071 34 47.523 34 48.0357V48.9643C34 49.477 33.5842 49.8929 33.0714 49.8929Z" fill="white"/>
<path d="M33.0714 76.5H28.8929V81C28.8929 81.5522 28.477 82 27.9643 82H27.0357C26.523 82 26.1071 81.5522 26.1071 81V76.5H21.9286C21.4158 76.5 21 76.0522 21 75.5V74.5C21 73.9478 21.4158 73.5 21.9286 73.5H26.1071V69C26.1071 68.4478 26.523 68 27.0357 68H27.9643C28.477 68 28.8929 68.4478 28.8929 69V73.5H33.0714C33.5842 73.5 34 73.9478 34 74.5V75.5C34 76.0522 33.5842 76.5 33.0714 76.5Z" fill="white"/>
<path d="M33.0714 102.893H28.8929V107.071C28.8929 107.584 28.477 108 27.9643 108H27.0357C26.523 108 26.1071 107.584 26.1071 107.071V102.893H21.9286C21.4158 102.893 21 102.477 21 101.964V101.036C21 100.523 21.4158 100.107 21.9286 100.107H26.1071V95.9286C26.1071 95.4158 26.523 95 27.0357 95H27.9643C28.477 95 28.8929 95.4158 28.8929 95.9286V100.107H33.0714C33.5842 100.107 34 100.523 34 101.036V101.964C34 102.477 33.5842 102.893 33.0714 102.893Z" fill="white"/>
<path d="M56.0714 61.8929H51.8929V66.0714C51.8929 66.5842 51.477 67 50.9643 67H50.0357C49.523 67 49.1071 66.5842 49.1071 66.0714V61.8929H44.9286C44.4158 61.8929 44 61.477 44 60.9643V60.0357C44 59.523 44.4158 59.1071 44.9286 59.1071H49.1071V54.9286C49.1071 54.4158 49.523 54 50.0357 54H50.9643C51.477 54 51.8929 54.4158 51.8929 54.9286V59.1071H56.0714C56.5842 59.1071 57 59.523 57 60.0357V60.9643C57 61.477 56.5842 61.8929 56.0714 61.8929Z" fill="white"/>
</svg>
