<svg width="100" height="150" viewBox="0 0 100 150" fill="none" xmlns="http://www.w3.org/2000/svg">
<rect width="100" height="150" rx="6" fill="#C62C19"/>
<path d="M12.2903 22.9986C12.3261 23.1753 12.3516 23.352 12.3516 23.5812C12.3516 25.5819 10.914 27 8.75 27C6.67805 27 5 25.4338 5 23.5C5 21.5662 6.67805 20 8.75 20C9.76297 20 10.6071 20.3438 11.2619 20.9168L10.2438 21.8288C9.96758 21.5805 9.48158 21.2892 8.75 21.2892C7.47102 21.2892 6.42734 22.2776 6.42734 23.5C6.42734 24.7224 7.47102 25.7108 8.75 25.7108C10.2336 25.7108 10.7913 24.7128 10.8782 24.2019H8.75V22.9986H12.2903V22.9986ZM15.9115 23.116V22.1H14.8177V23.116H13.7292V24.1368H14.8177V25.1528H15.9115V24.1368H17V23.116H15.9115V23.116Z" fill="white"/>
<path d="M11.4529 11.8848C10.7908 12.5352 10.0174 12.8604 9.13263 12.8604C8.00177 12.8604 7.0965 12.4736 6.41681 11.7002C5.73712 10.9209 5.39728 9.87207 5.39728 8.55371C5.39728 7.71582 5.57892 6.94824 5.9422 6.25098C6.31134 5.54785 6.82404 5.00293 7.48029 4.61621C8.13654 4.22363 8.87482 4.02734 9.69513 4.02734C10.5389 4.02734 11.2889 4.23828 11.9451 4.66016C12.6014 5.08203 13.1111 5.68848 13.4744 6.47949C13.8377 7.27051 14.0223 8.17578 14.0281 9.19531V10.1357C14.0281 12.2686 13.4979 13.9443 12.4373 15.1631C11.3768 16.3818 9.87384 17.0322 7.92853 17.1143L7.3045 17.123V15.0049L7.867 14.9961C10.076 14.8965 11.2713 13.8594 11.4529 11.8848ZM9.75665 10.918C10.1668 10.918 10.5184 10.8125 10.8113 10.6016C11.1102 10.3906 11.3358 10.1357 11.4881 9.83691V8.79102C11.4881 7.92969 11.324 7.26172 10.9959 6.78711C10.6678 6.3125 10.2283 6.0752 9.67755 6.0752C9.16779 6.0752 8.74884 6.30957 8.42072 6.77832C8.09259 7.24121 7.92853 7.82422 7.92853 8.52734C7.92853 9.22461 8.08673 9.79883 8.40314 10.25C8.7254 10.6953 9.17657 10.918 9.75665 10.918Z" fill="white"/>
<path d="M88.7097 127.001C88.6739 126.825 88.6484 126.648 88.6484 126.419C88.6484 124.418 90.086 123 92.25 123C94.322 123 96 124.566 96 126.5C96 128.434 94.322 130 92.25 130C91.237 130 90.3929 129.656 89.7381 129.083L90.7562 128.171C91.0324 128.42 91.5184 128.711 92.25 128.711C93.529 128.711 94.5727 127.722 94.5727 126.5C94.5727 125.278 93.529 124.289 92.25 124.289C90.7664 124.289 90.2087 125.287 90.1218 125.798L92.25 125.798L92.25 127.001L88.7097 127.001L88.7097 127.001ZM85.0885 126.884L85.0885 127.9L86.1823 127.9L86.1823 126.884L87.2708 126.884L87.2708 125.863L86.1823 125.863L86.1823 124.847L85.0885 124.847L85.0885 125.863L84 125.863L84 126.884L85.0885 126.884V126.884Z" fill="white"/>
<path d="M89.5471 138.115C90.2092 137.465 90.9826 137.14 91.8674 137.14C92.9982 137.14 93.9035 137.526 94.5832 138.3C95.2629 139.079 95.6027 140.128 95.6027 141.446C95.6027 142.284 95.4211 143.052 95.0578 143.749C94.6887 144.452 94.176 144.997 93.5197 145.384C92.8635 145.776 92.1252 145.973 91.3049 145.973C90.4611 145.973 89.7111 145.762 89.0549 145.34C88.3986 144.918 87.8889 144.312 87.5256 143.521C87.1623 142.729 86.9777 141.824 86.9719 140.805L86.9719 139.864C86.9719 137.731 87.5021 136.056 88.5627 134.837C89.6232 133.618 91.1262 132.968 93.0715 132.886L93.6955 132.877L93.6955 134.995L93.133 135.004C90.924 135.104 89.7287 136.141 89.5471 138.115ZM91.2433 139.082C90.8332 139.082 90.4816 139.187 90.1887 139.398C89.8898 139.609 89.6642 139.864 89.5119 140.163L89.5119 141.209C89.5119 142.07 89.676 142.738 90.0041 143.213C90.3322 143.687 90.7717 143.925 91.3224 143.925C91.8322 143.925 92.2512 143.69 92.5793 143.222C92.9074 142.759 93.0715 142.176 93.0715 141.473C93.0715 140.775 92.9133 140.201 92.5969 139.75C92.2746 139.305 91.8234 139.082 91.2433 139.082Z" fill="white"/>
<path d="M79.0714 62.8929H74.8929V67.0714C74.8929 67.5842 74.477 68 73.9643 68H73.0357C72.523 68 72.1071 67.5842 72.1071 67.0714V62.8929H67.9286C67.4158 62.8929 67 62.477 67 61.9643V61.0357C67 60.523 67.4158 60.1071 67.9286 60.1071H72.1071V55.9286C72.1071 55.4158 72.523 55 73.0357 55H73.9643C74.477 55 74.8929 55.4158 74.8929 55.9286V60.1071H79.0714C79.5842 60.1071 80 60.523 80 61.0357V61.9643C80 62.477 79.5842 62.8929 79.0714 62.8929Z" fill="white"/>
<path d="M79.0714 35.8929H74.8929V40.0714C74.8929 40.5842 74.477 41 73.9643 41H73.0357C72.523 41 72.1071 40.5842 72.1071 40.0714V35.8929H67.9286C67.4158 35.8929 67 35.477 67 34.9643V34.0357C67 33.523 67.4158 33.1071 67.9286 33.1071H72.1071V28.9286C72.1071 28.4158 72.523 28 73.0357 28H73.9643C74.477 28 74.8929 28.4158 74.8929 28.9286V33.1071H79.0714C79.5842 33.1071 80 33.523 80 34.0357V34.9643C80 35.477 79.5842 35.8929 79.0714 35.8929Z" fill="white"/>
<path d="M56.0714 75.8929H51.8929V80.0714C51.8929 80.5842 51.477 81 50.9643 81H50.0357C49.523 81 49.1071 80.5842 49.1071 80.0714V75.8929H44.9286C44.4158 75.8929 44 75.477 44 74.9643V74.0357C44 73.523 44.4158 73.1071 44.9286 73.1071H49.1071V68.9286C49.1071 68.4158 49.523 68 50.0357 68H50.9643C51.477 68 51.8929 68.4158 51.8929 68.9286V73.1071H56.0714C56.5842 73.1071 57 73.523 57 74.0357V74.9643C57 75.477 56.5842 75.8929 56.0714 75.8929Z" fill="white"/>
<path d="M79.0714 89.5H74.8929V94C74.8929 94.5522 74.477 95 73.9643 95H73.0357C72.523 95 72.1071 94.5522 72.1071 94V89.5H67.9286C67.4158 89.5 67 89.0522 67 88.5V87.5C67 86.9478 67.4158 86.5 67.9286 86.5H72.1071V82C72.1071 81.4478 72.523 81 73.0357 81H73.9643C74.477 81 74.8929 81.4478 74.8929 82V86.5H79.0714C79.5842 86.5 80 86.9478 80 87.5V88.5C80 89.0522 79.5842 89.5 79.0714 89.5Z" fill="white"/>
<path d="M79.0714 115.893H74.8929V120.071C74.8929 120.584 74.477 121 73.9643 121H73.0357C72.523 121 72.1071 120.584 72.1071 120.071V115.893H67.9286C67.4158 115.893 67 115.477 67 114.964V114.036C67 113.523 67.4158 113.107 67.9286 113.107H72.1071V108.929C72.1071 108.416 72.523 108 73.0357 108H73.9643C74.477 108 74.8929 108.416 74.8929 108.929V113.107H79.0714C79.5842 113.107 80 113.523 80 114.036V114.964C80 115.477 79.5842 115.893 79.0714 115.893Z" fill="white"/>
<path d="M32.0714 62.8929H27.8929V67.0714C27.8929 67.5842 27.477 68 26.9643 68H26.0357C25.523 68 25.1071 67.5842 25.1071 67.0714V62.8929H20.9286C20.4158 62.8929 20 62.477 20 61.9643V61.0357C20 60.523 20.4158 60.1071 20.9286 60.1071H25.1071V55.9286C25.1071 55.4158 25.523 55 26.0357 55H26.9643C27.477 55 27.8929 55.4158 27.8929 55.9286V60.1071H32.0714C32.5842 60.1071 33 60.523 33 61.0357V61.9643C33 62.477 32.5842 62.8929 32.0714 62.8929Z" fill="white"/>
<path d="M32.0714 35.8929H27.8929V40.0714C27.8929 40.5842 27.477 41 26.9643 41H26.0357C25.523 41 25.1071 40.5842 25.1071 40.0714V35.8929H20.9286C20.4158 35.8929 20 35.477 20 34.9643V34.0357C20 33.523 20.4158 33.1071 20.9286 33.1071H25.1071V28.9286C25.1071 28.4158 25.523 28 26.0357 28H26.9643C27.477 28 27.8929 28.4158 27.8929 28.9286V33.1071H32.0714C32.5842 33.1071 33 33.523 33 34.0357V34.9643C33 35.477 32.5842 35.8929 32.0714 35.8929Z" fill="white"/>
<path d="M32.0714 89.5H27.8929V94C27.8929 94.5522 27.477 95 26.9643 95H26.0357C25.523 95 25.1071 94.5522 25.1071 94V89.5H20.9286C20.4158 89.5 20 89.0522 20 88.5V87.5C20 86.9478 20.4158 86.5 20.9286 86.5H25.1071V82C25.1071 81.4478 25.523 81 26.0357 81H26.9643C27.477 81 27.8929 81.4478 27.8929 82V86.5H32.0714C32.5842 86.5 33 86.9478 33 87.5V88.5C33 89.0522 32.5842 89.5 32.0714 89.5Z" fill="white"/>
<path d="M32.0714 115.893H27.8929V120.071C27.8929 120.584 27.477 121 26.9643 121H26.0357C25.523 121 25.1071 120.584 25.1071 120.071V115.893H20.9286C20.4158 115.893 20 115.477 20 114.964V114.036C20 113.523 20.4158 113.107 20.9286 113.107H25.1071V108.929C25.1071 108.416 25.523 108 26.0357 108H26.9643C27.477 108 27.8929 108.416 27.8929 108.929V113.107H32.0714C32.5842 113.107 33 113.523 33 114.036V114.964C33 115.477 32.5842 115.893 32.0714 115.893Z" fill="white"/>
</svg>
