<svg width="100" height="150" viewBox="0 0 100 150" fill="none" xmlns="http://www.w3.org/2000/svg">
<rect width="100" height="150" rx="6" fill="#C62C19"/>
<path d="M9.89923 18H7.64142V9.29688L4.94611 10.1328V8.29688L9.65704 6.60938H9.89923V18ZM19.2586 13.2969C19.2586 14.8698 18.9331 16.0729 18.282 16.9062C17.631 17.7396 16.6779 18.1562 15.4227 18.1562C14.1831 18.1562 13.2352 17.7474 12.5789 16.9297C11.9227 16.112 11.5867 14.9401 11.5711 13.4141V11.3203C11.5711 9.73177 11.8992 8.52604 12.5555 7.70312C13.2169 6.88021 14.1675 6.46875 15.407 6.46875C16.6466 6.46875 17.5945 6.8776 18.2508 7.69531C18.907 8.50781 19.243 9.67708 19.2586 11.2031V13.2969ZM17.0008 11C17.0008 10.0573 16.8706 9.3724 16.6102 8.94531C16.355 8.51302 15.9539 8.29688 15.407 8.29688C14.8758 8.29688 14.4826 8.5026 14.2274 8.91406C13.9774 9.32031 13.8445 9.95833 13.8289 10.8281V13.5938C13.8289 14.5208 13.9539 15.2109 14.2039 15.6641C14.4591 16.112 14.8654 16.3359 15.4227 16.3359C15.9748 16.3359 16.3732 16.1198 16.618 15.6875C16.8628 15.2552 16.9904 14.5938 17.0008 13.7031V11Z" fill="white"/>
<path d="M14.2903 23.9986C14.3261 24.1753 14.3516 24.352 14.3516 24.5812C14.3516 26.5819 12.914 28 10.75 28C8.67805 28 7 26.4338 7 24.5C7 22.5662 8.67805 21 10.75 21C11.763 21 12.6071 21.3438 13.2619 21.9168L12.2438 22.8288C11.9676 22.5805 11.4816 22.2892 10.75 22.2892C9.47102 22.2892 8.42734 23.2776 8.42734 24.5C8.42734 25.7224 9.47102 26.7108 10.75 26.7108C12.2336 26.7108 12.7913 25.7128 12.8782 25.2019H10.75V23.9986H14.2903V23.9986ZM17.9115 24.116V23.1H16.8177V24.116H15.7292V25.1368H16.8177V26.1528H17.9115V25.1368H19V24.116H17.9115V24.116Z" fill="white"/>
<path d="M89.3836 134L91.6414 134L91.6414 142.703L94.3367 141.867L94.3367 143.703L89.6258 145.391L89.3836 145.391L89.3836 134ZM80.0242 138.703C80.0242 137.13 80.3498 135.927 81.0008 135.094C81.6518 134.26 82.605 133.844 83.8602 133.844C85.0998 133.844 86.0477 134.253 86.7039 135.07C87.3602 135.888 87.6961 137.06 87.7117 138.586L87.7117 140.68C87.7117 142.268 87.3836 143.474 86.7274 144.297C86.0659 145.12 85.1154 145.531 83.8758 145.531C82.6362 145.531 81.6883 145.122 81.032 144.305C80.3758 143.492 80.0399 142.323 80.0242 140.797L80.0242 138.703ZM82.282 141C82.282 141.943 82.4123 142.628 82.6727 143.055C82.9279 143.487 83.3289 143.703 83.8758 143.703C84.407 143.703 84.8003 143.497 85.0555 143.086C85.3055 142.68 85.4383 142.042 85.4539 141.172L85.4539 138.406C85.4539 137.479 85.3289 136.789 85.0789 136.336C84.8237 135.888 84.4175 135.664 83.8602 135.664C83.3081 135.664 82.9096 135.88 82.6649 136.312C82.4201 136.745 82.2925 137.406 82.282 138.297L82.282 141Z" fill="white"/>
<path d="M85.7097 128.001C85.6739 127.825 85.6484 127.648 85.6484 127.419C85.6484 125.418 87.086 124 89.25 124C91.322 124 93 125.566 93 127.5C93 129.434 91.322 131 89.25 131C88.237 131 87.3929 130.656 86.7381 130.083L87.7562 129.171C88.0324 129.42 88.5184 129.711 89.25 129.711C90.529 129.711 91.5727 128.722 91.5727 127.5C91.5727 126.278 90.529 125.289 89.25 125.289C87.7664 125.289 87.2087 126.287 87.1218 126.798L89.25 126.798L89.25 128.001L85.7097 128.001L85.7097 128.001ZM82.0885 127.884L82.0885 128.9L83.1823 128.9L83.1823 127.884L84.2708 127.884L84.2708 126.863L83.1823 126.863L83.1823 125.847L82.0885 125.847L82.0885 126.863L81 126.863L81 127.884L82.0885 127.884V127.884Z" fill="white"/>
<path d="M79.0714 51.8929H74.8929V56.0714C74.8929 56.5842 74.477 57 73.9643 57H73.0357C72.523 57 72.1071 56.5842 72.1071 56.0714V51.8929H67.9286C67.4158 51.8929 67 51.477 67 50.9643V50.0357C67 49.523 67.4158 49.1071 67.9286 49.1071H72.1071V44.9286C72.1071 44.4158 72.523 44 73.0357 44H73.9643C74.477 44 74.8929 44.4158 74.8929 44.9286V49.1071H79.0714C79.5842 49.1071 80 49.523 80 50.0357V50.9643C80 51.477 79.5842 51.8929 79.0714 51.8929Z" fill="white"/>
<path d="M79.0714 78.5H74.8929V83C74.8929 83.5522 74.477 84 73.9643 84H73.0357C72.523 84 72.1071 83.5522 72.1071 83V78.5H67.9286C67.4158 78.5 67 78.0522 67 77.5V76.5C67 75.9478 67.4158 75.5 67.9286 75.5H72.1071V71C72.1071 70.4478 72.523 70 73.0357 70H73.9643C74.477 70 74.8929 70.4478 74.8929 71V75.5H79.0714C79.5842 75.5 80 75.9478 80 76.5V77.5C80 78.0522 79.5842 78.5 79.0714 78.5Z" fill="white"/>
<path d="M79.0714 104.893H74.8929V109.071C74.8929 109.584 74.477 110 73.9643 110H73.0357C72.523 110 72.1071 109.584 72.1071 109.071V104.893H67.9286C67.4158 104.893 67 104.477 67 103.964V103.036C67 102.523 67.4158 102.107 67.9286 102.107H72.1071V97.9286C72.1071 97.4158 72.523 97 73.0357 97H73.9643C74.477 97 74.8929 97.4158 74.8929 97.9286V102.107H79.0714C79.5842 102.107 80 102.523 80 103.036V103.964C80 104.477 79.5842 104.893 79.0714 104.893Z" fill="white"/>
<path d="M34.0714 51.8929H29.8929V56.0714C29.8929 56.5842 29.477 57 28.9643 57H28.0357C27.523 57 27.1071 56.5842 27.1071 56.0714V51.8929H22.9286C22.4158 51.8929 22 51.477 22 50.9643V50.0357C22 49.523 22.4158 49.1071 22.9286 49.1071H27.1071V44.9286C27.1071 44.4158 27.523 44 28.0357 44H28.9643C29.477 44 29.8929 44.4158 29.8929 44.9286V49.1071H34.0714C34.5842 49.1071 35 49.523 35 50.0357V50.9643C35 51.477 34.5842 51.8929 34.0714 51.8929Z" fill="white"/>
<path d="M34.0714 78.5H29.8929V83C29.8929 83.5522 29.477 84 28.9643 84H28.0357C27.523 84 27.1071 83.5522 27.1071 83V78.5H22.9286C22.4158 78.5 22 78.0522 22 77.5V76.5C22 75.9478 22.4158 75.5 22.9286 75.5H27.1071V71C27.1071 70.4478 27.523 70 28.0357 70H28.9643C29.477 70 29.8929 70.4478 29.8929 71V75.5H34.0714C34.5842 75.5 35 75.9478 35 76.5V77.5C35 78.0522 34.5842 78.5 34.0714 78.5Z" fill="white"/>
<path d="M34.0714 104.893H29.8929V109.071C29.8929 109.584 29.477 110 28.9643 110H28.0357C27.523 110 27.1071 109.584 27.1071 109.071V104.893H22.9286C22.4158 104.893 22 104.477 22 103.964V103.036C22 102.523 22.4158 102.107 22.9286 102.107H27.1071V97.9286C27.1071 97.4158 27.523 97 28.0357 97H28.9643C29.477 97 29.8929 97.4158 29.8929 97.9286V102.107H34.0714C34.5842 102.107 35 102.523 35 103.036V103.964C35 104.477 34.5842 104.893 34.0714 104.893Z" fill="white"/>
<path d="M57.0714 63.8929H52.8929V68.0714C52.8929 68.5842 52.477 69 51.9643 69H51.0357C50.523 69 50.1071 68.5842 50.1071 68.0714V63.8929H45.9286C45.4158 63.8929 45 63.477 45 62.9643V62.0357C45 61.523 45.4158 61.1071 45.9286 61.1071H50.1071V56.9286C50.1071 56.4158 50.523 56 51.0357 56H51.9643C52.477 56 52.8929 56.4158 52.8929 56.9286V61.1071H57.0714C57.5842 61.1071 58 61.523 58 62.0357V62.9643C58 63.477 57.5842 63.8929 57.0714 63.8929Z" fill="white"/>
<path d="M57.0714 36.8929H52.8929V41.0714C52.8929 41.5842 52.477 42 51.9643 42H51.0357C50.523 42 50.1071 41.5842 50.1071 41.0714V36.8929H45.9286C45.4158 36.8929 45 36.477 45 35.9643V35.0357C45 34.523 45.4158 34.1071 45.9286 34.1071H50.1071V29.9286C50.1071 29.4158 50.523 29 51.0357 29H51.9643C52.477 29 52.8929 29.4158 52.8929 29.9286V34.1071H57.0714C57.5842 34.1071 58 34.523 58 35.0357V35.9643C58 36.477 57.5842 36.8929 57.0714 36.8929Z" fill="white"/>
<path d="M57.0714 90.5H52.8929V95C52.8929 95.5522 52.477 96 51.9643 96H51.0357C50.523 96 50.1071 95.5522 50.1071 95V90.5H45.9286C45.4158 90.5 45 90.0522 45 89.5V88.5C45 87.9478 45.4158 87.5 45.9286 87.5H50.1071V83C50.1071 82.4478 50.523 82 51.0357 82H51.9643C52.477 82 52.8929 82.4478 52.8929 83V87.5H57.0714C57.5842 87.5 58 87.9478 58 88.5V89.5C58 90.0522 57.5842 90.5 57.0714 90.5Z" fill="white"/>
<path d="M57.0714 116.893H52.8929V121.071C52.8929 121.584 52.477 122 51.9643 122H51.0357C50.523 122 50.1071 121.584 50.1071 121.071V116.893H45.9286C45.4158 116.893 45 116.477 45 115.964V115.036C45 114.523 45.4158 114.107 45.9286 114.107H50.1071V109.929C50.1071 109.416 50.523 109 51.0357 109H51.9643C52.477 109 52.8929 109.416 52.8929 109.929V114.107H57.0714C57.5842 114.107 58 114.523 58 115.036V115.964C58 116.477 57.5842 116.893 57.0714 116.893Z" fill="white"/>
</svg>
