<svg width="100" height="150" viewBox="0 0 100 150" fill="none" xmlns="http://www.w3.org/2000/svg">
<rect width="100" height="150" rx="6" fill="#C62C19"/>
<path d="M12.2903 22.9986C12.3261 23.1753 12.3516 23.352 12.3516 23.5812C12.3516 25.5819 10.914 27 8.75 27C6.67805 27 5 25.4338 5 23.5C5 21.5662 6.67805 20 8.75 20C9.76297 20 10.6071 20.3438 11.2619 20.9168L10.2438 21.8288C9.96758 21.5805 9.48158 21.2892 8.75 21.2892C7.47102 21.2892 6.42734 22.2776 6.42734 23.5C6.42734 24.7224 7.47102 25.7108 8.75 25.7108C10.2336 25.7108 10.7913 24.7128 10.8782 24.2019H8.75V22.9986H12.2903V22.9986ZM15.9115 23.116V22.1H14.8177V23.116H13.7292V24.1368H14.8177V25.1528H15.9115V24.1368H17V23.116H15.9115V23.116Z" fill="white"/>
<path d="M16.2781 10.8916C16.2781 12.0869 16.0848 13.127 15.6981 14.0117C15.3113 14.8906 14.7752 15.5967 14.0897 16.1299L16.2166 17.7998L14.5379 19.2852L11.8133 17.0967C11.5027 17.1494 11.1805 17.1758 10.8465 17.1758C9.78595 17.1758 8.83966 16.9209 8.00763 16.4111C7.1756 15.9014 6.53107 15.1748 6.07404 14.2314C5.617 13.2822 5.38556 12.1924 5.3797 10.9619V10.3291C5.3797 9.06934 5.60529 7.96191 6.05646 7.00684C6.51349 6.0459 7.15509 5.31055 7.98126 4.80078C8.81329 4.28516 9.76251 4.02734 10.8289 4.02734C11.8953 4.02734 12.8416 4.28516 13.6678 4.80078C14.4998 5.31055 15.1414 6.0459 15.5926 7.00684C16.0496 7.96191 16.2781 9.06641 16.2781 10.3203V10.8916ZM13.6063 10.3115C13.6063 8.96973 13.366 7.9502 12.8856 7.25293C12.4051 6.55566 11.7195 6.20703 10.8289 6.20703C9.94415 6.20703 9.26154 6.55273 8.78107 7.24414C8.3006 7.92969 8.05743 8.9375 8.05157 10.2676V10.8916C8.05157 12.1982 8.29181 13.2119 8.77228 13.9326C9.25275 14.6533 9.94415 15.0137 10.8465 15.0137C11.7313 15.0137 12.4109 14.668 12.8856 13.9766C13.3602 13.2793 13.6004 12.2656 13.6063 10.9355V10.3115Z" fill="white"/>
<path d="M88.7097 127.001C88.6739 126.825 88.6484 126.648 88.6484 126.419C88.6484 124.418 90.086 123 92.25 123C94.322 123 96 124.566 96 126.5C96 128.434 94.322 130 92.25 130C91.237 130 90.3929 129.656 89.7381 129.083L90.7562 128.171C91.0324 128.42 91.5184 128.711 92.25 128.711C93.529 128.711 94.5727 127.722 94.5727 126.5C94.5727 125.278 93.529 124.289 92.25 124.289C90.7664 124.289 90.2087 125.287 90.1218 125.798L92.25 125.798L92.25 127.001L88.7097 127.001L88.7097 127.001ZM85.0885 126.884L85.0885 127.9L86.1823 127.9L86.1823 126.884L87.2708 126.884L87.2708 125.863L86.1823 125.863L86.1823 124.847L85.0885 124.847L85.0885 125.863L84 125.863L84 126.884L85.0885 126.884V126.884Z" fill="white"/>
<path d="M84.7219 139.108C84.7219 137.913 84.9152 136.873 85.3019 135.988C85.6887 135.109 86.2248 134.403 86.9103 133.87L84.7834 132.2L86.4621 130.715L89.1867 132.903C89.4973 132.851 89.8195 132.824 90.1535 132.824C91.2141 132.824 92.1603 133.079 92.9924 133.589C93.8244 134.099 94.4689 134.825 94.926 135.769C95.383 136.718 95.6144 137.808 95.6203 139.038L95.6203 139.671C95.6203 140.931 95.3947 142.038 94.9435 142.993C94.4865 143.954 93.8449 144.689 93.0187 145.199C92.1867 145.715 91.2375 145.973 90.1711 145.973C89.1047 145.973 88.1584 145.715 87.3322 145.199C86.5002 144.689 85.8586 143.954 85.4074 142.993C84.9504 142.038 84.7219 140.934 84.7219 139.68L84.7219 139.108ZM87.3937 139.688C87.3937 141.03 87.634 142.05 88.1144 142.747C88.5949 143.444 89.2805 143.793 90.1711 143.793C91.0558 143.793 91.7385 143.447 92.2189 142.756C92.6994 142.07 92.9426 141.062 92.9484 139.732L92.9484 139.108C92.9484 137.802 92.7082 136.788 92.2277 136.067C91.7473 135.347 91.0558 134.986 90.1535 134.986C89.2687 134.986 88.5891 135.332 88.1144 136.023C87.6398 136.721 87.3996 137.734 87.3937 139.064L87.3937 139.688Z" fill="white"/>
<path d="M60.0964 71.2783C60.2934 72.2374 60.434 73.1965 60.434 74.4406C60.434 85.3015 52.5272 93 40.625 93C29.2293 93 20 84.498 20 74C20 63.502 29.2293 55 40.625 55C46.1963 55 50.839 56.8663 54.4406 59.9768L48.8412 64.9277C47.3217 63.5798 44.6487 61.9986 40.625 61.9986C33.5906 61.9986 27.8504 67.3643 27.8504 74C27.8504 80.6358 33.5906 86.0014 40.625 86.0014C48.7849 86.0014 51.852 80.5839 52.3302 77.8103H40.625V71.2782H60.0964V71.2783ZM80.0131 71.9152V66.4H73.9973V71.9152H68.0104V77.457H73.9973V82.9723H80.0131V77.457H86V71.9152H80.0131V71.9152Z" fill="white"/>
</svg>
