<svg width="100" height="150" viewBox="0 0 100 150" fill="none" xmlns="http://www.w3.org/2000/svg">
<rect width="100" height="150" rx="6" fill="#1DA1F2"/>
<path d="M13.0086 14.3633H8.38556L7.50665 17H4.70294L9.46661 4.20312H11.91L16.7 17H13.8963L13.0086 14.3633ZM9.09747 12.2275H12.2967L10.6883 7.4375L9.09747 12.2275Z" fill="white"/>
<path d="M14.8693 22.243C14.8763 22.3414 14.8763 22.4398 14.8763 22.5383C14.8763 25.5406 12.6079 29 8.46194 29C7.18465 29 5.9981 28.6273 5 27.9805C5.18148 28.0016 5.35595 28.0086 5.54442 28.0086C6.59834 28.0086 7.56853 27.65 8.34328 27.0383C7.35216 27.0172 6.52157 26.3633 6.2354 25.4633C6.37501 25.4844 6.51459 25.4984 6.66118 25.4984C6.86358 25.4984 7.06601 25.4703 7.25445 25.4211C6.22146 25.2101 5.44668 24.2961 5.44668 23.1922V23.1641C5.7468 23.3328 6.09581 23.4383 6.46571 23.4523C5.85848 23.0445 5.46065 22.3484 5.46065 21.5609C5.46065 21.1391 5.5723 20.7523 5.76775 20.4148C6.87753 21.793 8.54569 22.6929 10.4162 22.7914C10.3813 22.6226 10.3604 22.4469 10.3604 22.2711C10.3604 21.0195 11.3655 20 12.6148 20C13.264 20 13.8502 20.2742 14.2621 20.7172C14.7716 20.6188 15.2601 20.4289 15.6929 20.1688C15.5254 20.6961 15.1694 21.1391 14.7018 21.4203C15.1555 21.3711 15.5952 21.2445 16 21.0688C15.6929 21.5187 15.309 21.9195 14.8693 22.243V22.243Z" fill="white"/>
<path d="M86.9914 135.637L91.6144 135.637L92.4933 133L95.2971 133L90.5334 145.797L88.09 145.797L83.3 133L86.1037 133L86.9914 135.637ZM90.9025 137.772L87.7033 137.772L89.3117 142.562L90.9025 137.772Z" fill="white"/>
<path d="M85.1307 127.757C85.1237 127.659 85.1237 127.56 85.1237 127.462C85.1237 124.459 87.3921 121 91.5381 121C92.8154 121 94.0019 121.373 95 122.02C94.8185 121.998 94.644 121.991 94.4556 121.991C93.4017 121.991 92.4315 122.35 91.6567 122.962C92.6478 122.983 93.4784 123.637 93.7646 124.537C93.625 124.516 93.4854 124.502 93.3388 124.502C93.1364 124.502 92.934 124.53 92.7456 124.579C93.7785 124.79 94.5533 125.704 94.5533 126.808L94.5533 126.836C94.2532 126.667 93.9042 126.562 93.5343 126.548C94.1415 126.955 94.5394 127.652 94.5394 128.439C94.5394 128.861 94.4277 129.248 94.2323 129.585C93.1225 128.207 91.4543 127.307 89.5838 127.209C89.6187 127.377 89.6396 127.553 89.6396 127.729C89.6396 128.98 88.6345 130 87.3852 130C86.736 130 86.1498 129.726 85.7379 129.283C85.2284 129.381 84.7399 129.571 84.3071 129.831C84.4746 129.304 84.8306 128.861 85.2982 128.58C84.8445 128.629 84.4048 128.755 84 128.931C84.3071 128.481 84.691 128.08 85.1307 127.757V127.757Z" fill="white"/>
<path d="M50.0035 51C35.0922 51 23.007 60.975 23.007 73.2857C23.007 78.3857 25.1056 83.0571 28.5856 86.8179C27.0143 91.0393 23.7452 94.6179 23.6925 94.6607C22.9965 95.4107 22.8066 96.5036 23.2074 97.4464C23.6081 98.3893 24.5256 99 25.5379 99C32.0234 99 37.138 96.2464 40.2067 94.0393C43.2544 95.0143 46.5446 95.5714 50.0035 95.5714C64.9149 95.5714 77 85.5964 77 73.2857C77 60.975 64.9149 51 50.0035 51ZM50.0035 90.4286C47.1879 90.4286 44.4038 89.9893 41.7358 89.1321L39.342 88.3607L37.2856 89.8393C35.7776 90.9214 33.7107 92.1321 31.222 92.9464C31.9918 91.65 32.7405 90.1929 33.3205 88.6393L34.4383 85.6286L32.266 83.2929C30.3572 81.225 28.0688 77.8071 28.0688 73.2857C28.0688 63.8357 37.9078 56.1429 50.0035 56.1429C62.0992 56.1429 71.9382 63.8357 71.9382 73.2857C71.9382 82.7357 62.0992 90.4286 50.0035 90.4286Z" fill="white"/>
</svg>
