<svg width="100" height="150" viewBox="0 0 100 150" fill="none" xmlns="http://www.w3.org/2000/svg">
<rect width="100" height="150" rx="6" fill="#1DA1F2"/>
<path d="M5.88947 10.707L6.62775 4.20312H13.7996V6.32129H8.71075L8.39435 9.07227C8.99786 8.75 9.63947 8.58887 10.3192 8.58887C11.5379 8.58887 12.493 8.9668 13.1844 9.72266C13.8758 10.4785 14.2215 11.5361 14.2215 12.8955C14.2215 13.7217 14.0457 14.4629 13.6942 15.1191C13.3484 15.7695 12.8504 16.2764 12.2 16.6396C11.5496 16.9971 10.782 17.1758 9.89728 17.1758C9.12384 17.1758 8.40607 17.0205 7.74396 16.71C7.08185 16.3936 6.55743 15.9512 6.17072 15.3828C5.78986 14.8145 5.58771 14.167 5.56427 13.4404H8.07794C8.13068 13.9736 8.31525 14.3896 8.63165 14.6885C8.95392 14.9814 9.37286 15.1279 9.88849 15.1279C10.4627 15.1279 10.9051 14.9229 11.2156 14.5127C11.5262 14.0967 11.6815 13.5107 11.6815 12.7549C11.6815 12.0283 11.5027 11.4717 11.1453 11.085C10.7879 10.6982 10.2811 10.5049 9.62482 10.5049C9.0213 10.5049 8.53204 10.6631 8.15704 10.9795L7.91095 11.208L5.88947 10.707Z" fill="white"/>
<path d="M14.8693 22.243C14.8763 22.3414 14.8763 22.4398 14.8763 22.5383C14.8763 25.5406 12.6079 29 8.46194 29C7.18465 29 5.9981 28.6273 5 27.9805C5.18148 28.0016 5.35595 28.0086 5.54442 28.0086C6.59834 28.0086 7.56853 27.65 8.34328 27.0383C7.35216 27.0172 6.52157 26.3633 6.2354 25.4633C6.37501 25.4844 6.51459 25.4984 6.66118 25.4984C6.86358 25.4984 7.06601 25.4703 7.25445 25.4211C6.22146 25.2101 5.44668 24.2961 5.44668 23.1922V23.1641C5.7468 23.3328 6.09581 23.4383 6.46571 23.4523C5.85848 23.0445 5.46065 22.3484 5.46065 21.5609C5.46065 21.1391 5.5723 20.7523 5.76775 20.4148C6.87753 21.793 8.54569 22.6929 10.4162 22.7914C10.3813 22.6226 10.3604 22.4469 10.3604 22.2711C10.3604 21.0195 11.3655 20 12.6148 20C13.264 20 13.8502 20.2742 14.2621 20.7172C14.7716 20.6188 15.2601 20.4289 15.6929 20.1688C15.5254 20.6961 15.1694 21.1391 14.7018 21.4203C15.1555 21.3711 15.5952 21.2445 16 21.0688C15.6929 21.5187 15.309 21.9195 14.8693 22.243V22.243Z" fill="white"/>
<path d="M94.1105 139.293L93.3723 145.797L86.2004 145.797L86.2004 143.679L91.2892 143.679L91.6057 140.928C91.0021 141.25 90.3605 141.411 89.6808 141.411C88.4621 141.411 87.507 141.033 86.8156 140.277C86.1242 139.521 85.7785 138.464 85.7785 137.104C85.7785 136.278 85.9543 135.537 86.3058 134.881C86.6516 134.23 87.1496 133.724 87.8 133.36C88.4504 133.003 89.218 132.824 90.1027 132.824C90.8762 132.824 91.5939 132.979 92.256 133.29C92.9182 133.606 93.4426 134.049 93.8293 134.617C94.2101 135.186 94.4123 135.833 94.4357 136.56L91.9221 136.56C91.8693 136.026 91.6848 135.61 91.3683 135.312C91.0461 135.019 90.6271 134.872 90.1115 134.872C89.5373 134.872 89.0949 135.077 88.7844 135.487C88.4738 135.903 88.3185 136.489 88.3185 137.245C88.3185 137.972 88.4973 138.528 88.8547 138.915C89.2121 139.302 89.7189 139.495 90.3752 139.495C90.9787 139.495 91.468 139.337 91.843 139.021L92.0891 138.792L94.1105 139.293Z" fill="white"/>
<path d="M85.1307 127.757C85.1237 127.659 85.1237 127.56 85.1237 127.462C85.1237 124.459 87.3921 121 91.5381 121C92.8154 121 94.0019 121.373 95 122.02C94.8185 121.998 94.644 121.991 94.4556 121.991C93.4017 121.991 92.4315 122.35 91.6567 122.962C92.6478 122.983 93.4784 123.637 93.7646 124.537C93.625 124.516 93.4854 124.502 93.3388 124.502C93.1364 124.502 92.934 124.53 92.7456 124.579C93.7785 124.79 94.5533 125.704 94.5533 126.808L94.5533 126.836C94.2532 126.667 93.9042 126.562 93.5343 126.548C94.1415 126.955 94.5394 127.652 94.5394 128.439C94.5394 128.861 94.4277 129.248 94.2323 129.585C93.1225 128.207 91.4543 127.307 89.5838 127.209C89.6187 127.377 89.6396 127.553 89.6396 127.729C89.6396 128.98 88.6345 130 87.3852 130C86.736 130 86.1498 129.726 85.7379 129.283C85.2284 129.381 84.7399 129.571 84.3071 129.831C84.4746 129.304 84.8306 128.861 85.2982 128.58C84.8445 128.629 84.4048 128.755 84 128.931C84.3071 128.481 84.691 128.08 85.1307 127.757V127.757Z" fill="white"/>
<path d="M32.0014 33C25.9264 33 21.0029 37.1563 21.0029 42.2857C21.0029 44.4107 21.8578 46.3571 23.2756 47.9241C22.6355 49.683 21.3036 51.1741 21.2821 51.192C20.9986 51.5045 20.9212 51.9598 21.0845 52.3527C21.2477 52.7455 21.6215 53 22.034 53C24.6762 53 26.7599 51.8527 28.0101 50.933C29.2518 51.3393 30.5922 51.5714 32.0014 51.5714C38.0764 51.5714 43 47.4152 43 42.2857C43 37.1563 38.0764 33 32.0014 33ZM32.0014 49.4286C30.8543 49.4286 29.7201 49.2455 28.6331 48.8884L27.6578 48.567L26.8201 49.183C26.2057 49.6339 25.3636 50.1384 24.3497 50.4777C24.6633 49.9375 24.9684 49.3304 25.2047 48.683L25.6601 47.4286L24.775 46.4554C23.9974 45.5938 23.0651 44.1696 23.0651 42.2857C23.0651 38.3482 27.0735 35.1429 32.0014 35.1429C36.9293 35.1429 40.9378 38.3482 40.9378 42.2857C40.9378 46.2232 36.9293 49.4286 32.0014 49.4286Z" fill="white"/>
<path d="M31.9986 113C38.0736 113 42.9971 108.844 42.9971 103.714C42.9971 101.589 42.1422 99.6429 40.7244 98.0759C41.3645 96.317 42.6964 94.8259 42.7179 94.808C43.0014 94.4955 43.0788 94.0402 42.9155 93.6473C42.7523 93.2545 42.3785 93 41.966 93C39.3238 93 37.2401 94.1473 35.9899 95.067C34.7482 94.6607 33.4078 94.4286 31.9986 94.4286C25.9236 94.4286 21 98.5848 21 103.714C21 108.844 25.9236 113 31.9986 113ZM31.9986 96.5714C33.1457 96.5714 34.2799 96.7545 35.3669 97.1116L36.3422 97.433L37.1799 96.817C37.7943 96.3661 38.6364 95.8616 39.6503 95.5223C39.3367 96.0625 39.0316 96.6696 38.7954 97.317L38.3399 98.5714L39.225 99.5446C40.0026 100.406 40.9349 101.83 40.9349 103.714C40.9349 107.652 36.9264 110.857 31.9986 110.857C27.0707 110.857 23.0622 107.652 23.0622 103.714C23.0622 99.7768 27.0707 96.5714 31.9986 96.5714Z" fill="white"/>
<path d="M70.0014 33C63.9264 33 59.0029 37.1563 59.0029 42.2857C59.0029 44.4107 59.8578 46.3571 61.2756 47.9241C60.6355 49.683 59.3036 51.1741 59.2821 51.192C58.9986 51.5045 58.9212 51.9598 59.0845 52.3527C59.2477 52.7455 59.6215 53 60.034 53C62.6762 53 64.7599 51.8527 66.0101 50.933C67.2518 51.3393 68.5922 51.5714 70.0014 51.5714C76.0764 51.5714 81 47.4152 81 42.2857C81 37.1563 76.0764 33 70.0014 33ZM70.0014 49.4286C68.8543 49.4286 67.7201 49.2455 66.6331 48.8884L65.6578 48.567L64.8201 49.183C64.2057 49.6339 63.3636 50.1384 62.3497 50.4777C62.6633 49.9375 62.9684 49.3304 63.2047 48.683L63.6601 47.4286L62.775 46.4554C61.9974 45.5938 61.0651 44.1696 61.0651 42.2857C61.0651 38.3482 65.0735 35.1429 70.0014 35.1429C74.9293 35.1429 78.9378 38.3482 78.9378 42.2857C78.9378 46.2232 74.9293 49.4286 70.0014 49.4286Z" fill="white"/>
<path d="M51.0014 63C44.9264 63 40.0029 67.1563 40.0029 72.2857C40.0029 74.4107 40.8578 76.3571 42.2756 77.9241C41.6355 79.683 40.3036 81.1741 40.2821 81.192C39.9986 81.5045 39.9212 81.9598 40.0845 82.3527C40.2477 82.7455 40.6215 83 41.034 83C43.6762 83 45.7599 81.8527 47.0101 80.933C48.2518 81.3393 49.5922 81.5714 51.0014 81.5714C57.0764 81.5714 62 77.4152 62 72.2857C62 67.1563 57.0764 63 51.0014 63ZM51.0014 79.4286C49.8543 79.4286 48.7201 79.2455 47.6331 78.8884L46.6578 78.567L45.8201 79.183C45.2057 79.6339 44.3636 80.1384 43.3497 80.4777C43.6633 79.9375 43.9684 79.3304 44.2047 78.683L44.6601 77.4286L43.775 76.4554C42.9974 75.5938 42.0651 74.1696 42.0651 72.2857C42.0651 68.3482 46.0735 65.1429 51.0014 65.1429C55.9293 65.1429 59.9378 68.3482 59.9378 72.2857C59.9378 76.2232 55.9293 79.4286 51.0014 79.4286Z" fill="white"/>
<path d="M69.9986 113C76.0736 113 80.9971 108.844 80.9971 103.714C80.9971 101.589 80.1422 99.6429 78.7244 98.0759C79.3645 96.317 80.6964 94.8259 80.7179 94.808C81.0014 94.4955 81.0788 94.0402 80.9155 93.6473C80.7523 93.2545 80.3785 93 79.966 93C77.3238 93 75.2401 94.1473 73.9899 95.067C72.7482 94.6607 71.4078 94.4286 69.9986 94.4286C63.9236 94.4286 59 98.5848 59 103.714C59 108.844 63.9236 113 69.9986 113ZM69.9986 96.5714C71.1457 96.5714 72.2799 96.7545 73.3669 97.1116L74.3422 97.433L75.1799 96.817C75.7943 96.3661 76.6364 95.8616 77.6503 95.5223C77.3367 96.0625 77.0316 96.6696 76.7954 97.317L76.3399 98.5714L77.225 99.5446C78.0026 100.406 78.9349 101.83 78.9349 103.714C78.9349 107.652 74.9264 110.857 69.9986 110.857C65.0707 110.857 61.0622 107.652 61.0622 103.714C61.0622 99.7768 65.0707 96.5714 69.9986 96.5714Z" fill="white"/>
</svg>
