<svg width="100" height="150" viewBox="0 0 100 150" fill="none" xmlns="http://www.w3.org/2000/svg">
<rect width="100" height="150" rx="6" fill="#1DA1F2"/>
<path d="M11.4529 11.8848C10.7908 12.5352 10.0174 12.8604 9.13263 12.8604C8.00177 12.8604 7.0965 12.4736 6.41681 11.7002C5.73712 10.9209 5.39728 9.87207 5.39728 8.55371C5.39728 7.71582 5.57892 6.94824 5.9422 6.25098C6.31134 5.54785 6.82404 5.00293 7.48029 4.61621C8.13654 4.22363 8.87482 4.02734 9.69513 4.02734C10.5389 4.02734 11.2889 4.23828 11.9451 4.66016C12.6014 5.08203 13.1111 5.68848 13.4744 6.47949C13.8377 7.27051 14.0223 8.17578 14.0281 9.19531V10.1357C14.0281 12.2686 13.4979 13.9443 12.4373 15.1631C11.3768 16.3818 9.87384 17.0322 7.92853 17.1143L7.3045 17.123V15.0049L7.867 14.9961C10.076 14.8965 11.2713 13.8594 11.4529 11.8848ZM9.75665 10.918C10.1668 10.918 10.5184 10.8125 10.8113 10.6016C11.1102 10.3906 11.3358 10.1357 11.4881 9.83691V8.79102C11.4881 7.92969 11.324 7.26172 10.9959 6.78711C10.6678 6.3125 10.2283 6.0752 9.67755 6.0752C9.16779 6.0752 8.74884 6.30957 8.42072 6.77832C8.09259 7.24121 7.92853 7.82422 7.92853 8.52734C7.92853 9.22461 8.08673 9.79883 8.40314 10.25C8.7254 10.6953 9.17657 10.918 9.75665 10.918Z" fill="white"/>
<path d="M14.8693 22.243C14.8763 22.3414 14.8763 22.4398 14.8763 22.5383C14.8763 25.5406 12.6079 29 8.46194 29C7.18465 29 5.9981 28.6273 5 27.9805C5.18148 28.0016 5.35595 28.0086 5.54442 28.0086C6.59834 28.0086 7.56853 27.65 8.34328 27.0383C7.35216 27.0172 6.52157 26.3633 6.2354 25.4633C6.37501 25.4844 6.51459 25.4984 6.66118 25.4984C6.86358 25.4984 7.06601 25.4703 7.25445 25.4211C6.22146 25.2101 5.44668 24.2961 5.44668 23.1922V23.1641C5.7468 23.3328 6.09581 23.4383 6.46571 23.4523C5.85848 23.0445 5.46065 22.3484 5.46065 21.5609C5.46065 21.1391 5.5723 20.7523 5.76775 20.4148C6.87753 21.793 8.54569 22.6929 10.4162 22.7914C10.3813 22.6226 10.3604 22.4469 10.3604 22.2711C10.3604 21.0195 11.3655 20 12.6148 20C13.264 20 13.8502 20.2742 14.2621 20.7172C14.7716 20.6188 15.2601 20.4289 15.6929 20.1688C15.5254 20.6961 15.1694 21.1391 14.7018 21.4203C15.1555 21.3711 15.5952 21.2445 16 21.0688C15.6929 21.5187 15.309 21.9195 14.8693 22.243V22.243Z" fill="white"/>
<path d="M88.5471 138.115C89.2092 137.465 89.9826 137.14 90.8674 137.14C91.9982 137.14 92.9035 137.526 93.5832 138.3C94.2629 139.079 94.6027 140.128 94.6027 141.446C94.6027 142.284 94.4211 143.052 94.0578 143.749C93.6887 144.452 93.176 144.997 92.5197 145.384C91.8635 145.776 91.1252 145.973 90.3049 145.973C89.4611 145.973 88.7111 145.762 88.0549 145.34C87.3986 144.918 86.8889 144.312 86.5256 143.521C86.1623 142.729 85.9777 141.824 85.9719 140.805L85.9719 139.864C85.9719 137.731 86.5021 136.056 87.5627 134.837C88.6232 133.618 90.1262 132.968 92.0715 132.886L92.6955 132.877L92.6955 134.995L92.133 135.004C89.924 135.104 88.7287 136.141 88.5471 138.115ZM90.2433 139.082C89.8332 139.082 89.4816 139.187 89.1887 139.398C88.8898 139.609 88.6642 139.864 88.5119 140.163L88.5119 141.209C88.5119 142.07 88.676 142.738 89.0041 143.213C89.3322 143.687 89.7717 143.925 90.3224 143.925C90.8322 143.925 91.2512 143.69 91.5793 143.222C91.9074 142.759 92.0715 142.176 92.0715 141.473C92.0715 140.775 91.9133 140.201 91.5969 139.75C91.2746 139.305 90.8234 139.082 90.2433 139.082Z" fill="white"/>
<path d="M85.1307 127.757C85.1237 127.659 85.1237 127.56 85.1237 127.462C85.1237 124.459 87.3921 121 91.5381 121C92.8154 121 94.0019 121.373 95 122.02C94.8185 121.998 94.644 121.991 94.4556 121.991C93.4017 121.991 92.4315 122.35 91.6567 122.962C92.6478 122.983 93.4784 123.637 93.7646 124.537C93.625 124.516 93.4854 124.502 93.3388 124.502C93.1364 124.502 92.934 124.53 92.7456 124.579C93.7785 124.79 94.5533 125.704 94.5533 126.808L94.5533 126.836C94.2532 126.667 93.9042 126.562 93.5343 126.548C94.1415 126.955 94.5394 127.652 94.5394 128.439C94.5394 128.861 94.4277 129.248 94.2323 129.585C93.1225 128.207 91.4543 127.307 89.5838 127.209C89.6187 127.377 89.6396 127.553 89.6396 127.729C89.6396 128.98 88.6345 130 87.3852 130C86.736 130 86.1498 129.726 85.7379 129.283C85.2284 129.381 84.7399 129.571 84.3071 129.831C84.4746 129.304 84.8306 128.861 85.2982 128.58C84.8445 128.629 84.4048 128.755 84 128.931C84.3071 128.481 84.691 128.08 85.1307 127.757V127.757Z" fill="white"/>
<path d="M75.001 29C70.5829 29 67.0021 31.9094 67.0021 35.5C67.0021 36.9875 67.6239 38.35 68.655 39.4469C68.1894 40.6781 67.2208 41.7219 67.2052 41.7344C66.9989 41.9531 66.9427 42.2719 67.0614 42.5469C67.1802 42.8219 67.452 43 67.752 43C69.6736 43 71.189 42.1969 72.0983 41.5531C73.0013 41.8375 73.9762 42 75.001 42C79.4192 42 83 39.0906 83 35.5C83 31.9094 79.4192 29 75.001 29ZM75.001 40.5C74.1668 40.5 73.3419 40.3719 72.5514 40.1219L71.8421 39.8969L71.2328 40.3281C70.786 40.6438 70.1735 40.9969 69.4361 41.2344C69.6642 40.8562 69.8861 40.4312 70.0579 39.9781L70.3891 39.1L69.7455 38.4187C69.1799 37.8156 68.5019 36.8188 68.5019 35.5C68.5019 32.7438 71.4171 30.5 75.001 30.5C78.5849 30.5 81.5002 32.7438 81.5002 35.5C81.5002 38.2562 78.5849 40.5 75.001 40.5Z" fill="white"/>
<path d="M52.001 67C47.5829 67 44.0021 69.9094 44.0021 73.5C44.0021 74.9875 44.6239 76.35 45.655 77.4469C45.1894 78.6781 44.2208 79.7219 44.2052 79.7344C43.9989 79.9531 43.9427 80.2719 44.0614 80.5469C44.1802 80.8219 44.452 81 44.752 81C46.6736 81 48.189 80.1969 49.0983 79.5531C50.0013 79.8375 50.9762 80 52.001 80C56.4192 80 60 77.0906 60 73.5C60 69.9094 56.4192 67 52.001 67ZM52.001 78.5C51.1668 78.5 50.3419 78.3719 49.5514 78.1219L48.8421 77.8969L48.2328 78.3281C47.786 78.6438 47.1735 78.9969 46.4361 79.2344C46.6642 78.8562 46.8861 78.4312 47.0579 77.9781L47.3891 77.1L46.7455 76.4187C46.1799 75.8156 45.5019 74.8188 45.5019 73.5C45.5019 70.7438 48.4171 68.5 52.001 68.5C55.5849 68.5 58.5002 70.7438 58.5002 73.5C58.5002 76.2562 55.5849 78.5 52.001 78.5Z" fill="white"/>
<path d="M75.001 55C70.5829 55 67.0021 57.9094 67.0021 61.5C67.0021 62.9875 67.6239 64.35 68.655 65.4469C68.1894 66.6781 67.2208 67.7219 67.2052 67.7344C66.9989 67.9531 66.9427 68.2719 67.0614 68.5469C67.1802 68.8219 67.452 69 67.752 69C69.6736 69 71.189 68.1969 72.0983 67.5531C73.0013 67.8375 73.9762 68 75.001 68C79.4192 68 83 65.0906 83 61.5C83 57.9094 79.4192 55 75.001 55ZM75.001 66.5C74.1668 66.5 73.3419 66.3719 72.5514 66.1219L71.8421 65.8969L71.2328 66.3281C70.786 66.6438 70.1735 66.9969 69.4361 67.2344C69.6642 66.8562 69.8861 66.4312 70.0579 65.9781L70.3891 65.1L69.7455 64.4187C69.1799 63.8156 68.5019 62.8188 68.5019 61.5C68.5019 58.7438 71.4171 56.5 75.001 56.5C78.5849 56.5 81.5002 58.7438 81.5002 61.5C81.5002 64.2562 78.5849 66.5 75.001 66.5Z" fill="white"/>
<path d="M74.999 95C79.4171 95 82.9979 92.0906 82.9979 88.5C82.9979 87.0125 82.3761 85.65 81.345 84.5531C81.8106 83.3219 82.7792 82.2781 82.7948 82.2656C83.0011 82.0469 83.0573 81.7281 82.9386 81.4531C82.8198 81.1781 82.548 81 82.248 81C80.3264 81 78.811 81.8031 77.9017 82.4469C76.9987 82.1625 76.0238 82 74.999 82C70.5808 82 67 84.9094 67 88.5C67 92.0906 70.5808 95 74.999 95ZM74.999 83.5C75.8332 83.5 76.6581 83.6281 77.4486 83.8781L78.1579 84.1031L78.7672 83.6719C79.214 83.3562 79.8265 83.0031 80.5639 82.7656C80.3358 83.1437 80.1139 83.5688 79.9421 84.0219L79.6109 84.9L80.2545 85.5812C80.8201 86.1844 81.4981 87.1812 81.4981 88.5C81.4981 91.2562 78.5829 93.5 74.999 93.5C71.4151 93.5 68.4998 91.2562 68.4998 88.5C68.4998 85.7437 71.4151 83.5 74.999 83.5Z" fill="white"/>
<path d="M74.999 121C79.4171 121 82.9979 118.091 82.9979 114.5C82.9979 113.013 82.3761 111.65 81.345 110.553C81.8106 109.322 82.7792 108.278 82.7948 108.266C83.0011 108.047 83.0573 107.728 82.9386 107.453C82.8198 107.178 82.548 107 82.248 107C80.3264 107 78.811 107.803 77.9017 108.447C76.9987 108.162 76.0238 108 74.999 108C70.5808 108 67 110.909 67 114.5C67 118.091 70.5808 121 74.999 121ZM74.999 109.5C75.8332 109.5 76.6581 109.628 77.4486 109.878L78.1579 110.103L78.7672 109.672C79.214 109.356 79.8265 109.003 80.5639 108.766C80.3358 109.144 80.1139 109.569 79.9421 110.022L79.6109 110.9L80.2545 111.581C80.8201 112.184 81.4981 113.181 81.4981 114.5C81.4981 117.256 78.5829 119.5 74.999 119.5C71.4151 119.5 68.4998 117.256 68.4998 114.5C68.4998 111.744 71.4151 109.5 74.999 109.5Z" fill="white"/>
<path d="M28.001 29C23.5829 29 20.0021 31.9094 20.0021 35.5C20.0021 36.9875 20.6239 38.35 21.655 39.4469C21.1894 40.6781 20.2208 41.7219 20.2052 41.7344C19.9989 41.9531 19.9427 42.2719 20.0614 42.5469C20.1802 42.8219 20.452 43 20.752 43C22.6736 43 24.189 42.1969 25.0983 41.5531C26.0013 41.8375 26.9762 42 28.001 42C32.4192 42 36 39.0906 36 35.5C36 31.9094 32.4192 29 28.001 29ZM28.001 40.5C27.1668 40.5 26.3419 40.3719 25.5514 40.1219L24.8421 39.8969L24.2328 40.3281C23.786 40.6438 23.1735 40.9969 22.4361 41.2344C22.6642 40.8562 22.8861 40.4312 23.0579 39.9781L23.3891 39.1L22.7455 38.4187C22.1799 37.8156 21.5019 36.8188 21.5019 35.5C21.5019 32.7438 24.4171 30.5 28.001 30.5C31.5849 30.5 34.5002 32.7438 34.5002 35.5C34.5002 38.2562 31.5849 40.5 28.001 40.5Z" fill="white"/>
<path d="M28.001 55C23.5829 55 20.0021 57.9094 20.0021 61.5C20.0021 62.9875 20.6239 64.35 21.655 65.4469C21.1894 66.6781 20.2208 67.7219 20.2052 67.7344C19.9989 67.9531 19.9427 68.2719 20.0614 68.5469C20.1802 68.8219 20.452 69 20.752 69C22.6736 69 24.189 68.1969 25.0983 67.5531C26.0013 67.8375 26.9762 68 28.001 68C32.4192 68 36 65.0906 36 61.5C36 57.9094 32.4192 55 28.001 55ZM28.001 66.5C27.1668 66.5 26.3419 66.3719 25.5514 66.1219L24.8421 65.8969L24.2328 66.3281C23.786 66.6438 23.1735 66.9969 22.4361 67.2344C22.6642 66.8562 22.8861 66.4312 23.0579 65.9781L23.3891 65.1L22.7455 64.4187C22.1799 63.8156 21.5019 62.8188 21.5019 61.5C21.5019 58.7438 24.4171 56.5 28.001 56.5C31.5849 56.5 34.5002 58.7438 34.5002 61.5C34.5002 64.2562 31.5849 66.5 28.001 66.5Z" fill="white"/>
<path d="M27.999 95C32.4171 95 35.9979 92.0906 35.9979 88.5C35.9979 87.0125 35.3761 85.65 34.345 84.5531C34.8106 83.3219 35.7792 82.2781 35.7948 82.2656C36.0011 82.0469 36.0573 81.7281 35.9386 81.4531C35.8198 81.1781 35.548 81 35.248 81C33.3264 81 31.811 81.8031 30.9017 82.4469C29.9987 82.1625 29.0238 82 27.999 82C23.5808 82 20 84.9094 20 88.5C20 92.0906 23.5808 95 27.999 95ZM27.999 83.5C28.8332 83.5 29.6581 83.6281 30.4486 83.8781L31.1579 84.1031L31.7672 83.6719C32.214 83.3562 32.8265 83.0031 33.5639 82.7656C33.3358 83.1437 33.1139 83.5688 32.9421 84.0219L32.6109 84.9L33.2545 85.5812C33.8201 86.1844 34.4981 87.1812 34.4981 88.5C34.4981 91.2562 31.5829 93.5 27.999 93.5C24.4151 93.5 21.4998 91.2562 21.4998 88.5C21.4998 85.7437 24.4151 83.5 27.999 83.5Z" fill="white"/>
<path d="M27.999 121C32.4171 121 35.9979 118.091 35.9979 114.5C35.9979 113.013 35.3761 111.65 34.345 110.553C34.8106 109.322 35.7792 108.278 35.7948 108.266C36.0011 108.047 36.0573 107.728 35.9386 107.453C35.8198 107.178 35.548 107 35.248 107C33.3264 107 31.811 107.803 30.9017 108.447C29.9987 108.162 29.0238 108 27.999 108C23.5808 108 20 110.909 20 114.5C20 118.091 23.5808 121 27.999 121ZM27.999 109.5C28.8332 109.5 29.6581 109.628 30.4486 109.878L31.1579 110.103L31.7672 109.672C32.214 109.356 32.8265 109.003 33.5639 108.766C33.3358 109.144 33.1139 109.569 32.9421 110.022L32.6109 110.9L33.2545 111.581C33.8201 112.184 34.4981 113.181 34.4981 114.5C34.4981 117.256 31.5829 119.5 27.999 119.5C24.4151 119.5 21.4998 117.256 21.4998 114.5C21.4998 111.744 24.4151 109.5 27.999 109.5Z" fill="white"/>
</svg>
