<svg width="100" height="150" viewBox="0 0 100 150" fill="none" xmlns="http://www.w3.org/2000/svg">
<rect width="100" height="150" rx="6" fill="#1DA1F2"/>
<path d="M16.8693 22.243C16.8763 22.3414 16.8763 22.4398 16.8763 22.5383C16.8763 25.5406 14.6079 29 10.4619 29C9.18465 29 7.9981 28.6273 7 27.9805C7.18148 28.0016 7.35595 28.0086 7.54442 28.0086C8.59834 28.0086 9.56853 27.65 10.3433 27.0383C9.35216 27.0172 8.52157 26.3633 8.2354 25.4633C8.37501 25.4844 8.51459 25.4984 8.66118 25.4984C8.86358 25.4984 9.06601 25.4703 9.25445 25.4211C8.22146 25.2101 7.44668 24.2961 7.44668 23.1922V23.1641C7.7468 23.3328 8.09581 23.4383 8.46571 23.4523C7.85848 23.0445 7.46065 22.3484 7.46065 21.5609C7.46065 21.1391 7.5723 20.7523 7.76775 20.4148C8.87753 21.793 10.5457 22.6929 12.4162 22.7914C12.3813 22.6226 12.3604 22.4469 12.3604 22.2711C12.3604 21.0195 13.3655 20 14.6148 20C15.264 20 15.8502 20.2742 16.2621 20.7172C16.7716 20.6188 17.2601 20.4289 17.6929 20.1688C17.5254 20.6961 17.1694 21.1391 16.7018 21.4203C17.1555 21.3711 17.5952 21.2445 18 21.0688C17.6929 21.5187 17.309 21.9195 16.8693 22.243V22.243Z" fill="white"/>
<path d="M9.89923 18H7.64142V9.29688L4.94611 10.1328V8.29688L9.65704 6.60938H9.89923V18ZM19.2586 13.2969C19.2586 14.8698 18.9331 16.0729 18.282 16.9062C17.631 17.7396 16.6779 18.1562 15.4227 18.1562C14.1831 18.1562 13.2352 17.7474 12.5789 16.9297C11.9227 16.112 11.5867 14.9401 11.5711 13.4141V11.3203C11.5711 9.73177 11.8992 8.52604 12.5555 7.70312C13.2169 6.88021 14.1675 6.46875 15.407 6.46875C16.6466 6.46875 17.5945 6.8776 18.2508 7.69531C18.907 8.50781 19.243 9.67708 19.2586 11.2031V13.2969ZM17.0008 11C17.0008 10.0573 16.8706 9.3724 16.6102 8.94531C16.355 8.51302 15.9539 8.29688 15.407 8.29688C14.8758 8.29688 14.4826 8.5026 14.2274 8.91406C13.9774 9.32031 13.8445 9.95833 13.8289 10.8281V13.5938C13.8289 14.5208 13.9539 15.2109 14.2039 15.6641C14.4591 16.112 14.8654 16.3359 15.4227 16.3359C15.9748 16.3359 16.3732 16.1198 16.618 15.6875C16.8628 15.2552 16.9904 14.5938 17.0008 13.7031V11Z" fill="white"/>
<path d="M83.1307 128.757C83.1237 128.659 83.1237 128.56 83.1237 128.462C83.1237 125.459 85.3921 122 89.5381 122C90.8154 122 92.0019 122.373 93 123.02C92.8185 122.998 92.644 122.991 92.4556 122.991C91.4017 122.991 90.4315 123.35 89.6567 123.962C90.6478 123.983 91.4784 124.637 91.7646 125.537C91.625 125.516 91.4854 125.502 91.3388 125.502C91.1364 125.502 90.934 125.53 90.7456 125.579C91.7785 125.79 92.5533 126.704 92.5533 127.808L92.5533 127.836C92.2532 127.667 91.9042 127.562 91.5343 127.548C92.1415 127.955 92.5394 128.652 92.5394 129.439C92.5394 129.861 92.4277 130.248 92.2323 130.585C91.1225 129.207 89.4543 128.307 87.5838 128.209C87.6187 128.377 87.6396 128.553 87.6396 128.729C87.6396 129.98 86.6345 131 85.3852 131C84.736 131 84.1498 130.726 83.7379 130.283C83.2284 130.381 82.7399 130.571 82.3071 130.831C82.4746 130.304 82.8306 129.861 83.2982 129.58C82.8445 129.629 82.4048 129.755 82 129.931C82.3071 129.481 82.691 129.08 83.1307 128.757V128.757Z" fill="white"/>
<path d="M89.3836 134L91.6414 134L91.6414 142.703L94.3367 141.867L94.3367 143.703L89.6258 145.391L89.3836 145.391L89.3836 134ZM80.0242 138.703C80.0242 137.13 80.3498 135.927 81.0008 135.094C81.6518 134.26 82.605 133.844 83.8602 133.844C85.0998 133.844 86.0477 134.253 86.7039 135.07C87.3602 135.888 87.6961 137.06 87.7117 138.586L87.7117 140.68C87.7117 142.268 87.3836 143.474 86.7274 144.297C86.0659 145.12 85.1154 145.531 83.8758 145.531C82.6362 145.531 81.6883 145.122 81.032 144.305C80.3758 143.492 80.0399 142.323 80.0242 140.797L80.0242 138.703ZM82.282 141C82.282 141.943 82.4123 142.628 82.6727 143.055C82.9279 143.487 83.3289 143.703 83.8758 143.703C84.407 143.703 84.8003 143.497 85.0555 143.086C85.3055 142.68 85.4383 142.042 85.4539 141.172L85.4539 138.406C85.4539 137.479 85.3289 136.789 85.0789 136.336C84.8237 135.888 84.4175 135.664 83.8602 135.664C83.3081 135.664 82.9096 135.88 82.6649 136.312C82.4201 136.745 82.2925 137.406 82.282 138.297L82.282 141Z" fill="white"/>
<path d="M74.001 44C69.5829 44 66.0021 46.9094 66.0021 50.5C66.0021 51.9875 66.6239 53.35 67.655 54.4469C67.1894 55.6781 66.2208 56.7219 66.2052 56.7344C65.9989 56.9531 65.9427 57.2719 66.0614 57.5469C66.1802 57.8219 66.452 58 66.752 58C68.6736 58 70.189 57.1969 71.0983 56.5531C72.0013 56.8375 72.9762 57 74.001 57C78.4192 57 82 54.0906 82 50.5C82 46.9094 78.4192 44 74.001 44ZM74.001 55.5C73.1668 55.5 72.3419 55.3719 71.5514 55.1219L70.8421 54.8969L70.2328 55.3281C69.786 55.6438 69.1735 55.9969 68.4361 56.2344C68.6642 55.8562 68.8861 55.4312 69.0579 54.9781L69.3891 54.1L68.7455 53.4187C68.1799 52.8156 67.5019 51.8188 67.5019 50.5C67.5019 47.7438 70.4171 45.5 74.001 45.5C77.5849 45.5 80.5002 47.7438 80.5002 50.5C80.5002 53.2562 77.5849 55.5 74.001 55.5Z" fill="white"/>
<path d="M74.001 70C69.5829 70 66.0021 72.9094 66.0021 76.5C66.0021 77.9875 66.6239 79.35 67.655 80.4469C67.1894 81.6781 66.2208 82.7219 66.2052 82.7344C65.9989 82.9531 65.9427 83.2719 66.0614 83.5469C66.1802 83.8219 66.452 84 66.752 84C68.6736 84 70.189 83.1969 71.0983 82.5531C72.0013 82.8375 72.9762 83 74.001 83C78.4192 83 82 80.0906 82 76.5C82 72.9094 78.4192 70 74.001 70ZM74.001 81.5C73.1668 81.5 72.3419 81.3719 71.5514 81.1219L70.8421 80.8969L70.2328 81.3281C69.786 81.6438 69.1735 81.9969 68.4361 82.2344C68.6642 81.8562 68.8861 81.4312 69.0579 80.9781L69.3891 80.1L68.7455 79.4187C68.1799 78.8156 67.5019 77.8188 67.5019 76.5C67.5019 73.7438 70.4171 71.5 74.001 71.5C77.5849 71.5 80.5002 73.7438 80.5002 76.5C80.5002 79.2562 77.5849 81.5 74.001 81.5Z" fill="white"/>
<path d="M73.999 110C78.4171 110 81.9979 107.091 81.9979 103.5C81.9979 102.013 81.3761 100.65 80.345 99.5531C80.8106 98.3219 81.7792 97.2781 81.7948 97.2656C82.0011 97.0469 82.0573 96.7281 81.9386 96.4531C81.8198 96.1781 81.548 96 81.248 96C79.3264 96 77.811 96.8031 76.9017 97.4469C75.9987 97.1625 75.0238 97 73.999 97C69.5808 97 66 99.9094 66 103.5C66 107.091 69.5808 110 73.999 110ZM73.999 98.5C74.8332 98.5 75.6581 98.6281 76.4486 98.8781L77.1579 99.1031L77.7672 98.6719C78.214 98.3562 78.8265 98.0031 79.5639 97.7656C79.3358 98.1437 79.1139 98.5688 78.9421 99.0219L78.6109 99.9L79.2545 100.581C79.8201 101.184 80.4981 102.181 80.4981 103.5C80.4981 106.256 77.5829 108.5 73.999 108.5C70.4151 108.5 67.4998 106.256 67.4998 103.5C67.4998 100.744 70.4151 98.5 73.999 98.5Z" fill="white"/>
<path d="M29.001 44C24.5829 44 21.0021 46.9094 21.0021 50.5C21.0021 51.9875 21.6239 53.35 22.655 54.4469C22.1894 55.6781 21.2208 56.7219 21.2052 56.7344C20.9989 56.9531 20.9427 57.2719 21.0614 57.5469C21.1802 57.8219 21.452 58 21.752 58C23.6736 58 25.189 57.1969 26.0983 56.5531C27.0013 56.8375 27.9762 57 29.001 57C33.4192 57 37 54.0906 37 50.5C37 46.9094 33.4192 44 29.001 44ZM29.001 55.5C28.1668 55.5 27.3419 55.3719 26.5514 55.1219L25.8421 54.8969L25.2328 55.3281C24.786 55.6438 24.1735 55.9969 23.4361 56.2344C23.6642 55.8562 23.8861 55.4312 24.0579 54.9781L24.3891 54.1L23.7455 53.4187C23.1799 52.8156 22.5019 51.8188 22.5019 50.5C22.5019 47.7438 25.4171 45.5 29.001 45.5C32.5849 45.5 35.5002 47.7438 35.5002 50.5C35.5002 53.2562 32.5849 55.5 29.001 55.5Z" fill="white"/>
<path d="M29.001 70C24.5829 70 21.0021 72.9094 21.0021 76.5C21.0021 77.9875 21.6239 79.35 22.655 80.4469C22.1894 81.6781 21.2208 82.7219 21.2052 82.7344C20.9989 82.9531 20.9427 83.2719 21.0614 83.5469C21.1802 83.8219 21.452 84 21.752 84C23.6736 84 25.189 83.1969 26.0983 82.5531C27.0013 82.8375 27.9762 83 29.001 83C33.4192 83 37 80.0906 37 76.5C37 72.9094 33.4192 70 29.001 70ZM29.001 81.5C28.1668 81.5 27.3419 81.3719 26.5514 81.1219L25.8421 80.8969L25.2328 81.3281C24.786 81.6438 24.1735 81.9969 23.4361 82.2344C23.6642 81.8562 23.8861 81.4312 24.0579 80.9781L24.3891 80.1L23.7455 79.4187C23.1799 78.8156 22.5019 77.8188 22.5019 76.5C22.5019 73.7438 25.4171 71.5 29.001 71.5C32.5849 71.5 35.5002 73.7438 35.5002 76.5C35.5002 79.2562 32.5849 81.5 29.001 81.5Z" fill="white"/>
<path d="M28.999 110C33.4171 110 36.9979 107.091 36.9979 103.5C36.9979 102.013 36.3761 100.65 35.345 99.5531C35.8106 98.3219 36.7792 97.2781 36.7948 97.2656C37.0011 97.0469 37.0573 96.7281 36.9386 96.4531C36.8198 96.1781 36.548 96 36.248 96C34.3264 96 32.811 96.8031 31.9017 97.4469C30.9987 97.1625 30.0238 97 28.999 97C24.5808 97 21 99.9094 21 103.5C21 107.091 24.5808 110 28.999 110ZM28.999 98.5C29.8332 98.5 30.6581 98.6281 31.4486 98.8781L32.1579 99.1031L32.7672 98.6719C33.214 98.3562 33.8265 98.0031 34.5639 97.7656C34.3358 98.1437 34.1139 98.5688 33.9421 99.0219L33.6109 99.9L34.2545 100.581C34.8201 101.184 35.4981 102.181 35.4981 103.5C35.4981 106.256 32.5829 108.5 28.999 108.5C25.4151 108.5 22.4998 106.256 22.4998 103.5C22.4998 100.744 25.4151 98.5 28.999 98.5Z" fill="white"/>
<path d="M52.001 29C47.5829 29 44.0021 31.9094 44.0021 35.5C44.0021 36.9875 44.6239 38.35 45.655 39.4469C45.1894 40.6781 44.2208 41.7219 44.2052 41.7344C43.9989 41.9531 43.9427 42.2719 44.0614 42.5469C44.1802 42.8219 44.452 43 44.752 43C46.6736 43 48.189 42.1969 49.0983 41.5531C50.0013 41.8375 50.9762 42 52.001 42C56.4192 42 60 39.0906 60 35.5C60 31.9094 56.4192 29 52.001 29ZM52.001 40.5C51.1668 40.5 50.3419 40.3719 49.5514 40.1219L48.8421 39.8969L48.2328 40.3281C47.786 40.6438 47.1735 40.9969 46.4361 41.2344C46.6642 40.8562 46.8861 40.4312 47.0579 39.9781L47.3891 39.1L46.7455 38.4187C46.1799 37.8156 45.5019 36.8188 45.5019 35.5C45.5019 32.7438 48.4171 30.5 52.001 30.5C55.5849 30.5 58.5002 32.7438 58.5002 35.5C58.5002 38.2562 55.5849 40.5 52.001 40.5Z" fill="white"/>
<path d="M52.001 55C47.5829 55 44.0021 57.9094 44.0021 61.5C44.0021 62.9875 44.6239 64.35 45.655 65.4469C45.1894 66.6781 44.2208 67.7219 44.2052 67.7344C43.9989 67.9531 43.9427 68.2719 44.0614 68.5469C44.1802 68.8219 44.452 69 44.752 69C46.6736 69 48.189 68.1969 49.0983 67.5531C50.0013 67.8375 50.9762 68 52.001 68C56.4192 68 60 65.0906 60 61.5C60 57.9094 56.4192 55 52.001 55ZM52.001 66.5C51.1668 66.5 50.3419 66.3719 49.5514 66.1219L48.8421 65.8969L48.2328 66.3281C47.786 66.6438 47.1735 66.9969 46.4361 67.2344C46.6642 66.8562 46.8861 66.4312 47.0579 65.9781L47.3891 65.1L46.7455 64.4187C46.1799 63.8156 45.5019 62.8188 45.5019 61.5C45.5019 58.7438 48.4171 56.5 52.001 56.5C55.5849 56.5 58.5002 58.7438 58.5002 61.5C58.5002 64.2562 55.5849 66.5 52.001 66.5Z" fill="white"/>
<path d="M51.999 95C56.4171 95 59.9979 92.0906 59.9979 88.5C59.9979 87.0125 59.3761 85.65 58.345 84.5531C58.8106 83.3219 59.7792 82.2781 59.7948 82.2656C60.0011 82.0469 60.0573 81.7281 59.9386 81.4531C59.8198 81.1781 59.548 81 59.248 81C57.3264 81 55.811 81.8031 54.9017 82.4469C53.9987 82.1625 53.0238 82 51.999 82C47.5808 82 44 84.9094 44 88.5C44 92.0906 47.5808 95 51.999 95ZM51.999 83.5C52.8332 83.5 53.6581 83.6281 54.4486 83.8781L55.1579 84.1031L55.7672 83.6719C56.214 83.3562 56.8265 83.0031 57.5639 82.7656C57.3358 83.1437 57.1139 83.5688 56.9421 84.0219L56.6109 84.9L57.2545 85.5812C57.8201 86.1844 58.4981 87.1812 58.4981 88.5C58.4981 91.2562 55.5829 93.5 51.999 93.5C48.4151 93.5 45.4998 91.2562 45.4998 88.5C45.4998 85.7437 48.4151 83.5 51.999 83.5Z" fill="white"/>
<path d="M51.999 121C56.4171 121 59.9979 118.091 59.9979 114.5C59.9979 113.013 59.3761 111.65 58.345 110.553C58.8106 109.322 59.7792 108.278 59.7948 108.266C60.0011 108.047 60.0573 107.728 59.9386 107.453C59.8198 107.178 59.548 107 59.248 107C57.3264 107 55.811 107.803 54.9017 108.447C53.9987 108.162 53.0238 108 51.999 108C47.5808 108 44 110.909 44 114.5C44 118.091 47.5808 121 51.999 121ZM51.999 109.5C52.8332 109.5 53.6581 109.628 54.4486 109.878L55.1579 110.103L55.7672 109.672C56.214 109.356 56.8265 109.003 57.5639 108.766C57.3358 109.144 57.1139 109.569 56.9421 110.022L56.6109 110.9L57.2545 111.581C57.8201 112.184 58.4981 113.181 58.4981 114.5C58.4981 117.256 55.5829 119.5 51.999 119.5C48.4151 119.5 45.4998 117.256 45.4998 114.5C45.4998 111.744 48.4151 109.5 51.999 109.5Z" fill="white"/>
</svg>
