<svg width="100" height="150" viewBox="0 0 100 150" fill="none" xmlns="http://www.w3.org/2000/svg">
<rect width="100" height="150" rx="6" fill="#1DA1F2"/>
<path d="M16.2781 10.8916C16.2781 12.0869 16.0848 13.127 15.6981 14.0117C15.3113 14.8906 14.7752 15.5967 14.0897 16.1299L16.2166 17.7998L14.5379 19.2852L11.8133 17.0967C11.5027 17.1494 11.1805 17.1758 10.8465 17.1758C9.78595 17.1758 8.83966 16.9209 8.00763 16.4111C7.1756 15.9014 6.53107 15.1748 6.07404 14.2314C5.617 13.2822 5.38556 12.1924 5.3797 10.9619V10.3291C5.3797 9.06934 5.60529 7.96191 6.05646 7.00684C6.51349 6.0459 7.15509 5.31055 7.98126 4.80078C8.81329 4.28516 9.76251 4.02734 10.8289 4.02734C11.8953 4.02734 12.8416 4.28516 13.6678 4.80078C14.4998 5.31055 15.1414 6.0459 15.5926 7.00684C16.0496 7.96191 16.2781 9.06641 16.2781 10.3203V10.8916ZM13.6063 10.3115C13.6063 8.96973 13.366 7.9502 12.8856 7.25293C12.4051 6.55566 11.7195 6.20703 10.8289 6.20703C9.94415 6.20703 9.26154 6.55273 8.78107 7.24414C8.3006 7.92969 8.05743 8.9375 8.05157 10.2676V10.8916C8.05157 12.1982 8.29181 13.2119 8.77228 13.9326C9.25275 14.6533 9.94415 15.0137 10.8465 15.0137C11.7313 15.0137 12.4109 14.668 12.8856 13.9766C13.3602 13.2793 13.6004 12.2656 13.6063 10.9355V10.3115Z" fill="white"/>
<path d="M14.8693 22.243C14.8763 22.3414 14.8763 22.4398 14.8763 22.5383C14.8763 25.5406 12.6079 29 8.46194 29C7.18465 29 5.9981 28.6273 5 27.9805C5.18148 28.0016 5.35595 28.0086 5.54442 28.0086C6.59834 28.0086 7.56853 27.65 8.34328 27.0383C7.35216 27.0172 6.52157 26.3633 6.2354 25.4633C6.37501 25.4844 6.51459 25.4984 6.66118 25.4984C6.86358 25.4984 7.06601 25.4703 7.25445 25.4211C6.22146 25.2101 5.44668 24.2961 5.44668 23.1922V23.1641C5.7468 23.3328 6.09581 23.4383 6.46571 23.4523C5.85848 23.0445 5.46065 22.3484 5.46065 21.5609C5.46065 21.1391 5.5723 20.7523 5.76775 20.4148C6.87753 21.793 8.54569 22.6929 10.4162 22.7914C10.3813 22.6226 10.3604 22.4469 10.3604 22.2711C10.3604 21.0195 11.3655 20 12.6148 20C13.264 20 13.8502 20.2742 14.2621 20.7172C14.7716 20.6188 15.2601 20.4289 15.6929 20.1688C15.5254 20.6961 15.1694 21.1391 14.7018 21.4203C15.1555 21.3711 15.5952 21.2445 16 21.0688C15.6929 21.5187 15.309 21.9195 14.8693 22.243V22.243Z" fill="white"/>
<path d="M83.7219 139.108C83.7219 137.913 83.9152 136.873 84.3019 135.988C84.6887 135.109 85.2248 134.403 85.9103 133.87L83.7834 132.2L85.4621 130.715L88.1867 132.903C88.4973 132.851 88.8195 132.824 89.1535 132.824C90.2141 132.824 91.1603 133.079 91.9924 133.589C92.8244 134.099 93.4689 134.825 93.926 135.769C94.383 136.718 94.6144 137.808 94.6203 139.038L94.6203 139.671C94.6203 140.931 94.3947 142.038 93.9435 142.993C93.4865 143.954 92.8449 144.689 92.0187 145.199C91.1867 145.715 90.2375 145.973 89.1711 145.973C88.1047 145.973 87.1584 145.715 86.3322 145.199C85.5002 144.689 84.8586 143.954 84.4074 142.993C83.9504 142.038 83.7219 140.934 83.7219 139.68L83.7219 139.108ZM86.3937 139.688C86.3937 141.03 86.634 142.05 87.1144 142.747C87.5949 143.444 88.2805 143.793 89.1711 143.793C90.0558 143.793 90.7385 143.447 91.2189 142.756C91.6994 142.07 91.9426 141.062 91.9484 139.732L91.9484 139.108C91.9484 137.802 91.7082 136.788 91.2277 136.067C90.7473 135.347 90.0558 134.986 89.1535 134.986C88.2687 134.986 87.5891 135.332 87.1144 136.023C86.6398 136.721 86.3996 137.734 86.3937 139.064L86.3937 139.688Z" fill="white"/>
<path d="M85.1307 127.757C85.1237 127.659 85.1237 127.56 85.1237 127.462C85.1237 124.459 87.3921 121 91.5381 121C92.8154 121 94.0019 121.373 95 122.02C94.8185 121.998 94.644 121.991 94.4556 121.991C93.4017 121.991 92.4315 122.35 91.6567 122.962C92.6478 122.983 93.4784 123.637 93.7646 124.537C93.625 124.516 93.4854 124.502 93.3388 124.502C93.1364 124.502 92.934 124.53 92.7456 124.579C93.7785 124.79 94.5533 125.704 94.5533 126.808L94.5533 126.836C94.2532 126.667 93.9042 126.562 93.5343 126.548C94.1415 126.955 94.5394 127.652 94.5394 128.439C94.5394 128.861 94.4277 129.248 94.2323 129.585C93.1225 128.207 91.4543 127.307 89.5838 127.209C89.6187 127.377 89.6396 127.553 89.6396 127.729C89.6396 128.98 88.6345 130 87.3852 130C86.736 130 86.1498 129.726 85.7379 129.283C85.2284 129.381 84.7399 129.571 84.3071 129.831C84.4746 129.304 84.8306 128.861 85.2982 128.58C84.8445 128.629 84.4048 128.755 84 128.931C84.3071 128.481 84.691 128.08 85.1307 127.757V127.757Z" fill="white"/>
<path d="M73.0382 62.7132C73.075 63.2273 73.075 63.7414 73.075 64.2555C73.075 79.9343 61.1144 98 39.2539 98C32.519 98 26.2627 96.0538 21 92.6758C21.9569 92.7859 22.8769 92.8227 23.8706 92.8227C29.4276 92.8227 34.5432 90.9501 38.6282 87.7555C33.4023 87.6453 29.0228 84.2305 27.5139 79.5305C28.25 79.6405 28.986 79.714 29.7589 79.714C30.8262 79.714 31.8935 79.5671 32.8871 79.3102C27.4404 78.2085 23.3552 73.4351 23.3552 67.6703V67.5235C24.9377 68.4047 26.7779 68.9555 28.7283 69.0289C25.5265 66.8991 23.4289 63.264 23.4289 59.1515C23.4289 56.9484 24.0176 54.9289 25.0481 53.1664C30.8997 60.3632 39.6954 65.0631 49.5583 65.5773C49.3743 64.696 49.2639 63.7782 49.2639 62.8602C49.2639 56.3242 54.5634 51 61.151 51C64.5736 51 67.6649 52.432 69.8363 54.7453C72.5228 54.2313 75.0989 53.2398 77.3808 51.8813C76.4974 54.6352 74.6205 56.9485 72.1548 58.4172C74.547 58.1603 76.8655 57.4992 79 56.5813C77.381 58.9312 75.3567 61.0241 73.0382 62.7132V62.7132Z" fill="white"/>
</svg>
