<svg width="100" height="150" viewBox="0 0 100 150" fill="none" xmlns="http://www.w3.org/2000/svg">
<rect width="100" height="150" rx="6" fill="#FF0000"/>
<path d="M15.7701 21.2517C15.6436 20.759 15.2709 20.371 14.7976 20.2393C13.9398 20 10.5 20 10.5 20C10.5 20 7.06022 20 6.20237 20.2393C5.7291 20.371 5.35636 20.759 5.22986 21.2517C5 22.1448 5 24.0081 5 24.0081C5 24.0081 5 25.8714 5.22986 26.7644C5.35636 27.2571 5.7291 27.629 6.20237 27.7607C7.06022 28 10.5 28 10.5 28C10.5 28 13.9398 28 14.7976 27.7607C15.2709 27.629 15.6436 27.2571 15.7701 26.7644C16 25.8714 16 24.0081 16 24.0081C16 24.0081 16 22.1448 15.7701 21.2517ZM9.37499 25.6998V22.3164L12.25 24.0081L9.37499 25.6998Z" fill="white"/>
<path d="M14.283 17H5.51154V15.2598L9.65118 10.8477C10.2195 10.2266 10.6385 9.68457 10.908 9.22168C11.1834 8.75879 11.3211 8.31934 11.3211 7.90332C11.3211 7.33496 11.1776 6.88965 10.8904 6.56738C10.6033 6.23926 10.1932 6.0752 9.65997 6.0752C9.08575 6.0752 8.63165 6.27441 8.29767 6.67285C7.96954 7.06543 7.80548 7.58398 7.80548 8.22852H5.25665C5.25665 7.44922 5.44122 6.7373 5.81036 6.09277C6.18536 5.44824 6.71271 4.94434 7.3924 4.58105C8.07208 4.21191 8.84259 4.02734 9.70392 4.02734C11.0223 4.02734 12.0447 4.34375 12.7713 4.97656C13.5037 5.60938 13.8699 6.50293 13.8699 7.65723C13.8699 8.29004 13.7059 8.93457 13.3777 9.59082C13.0496 10.2471 12.4871 11.0117 11.6902 11.8848L8.78107 14.9521H14.283V17Z" fill="white"/>
<path d="M85.2299 128.748C85.3564 129.241 85.7291 129.629 86.2024 129.761C87.0602 130 90.5 130 90.5 130C90.5 130 93.9398 130 94.7976 129.761C95.2709 129.629 95.6436 129.241 95.7701 128.748C96 127.855 96 125.992 96 125.992C96 125.992 96 124.129 95.7701 123.236C95.6436 122.743 95.2709 122.371 94.7976 122.239C93.9398 122 90.5 122 90.5 122C90.5 122 87.0602 122 86.2024 122.239C85.7291 122.371 85.3564 122.743 85.2299 123.236C85 124.129 85 125.992 85 125.992C85 125.992 85 127.855 85.2299 128.748ZM91.625 124.3L91.625 127.684L88.75 125.992L91.625 124.3Z" fill="white"/>
<path d="M86.717 133L95.4885 133L95.4885 134.74L91.3488 139.152C90.7805 139.773 90.3615 140.315 90.092 140.778C89.8166 141.241 89.6789 141.681 89.6789 142.097C89.6789 142.665 89.8224 143.11 90.1096 143.433C90.3967 143.761 90.8068 143.925 91.34 143.925C91.9142 143.925 92.3683 143.726 92.7023 143.327C93.0305 142.935 93.1945 142.416 93.1945 141.771L95.7433 141.771C95.7433 142.551 95.5588 143.263 95.1896 143.907C94.8146 144.552 94.2873 145.056 93.6076 145.419C92.9279 145.788 92.1574 145.973 91.2961 145.973C89.9777 145.973 88.9553 145.656 88.2287 145.023C87.4963 144.391 87.1301 143.497 87.1301 142.343C87.1301 141.71 87.2941 141.065 87.6223 140.409C87.9504 139.753 88.5129 138.988 89.3098 138.115L92.2189 135.048L86.717 135.048L86.717 133Z" fill="white"/>
<path d="M49.5 36.5417C49.0032 36.549 48.51 36.6235 48.0356 36.763C48.2551 37.1275 48.3719 37.539 48.375 37.9583C48.375 38.2839 48.3071 38.6063 48.1752 38.9071C48.0433 39.2079 47.8499 39.4812 47.6062 39.7114C47.3624 39.9416 47.073 40.1242 46.7545 40.2488C46.4361 40.3734 46.0947 40.4375 45.75 40.4375C45.306 40.4346 44.8703 40.3242 44.4844 40.117C44.1799 41.1143 44.2154 42.1768 44.5858 43.1541C44.9562 44.1313 45.6428 44.9737 46.5484 45.5619C47.4539 46.1501 48.5324 46.4543 49.6311 46.4314C50.7299 46.4086 51.7932 46.0598 52.6704 45.4345C53.5476 44.8092 54.1942 43.9391 54.5188 42.9474C54.8433 41.9557 54.8292 40.8927 54.4785 39.909C54.1278 38.9253 53.4582 38.0708 52.5647 37.4664C51.6712 36.8621 50.599 36.5385 49.5 36.5417V36.5417ZM62.8369 40.8536C60.2949 36.1693 55.2624 33 49.5 33C43.7376 33 38.7037 36.1716 36.1631 40.8541C36.0559 41.0544 36 41.2757 36 41.5002C36 41.7247 36.0559 41.946 36.1631 42.1464C38.7051 46.8307 43.7376 50 49.5 50C55.2624 50 60.2963 46.8284 62.8369 42.1459C62.9441 41.9456 63 41.7243 63 41.4998C63 41.2753 62.9441 41.054 62.8369 40.8536V40.8536ZM49.5 47.875C44.8758 47.875 40.6364 45.4401 38.347 41.5C40.6364 37.5599 44.8753 35.125 49.5 35.125C54.1247 35.125 58.3636 37.5599 60.653 41.5C58.3641 45.4401 54.1247 47.875 49.5 47.875Z" fill="white"/>
<path d="M49.5 101.75C49.0032 101.758 48.51 101.837 48.0356 101.984C48.2551 102.37 48.3719 102.806 48.375 103.25C48.375 103.595 48.3071 103.936 48.1752 104.255C48.0433 104.573 47.8499 104.862 47.6062 105.106C47.3624 105.35 47.073 105.543 46.7545 105.675C46.4361 105.807 46.0947 105.875 45.75 105.875C45.306 105.872 44.8703 105.755 44.4844 105.536C44.1799 106.592 44.2154 107.717 44.5858 108.751C44.9562 109.786 45.6428 110.678 46.5484 111.301C47.4539 111.924 48.5324 112.246 49.6311 112.222C50.7299 112.197 51.7932 111.828 52.6704 111.166C53.5476 110.504 54.1942 109.583 54.5188 108.533C54.8433 107.483 54.8292 106.357 54.4785 105.315C54.1278 104.274 53.4582 103.369 52.5647 102.729C51.6712 102.089 50.599 101.747 49.5 101.75V101.75ZM62.8369 106.316C60.2949 101.356 55.2624 98 49.5 98C43.7376 98 38.7037 101.358 36.1631 106.316C36.0559 106.528 36 106.763 36 107C36 107.238 36.0559 107.472 36.1631 107.684C38.7051 112.644 43.7376 116 49.5 116C55.2624 116 60.2963 112.642 62.8369 107.684C62.9441 107.472 63 107.237 63 107C63 106.762 62.9441 106.528 62.8369 106.316V106.316ZM49.5 113.75C44.8758 113.75 40.6364 111.172 38.347 107C40.6364 102.828 44.8753 100.25 49.5 100.25C54.1247 100.25 58.3636 102.828 60.653 107C58.3641 111.172 54.1247 113.75 49.5 113.75Z" fill="white"/>
</svg>
