<svg width="100" height="150" viewBox="0 0 100 150" fill="none" xmlns="http://www.w3.org/2000/svg">
<rect width="100" height="150" rx="6" fill="#FF0000"/>
<path d="M15.7701 21.2517C15.6436 20.759 15.2709 20.371 14.7976 20.2393C13.9398 20 10.5 20 10.5 20C10.5 20 7.06022 20 6.20237 20.2393C5.7291 20.371 5.35636 20.759 5.22986 21.2517C5 22.1448 5 24.0081 5 24.0081C5 24.0081 5 25.8714 5.22986 26.7644C5.35636 27.2571 5.7291 27.629 6.20237 27.7607C7.06022 28 10.5 28 10.5 28C10.5 28 13.9398 28 14.7976 27.7607C15.2709 27.629 15.6436 27.2571 15.7701 26.7644C16 25.8714 16 24.0081 16 24.0081C16 24.0081 16 22.1448 15.7701 21.2517ZM9.37499 25.6998V22.3164L12.25 24.0081L9.37499 25.6998Z" fill="white"/>
<path d="M8.09552 9.47656H9.44904C10.0936 9.47656 10.5711 9.31543 10.8817 8.99316C11.1922 8.6709 11.3475 8.24316 11.3475 7.70996C11.3475 7.19434 11.1922 6.79297 10.8817 6.50586C10.577 6.21875 10.1551 6.0752 9.61603 6.0752C9.1297 6.0752 8.72247 6.20996 8.39435 6.47949C8.06622 6.74316 7.90216 7.08887 7.90216 7.5166H5.36212C5.36212 6.84863 5.54083 6.25098 5.89825 5.72363C6.26154 5.19043 6.76544 4.77441 7.40997 4.47559C8.06036 4.17676 8.77521 4.02734 9.5545 4.02734C10.908 4.02734 11.9686 4.35254 12.7361 5.00293C13.5037 5.64746 13.8875 6.53809 13.8875 7.6748C13.8875 8.26074 13.7088 8.7998 13.3514 9.29199C12.994 9.78418 12.5252 10.1621 11.9451 10.4258C12.6658 10.6836 13.202 11.0703 13.5535 11.5859C13.9109 12.1016 14.0897 12.7109 14.0897 13.4141C14.0897 14.5508 13.6736 15.4619 12.8416 16.1475C12.0154 16.833 10.9197 17.1758 9.5545 17.1758C8.27716 17.1758 7.23126 16.8389 6.41681 16.165C5.60822 15.4912 5.20392 14.6006 5.20392 13.4932H7.74396C7.74396 13.9736 7.92267 14.3662 8.28009 14.6709C8.64337 14.9756 9.08868 15.1279 9.61603 15.1279C10.2195 15.1279 10.6912 14.9697 11.0311 14.6533C11.3768 14.3311 11.5496 13.9062 11.5496 13.3789C11.5496 12.1016 10.8465 11.4629 9.44025 11.4629H8.09552V9.47656Z" fill="white"/>
<path d="M85.2299 128.748C85.3564 129.241 85.7291 129.629 86.2024 129.761C87.0602 130 90.5 130 90.5 130C90.5 130 93.9398 130 94.7976 129.761C95.2709 129.629 95.6436 129.241 95.7701 128.748C96 127.855 96 125.992 96 125.992C96 125.992 96 124.129 95.7701 123.236C95.6436 122.743 95.2709 122.371 94.7976 122.239C93.9398 122 90.5 122 90.5 122C90.5 122 87.0602 122 86.2024 122.239C85.7291 122.371 85.3564 122.743 85.2299 123.236C85 124.129 85 125.992 85 125.992C85 125.992 85 127.855 85.2299 128.748ZM91.625 124.3L91.625 127.684L88.75 125.992L91.625 124.3Z" fill="white"/>
<path d="M92.9045 140.523L91.551 140.523C90.9064 140.523 90.4289 140.685 90.1183 141.007C89.8078 141.329 89.6525 141.757 89.6525 142.29C89.6525 142.806 89.8078 143.207 90.1183 143.494C90.423 143.781 90.8449 143.925 91.384 143.925C91.8703 143.925 92.2775 143.79 92.6057 143.521C92.9338 143.257 93.0978 142.911 93.0978 142.483L95.6379 142.483C95.6379 143.151 95.4592 143.749 95.1017 144.276C94.7385 144.81 94.2346 145.226 93.59 145.524C92.9396 145.823 92.2248 145.973 91.4455 145.973C90.092 145.973 89.0314 145.647 88.2639 144.997C87.4963 144.353 87.1125 143.462 87.1125 142.325C87.1125 141.739 87.2912 141.2 87.6486 140.708C88.006 140.216 88.4748 139.838 89.0549 139.574C88.3342 139.316 87.798 138.93 87.4465 138.414C87.0891 137.898 86.9103 137.289 86.9103 136.586C86.9103 135.449 87.3264 134.538 88.1584 133.853C88.9846 133.167 90.0803 132.824 91.4455 132.824C92.7228 132.824 93.7687 133.161 94.5832 133.835C95.3918 134.509 95.7961 135.399 95.7961 136.507L93.256 136.507C93.256 136.026 93.0773 135.634 92.7199 135.329C92.3566 135.024 91.9113 134.872 91.384 134.872C90.7805 134.872 90.3088 135.03 89.9689 135.347C89.6232 135.669 89.4504 136.094 89.4504 136.621C89.4504 137.898 90.1535 138.537 91.5598 138.537L92.9045 138.537L92.9045 140.523Z" fill="white"/>
<path d="M50.5 37.5417C50.0032 37.549 49.51 37.6235 49.0356 37.763C49.2551 38.1275 49.3719 38.539 49.375 38.9583C49.375 39.2839 49.3071 39.6063 49.1752 39.9071C49.0433 40.2079 48.8499 40.4812 48.6062 40.7114C48.3624 40.9416 48.073 41.1242 47.7545 41.2488C47.4361 41.3734 47.0947 41.4375 46.75 41.4375C46.306 41.4346 45.8703 41.3242 45.4844 41.117C45.1799 42.1143 45.2154 43.1768 45.5858 44.1541C45.9562 45.1313 46.6428 45.9737 47.5484 46.5619C48.4539 47.1501 49.5324 47.4543 50.6311 47.4314C51.7299 47.4086 52.7932 47.0598 53.6704 46.4345C54.5476 45.8092 55.1942 44.9391 55.5188 43.9474C55.8433 42.9557 55.8292 41.8927 55.4785 40.909C55.1278 39.9253 54.4582 39.0708 53.5647 38.4664C52.6712 37.8621 51.599 37.5385 50.5 37.5417V37.5417ZM63.8369 41.8536C61.2949 37.1693 56.2624 34 50.5 34C44.7376 34 39.7037 37.1716 37.1631 41.8541C37.0559 42.0544 37 42.2757 37 42.5002C37 42.7247 37.0559 42.946 37.1631 43.1464C39.7051 47.8307 44.7376 51 50.5 51C56.2624 51 61.2963 47.8284 63.8369 43.1459C63.9441 42.9456 64 42.7243 64 42.4998C64 42.2753 63.9441 42.054 63.8369 41.8536V41.8536ZM50.5 48.875C45.8758 48.875 41.6364 46.4401 39.347 42.5C41.6364 38.5599 45.8753 36.125 50.5 36.125C55.1247 36.125 59.3636 38.5599 61.653 42.5C59.3641 46.4401 55.1247 48.875 50.5 48.875Z" fill="white"/>
<path d="M50.5 70.5417C50.0032 70.549 49.51 70.6235 49.0356 70.763C49.2551 71.1275 49.3719 71.539 49.375 71.9583C49.375 72.2839 49.3071 72.6063 49.1752 72.9071C49.0433 73.2079 48.8499 73.4812 48.6062 73.7114C48.3624 73.9416 48.073 74.1242 47.7545 74.2488C47.4361 74.3734 47.0947 74.4375 46.75 74.4375C46.306 74.4346 45.8703 74.3242 45.4844 74.117C45.1799 75.1143 45.2154 76.1768 45.5858 77.1541C45.9562 78.1313 46.6428 78.9737 47.5484 79.5619C48.4539 80.1501 49.5324 80.4543 50.6311 80.4314C51.7299 80.4086 52.7932 80.0598 53.6704 79.4345C54.5476 78.8092 55.1942 77.9391 55.5188 76.9474C55.8433 75.9557 55.8292 74.8927 55.4785 73.909C55.1278 72.9253 54.4582 72.0708 53.5647 71.4664C52.6712 70.8621 51.599 70.5385 50.5 70.5417V70.5417ZM63.8369 74.8536C61.2949 70.1693 56.2624 67 50.5 67C44.7376 67 39.7037 70.1716 37.1631 74.8541C37.0559 75.0544 37 75.2757 37 75.5002C37 75.7247 37.0559 75.946 37.1631 76.1464C39.7051 80.8307 44.7376 84 50.5 84C56.2624 84 61.2963 80.8284 63.8369 76.1459C63.9441 75.9456 64 75.7243 64 75.4998C64 75.2753 63.9441 75.054 63.8369 74.8536V74.8536ZM50.5 81.875C45.8758 81.875 41.6364 79.4401 39.347 75.5C41.6364 71.5599 45.8753 69.125 50.5 69.125C55.1247 69.125 59.3636 71.5599 61.653 75.5C59.3641 79.4401 55.1247 81.875 50.5 81.875Z" fill="white"/>
<path d="M50.5 102.75C50.0032 102.758 49.51 102.837 49.0356 102.984C49.2551 103.37 49.3719 103.806 49.375 104.25C49.375 104.595 49.3071 104.936 49.1752 105.255C49.0433 105.573 48.8499 105.862 48.6062 106.106C48.3624 106.35 48.073 106.543 47.7545 106.675C47.4361 106.807 47.0947 106.875 46.75 106.875C46.306 106.872 45.8703 106.755 45.4844 106.536C45.1799 107.592 45.2154 108.717 45.5858 109.751C45.9562 110.786 46.6428 111.678 47.5484 112.301C48.4539 112.924 49.5324 113.246 50.6311 113.222C51.7299 113.197 52.7932 112.828 53.6704 112.166C54.5476 111.504 55.1942 110.583 55.5188 109.533C55.8433 108.483 55.8292 107.357 55.4785 106.315C55.1278 105.274 54.4582 104.369 53.5647 103.729C52.6712 103.089 51.599 102.747 50.5 102.75V102.75ZM63.8369 107.316C61.2949 102.356 56.2624 99 50.5 99C44.7376 99 39.7037 102.358 37.1631 107.316C37.0559 107.528 37 107.763 37 108C37 108.238 37.0559 108.472 37.1631 108.684C39.7051 113.644 44.7376 117 50.5 117C56.2624 117 61.2963 113.642 63.8369 108.684C63.9441 108.472 64 108.237 64 108C64 107.762 63.9441 107.528 63.8369 107.316V107.316ZM50.5 114.75C45.8758 114.75 41.6364 112.172 39.347 108C41.6364 103.828 45.8753 101.25 50.5 101.25C55.1247 101.25 59.3636 103.828 61.653 108C59.3641 112.172 55.1247 114.75 50.5 114.75Z" fill="white"/>
</svg>
