<svg width="100" height="150" viewBox="0 0 100 150" fill="none" xmlns="http://www.w3.org/2000/svg">
<rect width="100" height="150" rx="6" fill="#FF0000"/>
<path d="M15.7701 21.2517C15.6436 20.759 15.2709 20.371 14.7976 20.2393C13.9398 20 10.5 20 10.5 20C10.5 20 7.06022 20 6.20237 20.2393C5.7291 20.371 5.35636 20.759 5.22986 21.2517C5 22.1448 5 24.0081 5 24.0081C5 24.0081 5 25.8714 5.22986 26.7644C5.35636 27.2571 5.7291 27.629 6.20237 27.7607C7.06022 28 10.5 28 10.5 28C10.5 28 13.9398 28 14.7976 27.7607C15.2709 27.629 15.6436 27.2571 15.7701 26.7644C16 25.8714 16 24.0081 16 24.0081C16 24.0081 16 22.1448 15.7701 21.2517ZM9.37499 25.6998V22.3164L12.25 24.0081L9.37499 25.6998Z" fill="white"/>
<path d="M13.0262 12.1836H14.4764V14.2314H13.0262V17H10.4861V14.2314H5.23907L5.12482 12.6318L10.4598 4.20312H13.0262V12.1836ZM7.65607 12.1836H10.4861V7.66602L10.3192 7.95605L7.65607 12.1836Z" fill="white"/>
<path d="M85.2299 128.748C85.3564 129.241 85.7291 129.629 86.2024 129.761C87.0602 130 90.5 130 90.5 130C90.5 130 93.9398 130 94.7976 129.761C95.2709 129.629 95.6436 129.241 95.7701 128.748C96 127.855 96 125.992 96 125.992C96 125.992 96 124.129 95.7701 123.236C95.6436 122.743 95.2709 122.371 94.7976 122.239C93.9398 122 90.5 122 90.5 122C90.5 122 87.0602 122 86.2024 122.239C85.7291 122.371 85.3564 122.743 85.2299 123.236C85 124.129 85 125.992 85 125.992C85 125.992 85 127.855 85.2299 128.748ZM91.625 124.3L91.625 127.684L88.75 125.992L91.625 124.3Z" fill="white"/>
<path d="M87.9738 137.816L86.5236 137.816L86.5236 135.769L87.9738 135.769L87.9738 133L90.5139 133L90.5139 135.769L95.7609 135.769L95.8752 137.368L90.5402 145.797L87.9738 145.797L87.9738 137.816ZM93.3439 137.816L90.5139 137.816L90.5139 142.334L90.6808 142.044L93.3439 137.816Z" fill="white"/>
<path d="M33.5 36.5417C33.0032 36.549 32.51 36.6235 32.0356 36.763C32.2551 37.1275 32.3719 37.539 32.375 37.9583C32.375 38.2839 32.3071 38.6063 32.1752 38.9071C32.0433 39.2079 31.8499 39.4812 31.6062 39.7114C31.3624 39.9416 31.073 40.1242 30.7545 40.2488C30.4361 40.3734 30.0947 40.4375 29.75 40.4375C29.306 40.4346 28.8703 40.3242 28.4844 40.117C28.1799 41.1143 28.2154 42.1768 28.5858 43.1541C28.9562 44.1313 29.6428 44.9737 30.5484 45.5619C31.4539 46.1501 32.5324 46.4543 33.6311 46.4314C34.7299 46.4086 35.7932 46.0598 36.6704 45.4345C37.5476 44.8092 38.1942 43.9391 38.5188 42.9474C38.8433 41.9557 38.8292 40.8927 38.4785 39.909C38.1278 38.9253 37.4582 38.0708 36.5647 37.4664C35.6712 36.8621 34.599 36.5385 33.5 36.5417V36.5417ZM46.8369 40.8536C44.2949 36.1693 39.2624 33 33.5 33C27.7376 33 22.7037 36.1716 20.1631 40.8541C20.0559 41.0544 20 41.2757 20 41.5002C20 41.7247 20.0559 41.946 20.1631 42.1464C22.7051 46.8307 27.7376 50 33.5 50C39.2624 50 44.2963 46.8284 46.8369 42.1459C46.9441 41.9456 47 41.7243 47 41.4998C47 41.2753 46.9441 41.054 46.8369 40.8536V40.8536ZM33.5 47.875C28.8758 47.875 24.6364 45.4401 22.347 41.5C24.6364 37.5599 28.8753 35.125 33.5 35.125C38.1247 35.125 42.3636 37.5599 44.653 41.5C42.3641 45.4401 38.1247 47.875 33.5 47.875Z" fill="white"/>
<path d="M33.5 101.75C33.0032 101.758 32.51 101.837 32.0356 101.984C32.2551 102.37 32.3719 102.806 32.375 103.25C32.375 103.595 32.3071 103.936 32.1752 104.255C32.0433 104.573 31.8499 104.862 31.6062 105.106C31.3624 105.35 31.073 105.543 30.7545 105.675C30.4361 105.807 30.0947 105.875 29.75 105.875C29.306 105.872 28.8703 105.755 28.4844 105.536C28.1799 106.592 28.2154 107.717 28.5858 108.751C28.9562 109.786 29.6428 110.678 30.5484 111.301C31.4539 111.924 32.5324 112.246 33.6311 112.222C34.7299 112.197 35.7932 111.828 36.6704 111.166C37.5476 110.504 38.1942 109.583 38.5188 108.533C38.8433 107.483 38.8292 106.357 38.4785 105.315C38.1278 104.274 37.4582 103.369 36.5647 102.729C35.6712 102.089 34.599 101.747 33.5 101.75V101.75ZM46.8369 106.316C44.2949 101.356 39.2624 98 33.5 98C27.7376 98 22.7037 101.358 20.1631 106.316C20.0559 106.528 20 106.763 20 107C20 107.238 20.0559 107.472 20.1631 107.684C22.7051 112.644 27.7376 116 33.5 116C39.2624 116 44.2963 112.642 46.8369 107.684C46.9441 107.472 47 107.237 47 107C47 106.762 46.9441 106.528 46.8369 106.316V106.316ZM33.5 113.75C28.8758 113.75 24.6364 111.172 22.347 107C24.6364 102.828 28.8753 100.25 33.5 100.25C38.1247 100.25 42.3636 102.828 44.653 107C42.3641 111.172 38.1247 113.75 33.5 113.75Z" fill="white"/>
<path d="M71.5 36.5417C71.0032 36.549 70.51 36.6235 70.0356 36.763C70.2551 37.1275 70.3719 37.539 70.375 37.9583C70.375 38.2839 70.3071 38.6063 70.1752 38.9071C70.0433 39.2079 69.8499 39.4812 69.6062 39.7114C69.3624 39.9416 69.073 40.1242 68.7545 40.2488C68.4361 40.3734 68.0947 40.4375 67.75 40.4375C67.306 40.4346 66.8703 40.3242 66.4844 40.117C66.1799 41.1143 66.2154 42.1768 66.5858 43.1541C66.9562 44.1313 67.6428 44.9737 68.5484 45.5619C69.4539 46.1501 70.5324 46.4543 71.6311 46.4314C72.7299 46.4086 73.7932 46.0598 74.6704 45.4345C75.5476 44.8092 76.1942 43.9391 76.5188 42.9474C76.8433 41.9557 76.8292 40.8927 76.4785 39.909C76.1278 38.9253 75.4582 38.0708 74.5647 37.4664C73.6712 36.8621 72.599 36.5385 71.5 36.5417V36.5417ZM84.8369 40.8536C82.2949 36.1693 77.2624 33 71.5 33C65.7376 33 60.7037 36.1716 58.1631 40.8541C58.0559 41.0544 58 41.2757 58 41.5002C58 41.7247 58.0559 41.946 58.1631 42.1464C60.7051 46.8307 65.7376 50 71.5 50C77.2624 50 82.2963 46.8284 84.8369 42.1459C84.9441 41.9456 85 41.7243 85 41.4998C85 41.2753 84.9441 41.054 84.8369 40.8536V40.8536ZM71.5 47.875C66.8758 47.875 62.6364 45.4401 60.347 41.5C62.6364 37.5599 66.8753 35.125 71.5 35.125C76.1247 35.125 80.3636 37.5599 82.653 41.5C80.3641 45.4401 76.1247 47.875 71.5 47.875Z" fill="white"/>
<path d="M71.5 101.75C71.0032 101.758 70.51 101.837 70.0356 101.984C70.2551 102.37 70.3719 102.806 70.375 103.25C70.375 103.595 70.3071 103.936 70.1752 104.255C70.0433 104.573 69.8499 104.862 69.6062 105.106C69.3624 105.35 69.073 105.543 68.7545 105.675C68.4361 105.807 68.0947 105.875 67.75 105.875C67.306 105.872 66.8703 105.755 66.4844 105.536C66.1799 106.592 66.2154 107.717 66.5858 108.751C66.9562 109.786 67.6428 110.678 68.5484 111.301C69.4539 111.924 70.5324 112.246 71.6311 112.222C72.7299 112.197 73.7932 111.828 74.6704 111.166C75.5476 110.504 76.1942 109.583 76.5188 108.533C76.8433 107.483 76.8292 106.357 76.4785 105.315C76.1278 104.274 75.4582 103.369 74.5647 102.729C73.6712 102.089 72.599 101.747 71.5 101.75V101.75ZM84.8369 106.316C82.2949 101.356 77.2624 98 71.5 98C65.7376 98 60.7037 101.358 58.1631 106.316C58.0559 106.528 58 106.763 58 107C58 107.238 58.0559 107.472 58.1631 107.684C60.7051 112.644 65.7376 116 71.5 116C77.2624 116 82.2963 112.642 84.8369 107.684C84.9441 107.472 85 107.237 85 107C85 106.762 84.9441 106.528 84.8369 106.316V106.316ZM71.5 113.75C66.8758 113.75 62.6364 111.172 60.347 107C62.6364 102.828 66.8753 100.25 71.5 100.25C76.1247 100.25 80.3636 102.828 82.653 107C80.3641 111.172 76.1247 113.75 71.5 113.75Z" fill="white"/>
</svg>
