<svg width="100" height="150" viewBox="0 0 100 150" fill="none" xmlns="http://www.w3.org/2000/svg">
<rect width="100" height="150" rx="6" fill="#FF0000"/>
<path d="M15.7701 21.2517C15.6436 20.759 15.2709 20.371 14.7976 20.2393C13.9398 20 10.5 20 10.5 20C10.5 20 7.06022 20 6.20237 20.2393C5.7291 20.371 5.35636 20.759 5.22986 21.2517C5 22.1448 5 24.0081 5 24.0081C5 24.0081 5 25.8714 5.22986 26.7644C5.35636 27.2571 5.7291 27.629 6.20237 27.7607C7.06022 28 10.5 28 10.5 28C10.5 28 13.9398 28 14.7976 27.7607C15.2709 27.629 15.6436 27.2571 15.7701 26.7644C16 25.8714 16 24.0081 16 24.0081C16 24.0081 16 22.1448 15.7701 21.2517ZM9.37499 25.6998V22.3164L12.25 24.0081L9.37499 25.6998Z" fill="white"/>
<path d="M5.88947 10.707L6.62775 4.20312H13.7996V6.32129H8.71075L8.39435 9.07227C8.99786 8.75 9.63947 8.58887 10.3192 8.58887C11.5379 8.58887 12.493 8.9668 13.1844 9.72266C13.8758 10.4785 14.2215 11.5361 14.2215 12.8955C14.2215 13.7217 14.0457 14.4629 13.6942 15.1191C13.3484 15.7695 12.8504 16.2764 12.2 16.6396C11.5496 16.9971 10.782 17.1758 9.89728 17.1758C9.12384 17.1758 8.40607 17.0205 7.74396 16.71C7.08185 16.3936 6.55743 15.9512 6.17072 15.3828C5.78986 14.8145 5.58771 14.167 5.56427 13.4404H8.07794C8.13068 13.9736 8.31525 14.3896 8.63165 14.6885C8.95392 14.9814 9.37286 15.1279 9.88849 15.1279C10.4627 15.1279 10.9051 14.9229 11.2156 14.5127C11.5262 14.0967 11.6815 13.5107 11.6815 12.7549C11.6815 12.0283 11.5027 11.4717 11.1453 11.085C10.7879 10.6982 10.2811 10.5049 9.62482 10.5049C9.0213 10.5049 8.53204 10.6631 8.15704 10.9795L7.91095 11.208L5.88947 10.707Z" fill="white"/>
<path d="M85.2299 128.748C85.3564 129.241 85.7291 129.629 86.2024 129.761C87.0602 130 90.5 130 90.5 130C90.5 130 93.9398 130 94.7976 129.761C95.2709 129.629 95.6436 129.241 95.7701 128.748C96 127.855 96 125.992 96 125.992C96 125.992 96 124.129 95.7701 123.236C95.6436 122.743 95.2709 122.371 94.7976 122.239C93.9398 122 90.5 122 90.5 122C90.5 122 87.0602 122 86.2024 122.239C85.7291 122.371 85.3564 122.743 85.2299 123.236C85 124.129 85 125.992 85 125.992C85 125.992 85 127.855 85.2299 128.748ZM91.625 124.3L91.625 127.684L88.75 125.992L91.625 124.3Z" fill="white"/>
<path d="M95.1105 139.293L94.3723 145.797L87.2004 145.797L87.2004 143.679L92.2892 143.679L92.6057 140.928C92.0021 141.25 91.3605 141.411 90.6808 141.411C89.4621 141.411 88.507 141.033 87.8156 140.277C87.1242 139.521 86.7785 138.464 86.7785 137.104C86.7785 136.278 86.9543 135.537 87.3058 134.881C87.6516 134.23 88.1496 133.724 88.8 133.36C89.4504 133.003 90.218 132.824 91.1027 132.824C91.8762 132.824 92.5939 132.979 93.256 133.29C93.9182 133.606 94.4426 134.049 94.8293 134.617C95.2101 135.186 95.4123 135.833 95.4357 136.56L92.9221 136.56C92.8693 136.026 92.6848 135.61 92.3683 135.312C92.0461 135.019 91.6271 134.872 91.1115 134.872C90.5373 134.872 90.0949 135.077 89.7844 135.487C89.4738 135.903 89.3185 136.489 89.3185 137.245C89.3185 137.972 89.4973 138.528 89.8547 138.915C90.2121 139.302 90.7189 139.495 91.3752 139.495C91.9787 139.495 92.468 139.337 92.843 139.021L93.0891 138.792L95.1105 139.293Z" fill="white"/>
<path d="M33.5 36.5417C33.0032 36.549 32.51 36.6235 32.0356 36.763C32.2551 37.1275 32.3719 37.539 32.375 37.9583C32.375 38.2839 32.3071 38.6063 32.1752 38.9071C32.0433 39.2079 31.8499 39.4812 31.6062 39.7114C31.3624 39.9416 31.073 40.1242 30.7545 40.2488C30.4361 40.3734 30.0947 40.4375 29.75 40.4375C29.306 40.4346 28.8703 40.3242 28.4844 40.117C28.1799 41.1143 28.2154 42.1768 28.5858 43.1541C28.9562 44.1313 29.6428 44.9737 30.5484 45.5619C31.4539 46.1501 32.5324 46.4543 33.6311 46.4314C34.7299 46.4086 35.7932 46.0598 36.6704 45.4345C37.5476 44.8092 38.1942 43.9391 38.5188 42.9474C38.8433 41.9557 38.8292 40.8927 38.4785 39.909C38.1278 38.9253 37.4582 38.0708 36.5647 37.4664C35.6712 36.8621 34.599 36.5385 33.5 36.5417V36.5417ZM46.8369 40.8536C44.2949 36.1693 39.2624 33 33.5 33C27.7376 33 22.7037 36.1716 20.1631 40.8541C20.0559 41.0544 20 41.2757 20 41.5002C20 41.7247 20.0559 41.946 20.1631 42.1464C22.7051 46.8307 27.7376 50 33.5 50C39.2624 50 44.2963 46.8284 46.8369 42.1459C46.9441 41.9456 47 41.7243 47 41.4998C47 41.2753 46.9441 41.054 46.8369 40.8536V40.8536ZM33.5 47.875C28.8758 47.875 24.6364 45.4401 22.347 41.5C24.6364 37.5599 28.8753 35.125 33.5 35.125C38.1247 35.125 42.3636 37.5599 44.653 41.5C42.3641 45.4401 38.1247 47.875 33.5 47.875Z" fill="white"/>
<path d="M33.5 101.75C33.0032 101.758 32.51 101.837 32.0356 101.984C32.2551 102.37 32.3719 102.806 32.375 103.25C32.375 103.595 32.3071 103.936 32.1752 104.255C32.0433 104.573 31.8499 104.862 31.6062 105.106C31.3624 105.35 31.073 105.543 30.7545 105.675C30.4361 105.807 30.0947 105.875 29.75 105.875C29.306 105.872 28.8703 105.755 28.4844 105.536C28.1799 106.592 28.2154 107.717 28.5858 108.751C28.9562 109.786 29.6428 110.678 30.5484 111.301C31.4539 111.924 32.5324 112.246 33.6311 112.222C34.7299 112.197 35.7932 111.828 36.6704 111.166C37.5476 110.504 38.1942 109.583 38.5188 108.533C38.8433 107.483 38.8292 106.357 38.4785 105.315C38.1278 104.274 37.4582 103.369 36.5647 102.729C35.6712 102.089 34.599 101.747 33.5 101.75V101.75ZM46.8369 106.316C44.2949 101.356 39.2624 98 33.5 98C27.7376 98 22.7037 101.358 20.1631 106.316C20.0559 106.528 20 106.763 20 107C20 107.238 20.0559 107.472 20.1631 107.684C22.7051 112.644 27.7376 116 33.5 116C39.2624 116 44.2963 112.642 46.8369 107.684C46.9441 107.472 47 107.237 47 107C47 106.762 46.9441 106.528 46.8369 106.316V106.316ZM33.5 113.75C28.8758 113.75 24.6364 111.172 22.347 107C24.6364 102.828 28.8753 100.25 33.5 100.25C38.1247 100.25 42.3636 102.828 44.653 107C42.3641 111.172 38.1247 113.75 33.5 113.75Z" fill="white"/>
<path d="M71.5 36.5417C71.0032 36.549 70.51 36.6235 70.0356 36.763C70.2551 37.1275 70.3719 37.539 70.375 37.9583C70.375 38.2839 70.3071 38.6063 70.1752 38.9071C70.0433 39.2079 69.8499 39.4812 69.6062 39.7114C69.3624 39.9416 69.073 40.1242 68.7545 40.2488C68.4361 40.3734 68.0947 40.4375 67.75 40.4375C67.306 40.4346 66.8703 40.3242 66.4844 40.117C66.1799 41.1143 66.2154 42.1768 66.5858 43.1541C66.9562 44.1313 67.6428 44.9737 68.5484 45.5619C69.4539 46.1501 70.5324 46.4543 71.6311 46.4314C72.7299 46.4086 73.7932 46.0598 74.6704 45.4345C75.5476 44.8092 76.1942 43.9391 76.5188 42.9474C76.8433 41.9557 76.8292 40.8927 76.4785 39.909C76.1278 38.9253 75.4582 38.0708 74.5647 37.4664C73.6712 36.8621 72.599 36.5385 71.5 36.5417V36.5417ZM84.8369 40.8536C82.2949 36.1693 77.2624 33 71.5 33C65.7376 33 60.7037 36.1716 58.1631 40.8541C58.0559 41.0544 58 41.2757 58 41.5002C58 41.7247 58.0559 41.946 58.1631 42.1464C60.7051 46.8307 65.7376 50 71.5 50C77.2624 50 82.2963 46.8284 84.8369 42.1459C84.9441 41.9456 85 41.7243 85 41.4998C85 41.2753 84.9441 41.054 84.8369 40.8536V40.8536ZM71.5 47.875C66.8758 47.875 62.6364 45.4401 60.347 41.5C62.6364 37.5599 66.8753 35.125 71.5 35.125C76.1247 35.125 80.3636 37.5599 82.653 41.5C80.3641 45.4401 76.1247 47.875 71.5 47.875Z" fill="white"/>
<path d="M51.5 69.5417C51.0032 69.549 50.51 69.6235 50.0356 69.763C50.2551 70.1275 50.3719 70.539 50.375 70.9583C50.375 71.2839 50.3071 71.6063 50.1752 71.9071C50.0433 72.2079 49.8499 72.4812 49.6062 72.7114C49.3624 72.9416 49.073 73.1242 48.7545 73.2488C48.4361 73.3734 48.0947 73.4375 47.75 73.4375C47.306 73.4346 46.8703 73.3242 46.4844 73.117C46.1799 74.1143 46.2154 75.1768 46.5858 76.1541C46.9562 77.1313 47.6428 77.9737 48.5484 78.5619C49.4539 79.1501 50.5324 79.4543 51.6311 79.4314C52.7299 79.4086 53.7932 79.0598 54.6704 78.4345C55.5476 77.8092 56.1942 76.9391 56.5188 75.9474C56.8433 74.9557 56.8292 73.8927 56.4785 72.909C56.1278 71.9253 55.4582 71.0708 54.5647 70.4664C53.6712 69.8621 52.599 69.5385 51.5 69.5417V69.5417ZM64.8369 73.8536C62.2949 69.1693 57.2624 66 51.5 66C45.7376 66 40.7037 69.1716 38.1631 73.8541C38.0559 74.0544 38 74.2757 38 74.5002C38 74.7247 38.0559 74.946 38.1631 75.1464C40.7051 79.8307 45.7376 83 51.5 83C57.2624 83 62.2963 79.8284 64.8369 75.1459C64.9441 74.9456 65 74.7243 65 74.4998C65 74.2753 64.9441 74.054 64.8369 73.8536V73.8536ZM51.5 80.875C46.8758 80.875 42.6364 78.4401 40.347 74.5C42.6364 70.5599 46.8753 68.125 51.5 68.125C56.1247 68.125 60.3636 70.5599 62.653 74.5C60.3641 78.4401 56.1247 80.875 51.5 80.875Z" fill="white"/>
<path d="M71.5 101.75C71.0032 101.758 70.51 101.837 70.0356 101.984C70.2551 102.37 70.3719 102.806 70.375 103.25C70.375 103.595 70.3071 103.936 70.1752 104.255C70.0433 104.573 69.8499 104.862 69.6062 105.106C69.3624 105.35 69.073 105.543 68.7545 105.675C68.4361 105.807 68.0947 105.875 67.75 105.875C67.306 105.872 66.8703 105.755 66.4844 105.536C66.1799 106.592 66.2154 107.717 66.5858 108.751C66.9562 109.786 67.6428 110.678 68.5484 111.301C69.4539 111.924 70.5324 112.246 71.6311 112.222C72.7299 112.197 73.7932 111.828 74.6704 111.166C75.5476 110.504 76.1942 109.583 76.5188 108.533C76.8433 107.483 76.8292 106.357 76.4785 105.315C76.1278 104.274 75.4582 103.369 74.5647 102.729C73.6712 102.089 72.599 101.747 71.5 101.75V101.75ZM84.8369 106.316C82.2949 101.356 77.2624 98 71.5 98C65.7376 98 60.7037 101.358 58.1631 106.316C58.0559 106.528 58 106.763 58 107C58 107.238 58.0559 107.472 58.1631 107.684C60.7051 112.644 65.7376 116 71.5 116C77.2624 116 82.2963 112.642 84.8369 107.684C84.9441 107.472 85 107.237 85 107C85 106.762 84.9441 106.528 84.8369 106.316V106.316ZM71.5 113.75C66.8758 113.75 62.6364 111.172 60.347 107C62.6364 102.828 66.8753 100.25 71.5 100.25C76.1247 100.25 80.3636 102.828 82.653 107C80.3641 111.172 76.1247 113.75 71.5 113.75Z" fill="white"/>
</svg>
