<svg width="100" height="150" viewBox="0 0 100 150" fill="none" xmlns="http://www.w3.org/2000/svg">
<rect width="100" height="150" rx="6" fill="#FF0000"/>
<path d="M17.7701 22.2517C17.6436 21.759 17.2709 21.371 16.7976 21.2393C15.9398 21 12.5 21 12.5 21C12.5 21 9.06022 21 8.20237 21.2393C7.7291 21.371 7.35636 21.759 7.22986 22.2517C7 23.1448 7 25.0081 7 25.0081C7 25.0081 7 26.8714 7.22986 27.7644C7.35636 28.2571 7.7291 28.629 8.20237 28.7607C9.06022 29 12.5 29 12.5 29C12.5 29 15.9398 29 16.7976 28.7607C17.2709 28.629 17.6436 28.2571 17.7701 27.7644C18 26.8714 18 25.0081 18 25.0081C18 25.0081 18 23.1448 17.7701 22.2517ZM11.375 26.6998V23.3164L14.25 25.0081L11.375 26.6998Z" fill="white"/>
<path d="M9.89923 18H7.64142V9.29688L4.94611 10.1328V8.29688L9.65704 6.60938H9.89923V18ZM19.2586 13.2969C19.2586 14.8698 18.9331 16.0729 18.282 16.9062C17.631 17.7396 16.6779 18.1562 15.4227 18.1562C14.1831 18.1562 13.2352 17.7474 12.5789 16.9297C11.9227 16.112 11.5867 14.9401 11.5711 13.4141V11.3203C11.5711 9.73177 11.8992 8.52604 12.5555 7.70312C13.2169 6.88021 14.1675 6.46875 15.407 6.46875C16.6466 6.46875 17.5945 6.8776 18.2508 7.69531C18.907 8.50781 19.243 9.67708 19.2586 11.2031V13.2969ZM17.0008 11C17.0008 10.0573 16.8706 9.3724 16.6102 8.94531C16.355 8.51302 15.9539 8.29688 15.407 8.29688C14.8758 8.29688 14.4826 8.5026 14.2274 8.91406C13.9774 9.32031 13.8445 9.95833 13.8289 10.8281V13.5938C13.8289 14.5208 13.9539 15.2109 14.2039 15.6641C14.4591 16.112 14.8654 16.3359 15.4227 16.3359C15.9748 16.3359 16.3732 16.1198 16.618 15.6875C16.8628 15.2552 16.9904 14.5938 17.0008 13.7031V11Z" fill="white"/>
<path d="M82.2299 129.748C82.3564 130.241 82.7291 130.629 83.2024 130.761C84.0602 131 87.5 131 87.5 131C87.5 131 90.9398 131 91.7976 130.761C92.2709 130.629 92.6436 130.241 92.7701 129.748C93 128.855 93 126.992 93 126.992C93 126.992 93 125.129 92.7701 124.236C92.6436 123.743 92.2709 123.371 91.7976 123.239C90.9398 123 87.5 123 87.5 123C87.5 123 84.0602 123 83.2024 123.239C82.7291 123.371 82.3564 123.743 82.2299 124.236C82 125.129 82 126.992 82 126.992C82 126.992 82 128.855 82.2299 129.748ZM88.625 125.3L88.625 128.684L85.75 126.992L88.625 125.3Z" fill="white"/>
<path d="M89.3836 134L91.6414 134L91.6414 142.703L94.3367 141.867L94.3367 143.703L89.6258 145.391L89.3836 145.391L89.3836 134ZM80.0242 138.703C80.0242 137.13 80.3498 135.927 81.0008 135.094C81.6518 134.26 82.605 133.844 83.8602 133.844C85.0998 133.844 86.0477 134.253 86.7039 135.07C87.3602 135.888 87.6961 137.06 87.7117 138.586L87.7117 140.68C87.7117 142.268 87.3836 143.474 86.7274 144.297C86.0659 145.12 85.1154 145.531 83.8758 145.531C82.6362 145.531 81.6883 145.122 81.032 144.305C80.3758 143.492 80.0399 142.323 80.0242 140.797L80.0242 138.703ZM82.282 141C82.282 141.943 82.4123 142.628 82.6727 143.055C82.9279 143.487 83.3289 143.703 83.8758 143.703C84.407 143.703 84.8003 143.497 85.0555 143.086C85.3055 142.68 85.4383 142.042 85.4539 141.172L85.4539 138.406C85.4539 137.479 85.3289 136.789 85.0789 136.336C84.8237 135.888 84.4175 135.664 83.8602 135.664C83.3081 135.664 82.9096 135.88 82.6649 136.312C82.4201 136.745 82.2925 137.406 82.282 138.297L82.282 141Z" fill="white"/>
<path d="M74.5 42.2917C74.1872 42.2964 73.8767 42.3446 73.578 42.4349C73.7162 42.6707 73.7897 42.937 73.7917 43.2083C73.7917 43.419 73.7489 43.6276 73.6659 43.8222C73.5828 44.0168 73.4611 44.1937 73.3076 44.3427C73.1541 44.4916 72.9719 44.6098 72.7714 44.6904C72.5709 44.771 72.3559 44.8125 72.1389 44.8125C71.8594 44.8106 71.585 44.7392 71.342 44.6051C71.1503 45.2504 71.1726 45.938 71.4059 46.5703C71.6391 47.2026 72.0714 47.7477 72.6416 48.1283C73.2117 48.5089 73.8908 48.7057 74.5826 48.6909C75.2744 48.6761 75.9439 48.4505 76.4962 48.0458C77.0485 47.6412 77.4556 47.0782 77.66 46.4365C77.8643 45.7949 77.8554 45.1071 77.6346 44.4705C77.4138 43.834 76.9922 43.2811 76.4296 42.89C75.8671 42.499 75.192 42.2896 74.5 42.2917V42.2917ZM82.8973 45.0818C81.2968 42.0508 78.1281 40 74.5 40C70.8719 40 67.7023 42.0522 66.1027 45.0821C66.0352 45.2117 66 45.3549 66 45.5001C66 45.6454 66.0352 45.7886 66.1027 45.9182C67.7032 48.9492 70.8719 51 74.5 51C78.1281 51 81.2977 48.9478 82.8973 45.9179C82.9648 45.7883 83 45.6451 83 45.4999C83 45.3546 82.9648 45.2114 82.8973 45.0818V45.0818ZM74.5 49.625C71.5884 49.625 68.9192 48.0495 67.4777 45.5C68.9192 42.9505 71.5882 41.375 74.5 41.375C77.4118 41.375 80.0808 42.9505 81.5223 45.5C80.0811 48.0495 77.4118 49.625 74.5 49.625Z" fill="white"/>
<path d="M74.5 70.2917C74.1872 70.2964 73.8767 70.3446 73.578 70.4349C73.7162 70.6707 73.7897 70.937 73.7917 71.2083C73.7917 71.419 73.7489 71.6276 73.6659 71.8222C73.5828 72.0168 73.4611 72.1937 73.3076 72.3427C73.1541 72.4916 72.9719 72.6098 72.7714 72.6904C72.5709 72.771 72.3559 72.8125 72.1389 72.8125C71.8594 72.8106 71.585 72.7392 71.342 72.6051C71.1503 73.2504 71.1726 73.938 71.4059 74.5703C71.6391 75.2026 72.0714 75.7477 72.6416 76.1283C73.2117 76.5089 73.8908 76.7057 74.5826 76.6909C75.2744 76.6761 75.9439 76.4505 76.4962 76.0458C77.0485 75.6412 77.4556 75.0782 77.66 74.4365C77.8643 73.7949 77.8554 73.1071 77.6346 72.4705C77.4138 71.834 76.9922 71.2811 76.4296 70.89C75.8671 70.499 75.192 70.2896 74.5 70.2917V70.2917ZM82.8973 73.0818C81.2968 70.0508 78.1281 68 74.5 68C70.8719 68 67.7023 70.0522 66.1027 73.0821C66.0352 73.2117 66 73.3549 66 73.5001C66 73.6454 66.0352 73.7886 66.1027 73.9182C67.7032 76.9492 70.8719 79 74.5 79C78.1281 79 81.2977 76.9478 82.8973 73.9179C82.9648 73.7883 83 73.6451 83 73.4999C83 73.3546 82.9648 73.2114 82.8973 73.0818V73.0818ZM74.5 77.625C71.5884 77.625 68.9192 76.0495 67.4777 73.5C68.9192 70.9505 71.5882 69.375 74.5 69.375C77.4118 69.375 80.0808 70.9505 81.5223 73.5C80.0811 76.0495 77.4118 77.625 74.5 77.625Z" fill="white"/>
<path d="M74.5 98.2917C74.1872 98.2964 73.8767 98.3446 73.578 98.4349C73.7162 98.6707 73.7897 98.937 73.7917 99.2083C73.7917 99.419 73.7489 99.6276 73.6659 99.8222C73.5828 100.017 73.4611 100.194 73.3076 100.343C73.1541 100.492 72.9719 100.61 72.7714 100.69C72.5709 100.771 72.3559 100.813 72.1389 100.813C71.8594 100.811 71.585 100.739 71.342 100.605C71.1503 101.25 71.1726 101.938 71.4059 102.57C71.6391 103.203 72.0714 103.748 72.6416 104.128C73.2117 104.509 73.8908 104.706 74.5826 104.691C75.2744 104.676 75.9439 104.45 76.4962 104.046C77.0485 103.641 77.4556 103.078 77.66 102.437C77.8643 101.795 77.8554 101.107 77.6346 100.471C77.4138 99.834 76.9922 99.2811 76.4296 98.89C75.8671 98.499 75.192 98.2896 74.5 98.2917V98.2917ZM82.8973 101.082C81.2968 98.0508 78.1281 96 74.5 96C70.8719 96 67.7023 98.0522 66.1027 101.082C66.0352 101.212 66 101.355 66 101.5C66 101.645 66.0352 101.789 66.1027 101.918C67.7032 104.949 70.8719 107 74.5 107C78.1281 107 81.2977 104.948 82.8973 101.918C82.9648 101.788 83 101.645 83 101.5C83 101.355 82.9648 101.211 82.8973 101.082V101.082ZM74.5 105.625C71.5884 105.625 68.9192 104.049 67.4777 101.5C68.9192 98.9505 71.5882 97.375 74.5 97.375C77.4118 97.375 80.0808 98.9505 81.5223 101.5C80.0811 104.049 77.4118 105.625 74.5 105.625Z" fill="white"/>
<path d="M29.5 42.2917C29.1872 42.2964 28.8767 42.3446 28.578 42.4349C28.7162 42.6707 28.7897 42.937 28.7917 43.2083C28.7917 43.419 28.7489 43.6276 28.6659 43.8222C28.5828 44.0168 28.4611 44.1937 28.3076 44.3427C28.1541 44.4916 27.9719 44.6098 27.7714 44.6904C27.5709 44.771 27.3559 44.8125 27.1389 44.8125C26.8594 44.8106 26.585 44.7392 26.342 44.6051C26.1503 45.2504 26.1726 45.938 26.4059 46.5703C26.6391 47.2026 27.0714 47.7477 27.6416 48.1283C28.2117 48.5089 28.8908 48.7057 29.5826 48.6909C30.2744 48.6761 30.9439 48.4505 31.4962 48.0458C32.0485 47.6412 32.4556 47.0782 32.66 46.4365C32.8643 45.7949 32.8554 45.1071 32.6346 44.4705C32.4138 43.834 31.9922 43.2811 31.4296 42.89C30.8671 42.499 30.192 42.2896 29.5 42.2917V42.2917ZM37.8973 45.0818C36.2968 42.0508 33.1281 40 29.5 40C25.8719 40 22.7023 42.0522 21.1027 45.0821C21.0352 45.2117 21 45.3549 21 45.5001C21 45.6454 21.0352 45.7886 21.1027 45.9182C22.7032 48.9492 25.8719 51 29.5 51C33.1281 51 36.2977 48.9478 37.8973 45.9179C37.9648 45.7883 38 45.6451 38 45.4999C38 45.3546 37.9648 45.2114 37.8973 45.0818V45.0818ZM29.5 49.625C26.5884 49.625 23.9192 48.0495 22.4777 45.5C23.9192 42.9505 26.5882 41.375 29.5 41.375C32.4118 41.375 35.0808 42.9505 36.5223 45.5C35.0811 48.0495 32.4118 49.625 29.5 49.625Z" fill="white"/>
<path d="M29.5 70.2917C29.1872 70.2964 28.8767 70.3446 28.578 70.4349C28.7162 70.6707 28.7897 70.937 28.7917 71.2083C28.7917 71.419 28.7489 71.6276 28.6659 71.8222C28.5828 72.0168 28.4611 72.1937 28.3076 72.3427C28.1541 72.4916 27.9719 72.6098 27.7714 72.6904C27.5709 72.771 27.3559 72.8125 27.1389 72.8125C26.8594 72.8106 26.585 72.7392 26.342 72.6051C26.1503 73.2504 26.1726 73.938 26.4059 74.5703C26.6391 75.2026 27.0714 75.7477 27.6416 76.1283C28.2117 76.5089 28.8908 76.7057 29.5826 76.6909C30.2744 76.6761 30.9439 76.4505 31.4962 76.0458C32.0485 75.6412 32.4556 75.0782 32.66 74.4365C32.8643 73.7949 32.8554 73.1071 32.6346 72.4705C32.4138 71.834 31.9922 71.2811 31.4296 70.89C30.8671 70.499 30.192 70.2896 29.5 70.2917V70.2917ZM37.8973 73.0818C36.2968 70.0508 33.1281 68 29.5 68C25.8719 68 22.7023 70.0522 21.1027 73.0821C21.0352 73.2117 21 73.3549 21 73.5001C21 73.6454 21.0352 73.7886 21.1027 73.9182C22.7032 76.9492 25.8719 79 29.5 79C33.1281 79 36.2977 76.9478 37.8973 73.9179C37.9648 73.7883 38 73.6451 38 73.4999C38 73.3546 37.9648 73.2114 37.8973 73.0818V73.0818ZM29.5 77.625C26.5884 77.625 23.9192 76.0495 22.4777 73.5C23.9192 70.9505 26.5882 69.375 29.5 69.375C32.4118 69.375 35.0808 70.9505 36.5223 73.5C35.0811 76.0495 32.4118 77.625 29.5 77.625Z" fill="white"/>
<path d="M29.5 98.2917C29.1872 98.2964 28.8767 98.3446 28.578 98.4349C28.7162 98.6707 28.7897 98.937 28.7917 99.2083C28.7917 99.419 28.7489 99.6276 28.6659 99.8222C28.5828 100.017 28.4611 100.194 28.3076 100.343C28.1541 100.492 27.9719 100.61 27.7714 100.69C27.5709 100.771 27.3559 100.813 27.1389 100.813C26.8594 100.811 26.585 100.739 26.342 100.605C26.1503 101.25 26.1726 101.938 26.4059 102.57C26.6391 103.203 27.0714 103.748 27.6416 104.128C28.2117 104.509 28.8908 104.706 29.5826 104.691C30.2744 104.676 30.9439 104.45 31.4962 104.046C32.0485 103.641 32.4556 103.078 32.66 102.437C32.8643 101.795 32.8554 101.107 32.6346 100.471C32.4138 99.834 31.9922 99.2811 31.4296 98.89C30.8671 98.499 30.192 98.2896 29.5 98.2917V98.2917ZM37.8973 101.082C36.2968 98.0508 33.1281 96 29.5 96C25.8719 96 22.7023 98.0522 21.1027 101.082C21.0352 101.212 21 101.355 21 101.5C21 101.645 21.0352 101.789 21.1027 101.918C22.7032 104.949 25.8719 107 29.5 107C33.1281 107 36.2977 104.948 37.8973 101.918C37.9648 101.788 38 101.645 38 101.5C38 101.355 37.9648 101.211 37.8973 101.082V101.082ZM29.5 105.625C26.5884 105.625 23.9192 104.049 22.4777 101.5C23.9192 98.9505 26.5882 97.375 29.5 97.375C32.4118 97.375 35.0808 98.9505 36.5223 101.5C35.0811 104.049 32.4118 105.625 29.5 105.625Z" fill="white"/>
<path d="M52.5 29.2917C52.1872 29.2964 51.8767 29.3446 51.578 29.4349C51.7162 29.6707 51.7897 29.937 51.7917 30.2083C51.7917 30.419 51.7489 30.6276 51.6659 30.8222C51.5828 31.0168 51.4611 31.1937 51.3076 31.3427C51.1541 31.4916 50.9719 31.6098 50.7714 31.6904C50.5709 31.771 50.3559 31.8125 50.1389 31.8125C49.8594 31.8106 49.585 31.7392 49.342 31.6051C49.1503 32.2504 49.1726 32.938 49.4059 33.5703C49.6391 34.2026 50.0714 34.7477 50.6416 35.1283C51.2117 35.5089 51.8908 35.7057 52.5826 35.6909C53.2744 35.6761 53.9439 35.4505 54.4962 35.0458C55.0485 34.6412 55.4556 34.0782 55.66 33.4365C55.8643 32.7949 55.8554 32.1071 55.6346 31.4705C55.4138 30.834 54.9922 30.2811 54.4296 29.89C53.8671 29.499 53.192 29.2896 52.5 29.2917V29.2917ZM60.8973 32.0818C59.2968 29.0508 56.1281 27 52.5 27C48.8719 27 45.7023 29.0522 44.1027 32.0821C44.0352 32.2117 44 32.3549 44 32.5001C44 32.6454 44.0352 32.7886 44.1027 32.9182C45.7032 35.9492 48.8719 38 52.5 38C56.1281 38 59.2977 35.9478 60.8973 32.9179C60.9648 32.7883 61 32.6451 61 32.4999C61 32.3546 60.9648 32.2114 60.8973 32.0818V32.0818ZM52.5 36.625C49.5884 36.625 46.9192 35.0495 45.4777 32.5C46.9192 29.9505 49.5882 28.375 52.5 28.375C55.4118 28.375 58.0808 29.9505 59.5223 32.5C58.0811 35.0495 55.4118 36.625 52.5 36.625Z" fill="white"/>
<path d="M52.5 57.2917C52.1872 57.2964 51.8767 57.3446 51.578 57.4349C51.7162 57.6707 51.7897 57.937 51.7917 58.2083C51.7917 58.419 51.7489 58.6276 51.6659 58.8222C51.5828 59.0168 51.4611 59.1937 51.3076 59.3427C51.1541 59.4916 50.9719 59.6098 50.7714 59.6904C50.5709 59.771 50.3559 59.8125 50.1389 59.8125C49.8594 59.8106 49.585 59.7392 49.342 59.6051C49.1503 60.2504 49.1726 60.938 49.4059 61.5703C49.6391 62.2026 50.0714 62.7477 50.6416 63.1283C51.2117 63.5089 51.8908 63.7057 52.5826 63.6909C53.2744 63.6761 53.9439 63.4505 54.4962 63.0458C55.0485 62.6412 55.4556 62.0782 55.66 61.4365C55.8643 60.7949 55.8554 60.1071 55.6346 59.4705C55.4138 58.834 54.9922 58.2811 54.4296 57.89C53.8671 57.499 53.192 57.2896 52.5 57.2917V57.2917ZM60.8973 60.0818C59.2968 57.0508 56.1281 55 52.5 55C48.8719 55 45.7023 57.0522 44.1027 60.0821C44.0352 60.2117 44 60.3549 44 60.5001C44 60.6454 44.0352 60.7886 44.1027 60.9182C45.7032 63.9492 48.8719 66 52.5 66C56.1281 66 59.2977 63.9478 60.8973 60.9179C60.9648 60.7883 61 60.6451 61 60.4999C61 60.3546 60.9648 60.2114 60.8973 60.0818V60.0818ZM52.5 64.625C49.5884 64.625 46.9192 63.0495 45.4777 60.5C46.9192 57.9505 49.5882 56.375 52.5 56.375C55.4118 56.375 58.0808 57.9505 59.5223 60.5C58.0811 63.0495 55.4118 64.625 52.5 64.625Z" fill="white"/>
<path d="M52.5 85.2917C52.1872 85.2964 51.8767 85.3446 51.578 85.4349C51.7162 85.6707 51.7897 85.937 51.7917 86.2083C51.7917 86.419 51.7489 86.6276 51.6659 86.8222C51.5828 87.0168 51.4611 87.1937 51.3076 87.3427C51.1541 87.4916 50.9719 87.6098 50.7714 87.6904C50.5709 87.771 50.3559 87.8125 50.1389 87.8125C49.8594 87.8106 49.585 87.7392 49.342 87.6051C49.1503 88.2504 49.1726 88.938 49.4059 89.5703C49.6391 90.2026 50.0714 90.7477 50.6416 91.1283C51.2117 91.5089 51.8908 91.7057 52.5826 91.6909C53.2744 91.6761 53.9439 91.4505 54.4962 91.0458C55.0485 90.6412 55.4556 90.0782 55.66 89.4365C55.8643 88.7949 55.8554 88.1071 55.6346 87.4705C55.4138 86.834 54.9922 86.2811 54.4296 85.89C53.8671 85.499 53.192 85.2896 52.5 85.2917V85.2917ZM60.8973 88.0818C59.2968 85.0508 56.1281 83 52.5 83C48.8719 83 45.7023 85.0522 44.1027 88.0821C44.0352 88.2117 44 88.3549 44 88.5001C44 88.6454 44.0352 88.7886 44.1027 88.9182C45.7032 91.9492 48.8719 94 52.5 94C56.1281 94 59.2977 91.9478 60.8973 88.9179C60.9648 88.7883 61 88.6451 61 88.4999C61 88.3546 60.9648 88.2114 60.8973 88.0818V88.0818ZM52.5 92.625C49.5884 92.625 46.9192 91.0495 45.4777 88.5C46.9192 85.9505 49.5882 84.375 52.5 84.375C55.4118 84.375 58.0808 85.9505 59.5223 88.5C58.0811 91.0495 55.4118 92.625 52.5 92.625Z" fill="white"/>
<path d="M52.5 113.292C52.1872 113.296 51.8767 113.345 51.578 113.435C51.7162 113.671 51.7897 113.937 51.7917 114.208C51.7917 114.419 51.7489 114.628 51.6659 114.822C51.5828 115.017 51.4611 115.194 51.3076 115.343C51.1541 115.492 50.9719 115.61 50.7714 115.69C50.5709 115.771 50.3559 115.813 50.1389 115.813C49.8594 115.811 49.585 115.739 49.342 115.605C49.1503 116.25 49.1726 116.938 49.4059 117.57C49.6391 118.203 50.0714 118.748 50.6416 119.128C51.2117 119.509 51.8908 119.706 52.5826 119.691C53.2744 119.676 53.9439 119.45 54.4962 119.046C55.0485 118.641 55.4556 118.078 55.66 117.437C55.8643 116.795 55.8554 116.107 55.6346 115.471C55.4138 114.834 54.9922 114.281 54.4296 113.89C53.8671 113.499 53.192 113.29 52.5 113.292V113.292ZM60.8973 116.082C59.2968 113.051 56.1281 111 52.5 111C48.8719 111 45.7023 113.052 44.1027 116.082C44.0352 116.212 44 116.355 44 116.5C44 116.645 44.0352 116.789 44.1027 116.918C45.7032 119.949 48.8719 122 52.5 122C56.1281 122 59.2977 119.948 60.8973 116.918C60.9648 116.788 61 116.645 61 116.5C61 116.355 60.9648 116.211 60.8973 116.082V116.082ZM52.5 120.625C49.5884 120.625 46.9192 119.049 45.4777 116.5C46.9192 113.951 49.5882 112.375 52.5 112.375C55.4118 112.375 58.0808 113.951 59.5223 116.5C58.0811 119.049 55.4118 120.625 52.5 120.625Z" fill="white"/>
</svg>
