<svg width="100" height="150" viewBox="0 0 100 150" fill="none" xmlns="http://www.w3.org/2000/svg">
<rect width="100" height="150" rx="6" fill="#FF0000"/>
<path d="M15.7701 21.2517C15.6436 20.759 15.2709 20.371 14.7976 20.2393C13.9398 20 10.5 20 10.5 20C10.5 20 7.06022 20 6.20237 20.2393C5.7291 20.371 5.35636 20.759 5.22986 21.2517C5 22.1448 5 24.0081 5 24.0081C5 24.0081 5 25.8714 5.22986 26.7644C5.35636 27.2571 5.7291 27.629 6.20237 27.7607C7.06022 28 10.5 28 10.5 28C10.5 28 13.9398 28 14.7976 27.7607C15.2709 27.629 15.6436 27.2571 15.7701 26.7644C16 25.8714 16 24.0081 16 24.0081C16 24.0081 16 22.1448 15.7701 21.2517ZM9.37499 25.6998V22.3164L12.25 24.0081L9.37499 25.6998Z" fill="white"/>
<path d="M16.2781 10.8916C16.2781 12.0869 16.0848 13.127 15.6981 14.0117C15.3113 14.8906 14.7752 15.5967 14.0897 16.1299L16.2166 17.7998L14.5379 19.2852L11.8133 17.0967C11.5027 17.1494 11.1805 17.1758 10.8465 17.1758C9.78595 17.1758 8.83966 16.9209 8.00763 16.4111C7.1756 15.9014 6.53107 15.1748 6.07404 14.2314C5.617 13.2822 5.38556 12.1924 5.3797 10.9619V10.3291C5.3797 9.06934 5.60529 7.96191 6.05646 7.00684C6.51349 6.0459 7.15509 5.31055 7.98126 4.80078C8.81329 4.28516 9.76251 4.02734 10.8289 4.02734C11.8953 4.02734 12.8416 4.28516 13.6678 4.80078C14.4998 5.31055 15.1414 6.0459 15.5926 7.00684C16.0496 7.96191 16.2781 9.06641 16.2781 10.3203V10.8916ZM13.6063 10.3115C13.6063 8.96973 13.366 7.9502 12.8856 7.25293C12.4051 6.55566 11.7195 6.20703 10.8289 6.20703C9.94415 6.20703 9.26154 6.55273 8.78107 7.24414C8.3006 7.92969 8.05743 8.9375 8.05157 10.2676V10.8916C8.05157 12.1982 8.29181 13.2119 8.77228 13.9326C9.25275 14.6533 9.94415 15.0137 10.8465 15.0137C11.7313 15.0137 12.4109 14.668 12.8856 13.9766C13.3602 13.2793 13.6004 12.2656 13.6063 10.9355V10.3115Z" fill="white"/>
<path d="M85.2299 128.748C85.3564 129.241 85.7291 129.629 86.2024 129.761C87.0602 130 90.5 130 90.5 130C90.5 130 93.9398 130 94.7976 129.761C95.2709 129.629 95.6436 129.241 95.7701 128.748C96 127.855 96 125.992 96 125.992C96 125.992 96 124.129 95.7701 123.236C95.6436 122.743 95.2709 122.371 94.7976 122.239C93.9398 122 90.5 122 90.5 122C90.5 122 87.0602 122 86.2024 122.239C85.7291 122.371 85.3564 122.743 85.2299 123.236C85 124.129 85 125.992 85 125.992C85 125.992 85 127.855 85.2299 128.748ZM91.625 124.3L91.625 127.684L88.75 125.992L91.625 124.3Z" fill="white"/>
<path d="M84.7219 139.108C84.7219 137.913 84.9152 136.873 85.3019 135.988C85.6887 135.109 86.2248 134.403 86.9103 133.87L84.7834 132.2L86.4621 130.715L89.1867 132.903C89.4973 132.851 89.8195 132.824 90.1535 132.824C91.2141 132.824 92.1603 133.079 92.9924 133.589C93.8244 134.099 94.4689 134.825 94.926 135.769C95.383 136.718 95.6144 137.808 95.6203 139.038L95.6203 139.671C95.6203 140.931 95.3947 142.038 94.9435 142.993C94.4865 143.954 93.8449 144.689 93.0187 145.199C92.1867 145.715 91.2375 145.973 90.1711 145.973C89.1047 145.973 88.1584 145.715 87.3322 145.199C86.5002 144.689 85.8586 143.954 85.4074 142.993C84.9504 142.038 84.7219 140.934 84.7219 139.68L84.7219 139.108ZM87.3937 139.688C87.3937 141.03 87.634 142.05 88.1144 142.747C88.5949 143.444 89.2805 143.793 90.1711 143.793C91.0558 143.793 91.7385 143.447 92.2189 142.756C92.6994 142.07 92.9426 141.062 92.9484 139.732L92.9484 139.108C92.9484 137.802 92.7082 136.788 92.2277 136.067C91.7473 135.347 91.0558 134.986 90.1535 134.986C89.2687 134.986 88.5891 135.332 88.1144 136.023C87.6398 136.721 87.3996 137.734 87.3937 139.064L87.3937 139.688Z" fill="white"/>
<path d="M73.9761 62.6328C73.4126 60.4156 71.7522 58.6694 69.644 58.0768C65.8227 57 50.5 57 50.5 57C50.5 57 35.1773 57 31.356 58.0768C29.2478 58.6695 27.5874 60.4156 27.0239 62.6328C26 66.6516 26 75.0364 26 75.0364C26 75.0364 26 83.4212 27.0239 87.44C27.5874 89.6572 29.2478 91.3306 31.356 91.9232C35.1773 93 50.5 93 50.5 93C50.5 93 65.8226 93 69.644 91.9232C71.7522 91.3306 73.4126 89.6572 73.9761 87.44C75 83.4212 75 75.0364 75 75.0364C75 75.0364 75 66.6516 73.9761 62.6328ZM45.4886 82.6492V67.4236L58.2954 75.0366L45.4886 82.6492Z" fill="white"/>
</svg>
