<svg width="100" height="150" viewBox="0 0 100 150" fill="none" xmlns="http://www.w3.org/2000/svg">
<rect width="100" height="150" rx="6" fill="#FF0000"/>
<path d="M15.7701 21.2517C15.6436 20.759 15.2709 20.371 14.7976 20.2393C13.9398 20 10.5 20 10.5 20C10.5 20 7.06022 20 6.20237 20.2393C5.7291 20.371 5.35636 20.759 5.22986 21.2517C5 22.1448 5 24.0081 5 24.0081C5 24.0081 5 25.8714 5.22986 26.7644C5.35636 27.2571 5.7291 27.629 6.20237 27.7607C7.06022 28 10.5 28 10.5 28C10.5 28 13.9398 28 14.7976 27.7607C15.2709 27.629 15.6436 27.2571 15.7701 26.7644C16 25.8714 16 24.0081 16 24.0081C16 24.0081 16 22.1448 15.7701 21.2517ZM9.37499 25.6998V22.3164L12.25 24.0081L9.37499 25.6998Z" fill="white"/>
<path d="M9.79181 11.8672L8.42072 13.3438V17H5.784V4.20312H8.42072V10.0039L9.58087 8.41309L12.8416 4.20312H16.0848L11.5408 9.88965L16.2166 17H13.0789L9.79181 11.8672Z" fill="white"/>
<path d="M85.2299 128.748C85.3564 129.241 85.7291 129.629 86.2024 129.761C87.0602 130 90.5 130 90.5 130C90.5 130 93.9398 130 94.7976 129.761C95.2709 129.629 95.6436 129.241 95.7701 128.748C96 127.855 96 125.992 96 125.992C96 125.992 96 124.129 95.7701 123.236C95.6436 122.743 95.2709 122.371 94.7976 122.239C93.9398 122 90.5 122 90.5 122C90.5 122 87.0602 122 86.2024 122.239C85.7291 122.371 85.3564 122.743 85.2299 123.236C85 124.129 85 125.992 85 125.992C85 125.992 85 127.855 85.2299 128.748ZM91.625 124.3L91.625 127.684L88.75 125.992L91.625 124.3Z" fill="white"/>
<path d="M91.2082 138.133L92.5793 136.656L92.5793 133L95.216 133L95.216 145.797L92.5793 145.797L92.5793 139.996L91.4191 141.587L88.1584 145.797L84.9152 145.797L89.4592 140.11L84.7834 133L87.9211 133L91.2082 138.133Z" fill="white"/>
<path d="M73.9761 62.6328C73.4126 60.4156 71.7522 58.6694 69.644 58.0768C65.8227 57 50.5 57 50.5 57C50.5 57 35.1773 57 31.356 58.0768C29.2478 58.6695 27.5874 60.4156 27.0239 62.6328C26 66.6516 26 75.0364 26 75.0364C26 75.0364 26 83.4212 27.0239 87.44C27.5874 89.6572 29.2478 91.3306 31.356 91.9232C35.1773 93 50.5 93 50.5 93C50.5 93 65.8226 93 69.644 91.9232C71.7522 91.3306 73.4126 89.6572 73.9761 87.44C75 83.4212 75 75.0364 75 75.0364C75 75.0364 75 66.6516 73.9761 62.6328ZM45.4886 82.6492V67.4236L58.2954 75.0366L45.4886 82.6492Z" fill="white"/>
</svg>
